<svg xmlns="http://www.w3.org/2000/svg" width="16px" height="16px" viewBox="0 0 24 24" fill="currentColor" class="icon icon-tabler icons-tabler-filled icon-tabler-layout"><path stroke="none" d="M0 0h24v24H0z" fill="none"></path><path d="M8 3a3 3 0 0 1 3 3v1a3 3 0 0 1 -3 3h-2a3 3 0 0 1 -3 -3v-1a3 3 0 0 1 3 -3z"></path><path d="M8 12a3 3 0 0 1 3 3v3a3 3 0 0 1 -3 3h-2a3 3 0 0 1 -3 -3v-3a3 3 0 0 1 3 -3z"></path><path d="M18 3a3 3 0 0 1 3 3v12a3 3 0 0 1 -3 3h-2a3 3 0 0 1 -3 -3v-12a3 3 0 0 1 3 -3z"></path></svg>