<?xml version="1.0" encoding="UTF-8"?>
<svg version="1.1" xmlns="http://www.w3.org/2000/svg" width="512" height="512">
<path d="M0 0 C0.7286174 -0.0066568 1.4572348 -0.0133136 2.20793152 -0.02017212 C3.74512217 -0.03026432 5.28235633 -0.0349902 6.81958008 -0.03466797 C9.15065187 -0.03903009 11.47981092 -0.07535107 13.81054688 -0.11328125 C23.31546123 -0.18909491 29.92089566 0.28236295 37.12890625 6.87109375 C39.80959549 10.4197202 40.77884265 14.4746112 42.02905273 18.68798828 C44.65761391 27.81092619 44.65761391 27.81092619 50.46337891 35.00537109 C55.13581389 37.42656844 60.07390802 38.6466305 65.18847656 39.77832031 C68.8889603 40.73054033 72.00033815 42.63492101 75.25 44.5859375 C78.87845134 45.87844707 81.83949538 44.98696437 85.31225586 43.49560547 C86.75413306 42.80712204 88.19122619 42.1085527 89.62402344 41.40136719 C97.8417477 37.36072371 105.03039336 34.51539372 114.35546875 36.3359375 C117.54296875 37.7734375 117.54296875 37.7734375 120.35546875 40.3359375 C121.11214844 40.99207031 121.86882812 41.64820313 122.6484375 42.32421875 C143.52288444 60.60909739 143.52288444 60.60909739 144.61352539 69.42089844 C144.88574358 76.71070882 142.81973453 82.0376894 139.79296875 88.5859375 C135.66333026 96.6746892 135.66333026 96.6746892 136.35546875 105.3359375 C137.39428208 107.94246671 138.53842098 110.48372455 139.73046875 113.0234375 C141.99254389 117.90161746 143.69519696 122.32304447 144.66796875 127.6484375 C145.22469035 130.24417236 145.22469035 130.24417236 146.35546875 132.3359375 C148.61094032 133.67482381 150.62564778 134.10249766 153.1953125 134.6171875 C161.71419156 136.5547323 171.95064848 140.2806741 177.41015625 147.3671875 C181.03832177 154.92336693 180.68866983 162.46362556 180.66796875 170.7109375 C180.68408203 171.98710937 180.70019531 173.26328125 180.71679688 174.578125 C180.72092024 182.56096384 180.48471278 189.79530762 175.83984375 196.53515625 C169.59316909 201.89547842 159.77304008 207.3359375 151.35546875 207.3359375 C151.35546875 207.9959375 151.35546875 208.6559375 151.35546875 209.3359375 C151.94102539 209.49666748 152.52658203 209.65739746 153.12988281 209.82299805 C160.01559739 211.79140548 166.51713737 214.35598696 173.10546875 217.1484375 C175.63982369 218.21160344 178.17480195 219.2731323 180.7109375 220.33203125 C181.42160873 220.62905945 182.13227997 220.92608765 182.86448669 221.2321167 C189.83851164 224.13806448 196.84025776 226.97454675 203.84375 229.80859375 C205.63161423 230.53297386 205.63161423 230.53297386 207.45559692 231.27198792 C214.73781099 234.22247303 214.73781099 234.22247303 222.02355957 237.16421509 C225.48104379 238.55820732 228.93601031 239.9582893 232.390625 241.359375 C233.41795242 241.77159805 234.44527985 242.18382111 235.5037384 242.60853577 C259.21598926 252.25276472 259.21598926 252.25276472 264.51171875 262.59375 C266.58939064 269.34618364 266.74726459 279.39829463 263.85546875 285.8984375 C258.11440833 294.90596334 249.08136407 298.85146319 239.35546875 302.3359375 C238.69546875 302.3359375 238.03546875 302.3359375 237.35546875 302.3359375 C237.35546875 302.9959375 237.35546875 303.6559375 237.35546875 304.3359375 C238.0825 304.46871094 238.80953125 304.60148437 239.55859375 304.73828125 C249.30995525 306.82202191 256.48817745 311.39285675 262.8046875 319.10546875 C266.72713616 325.42267554 266.21356807 333.20769139 265.35546875 340.3359375 C263.31943824 347.20979272 259.53033834 352.64773282 253.35546875 356.3359375 C249.69230763 358.06001665 246.02721819 359.62968851 242.26953125 361.13671875 C239.50887108 362.0542678 239.50887108 362.0542678 238.35546875 363.3359375 C239.45246094 363.79484375 240.54945313 364.25375 241.6796875 364.7265625 C243.13429027 365.34594174 244.58870763 365.96575652 246.04296875 366.5859375 C246.76419922 366.88628906 247.48542969 367.18664062 248.22851562 367.49609375 C254.11818023 370.02407764 258.74911047 372.74275585 262.10546875 378.3984375 C262.5128125 379.07003906 262.92015625 379.74164063 263.33984375 380.43359375 C266.69146752 386.71144288 266.57511768 396.14615905 264.6015625 402.92578125 C263.63843279 404.89358744 262.65784901 406.57531233 261.35546875 408.3359375 C260.81229004 409.11839844 260.26911133 409.90085937 259.70947266 410.70703125 C256.9636387 413.77352575 254.08418705 415.38084002 250.42578125 417.109375 C249.72800568 417.44786469 249.0302301 417.78635437 248.31130981 418.13510132 C240.07899889 422.05593002 231.62118052 425.4372 223.15008545 428.8013916 C219.07233908 430.42089668 215.00076931 432.05569392 210.92861938 433.68920898 C208.76077659 434.55863233 206.59262024 435.42727425 204.42416382 436.29516602 C192.99370432 440.87210081 181.59231478 445.51970507 170.19268799 450.17279053 C164.45338159 452.51535837 158.71303009 454.85536185 152.97265625 457.1953125 C151.87496918 457.64280853 150.7772821 458.09030457 149.64633179 458.55136108 C139.67698169 462.61458616 129.70056438 466.66022376 119.72158813 470.69973755 C109.85575801 474.69390818 99.99607232 478.70292929 90.140625 482.72265625 C88.97943649 483.19626083 87.81824799 483.66986542 86.62187195 484.15782166 C85.44961563 484.63594803 84.27735931 485.1140744 83.06958008 485.60668945 C47.07152157 500.28900537 47.07152157 500.28900537 31.16796875 506.6484375 C29.37178101 507.36713013 29.37178101 507.36713013 27.53930664 508.1003418 C15.82095323 512.77190146 5.74292333 514.36142386 -6.33520508 509.44335938 C-7.36540771 508.99541016 -8.39561035 508.54746094 -9.45703125 508.0859375 C-11.25798543 507.34228542 -13.05896318 506.59868977 -14.86039734 505.85620117 C-16.91308054 505.00547183 -18.96065992 504.14324436 -21.0078125 503.27929688 C-26.2238638 501.08440697 -31.46469763 498.95150698 -36.70703125 496.8203125 C-38.71144175 496.00508484 -40.71583596 495.18981712 -42.72021484 494.37451172 C-43.74153503 493.95909119 -44.76285522 493.54367065 -45.81512451 493.11566162 C-50.06910316 491.38298158 -54.32012624 489.64311516 -58.57113647 487.90316772 C-71.64355404 482.55282321 -84.73322445 477.24629637 -97.83203125 471.9609375 C-115.91945424 464.66119899 -133.9873518 457.31444949 -152.04763794 449.94784546 C-170.55826816 442.39825709 -189.08459651 434.88828123 -207.625 427.41210938 C-211.90690724 425.68516243 -216.18719203 423.95427268 -220.46566772 422.21884155 C-221.85410473 421.65622868 -223.24306792 421.0949114 -224.63272095 420.53530884 C-226.32465406 419.85350611 -228.01400894 419.16531468 -229.703125 418.4765625 C-230.58282959 418.11981445 -231.46253418 417.76306641 -232.36889648 417.39550781 C-238.82263727 414.39054751 -242.82192455 409.75085647 -245.76171875 403.31640625 C-247.88465185 396.14915867 -248.14127752 387.60143763 -244.95703125 380.7109375 C-239.10389072 371.26841462 -229.70302823 367.02542717 -219.64453125 363.3359375 C-220.71832031 362.82804687 -221.79210937 362.32015625 -222.8984375 361.796875 C-242.31343215 352.46975122 -242.31343215 352.46975122 -245.984375 343.09375 C-247.67360805 336.03695397 -248.10057255 327.60579994 -245.14453125 320.8359375 C-239.73527608 312.18861608 -230.95512657 307.81308185 -221.64453125 304.3359375 C-220.65453125 304.3359375 -219.66453125 304.3359375 -218.64453125 304.3359375 C-218.64453125 303.6759375 -218.64453125 303.0159375 -218.64453125 302.3359375 C-219.32773438 302.23410156 -220.0109375 302.13226563 -220.71484375 302.02734375 C-230.07054897 299.81939732 -239.50710847 294.62734768 -244.64453125 286.3359375 C-248.04735728 279.5186717 -247.88385225 270.57397271 -245.76953125 263.34375 C-241.21008655 253.47495192 -233.58371587 249.43366729 -223.83203125 245.5234375 C-222.17518311 244.84063721 -222.17518311 244.84063721 -220.48486328 244.14404297 C-217.27549024 242.82639284 -214.06116966 241.52237165 -210.84381104 240.22442627 C-208.50698548 239.28037028 -206.17200338 238.33186753 -203.83740234 237.38232422 C-194.9636814 233.77329755 -186.0844599 230.17822553 -177.19921875 226.59765625 C-170.42618557 223.86817612 -163.6602006 221.12230904 -156.90234375 218.35546875 C-155.40186471 217.74200214 -153.90137669 217.12855749 -152.40087891 216.51513672 C-150.28960878 215.65188389 -148.17882004 214.78754858 -146.06951904 213.91949463 C-144.1686773 213.13732593 -142.26602985 212.35954971 -140.36328125 211.58203125 C-138.7690332 210.92738892 -138.7690332 210.92738892 -137.14257812 210.25952148 C-134.64453125 209.3359375 -134.64453125 209.3359375 -132.64453125 209.3359375 C-132.64453125 208.6759375 -132.64453125 208.0159375 -132.64453125 207.3359375 C-133.31484375 207.22765625 -133.98515625 207.119375 -134.67578125 207.0078125 C-138.30141939 206.18727334 -141.69286843 204.93926273 -145.14453125 203.5859375 C-145.79550781 203.34617188 -146.44648438 203.10640625 -147.1171875 202.859375 C-153.45591736 200.37510512 -157.51644484 196.435706 -160.64453125 190.3359375 C-162.37768825 185.00999694 -161.86893248 179.24684451 -161.88476562 173.71118164 C-161.89441844 171.67226527 -161.92544297 169.63438102 -161.95703125 167.59570312 C-162.02030273 151.5642929 -162.02030273 151.5642929 -157.28540039 145.63354492 C-152.48506457 141.02837409 -146.44753852 138.82201319 -140.33203125 136.4609375 C-138.8305957 135.85765625 -138.8305957 135.85765625 -137.29882812 135.2421875 C-129.9788345 132.3359375 -129.9788345 132.3359375 -127.64453125 132.3359375 C-127.45890625 131.45808594 -127.45890625 131.45808594 -127.26953125 130.5625 C-125.49322213 123.16861331 -122.63692454 116.57359404 -119.25 109.79541016 C-116.90050216 104.85691309 -116.11805123 101.79627118 -117.64453125 96.3359375 C-119.20439547 92.3522151 -121.00900171 88.48750972 -122.84960938 84.62695312 C-125.97558246 77.66841267 -127.1095946 71.40393008 -124.47265625 64.08203125 C-122.36710038 60.91919839 -120.01093643 58.13803064 -117.39453125 55.3984375 C-116.90291504 54.87556152 -116.41129883 54.35268555 -115.90478516 53.81396484 C-114.92923004 52.78010069 -113.95032713 51.74938319 -112.96777344 50.72216797 C-111.86187248 49.56362449 -110.77085125 48.39090117 -109.68359375 47.21484375 C-104.02825089 41.25416547 -98.39363576 36.10120583 -89.89453125 35.3984375 C-82.25244457 35.68818486 -75.70556828 38.94751185 -68.89160156 42.22094727 C-68.02631836 42.63143311 -67.16103516 43.04191895 -66.26953125 43.46484375 C-65.49867188 43.84713135 -64.7278125 44.22941895 -63.93359375 44.62329102 C-58.20538873 46.40663471 -52.81076171 42.63604608 -47.78710938 40.12695312 C-47.17158203 39.82853516 -46.55605469 39.53011719 -45.921875 39.22265625 C-44.94069702 38.74505859 -44.94069702 38.74505859 -43.93969727 38.2578125 C-41.64453125 37.3359375 -41.64453125 37.3359375 -38.65991211 36.6484375 C-32.34637353 35.16705309 -32.34637353 35.16705309 -27.8605957 30.77319336 C-26.46799799 27.54067867 -25.35775442 24.3276102 -24.33203125 20.9609375 C-19.58864719 6.3194122 -19.58864719 6.3194122 -12.64453125 2.3359375 C-8.46643732 0.23961163 -4.59372447 0.0147574 0 0 Z M-3.64453125 18.3359375 C-6.697893 24.9778343 -9.67549265 31.63800924 -12.45703125 38.3984375 C-12.76833984 39.14287109 -13.07964844 39.88730469 -13.40039062 40.65429688 C-15.05592323 44.37029691 -15.05592323 44.37029691 -15.64453125 48.3359375 C-16.18078125 48.48289062 -16.71703125 48.62984375 -17.26953125 48.78125 C-29.57500429 52.30288209 -41.2042722 56.75899614 -52.36328125 63.015625 C-58.90272517 65.64697267 -63.20138018 64.71187338 -69.5 62.078125 C-72.70252609 60.65344984 -75.88355078 59.1870922 -79.06445312 57.71484375 C-80.61036133 57.02841797 -80.61036133 57.02841797 -82.1875 56.328125 C-83.1158667 55.89870605 -84.0442334 55.46928711 -85.00073242 55.02685547 C-88.35030486 54.15149394 -89.65140057 54.67301885 -92.64453125 56.3359375 C-94.51552846 57.77025973 -94.51552846 57.77025973 -96.16015625 59.48828125 C-96.77117187 60.09994141 -97.3821875 60.71160156 -98.01171875 61.34179688 C-98.63304687 61.97923828 -99.254375 62.61667969 -99.89453125 63.2734375 C-100.84972656 64.22379883 -100.84972656 64.22379883 -101.82421875 65.19335938 C-105.46946161 68.78088944 -105.46946161 68.78088944 -107.64453125 73.3359375 C-106.86732353 75.87523517 -106.86732353 75.87523517 -105.58984375 78.6328125 C-105.13996094 79.674375 -104.69007813 80.7159375 -104.2265625 81.7890625 C-103.50533203 83.42101562 -103.50533203 83.42101562 -102.76953125 85.0859375 C-95.62588109 101.28080653 -95.62588109 101.28080653 -97.25146484 106.15625 C-98.16390378 108.15634073 -99.18653286 110.04807244 -100.26953125 111.9609375 C-101.02005712 113.37265261 -101.76611172 114.78675337 -102.5078125 116.203125 C-102.87471191 116.90018555 -103.24161133 117.59724609 -103.61962891 118.31542969 C-107.6070227 126.17623746 -110.11759032 134.32240515 -111.67578125 142.97265625 C-112.64453125 145.3359375 -112.64453125 145.3359375 -114.83496094 146.33691406 C-116.22569824 146.83143066 -116.22569824 146.83143066 -117.64453125 147.3359375 C-118.58393555 147.70855713 -119.52333984 148.08117676 -120.49121094 148.46508789 C-121.50602539 148.86719482 -122.52083984 149.26930176 -123.56640625 149.68359375 C-125.8424807 150.5884592 -128.11852126 151.49340991 -130.39453125 152.3984375 C-131.55597656 152.85798828 -132.71742188 153.31753906 -133.9140625 153.79101562 C-135.01621094 154.22994141 -136.11835938 154.66886719 -137.25390625 155.12109375 C-138.26420898 155.52207275 -139.27451172 155.92305176 -140.31542969 156.33618164 C-142.56241679 157.13020232 -142.56241679 157.13020232 -143.64453125 158.3359375 C-143.98084439 162.45258063 -143.96951499 166.58232239 -144.01953125 170.7109375 C-144.05691406 171.87367188 -144.09429687 173.03640625 -144.1328125 174.234375 C-144.14441406 175.348125 -144.15601563 176.461875 -144.16796875 177.609375 C-144.18778809 178.63466309 -144.20760742 179.65995117 -144.22802734 180.71630859 C-143.89571573 183.51073728 -143.89571573 183.51073728 -141.46386719 185.04980469 C-138.66760703 186.32541072 -135.87844722 187.53174614 -133.01171875 188.640625 C-131.95855469 189.05957031 -130.90539062 189.47851562 -129.8203125 189.91015625 C-127.61567411 190.77896641 -125.40728678 191.63832168 -123.1953125 192.48828125 C-122.14472656 192.90980469 -121.09414062 193.33132812 -120.01171875 193.765625 C-119.05378418 194.13929199 -118.09584961 194.51295898 -117.10888672 194.89794922 C-113.09802324 197.23834806 -111.61533918 200.79675015 -110.35546875 205.12890625 C-110.14027588 205.83289551 -109.92508301 206.53688477 -109.70336914 207.26220703 C-109.36486938 208.38151611 -109.36486938 208.38151611 -109.01953125 209.5234375 C-106.62026604 217.2045668 -103.46036107 224.16645679 -99.45263672 231.14526367 C-97.21481023 235.24826285 -96.02069492 238.32173081 -96.95336914 243.11279297 C-98.79744439 249.04431864 -101.65013802 254.603806 -104.31445312 260.19921875 C-104.76755859 261.18792969 -105.22066406 262.17664063 -105.6875 263.1953125 C-106.1105542 264.08702148 -106.5336084 264.97873047 -106.96948242 265.89746094 C-107.86661706 268.2828776 -107.86661706 268.2828776 -106.99780273 270.4140625 C-105.4737833 272.57842855 -103.83673138 274.36901039 -101.94921875 276.2265625 C-100.87607422 277.29003906 -100.87607422 277.29003906 -99.78125 278.375 C-99.03488281 279.10460937 -98.28851563 279.83421875 -97.51953125 280.5859375 C-96.76542969 281.33101563 -96.01132813 282.07609375 -95.234375 282.84375 C-93.37552353 284.6790717 -91.5121612 286.5095566 -89.64453125 288.3359375 C-86.45644577 287.06656957 -83.2691719 285.79517566 -80.08203125 284.5234375 C-79.18677734 284.16701172 -78.29152344 283.81058594 -77.36914062 283.44335938 C-76.48935547 283.09208984 -75.60957031 282.74082031 -74.703125 282.37890625 C-73.83413574 282.0339209 -72.96514648 281.68893555 -72.06982422 281.33349609 C-69.98448044 280.47576359 -67.96487862 279.54202979 -65.9296875 278.57421875 C-62.14843909 277.14894438 -59.65607399 276.86611718 -55.64453125 277.3359375 C-52.48828125 278.8046875 -52.48828125 278.8046875 -49.14453125 280.8359375 C-41.58421176 285.23128808 -33.65313711 287.94241396 -25.32617188 290.54492188 C-23.89821289 291.00608398 -23.89821289 291.00608398 -22.44140625 291.4765625 C-21.58901367 291.73985352 -20.73662109 292.00314453 -19.85839844 292.27441406 C-15.26475711 294.47701138 -14.02269078 298.54957616 -12.375 303.125 C-11.96056641 304.23101562 -11.54613281 305.33703125 -11.11914062 306.4765625 C-10.25992226 308.80258005 -9.41357701 311.13339276 -8.58007812 313.46875 C-8.16177734 314.5721875 -7.74347656 315.675625 -7.3125 316.8125 C-6.94406982 317.82393066 -6.57563965 318.83536133 -6.19604492 319.87744141 C-4.79994309 322.58828155 -4.79994309 322.58828155 -1.7199707 323.66455078 C1.99858188 324.47633292 5.56967261 324.62863445 9.35546875 324.5859375 C10.04125 324.59367187 10.72703125 324.60140625 11.43359375 324.609375 C15.81860216 324.59263833 19.37071495 324.17920919 23.35546875 322.3359375 C25.11351058 319.66028249 25.11351058 319.66028249 26.20703125 316.33984375 C26.6659375 315.14166016 27.12484375 313.94347656 27.59765625 312.70898438 C28.06027073 311.4394119 28.52119222 310.16922132 28.98046875 308.8984375 C29.89479815 306.41419183 30.82818583 303.93919944 31.76953125 301.46484375 C32.3720874 299.81077515 32.3720874 299.81077515 32.98681641 298.12329102 C34.81519703 294.39966962 36.69960413 292.99726505 40.49926758 291.47973633 C41.26263428 291.25310303 42.02600098 291.02646973 42.8125 290.79296875 C43.67085449 290.52750244 44.52920898 290.26203613 45.41357422 289.98852539 C46.77699951 289.57268188 46.77699951 289.57268188 48.16796875 289.1484375 C56.45685729 286.5357444 63.70362079 283.33768908 71.12890625 278.83984375 C75.82710503 276.65000534 79.61259953 276.78275608 84.53686523 278.34570312 C85.58946533 278.80654297 86.64206543 279.26738281 87.7265625 279.7421875 C89.45229492 280.48662109 89.45229492 280.48662109 91.21289062 281.24609375 C92.39431641 281.77074219 93.57574219 282.29539062 94.79296875 282.8359375 C96.00146484 283.36058594 97.20996094 283.88523437 98.45507812 284.42578125 C101.4270092 285.7179252 104.39332543 287.02154797 107.35546875 288.3359375 C112.05888001 284.41305492 116.49820826 280.32575054 120.79296875 275.9609375 C121.60411133 275.14302734 121.60411133 275.14302734 122.43164062 274.30859375 C123.74193598 272.98670286 125.04905159 271.66166132 126.35546875 270.3359375 C124.89195813 265.62817066 123.29279817 261.04928924 121.27734375 256.546875 C120.74367188 255.35191406 120.74367188 255.35191406 120.19921875 254.1328125 C119.46446061 252.50584804 118.71948925 250.88346091 117.96484375 249.265625 C115.71539973 244.17129589 114.73899588 240.87725549 116.35546875 235.3359375 C117.79199087 231.94533359 119.43218734 228.67743243 121.10546875 225.3984375 C125.01821975 217.54601291 127.95264815 210.00684071 130.02734375 201.48828125 C132.11165028 196.54111839 135.2740038 195.22462881 139.96582031 193.22143555 C142.99778959 192.00869825 146.04556511 190.85127426 149.10546875 189.7109375 C151.18540958 188.93191438 153.26363176 188.14828225 155.33984375 187.359375 C156.71221191 186.84769775 156.71221191 186.84769775 158.11230469 186.32568359 C160.49780816 185.43459001 160.49780816 185.43459001 162.35546875 183.3359375 C162.63374127 180.7143733 162.63374127 180.7143733 162.55078125 177.671875 C162.54433594 176.55039063 162.53789062 175.42890625 162.53125 174.2734375 C162.51449219 173.0978125 162.49773437 171.9221875 162.48046875 170.7109375 C162.46693359 168.93589844 162.46693359 168.93589844 162.453125 167.125 C162.42949687 164.19511227 162.39655389 161.2656241 162.35546875 158.3359375 C156.37334228 155.23693135 150.31028155 152.61373471 144.04296875 150.1484375 C143.15029297 149.79330078 142.25761719 149.43816406 141.33789062 149.07226562 C138.02590521 147.75893506 134.73619448 146.46284608 131.35546875 145.3359375 C130.6171875 143.140625 130.6171875 143.140625 130.04296875 140.2109375 C128.91893027 135.29545316 127.48181211 130.63659546 125.60546875 125.9609375 C125.22865967 125.02193604 125.22865967 125.02193604 124.84423828 124.06396484 C123.49289148 120.79883685 122.02825262 117.63923766 120.375 114.515625 C120.04918945 113.8973584 119.72337891 113.2790918 119.38769531 112.64208984 C118.47132459 110.93531477 117.52557527 109.24440772 116.578125 107.5546875 C113.92450105 100.56878931 117.29057165 94.85101686 120.14453125 88.43359375 C121.12410171 86.27277656 122.11382026 84.11653308 123.11328125 81.96484375 C123.56960938 80.92972656 124.0259375 79.89460938 124.49609375 78.828125 C125.13853027 77.42602783 125.13853027 77.42602783 125.79394531 75.99560547 C126.6423608 73.27625924 126.6423608 73.27625924 125.15893555 70.69873047 C122.63651838 67.39401227 119.86217513 64.5136958 116.91796875 61.5859375 C116.05848633 60.70228516 116.05848633 60.70228516 115.18164062 59.80078125 C114.62154297 59.24003906 114.06144531 58.67929687 113.484375 58.1015625 C112.9797876 57.59399414 112.4752002 57.08642578 111.95532227 56.56347656 C109.99911225 55.06251152 108.81934639 54.56227797 106.35546875 54.3359375 C103.73451335 55.11424977 103.73451335 55.11424977 100.99609375 56.42578125 C99.96226562 56.88017578 98.9284375 57.33457031 97.86328125 57.80273438 C95.70584932 58.77668296 93.54958016 59.7532117 91.39453125 60.73242188 C79.09788157 66.12555545 79.09788157 66.12555545 72.03222656 63.45922852 C69.42440983 62.27016026 66.89361369 60.97947319 64.35546875 59.6484375 C55.50827998 55.20606924 46.89467499 51.95860929 37.35546875 49.3359375 C36.36546875 49.0059375 35.37546875 48.6759375 34.35546875 48.3359375 C33.55126953 46.63867188 33.55126953 46.63867188 32.92578125 44.4296875 C31.30836894 39.10719903 29.30736087 33.9939333 27.23046875 28.8359375 C26.69099609 27.47855469 26.69099609 27.47855469 26.140625 26.09375 C25.79644531 25.23523438 25.45226562 24.37671875 25.09765625 23.4921875 C24.78683105 22.71681641 24.47600586 21.94144531 24.15576172 21.14257812 C23.49287503 19.35330168 23.49287503 19.35330168 22.35546875 18.3359375 C20.42879368 18.24845543 18.49895014 18.22896416 16.5703125 18.23828125 C14.81557617 18.24311523 14.81557617 18.24311523 13.02539062 18.24804688 C11.1778418 18.26061523 11.1778418 18.26061523 9.29296875 18.2734375 C8.05740234 18.27794922 6.82183594 18.28246094 5.54882812 18.28710938 C2.48432758 18.29894142 -0.58007846 18.31542577 -3.64453125 18.3359375 Z M-129.55053711 226.75024414 C-130.31308807 227.0627562 -131.07563904 227.37526825 -131.86129761 227.69725037 C-133.09784592 228.21642784 -133.09784592 228.21642784 -134.359375 228.74609375 C-135.23030792 229.10506241 -136.10124084 229.46403107 -136.99856567 229.83387756 C-139.86238403 231.01573398 -142.72213064 232.2071359 -145.58203125 233.3984375 C-147.56860444 234.2200236 -149.55550574 235.04081674 -151.54272461 235.86083984 C-154.58640641 237.11687905 -157.62988432 238.37338523 -160.6723175 239.63244629 C-169.55461188 243.30727152 -178.46067984 246.92134014 -187.37460327 250.51861572 C-191.8543846 252.32848747 -196.32998844 254.14865907 -200.80592346 255.96801758 C-204.88413663 257.62472748 -208.967863 259.26695638 -213.0546875 260.90234375 C-214.79325844 261.60866236 -216.53157192 262.31561531 -218.26953125 263.0234375 C-219.00953369 263.31428223 -219.74953613 263.60512695 -220.51196289 263.90478516 C-224.23707658 265.44030021 -226.71861761 266.71606331 -228.64453125 270.3359375 C-229.31119792 273.8359375 -229.31119792 273.8359375 -228.64453125 277.3359375 C-225.12969292 280.71627739 -221.41207175 282.49775625 -216.93359375 284.33984375 C-216.27093506 284.61485718 -215.60827637 284.88987061 -214.92553711 285.17321777 C-212.71016774 286.08986532 -210.49000347 286.99422822 -208.26953125 287.8984375 C-206.6669294 288.55796456 -205.0645592 289.21805477 -203.46240234 289.87866211 C-198.19565111 292.04557331 -192.92108262 294.19301732 -187.64453125 296.3359375 C-186.75072754 296.69896973 -185.85692383 297.06200195 -184.93603516 297.43603516 C-175.40835618 301.30360511 -165.87431436 305.15533687 -156.33734131 308.99992371 C-141.88384094 314.82712059 -127.44959852 320.70098403 -113.01953125 326.5859375 C-94.96617068 333.95036449 -94.96617068 333.95036449 -76.90234375 341.2890625 C-76.16141479 341.58934357 -75.42048584 341.88962463 -74.65710449 342.19900513 C-71.07715926 343.64932591 -67.49650695 345.09787713 -63.91503906 346.54443359 C-55.70739269 349.86226795 -47.51241259 353.20940791 -39.32733154 356.58258057 C-34.99492278 358.36797667 -30.66031989 360.14802074 -26.32534409 361.92717361 C-23.25843115 363.18639337 -20.19324087 364.44957978 -17.13012695 365.71801758 C-13.70296152 367.13695871 -10.27186795 368.54598459 -6.83984375 369.953125 C-5.29860336 370.59572769 -5.29860336 370.59572769 -3.72622681 371.25131226 C6.40368873 375.4103908 6.40368873 375.4103908 16.87890625 373.51171875 C17.95664307 373.07045654 19.03437988 372.62919434 20.14477539 372.17456055 C21.3280542 371.67093994 22.51133301 371.16731934 23.73046875 370.6484375 C25.02071368 370.11397416 26.31167646 369.5812412 27.60327148 369.05004883 C30.52741826 367.8449345 33.44755121 366.63064228 36.36572266 365.41113281 C41.87477874 363.11372036 47.40143002 360.86011389 52.9296875 358.609375 C53.93970322 358.19808853 54.94971893 357.78680206 55.99034119 357.36305237 C58.07326361 356.5149063 60.15620555 355.66680814 62.23916626 354.8187561 C67.57923748 352.64275001 72.91636318 350.45954184 78.25390625 348.27734375 C88.34306547 344.15401761 98.43995244 340.0501753 108.54296875 335.9609375 C124.99688386 329.3003065 141.43583026 322.60314283 157.87319946 315.90179443 C170.94097869 310.57433241 184.01151276 305.25402512 197.09375 299.9621582 C202.89129192 297.61697407 208.68577782 295.26428927 214.47949219 292.90966797 C217.03363074 291.87184469 219.58900449 290.83715953 222.14550781 289.80517578 C225.55220567 288.42771684 228.95442895 287.03979572 232.35546875 285.6484375 C233.31759277 285.26204102 234.2797168 284.87564453 235.27099609 284.47753906 C239.80524487 282.60897021 243.85596775 280.89257322 247.35546875 277.3359375 C248.1889269 273.87889254 248.1889269 273.87889254 247.35546875 270.3359375 C243.76212736 265.9568726 239.80982325 263.89053672 234.63671875 261.875 C233.87854355 261.56763412 233.12036835 261.26026825 232.33921814 260.94358826 C229.84927091 259.93738523 227.35256987 258.9492368 224.85546875 257.9609375 C223.10766002 257.25830835 221.36035219 256.55443204 219.61352539 255.84936523 C215.99767955 254.39195072 212.37917177 252.94146559 208.75830078 251.49658203 C201.20398511 248.47996609 193.67057169 245.41208733 186.13497925 242.34909058 C183.809092 241.40498214 181.48205354 240.46377549 179.15454102 239.52368164 C172.52162866 236.84416608 165.89446712 234.15477246 159.29296875 231.3984375 C158.26115479 230.96909912 157.22934082 230.53976074 156.16625977 230.09741211 C154.32304986 229.32827252 152.48216124 228.55353229 150.64428711 227.77172852 C149.85675049 227.44358154 149.06921387 227.11543457 148.2578125 226.77734375 C147.59257568 226.49576416 146.92733887 226.21418457 146.24194336 225.92407227 C144.04835363 225.13751434 144.04835363 225.13751434 140.35546875 225.3359375 C139.31285216 227.34561875 138.29723352 229.36931939 137.29296875 231.3984375 C136.72449219 232.52378906 136.15601563 233.64914063 135.5703125 234.80859375 C132.79285195 242.87305317 137.12155945 249.8318662 140.56054688 257.04492188 C143.47387719 263.53011106 144.72673003 269.41059087 142.78125 276.3984375 C140.04156563 282.78676694 134.82197599 287.38571326 129.91796875 292.1484375 C129.07169922 292.99341797 128.22542969 293.83839844 127.35351562 294.70898438 C120.94199408 301.03013209 115.81203074 305.63538424 106.46875 305.58813477 C102.15577856 305.07342826 98.25445725 303.16081898 94.29296875 301.4609375 C91.72676148 300.38741694 89.15940304 299.31775979 86.58544922 298.26293945 C84.76570995 297.5064746 82.96548903 296.70319826 81.171875 295.88671875 C77.22574172 295.11500614 74.73971899 296.56194988 71.35546875 298.3984375 C65.07881672 301.59569553 58.91711855 303.98382141 52.18359375 306.09765625 C48.34574983 307.77803819 46.98030558 309.92817607 45.29980469 313.71435547 C44.98301758 314.57689941 44.66623047 315.43944336 44.33984375 316.328125 C43.79263672 317.75705078 43.79263672 317.75705078 43.234375 319.21484375 C42.48627939 321.20027395 41.74914231 323.18987043 41.0234375 325.18359375 C38.60020785 331.44008563 36.16001595 335.76066068 30.35546875 339.3359375 C19.39093414 344.03758736 2.28348017 342.1229002 -9.2578125 340.359375 C-14.25661966 338.21586031 -17.63206552 335.47265251 -19.9934082 330.48925781 C-21.25877399 327.09967607 -22.45123991 323.68899561 -23.64453125 320.2734375 C-26.68931101 311.25771247 -26.68931101 311.25771247 -33.125 304.765625 C-36.82354318 303.5586173 -36.82354318 303.5586173 -40.7265625 303.0390625 C-44.19780417 302.41610786 -45.48825206 302.00347869 -48.28125 300.1953125 C-53.39034642 296.97092896 -57.51653563 294.64295377 -63.67724609 296.0078125 C-69.33229996 297.91380306 -74.67436857 300.33498394 -80.0546875 302.90234375 C-85.34188467 305.34413093 -88.97199463 306.37320895 -94.72167969 304.74926758 C-101.68466759 302.1612209 -106.36242355 297.33003012 -111.45703125 292.0859375 C-112.28912109 291.26480469 -113.12121094 290.44367188 -113.97851562 289.59765625 C-119.97514826 283.52889091 -124.6680815 278.28130812 -125.1796875 269.50390625 C-124.92856143 263.61539404 -122.63944991 258.87347562 -120.08203125 253.6484375 C-115.87734821 245.3719252 -115.87734821 245.3719252 -116.64453125 236.3359375 C-117.78601263 233.25189761 -117.78601263 233.25189761 -119.20703125 230.3984375 C-119.66207031 229.44066406 -120.11710937 228.48289063 -120.5859375 227.49609375 C-120.93527344 226.78324219 -121.28460938 226.07039062 -121.64453125 225.3359375 C-125.16874723 225.3359375 -126.48790488 225.47861209 -129.55053711 226.75024414 Z M-207.46850586 318.24316406 C-209.56650439 319.07974613 -211.67054251 319.89958185 -213.77539062 320.71875 C-215.11628991 321.25158738 -216.45679818 321.78541001 -217.796875 322.3203125 C-219.01366943 322.80209961 -220.23046387 323.28388672 -221.48413086 323.78027344 C-224.61322378 325.32052682 -226.48715894 326.61587216 -228.64453125 329.3359375 C-229.39464492 332.79322108 -229.39464492 332.79322108 -228.64453125 336.3359375 C-224.48323937 341.79598353 -218.89408269 343.65393417 -212.64453125 346.109375 C-211.55418579 346.54959991 -210.46384033 346.98982483 -209.3404541 347.44338989 C-205.77981014 348.87784071 -202.21230755 350.29433093 -198.64453125 351.7109375 C-196.16159724 352.70773821 -193.67911223 353.70558089 -191.19726562 354.70507812 C-186.26054645 356.69146435 -181.32091159 358.67035452 -176.37890625 360.64355469 C-168.65828563 363.72722017 -160.9532137 366.84833802 -153.25186157 369.97973633 C-151.11797966 370.84672532 -148.98332021 371.71177099 -146.84838867 372.57617188 C-134.38305402 377.62340362 -121.92948943 382.69941931 -109.47619629 387.77627563 C-90.28287813 395.60083667 -71.0861541 403.41660291 -51.86767578 411.17919922 C-50.20083654 411.85251476 -48.5340071 412.52585457 -46.8671875 413.19921875 C-46.04613525 413.5308905 -45.22508301 413.86256226 -44.37915039 414.20428467 C-38.87366278 416.43001817 -33.37309091 418.66758465 -27.87490845 420.91130066 C-23.96978472 422.50461462 -20.06336488 424.09473691 -16.15686035 425.68466187 C-14.291711 426.4448144 -12.42719499 427.20652302 -10.56335449 427.96987915 C-7.99175696 429.02296698 -5.41801424 430.0706388 -2.84375 431.1171875 C-1.70467445 431.58616707 -1.70467445 431.58616707 -0.54258728 432.06462097 C7.21535404 435.26764317 7.21535404 435.26764317 15.24609375 433.73046875 C16.23851074 433.33496826 17.23092773 432.93946777 18.25341797 432.53198242 C19.91268311 431.84712769 19.91268311 431.84712769 21.60546875 431.1484375 C22.81090332 430.66286377 24.01633789 430.17729004 25.25830078 429.67700195 C28.81893748 428.24132054 32.37197669 426.787543 35.92419434 425.33117676 C39.40119813 423.90786943 42.88184485 422.49356369 46.36224365 421.07858276 C55.57572082 417.33232748 64.78352406 413.57231206 73.98828125 409.8046875 C87.68837705 404.19709823 101.39599478 398.6080539 115.10546875 393.0234375 C116.25145538 392.55652496 117.39744202 392.08961243 118.57815552 391.60855103 C133.15064072 385.67145035 147.72841324 379.74765536 162.3137207 373.84213257 C176.25390465 368.19692919 190.18085521 362.51942663 204.10546875 356.8359375 C205.14418121 356.4120575 206.18289368 355.98817749 207.25308228 355.55145264 C208.26631561 355.13792542 209.27954895 354.72439819 210.32348633 354.29833984 C211.31677444 353.89304047 212.31006256 353.48774109 213.33345032 353.07015991 C215.27544558 352.27659629 217.21677634 351.48140431 219.15739441 350.68447876 C223.58579565 348.86666884 228.01903331 347.06845302 232.47851562 345.328125 C233.26687805 345.01613159 234.05524048 344.70413818 234.86749268 344.38269043 C236.31833193 343.80939615 237.77283384 343.24524286 239.23162842 342.69250488 C242.98270603 341.19814903 245.427519 339.96069316 247.35546875 336.3359375 C247.93880208 332.8359375 247.93880208 332.8359375 247.35546875 329.3359375 C243.20703288 324.14132539 236.96182333 322.29833505 230.99316406 319.85229492 C228.98602449 319.02572544 226.99132318 318.17321199 224.99609375 317.31835938 C223.71290896 316.78484552 222.42907436 316.25289132 221.14453125 315.72265625 C219.98646973 315.24014404 218.8284082 314.75763184 217.63525391 314.26049805 C210.69663062 312.30452318 204.66724392 315.61694637 198.2734375 318.2109375 C196.78975929 318.80490578 196.78975929 318.80490578 195.27610779 319.41087341 C192.02918516 320.71299812 188.78602051 322.02420487 185.54296875 323.3359375 C183.26687234 324.25165199 180.99066662 325.16709483 178.71435547 326.08227539 C164.27914682 331.89589321 149.8867226 337.8087395 135.52359009 343.7979126 C115.51967929 352.13859547 95.41668027 360.23072901 75.31181335 368.32435608 C67.43886773 371.49436075 59.56996451 374.67424949 51.703125 377.859375 C50.60806641 378.3026413 49.51300781 378.74590759 48.38476562 379.2026062 C44.15406464 380.91520822 39.92338895 382.6278708 35.69329834 384.34197998 C32.82971524 385.50223839 29.96568638 386.66138982 27.1015625 387.8203125 C26.25417007 388.164039 25.40677765 388.5077655 24.53370667 388.86190796 C23.75873337 389.17528107 22.98376007 389.48865417 22.18530273 389.81152344 C21.51385727 390.08349548 20.8424118 390.35546753 20.15061951 390.63568115 C10.04195269 394.57889209 0.94568025 392.05933705 -8.64453125 387.9609375 C-10.47897075 387.20935282 -12.31341756 386.4577859 -14.14804077 385.70664978 C-16.18295264 384.86906982 -18.21340685 384.02137695 -20.24316406 383.17138672 C-24.93558469 381.20912821 -29.64454004 379.28840927 -34.35546875 377.37109375 C-41.70477363 374.37749138 -49.04937699 371.3726801 -56.390625 368.359375 C-69.61227816 362.93409024 -82.84631499 357.53930595 -96.08203125 352.1484375 C-97.23123047 351.6803064 -98.38042969 351.21217529 -99.56445312 350.7298584 C-115.34062622 344.30382625 -131.11903792 337.8832925 -146.91137695 331.49707031 C-153.47603289 328.8417436 -160.03732229 326.17905999 -166.58676147 323.4863739 C-169.59775223 322.2485863 -172.61017206 321.01429688 -175.62261963 319.78005981 C-177.03792009 319.19887126 -178.45245092 318.61580446 -179.8661499 318.0307312 C-181.793017 317.2333077 -183.72235563 316.44217695 -185.65234375 315.65234375 C-186.7417627 315.20318604 -187.83118164 314.75402832 -188.95361328 314.29125977 C-195.43056433 311.99183049 -201.44494774 315.83289708 -207.46850586 318.24316406 Z M-202.3359375 375.8203125 C-202.96306137 376.07717834 -203.59018524 376.33404419 -204.23631287 376.59869385 C-205.55673492 377.14246776 -206.87532194 377.69071665 -208.19213867 378.24316406 C-210.19875742 379.08247679 -212.21287561 379.90137933 -214.22851562 380.71875 C-215.51482557 381.25139189 -216.8006502 381.78520764 -218.0859375 382.3203125 C-219.24810791 382.80209961 -220.41027832 383.28388672 -221.60766602 383.78027344 C-224.64182586 385.33455164 -226.52440354 386.68106895 -228.64453125 389.3359375 C-229.31119792 392.8359375 -229.31119792 392.8359375 -228.64453125 396.3359375 C-225.88529111 399.70399218 -223.11506463 401.26026479 -219.125 402.90234375 C-217.98305176 403.37744385 -216.84110352 403.85254395 -215.66455078 404.34204102 C-214.38715562 404.86111395 -213.10964453 405.37990167 -211.83203125 405.8984375 C-210.46569752 406.46146573 -209.0996588 407.02521032 -207.73388672 407.58959961 C-203.04425143 409.52189384 -198.34494943 411.43005303 -193.64453125 413.3359375 C-192.78510925 413.68479004 -191.92568726 414.03364258 -191.04022217 414.39306641 C-181.42803191 418.29428961 -171.81015344 422.18132316 -162.18862915 426.0594635 C-148.72082768 431.48864219 -135.27312814 436.9660218 -121.83203125 442.4609375 C-106.78041547 448.61308668 -91.72052369 454.74376358 -76.64453125 460.8359375 C-60.8407062 467.22288453 -45.05132723 473.64474892 -29.26953125 480.0859375 C-27.69341064 480.72897827 -27.69341064 480.72897827 -26.08544922 481.38500977 C-24.04839521 482.21622146 -22.01150445 483.04783337 -19.97479248 483.87988281 C-18.05851391 484.66213228 -16.14158078 485.44278053 -14.22393799 486.22167969 C-10.41123387 487.77385905 -6.60835753 489.33125691 -2.85449219 491.02148438 C4.01719967 494.08463929 8.98769229 495.79283328 16.28613281 493.35839844 C19.35591583 492.17063739 22.37983695 490.91928056 25.39956665 489.61160278 C28.32472546 488.34552256 31.26347271 487.1123657 34.2013092 485.87605286 C35.8467965 485.18315994 37.49157976 484.48859315 39.13572693 483.79252625 C49.59845895 479.36830654 60.12635616 475.10388755 70.65032959 470.82794189 C74.192151 469.38861027 77.73315515 467.94728554 81.27392578 466.50537109 C94.84162528 460.98072423 108.41435955 455.46860903 121.99282837 449.9704895 C138.79098161 443.16829727 155.5724401 436.32517544 172.35400391 429.48217773 C182.72176033 425.25531756 193.09102285 421.03252379 203.47265625 416.83984375 C204.31926819 416.49770844 205.16588013 416.15557312 206.03814697 415.80307007 C209.87061947 414.25446656 213.70390701 412.70796253 217.5390625 411.16601562 C221.48610787 409.57571486 225.42403513 407.96443376 229.35546875 406.3359375 C230.08479614 406.0348407 230.81412354 405.7337439 231.56555176 405.42352295 C233.79452624 404.49758872 236.01707958 403.55768948 238.23828125 402.61328125 C238.9226828 402.32981339 239.60708435 402.04634552 240.31222534 401.75428772 C243.74325228 400.27631319 245.23008991 399.52400576 247.35546875 396.3359375 C247.9481262 391.46076106 247.9481262 391.46076106 245.73754883 387.30395508 C241.43215305 383.74694008 236.17003192 381.95777723 231.0480957 379.85229492 C229.05133356 379.02689526 227.06803185 378.1737939 225.08398438 377.31835938 C223.8041065 376.78472557 222.52352812 376.25276816 221.2421875 375.72265625 C219.51295044 374.99888794 219.51295044 374.99888794 217.7487793 374.26049805 C210.03988191 372.16008835 203.37552044 375.71149367 196.3359375 378.6484375 C194.72483093 379.30919785 194.72483093 379.30919785 193.08117676 379.98330688 C189.56542227 381.4269646 186.05428122 382.88151331 182.54296875 384.3359375 C180.08670016 385.34641959 177.63015944 386.3562028 175.1730957 387.36474609 C171.44582556 388.89518788 167.71879819 390.42620046 163.99333191 391.96102905 C154.18988902 395.99915038 144.36810472 399.98999434 134.53515625 403.95562744 C119.57456656 409.99049893 104.63293915 416.07138906 89.69897461 422.17181396 C86.57356808 423.44843869 83.44795533 424.72455706 80.32226562 426.00048828 C79.30765259 426.4146701 78.29303955 426.82885193 77.24768066 427.25558472 C75.22351584 428.0818708 73.19934596 428.9081445 71.1751709 429.73440552 C66.37654329 431.69341215 61.57835172 433.65347048 56.78125 435.61621094 C52.4921294 437.37099132 48.20154466 439.12214162 43.90982056 440.87054443 C42.36203642 441.50185564 40.81479189 442.13449187 39.26815796 442.76861572 C32.50416439 445.54131615 25.72921734 448.28255452 18.84375 450.7421875 C17.96887939 451.05478516 17.09400879 451.36738281 16.19262695 451.68945312 C9.43223586 453.22989849 4.03698206 452.30378015 -2.34765625 449.86328125 C-3.07341858 449.59627914 -3.79918091 449.32927704 -4.54693604 449.05418396 C-12.97726382 445.9133063 -21.298796 442.48976373 -29.61068726 439.050354 C-33.47443703 437.45158728 -37.34206346 435.86229209 -41.20939636 434.2722168 C-43.18763137 433.45873204 -45.16566939 432.6447681 -47.14350891 431.83032227 C-56.02612758 428.17348617 -64.92648346 424.56148749 -73.83203125 420.9609375 C-89.33173142 414.68972509 -104.81298775 408.3737673 -120.29144287 402.05032349 C-135.82562827 395.70454468 -151.36851638 389.38079352 -166.92578125 383.09179688 C-167.62665863 382.80815277 -168.32753601 382.52450867 -169.0496521 382.23226929 C-170.3930021 381.68893149 -171.73675762 381.14659499 -173.08096313 380.6053772 C-176.11588804 379.37968512 -179.13214593 378.12409427 -182.13427734 376.81982422 C-183.72296631 376.12977295 -183.72296631 376.12977295 -185.34375 375.42578125 C-186.25342529 375.02093506 -187.16310059 374.61608887 -188.1003418 374.19897461 C-193.52487526 372.35887042 -197.14480951 373.69050834 -202.3359375 375.8203125 Z " fill="#000000" transform="translate(246.64453125,-0.3359375)"/>
<path d="M0 0 C18.10669973 17.37929832 31.42909716 43.33580333 32.74121094 68.62182617 C33.11058787 97.6243582 33.11058787 97.6243582 29.58007812 109.51660156 C29.25136719 110.71285156 28.92265625 111.90910156 28.58398438 113.14160156 C23.76471441 129.1502492 15.55772233 142.98668866 4.58007812 155.51660156 C3.86335937 156.33515625 3.14664063 157.15371094 2.40820312 157.99707031 C-16.93479541 178.5399165 -44.91273708 190.48644737 -72.90820312 191.83691406 C-105.42747712 192.78583985 -132.56114702 181.74794439 -156.75976562 160.45800781 C-176.45520664 141.69858775 -188.64755845 114.54870901 -189.80273438 87.48925781 C-190.13361119 73.72640092 -189.64934375 60.6715842 -185.41992188 47.51660156 C-185.09846191 46.49203857 -185.09846191 46.49203857 -184.77050781 45.44677734 C-180.18789615 31.22200388 -173.23211095 18.82683478 -163.41992188 7.51660156 C-162.74445313 6.69675781 -162.06898438 5.87691406 -161.37304688 5.03222656 C-143.74213853 -15.68730807 -117.4208831 -27.57983609 -90.79492188 -31.23339844 C-56.64686966 -33.92067318 -25.27095114 -23.21825656 0 0 Z M-139.41992188 9.51660156 C-140.04382813 10.00773437 -140.66773438 10.49886719 -141.31054688 11.00488281 C-156.93074361 23.49400408 -168.57658022 45.44265517 -171.20458984 65.27490234 C-173.90712263 93.40943301 -167.96286456 118.49534775 -149.92382812 140.57128906 C-136.49884847 156.17723996 -119.4219861 166.54876862 -99.41992188 171.51660156 C-98.56785156 171.74089844 -97.71578125 171.96519531 -96.83789062 172.19628906 C-73.36542068 177.46046819 -48.12032604 171.61366673 -27.86865234 159.25415039 C-6.83675431 145.68419335 7.12430264 124.20347113 13.39257812 100.20410156 C18.19185542 75.46299966 13.77346729 49.35911525 -0.32617188 28.36425781 C-16.72834056 6.05608436 -38.04591547 -8.38942877 -65.66992188 -12.79589844 C-92.78703113 -16.01682205 -118.74067889 -8.26608079 -139.41992188 9.51660156 Z " fill="#000000" transform="translate(334.419921875,90.4833984375)"/>
<path d="M0 0 C3.11566276 1.86412804 5.47286555 4.41428958 8 7 C9.1179633 8.09821851 10.2379111 9.19441893 11.359375 10.2890625 C21.8693574 20.61518844 21.8693574 20.61518844 22.3125 25.3125 C21.94549371 29.64317426 21.21777399 31.12093906 18 34 C14.09372815 35.35870325 12.5737267 35.26932892 8.8046875 33.5 C7.87914062 33.005 6.95359375 32.51 6 32 C5.72027344 33.07636719 5.44054687 34.15273437 5.15234375 35.26171875 C0.16993205 53.73169953 -7.96571429 68.53484975 -24.75 78.5 C-34.2496317 83.54405223 -47.1554379 88.16891242 -58 86 C-60.93423195 84.20353146 -62.47205355 83.0558929 -64 80 C-64.25491388 76.0913205 -64.23289019 73.29057502 -62 70 C-58.56186998 67.70791332 -56.63256459 67.6004051 -52.5625 67.1875 C-40.36255248 65.52901074 -31.26619336 61.25166481 -23 52 C-18.45767377 45.9969672 -16.19388275 40.40207307 -15 33 C-16.546875 33.5878125 -16.546875 33.5878125 -18.125 34.1875 C-22 35 -22 35 -25.3125 33.875 C-29.21126761 31.15492958 -29.21126761 31.15492958 -30 28 C-30.11190507 22.18093625 -28.1253221 19.36336172 -24.3125 15.328125 C-23.549375 14.55984375 -22.78625 13.7915625 -22 13 C-20.97900783 11.95327991 -19.95818623 10.90639343 -18.9375 9.859375 C-7.69389559 -1.57718002 -7.69389559 -1.57718002 0 0 Z " fill="#000000" transform="translate(311,145)"/>
<path d="M0 0 C1.54721252 3.36746254 1.57660188 5.64952407 1.0625 9.3125 C-1.58917698 12.69601978 -3.23544444 14.13208349 -7.43359375 15.2109375 C-8.73425781 15.36820313 -10.03492188 15.52546875 -11.375 15.6875 C-23.23542274 17.51144475 -33.3080811 22.0762479 -41.09375 31.546875 C-44.58631221 36.78571832 -47.9375 42.90507028 -47.9375 49.3125 C-47.2775 48.9825 -46.6175 48.6525 -45.9375 48.3125 C-42.92508074 47.96681254 -40.84548473 47.74089231 -37.9375 48.3125 C-34.23345037 51.33621399 -34.23345037 51.33621399 -32.9375 54.3125 C-32.65778768 58.87280975 -33.05628911 61.11013513 -35.77368164 64.81787109 C-38.25506005 67.57370071 -40.83862209 70.16784099 -43.5 72.75 C-44.38236328 73.65943359 -45.26472656 74.56886719 -46.17382812 75.50585938 C-53.5095191 82.76564519 -53.5095191 82.76564519 -58.36328125 83.5703125 C-63.1404615 83.22572901 -63.1404615 83.22572901 -65.5625 80.75 C-66.52736328 79.79867187 -66.52736328 79.79867187 -67.51171875 78.828125 C-68.31222656 77.99796875 -69.11273438 77.1678125 -69.9375 76.3125 C-71.12884011 75.13791044 -72.32309935 73.96627767 -73.51953125 72.796875 C-76.04319401 70.31650252 -78.56212245 67.83198475 -81.05859375 65.32421875 C-81.85414673 64.52697388 -81.85414673 64.52697388 -82.66577148 63.71362305 C-84.74145243 61.42674784 -84.95609935 60.14820577 -85.3125 57 C-84.9375 53.3125 -84.9375 53.3125 -82.9375 50.375 C-78.83729388 47.55610829 -76.84237343 47.75872397 -71.9375 48.3125 C-70.9475 48.9725 -69.9575 49.6325 -68.9375 50.3125 C-68.64617187 49.21292969 -68.35484375 48.11335938 -68.0546875 46.98046875 C-63.18736082 29.16524525 -55.22963782 14.33702476 -38.73828125 4.7734375 C-28.5602153 -0.5356234 -10.36360469 -9.02636537 0 0 Z " fill="#000000" transform="translate(263.9375,113.6875)"/>
</svg>
