<?xml version="1.0" encoding="UTF-8"?>
<svg version="1.1" xmlns="http://www.w3.org/2000/svg" width="512" height="512">
<path d="M0 0 C0.69310455 -0.00363587 1.3862091 -0.00727174 2.10031682 -0.01101778 C3.47392495 -0.01822977 4.84753308 -0.02544204 6.2211412 -0.03265461 C18.84371099 -0.09877288 31.4662242 -0.14941199 44.08892441 -0.18207359 C48.19457765 -0.19319619 52.30010831 -0.21108528 56.4057045 -0.23534584 C61.00703855 -0.26231002 65.60818211 -0.27560695 70.2095933 -0.27685285 C71.83473875 -0.27963719 73.45988523 -0.28745208 75.08497763 -0.30087543 C77.25113053 -0.31802193 79.41649437 -0.31681493 81.58268738 -0.3106308 C82.77184439 -0.31446494 83.9610014 -0.31829908 85.18619347 -0.32224941 C89.59134936 0.19650424 92.06344083 1.74364923 95.09370708 4.92377281 C96.55183885 7.48064369 96.67105544 9.04804582 96.6567688 11.98162079 C96.66030459 13.49344374 96.66030459 13.49344374 96.66391182 15.03580856 C96.64456738 16.70727007 96.64456738 16.70727007 96.62483215 18.41249847 C96.62286268 19.61142101 96.62089321 20.81034355 96.61886406 22.04559708 C96.60985526 25.42814994 96.58694056 28.8101071 96.55820632 32.19251776 C96.52974669 35.91147883 96.51836334 39.63050257 96.50430298 43.34954071 C96.4719663 51.03419863 96.42092108 58.71864684 96.3646484 66.4031626 C96.31359866 73.4247584 96.26996446 80.44637608 96.22950745 87.46804047 C96.08125844 112.98523409 95.89768731 138.50195315 95.67637444 164.01861954 C95.55913271 177.55880905 95.45203494 191.09899644 95.35816401 204.63936889 C95.29025867 214.31728287 95.21116817 223.99506599 95.12363034 233.67282212 C95.07210581 239.40084236 95.02540876 245.12880261 94.99088097 250.85695267 C94.95853682 256.18487724 94.91237914 261.51250096 94.85542488 266.84021759 C94.83700799 268.78890737 94.82362992 270.73765228 94.8156662 272.68641281 C94.80404818 275.34348035 94.77429603 277.99975109 94.73999023 280.65660858 C94.74094686 281.42541033 94.74190349 282.19421207 94.74288911 282.98631084 C94.657021 287.7340136 94.09272341 291.1557687 91.30329895 295.04482269 C86.38970091 297.87662075 82.27629044 298.42386483 76.66598511 298.44355011 C75.92904826 298.45019694 75.19211141 298.45684376 74.43284315 298.46369201 C71.98074576 298.48224071 69.52913981 298.47972229 67.07698059 298.47719574 C65.31241674 298.48621788 63.54785916 298.49654622 61.78330994 298.50807953 C57.0049346 298.5356225 52.22667827 298.54493039 47.44823384 298.5509336 C42.45004019 298.56032427 37.45193518 298.58652826 32.45379639 298.61093903 C22.99444224 298.65458858 13.53510532 298.68314506 4.07568115 298.70626241 C-6.69579043 298.73332233 -17.46717276 298.77723338 -28.23858058 298.82255113 C-50.39123938 298.91537531 -72.54392489 298.98706628 -94.69670105 299.04482269 C-94.39375232 299.85416763 -94.39375232 299.85416763 -94.08468342 300.67986298 C-93.15924841 303.15721666 -92.23812963 305.63615446 -91.31706238 308.11513519 C-90.99933113 308.96374115 -90.68159988 309.81234711 -90.35424042 310.6866684 C-87.86615608 317.39736419 -85.91005002 324.04564918 -84.38420105 331.04482269 C-84.13911804 332.13714203 -83.89403503 333.22946136 -83.64152527 334.35488129 C-81.01002312 346.51957376 -79.55689199 358.60181651 -79.69670105 371.04482269 C-78.91946686 371.1475499 -78.14223267 371.2502771 -77.34144592 371.35611725 C-66.69641496 372.8153148 -56.14667065 374.70035588 -45.57951355 376.63466644 C-43.66813061 376.983368 -41.75674341 377.33204615 -39.84535217 377.68070221 C-35.8663841 378.40734983 -31.88786849 379.13642217 -27.90959167 379.86684418 C-22.82717614 380.79946962 -17.74309113 381.72264099 -12.65855598 382.64363003 C-8.72157718 383.35841954 -4.78584135 384.07987656 -0.85041428 384.8031559 C1.02371515 385.14645112 2.89829168 385.4873152 4.77332687 385.82562828 C7.39387421 386.29913975 10.01252623 386.78205964 12.63093567 387.2672348 C13.39369308 387.4029187 14.1564505 387.5386026 14.94232178 387.67839813 C28.45039918 390.21743826 28.45039918 390.21743826 32.30329895 395.04482269 C31.99079895 397.73232269 31.99079895 397.73232269 31.30329895 400.04482269 C-2.09243216 411.17673306 -54.72954211 396.48029371 -88.3568573 391.82607269 C-89.37261337 391.68706039 -90.38836945 391.5480481 -91.43490601 391.4048233 C-96.69643341 390.66847736 -101.92250922 389.83986286 -107.14543152 388.86513519 C-119.28467289 386.63070412 -129.78040664 385.65286796 -141.96977234 387.6219101 C-146.27802316 388.29006601 -150.60420181 388.8066608 -154.93023682 389.34540558 C-158.76677384 389.8240713 -162.60132764 390.31658019 -166.43571472 390.81215668 C-190.2205045 393.87730628 -214.00464373 396.74341027 -237.88420105 398.98232269 C-238.95047729 399.08364502 -240.01675354 399.18496735 -241.11534119 399.28936005 C-247.97147338 399.9356277 -254.82995515 400.52333319 -261.69670105 401.04482269 C-262.68011475 401.12113922 -263.66352844 401.19745575 -264.67674255 401.2760849 C-267.57437247 401.49176571 -270.47243739 401.68125189 -273.3724823 401.86122894 C-274.24076157 401.926241 -275.10904083 401.99125305 -276.00363159 402.05823517 C-280.74585048 402.31647174 -283.90021087 402.29426818 -287.69670105 399.04482269 C-288.19670105 396.54482269 -288.19670105 396.54482269 -287.69670105 394.04482269 C-285.37804873 391.04183939 -283.12312949 390.38572719 -279.49357605 389.53701019 C-278.39199158 389.27710297 -277.2904071 389.01719574 -276.15544128 388.74941254 C-274.93155701 388.47564789 -273.70767273 388.20188324 -272.44670105 387.91982269 C-271.80999481 387.77442047 -271.17328857 387.62901825 -270.51728821 387.4792099 C-194.09550609 370.04482269 -194.09550609 370.04482269 -175.69670105 370.04482269 C-175.73150574 369.33841644 -175.76631042 368.63201019 -175.8021698 367.90419769 C-176.1971471 352.93267719 -173.35653006 338.61500586 -169.38420105 324.23232269 C-168.97705872 322.74973969 -168.97705872 322.74973969 -168.56169128 321.23720551 C-166.17050332 312.9368071 -163.00088194 305.01372954 -159.69670105 297.04482269 C-160.45438278 297.04926392 -161.21206451 297.05370514 -161.9927063 297.05828094 C-196.23042815 297.24898487 -230.45414228 297.31417113 -264.67877579 296.23338318 C-266.65483175 296.17114149 -268.63095102 296.11092041 -270.60707092 296.0507431 C-284.3052719 295.62415819 -297.99228211 295.03588661 -311.67292786 294.22325516 C-313.68287219 294.10403755 -315.69307922 293.98927435 -317.70329285 293.87468719 C-323.79697694 293.49311831 -329.87889608 293.00831215 -335.9427948 292.29140472 C-337.49825012 292.1142543 -337.49825012 292.1142543 -339.08512878 291.93352509 C-341.69670105 291.04482269 -341.69670105 291.04482269 -343.51286316 288.62194061 C-346.70022939 281.68330594 -346.81308717 273.63943704 -347.22013855 266.11122894 C-347.2622345 265.33693542 -347.30433044 264.56264191 -347.34770203 263.76488495 C-347.88179897 253.24004103 -348.02306971 242.7054726 -348.19670105 232.16982269 C-348.23717463 229.8640522 -348.27792243 227.5582865 -348.31892395 225.25252533 C-348.42701912 219.11803359 -348.5306468 212.98347473 -348.63298798 206.84888458 C-348.69705381 203.02376074 -348.76221547 199.1986571 -348.82774353 195.37355804 C-349.1074941 179.03729119 -349.37857877 162.70089556 -349.64291382 146.36437225 C-349.69333238 143.25272437 -349.74408762 140.1410822 -349.79496765 137.02944183 C-350.13074845 116.45488901 -350.43063337 95.88045124 -350.63340473 75.30412197 C-350.67599288 70.99753996 -350.72337874 66.69103837 -350.77357864 62.38453865 C-350.85855424 55.05912764 -350.92828193 47.7338628 -350.96991348 40.4080677 C-350.98923131 37.01920287 -351.01627525 33.63093265 -351.05613708 30.24221039 C-351.09739963 26.58638388 -351.11340803 22.93131933 -351.1224823 19.27529144 C-351.13994003 18.20218216 -351.15739777 17.12907288 -351.17538452 16.02344513 C-351.15438147 8.82609344 -351.15438147 8.82609344 -348.85758972 4.9054184 C-345.47092789 1.98939198 -342.67197539 1.91597979 -338.36668968 1.89054012 C-337.25359881 1.88158228 -336.14050793 1.87262444 -334.99368703 1.86339515 C-333.76512349 1.8585261 -332.53655995 1.85365704 -331.27076721 1.84864044 C-329.96865378 1.83961891 -328.66654035 1.83059738 -327.32496893 1.82130247 C-323.6995065 1.79632759 -320.07403382 1.77751034 -316.4485302 1.75967109 C-312.53664856 1.73936109 -308.62480394 1.71340218 -304.71295166 1.6881485 C-297.01862401 1.6393869 -289.32427491 1.59591872 -281.62990616 1.55420535 C-272.57939534 1.50495325 -263.5289173 1.45058789 -254.4784369 1.39607424 C-238.20941702 1.29826834 -221.94037304 1.20528241 -205.67131042 1.11489105 C-190.10650855 1.02840967 -174.54173261 0.93841222 -158.97697449 0.84438324 C-113.57826458 0.57048589 -68.17953323 0.31800639 -22.78046727 0.11048138 C-15.18696685 0.07568169 -7.59347578 0.03984925 0 0 Z " fill="#000000" transform="translate(383.6967010498047,52.955177307128906)"/>
<path d="M0 0 C0.69808136 8.05224734 1.15105847 16.03718412 1.17358398 24.11889648 C1.180271 25.14905884 1.18695801 26.17922119 1.19384766 27.24060059 C1.20778554 29.45893163 1.21971424 31.67727606 1.22979546 33.89562798 C1.24650539 37.45887268 1.26976446 41.02202413 1.29469299 44.58522034 C1.36453918 54.7117932 1.42437098 64.83841035 1.47680664 74.96508789 C1.61245116 100.48083671 1.81161258 125.97732394 2.91015625 151.47265625 C2.94849516 152.39289518 2.98683407 153.31313412 3.02633476 154.26125908 C3.45914623 164.38590392 4.12508148 174.43565153 5.34414005 184.49906254 C5.95441772 189.69999929 6.0772071 194.76215453 6 200 C5.02764782 199.96193945 5.02764782 199.96193945 4.03565216 199.92311001 C-2.26330171 199.67678121 -8.5625016 199.43734755 -14.86181641 199.20043945 C-17.20139067 199.11173596 -19.54091419 199.02167836 -21.88037109 198.92993164 C-60.7523864 197.40870498 -99.6415095 196.8656432 -138.54070473 196.77020454 C-145.02953506 196.75418059 -151.51832455 196.73026539 -158.00712585 196.70530701 C-176.41626358 196.63553274 -194.82542067 196.57449609 -213.23461914 196.52319336 C-223.49765956 196.49452494 -233.76065512 196.45898824 -244.02364796 196.41653961 C-250.41936762 196.39045703 -256.8150375 196.37214465 -263.21079886 196.36050236 C-267.24341714 196.35111001 -271.27597575 196.33364384 -275.30855751 196.31432343 C-277.11755392 196.30710977 -278.9265659 196.3027838 -280.73557663 196.30232811 C-301.86829866 196.29274051 -322.86118884 194.98320052 -344 194 C-344 130.31 -344 66.62 -344 1 C-273.98477802 0.74904938 -273.98477802 0.74904938 -244.359375 0.64453125 C-237.58268224 0.62062058 -230.80598952 0.59669758 -224.02929688 0.57275391 C-223.18037353 0.56975497 -222.33145019 0.56675604 -221.45680189 0.56366622 C-207.89139895 0.51572679 -194.32599858 0.46709656 -180.76059908 0.41819459 C-166.75721758 0.36772974 -152.75383345 0.31804561 -138.7504468 0.26903296 C-130.9193989 0.24160285 -123.08835248 0.21385034 -115.25730896 0.18519592 C-76.83798072 0.04481945 -38.41963788 -0.03396117 0 0 Z " fill="#9BE6FA" transform="translate(429,105)"/>
<path d="M0 0 C89.1 0 178.2 0 270 0 C265.99128584 6.01307124 261.63764105 11.47756782 257 17 C256.51370117 17.57943359 256.02740234 18.15886719 255.52636719 18.75585938 C245.2708702 30.93711805 245.2708702 30.93711805 239.54296875 36.4609375 C237.92856426 38.07125489 236.47124022 39.75822946 235 41.5 C231.33418781 45.75033805 227.39852952 49.71494469 223.4375 53.6875 C222.80005859 54.32945312 222.16261719 54.97140625 221.50585938 55.6328125 C220.88388672 56.25285156 220.26191406 56.87289062 219.62109375 57.51171875 C219.0686499 58.06303467 218.51620605 58.61435059 217.94702148 59.18237305 C217.30450439 59.78218994 216.6619873 60.38200684 216 61 C215.17892258 61.84575592 214.35784515 62.69151184 213.5118866 63.56289673 C209.33953477 66.99565463 205.07793734 66.77297437 199.86279297 66.8112793 C198.85304413 66.83805756 197.84329529 66.86483582 196.802948 66.89242554 C193.44945254 66.97577107 190.09634099 67.02482645 186.7421875 67.07421875 C184.36421713 67.12731107 181.9862966 67.18267889 179.60842896 67.2401886 C173.30595092 67.38704685 167.00325772 67.50557743 160.70007324 67.61743164 C154.49634939 67.73107254 148.29311796 67.86623164 142.08984375 68.00195312 C140.2672447 68.04180423 140.2672447 68.04180423 138.40782547 68.0824604 C135.95416479 68.1362029 133.500507 68.19007709 131.04685211 68.2440834 C127.36255343 68.32431967 123.67820097 68.40163029 119.99383545 68.47872925 C103.0962062 68.83996719 86.20900584 69.36306776 69.3203125 70.01953125 C67.70648493 70.08162057 67.70648493 70.08162057 66.06005478 70.14496422 C60.23099999 70.37149145 54.40294167 70.61318027 48.57566071 70.88162613 C46.87836458 70.95963156 45.18095013 71.03510944 43.48342133 71.10787582 C41.21081935 71.2073598 38.93924835 71.31946139 36.66748047 71.4362793 C35.41611298 71.49704147 34.16474548 71.55780365 32.87545776 71.6204071 C29.87446613 71.71987947 29.87446613 71.71987947 28 74 C27.68032392 76.67502527 27.48240427 79.25211128 27.375 81.9375 C27.33850342 82.73075684 27.30200684 83.52401367 27.2644043 84.34130859 C27.01639188 90.26688864 26.87020805 96.19461508 26.8125 102.125 C26.79944824 102.89320068 26.78639648 103.66140137 26.77294922 104.45288086 C26.76507973 109.61582649 27.45886963 114.05963881 29 119 C30.75 120.5 30.75 120.5 33 121 C33.72469482 121.33128906 34.44938965 121.66257812 35.19604492 122.00390625 C38.56724714 123.20151226 41.47566898 123.3893956 45.05078125 123.5625 C45.75800323 123.59868439 46.46522522 123.63486877 47.19387817 123.67214966 C49.56640733 123.79052943 51.93932015 123.8955376 54.3125 124 C55.99423962 124.08019782 57.67596121 124.16077453 59.35766602 124.24169922 C83.89477755 125.39321619 108.45013057 126.17704095 133 127 C130.57650666 130.07647968 128.26119202 132.80524714 125.25 135.3125 C121.49314676 138.50652878 118.06387124 141.92697183 114.6640625 145.49609375 C113 147 113 147 111 147 C110.73517822 147.59224365 110.47035645 148.1844873 110.19750977 148.79467773 C108.96039638 151.07293363 107.70402423 152.49812535 105.83984375 154.28515625 C105.21553467 154.89254639 104.59122559 155.49993652 103.94799805 156.12573242 C103.28453369 156.76486572 102.62106934 157.40399902 101.9375 158.0625 C95.80230631 164.08277245 90.31850232 170.24432885 85 177 C83.24227461 179.13601262 81.4655442 181.25588956 79.6875 183.375 C76.33738075 187.30269602 76.33738075 187.30269602 73.58398438 191.63769531 C69.39973977 195.46297411 64.85832104 194.63530498 59.39453125 194.5234375 C57.66561897 194.5163829 57.66561897 194.5163829 55.90177917 194.50918579 C52.20474866 194.48782802 48.5091454 194.43134176 44.8125 194.375 C42.37306073 194.35848558 39.93360575 194.3441394 37.49414062 194.33203125 C24.94895291 194.2389458 12.54590922 193.73799466 0 193 C0 129.31 0 65.62 0 0 Z " fill="#D2F0F7" transform="translate(85,106)"/>
<path d="M0 0 C0.84211029 -0.00281982 1.68422058 -0.00563965 2.55184937 -0.00854492 C3.47912842 -0.00652069 4.40640747 -0.00449646 5.36178589 -0.00241089 C6.82664932 -0.00503937 6.82664932 -0.00503937 8.32110596 -0.00772095 C11.58582289 -0.0121554 14.85048625 -0.00918561 18.11520386 -0.00582886 C20.41874197 -0.00650391 22.72228 -0.0074756 25.02581787 -0.00872803 C29.89692857 -0.01020908 34.76802105 -0.00804645 39.63912964 -0.00338745 C45.7258872 0.00216417 51.81259924 -0.00087028 57.89935493 -0.00695992 C62.68974104 -0.01068242 67.48011749 -0.00937309 72.270504 -0.00683212 C74.50277589 -0.00618666 76.73504881 -0.00690253 78.96731949 -0.00931168 C93.81102925 -0.02175822 108.63884695 0.21412339 123.47780335 0.55438888 C147.83274399 1.11044911 172.17581113 1.27627832 196.53653526 1.29564857 C203.51060146 1.30173224 210.48462121 1.31840766 217.45866394 1.33699036 C219.87468623 1.34331965 222.29070853 1.34964535 224.70673084 1.35596752 C226.51558449 1.36071624 226.51558449 1.36071624 228.36098063 1.36556089 C244.51106363 1.40727431 260.66111496 1.44077951 276.81124878 1.45291138 C287.83791976 1.46127746 298.8644647 1.48366648 309.89107257 1.52226704 C315.69041458 1.54198387 321.48956846 1.55444439 327.28894615 1.54943275 C332.70111817 1.54480647 338.11292751 1.55847995 343.52502632 1.58644485 C345.50801274 1.59337558 347.49103652 1.59346307 349.47402191 1.58624458 C352.17639985 1.57739659 354.87756971 1.59298008 357.57984924 1.61473083 C358.36520622 1.6062883 359.15056321 1.59784576 359.95971888 1.58914739 C363.58508129 1.64324753 365.82042435 2.03175611 368.96912956 3.88301849 C371.20918949 6.37977099 371.60581338 7.25309353 371.59712219 10.54267883 C371.6068915 11.42381851 371.6166608 12.30495819 371.62672615 13.21279907 C371.6118862 14.17472168 371.59704624 15.13664429 371.58175659 16.12771606 C371.58564833 17.15065262 371.58954006 18.17358917 371.59354973 19.2275238 C371.60017956 22.64630998 371.57075525 26.06380374 371.54098511 29.48245239 C371.53748332 31.90337421 371.53599331 34.32429968 371.53639221 36.745224 C371.53104251 42.58170868 371.50166665 48.41770133 371.46007961 54.25403339 C371.42706755 58.95898764 371.40484554 63.66388217 371.38980103 68.368927 C371.27818654 102.62600248 370.93040991 136.87897869 370.10739136 171.12698364 C370.08787792 171.96634335 370.06836449 172.80570305 370.04825974 173.67049789 C369.93677203 178.45447843 369.81530573 183.23799396 369.67695045 188.02127647 C369.63692689 189.42668795 369.599176 190.83216672 369.56412315 192.23771095 C368.95673667 215.98155118 368.95673667 215.98155118 364.98239136 224.12698364 C362.95114136 225.23635864 362.95114136 225.23635864 360.48239136 225.87698364 C359.68832886 226.09870239 358.89426636 226.32042114 358.07614136 226.54885864 C349.23687732 228.20064031 340.20035922 228.42436984 331.23629761 228.81057739 C329.86514683 228.87095228 328.49399717 228.93135245 327.12284851 228.99177551 C322.59712738 229.18913898 318.07105286 229.37753047 313.54489136 229.56448364 C312.75919014 229.59716087 311.97348892 229.6298381 311.16397858 229.66350555 C270.40719207 231.35416719 229.63530185 232.23661231 188.85174084 232.98196125 C183.18295483 233.08562525 177.5142901 233.1941972 171.84567261 233.30667114 C151.22549526 233.71273377 130.6059614 233.97278305 109.98239136 234.12698364 C108.90862244 234.13515862 107.83485352 234.14333359 106.72854614 234.15175629 C90.20974495 234.2760383 73.69109672 234.36203192 57.17190552 234.41207886 C51.97728611 234.4283588 46.78282788 234.45358697 41.58828735 234.48641968 C35.44359412 234.52451317 29.29915003 234.54277945 23.15434265 234.54606056 C20.86201101 234.55050104 18.56968153 234.56182161 16.27742004 234.58029747 C13.11677189 234.60450244 9.95706765 234.6038544 6.7963562 234.59695435 C5.86907148 234.60976755 4.94178677 234.62258076 3.98640251 234.63578224 C-0.11331408 234.60246751 -2.42301637 234.48102298 -6.00598145 232.34761047 C-10.26247243 227.64888792 -10.30791942 223.55221713 -10.28503418 217.37225342 C-10.28956529 216.47877115 -10.29409641 215.58528888 -10.29876482 214.66473138 C-10.31144601 211.66462909 -10.30978606 208.66470746 -10.30813599 205.6645813 C-10.31411889 203.51611598 -10.32092389 201.36765282 -10.32849121 199.2191925 C-10.34618215 193.37829223 -10.35084788 187.53745053 -10.35212278 181.69652605 C-10.35402036 176.82315588 -10.36137624 171.9497994 -10.36846697 167.07643449 C-10.38476014 155.58025634 -10.38963506 144.08410952 -10.38821411 132.58792114 C-10.38701229 120.72271943 -10.40812019 108.85769951 -10.43970144 96.99254382 C-10.46583809 86.81070397 -10.47658251 76.6289236 -10.47530329 66.44705045 C-10.47479291 60.36363869 -10.4805183 54.28038844 -10.50165939 48.19701004 C-10.52099781 42.47602904 -10.52119623 36.75536437 -10.50662613 31.03437233 C-10.50453151 28.93410977 -10.50927764 26.83382764 -10.52134705 24.73359871 C-10.53675281 21.86725246 -10.52752211 19.00200329 -10.51208496 16.13568115 C-10.52237209 15.303769 -10.53265921 14.47185685 -10.54325807 13.61473525 C-10.48040952 8.33719648 -9.52474179 5.31300455 -6.01760864 1.12698364 C-3.74805249 -0.00779443 -2.51916511 0.0012971 0 0 Z M237.44379285 20.32052699 C229.56650344 20.34930947 221.68921002 20.37691586 213.81191629 20.40448684 C199.77824374 20.45363445 185.7445744 20.50363971 171.71090698 20.55422974 C158.12497113 20.6032038 144.53903383 20.65174341 130.95309448 20.69973755 C130.09906147 20.70275505 129.24502845 20.70577255 128.36511564 20.7088815 C121.68034242 20.73249714 114.99556912 20.75608857 108.31079578 20.77967238 C75.86798956 20.89413641 43.42519121 21.01070121 10.98239136 21.12698364 C10.98239136 84.81698364 10.98239136 148.50698364 10.98239136 214.12698364 C43.91307742 215.78766991 43.91307742 215.78766991 76.8288269 216.42996216 C78.76711861 216.4376914 80.70540715 216.44624942 82.64369202 216.45553589 C86.70967095 216.47333973 90.77560847 216.485673 94.84161949 216.49307442 C101.33144494 216.50494427 107.82118057 216.53054602 114.31095886 216.55738831 C124.61504048 216.59850801 134.91912722 216.63114694 145.22325021 216.65986246 C163.59295134 216.71118298 181.96260873 216.77454629 200.33224517 216.84520286 C206.72417673 216.86942024 213.11609883 216.8890289 219.5080567 216.90471148 C258.51478828 217.00505246 297.50414846 217.6608699 336.48239136 219.18948364 C338.91336686 219.28165256 341.34435657 219.37344775 343.77536011 219.46487427 C349.511205 219.68135278 355.24686939 219.90211857 360.98239136 220.12698364 C360.84219156 216.772557 360.69420708 213.41851589 360.54489136 210.06448364 C360.50557495 209.12153442 360.46625854 208.17858521 360.42575073 207.20706177 C360.3838562 206.28215942 360.34196167 205.35725708 360.29879761 204.40432739 C360.26213989 203.56119995 360.22548218 202.71807251 360.18771362 201.84939575 C360.03607127 199.8387372 359.79069087 197.8346477 359.49482727 195.84010315 C358.92347381 191.70006604 358.66286565 187.61124458 358.4670105 183.43972778 C358.42550055 182.58911963 358.38399059 181.73851147 358.34122276 180.8621273 C358.20646211 178.02487198 358.0795098 175.18736512 357.95504761 172.34963989 C357.91095324 171.35427782 357.86685886 170.35891575 357.8214283 169.33339119 C356.69767412 143.34606573 356.57445573 117.35131213 356.43978882 91.34365845 C356.38665053 81.25096899 356.32218243 71.15836351 356.25157356 61.06578255 C356.22910191 57.5933884 356.21263396 54.1210049 356.19685364 50.64857483 C356.18344415 48.51434189 356.1698291 46.38011023 356.15597534 44.24588013 C356.15205528 42.83943993 356.15205528 42.83943993 356.14805603 41.40458679 C356.09358437 34.28072785 355.59758234 27.22310486 354.98239136 20.12698364 C315.8023029 20.09235026 276.62356139 20.17716506 237.44379285 20.32052699 Z " fill="#010202" transform="translate(74.01760864257813,84.87301635742188)"/>
<path d="M0 0 C63.95501804 -0.06297647 127.90864267 -0.00304216 191.86328125 0.21875 C192.65362926 0.22148658 193.44397726 0.22422317 194.25827521 0.22704268 C214.36817072 0.29676161 234.47805144 0.37033993 254.5879277 0.44538212 C266.23382666 0.48880221 277.87972928 0.5311224 289.52563477 0.57275391 C290.77886987 0.5772344 290.77886987 0.5772344 292.05742285 0.58180541 C296.25413924 0.59680384 300.45085568 0.611785 304.64757216 0.62675762 C338.76505807 0.74850035 372.88253262 0.87317107 407 1 C407.02278966 33.46846991 407.04049781 65.93693752 407.05106533 98.40541359 C407.05231611 102.23454983 407.05361042 106.06368605 407.05493164 109.89282227 C407.05532511 111.03633895 407.05532511 111.03633895 407.05572652 112.20295698 C407.06008337 124.5630492 407.067971 136.92313678 407.0771528 149.28322624 C407.08648892 161.95631985 407.09205552 174.62941103 407.09408849 187.30250794 C407.09546381 195.12881798 407.09981485 202.95511494 407.10791647 210.78142095 C407.11380409 216.77245809 407.11445907 222.76348386 407.11310768 228.75452423 C407.11338421 231.21970513 407.11539197 233.6848865 407.11920547 236.15006447 C407.12413575 239.49971481 407.12300076 242.84930786 407.12025452 246.19895935 C407.12462378 247.68287781 407.12462378 247.68287781 407.12908131 249.19677442 C407.12709026 250.08703134 407.12509921 250.97728826 407.12304783 251.89452267 C407.12342755 252.66877242 407.12380727 253.44302217 407.1241985 254.24073404 C407 256 407 256 406 257 C403.17053867 257.15141949 400.36341933 257.23781271 397.53149414 257.28344727 C396.63401648 257.3016622 395.73653881 257.31987713 394.81186485 257.33864403 C391.78220196 257.39866552 388.75245742 257.45136068 385.72265625 257.50390625 C383.55745394 257.54483638 381.39225729 257.5860674 379.22706604 257.62757874 C355.34690164 258.07686935 331.46493063 258.43088546 307.58321935 258.78611201 C292.8210232 259.00573498 278.0589373 259.23251106 263.296875 259.4609375 C262.58289984 259.47197895 261.86892467 259.48302041 261.13331389 259.49439645 C231.00539713 259.96057824 200.87822126 260.46370588 170.7514534 260.99946976 C167.22908042 261.06176463 163.70669146 261.12306221 160.18429565 261.18405151 C129.95739895 261.69516013 129.95739895 261.69516013 99.74279785 262.66496277 C91.13505172 262.99670489 82.5308063 263.12708645 73.91796875 263.2109375 C72.53295325 263.22537649 71.1479384 263.23987743 69.76292419 263.25444031 C64.17492431 263.3117823 58.58697862 263.36763167 52.9987793 263.40136719 C32.83852528 263.5291913 13.03538676 264.70645239 -7 267 C-6.91276232 266.40495289 -6.82552464 265.80990578 -6.73564339 265.19682693 C-4.46193997 249.35120941 -3.48589306 233.79186245 -3.3046875 217.796875 C-3.26795932 215.41404007 -3.23009133 213.03122248 -3.19117737 210.64842224 C-3.09111931 204.32183454 -3.00715395 197.99513204 -2.92658615 191.66827011 C-2.83960659 185.06166332 -2.7372442 178.45529272 -2.63696289 171.84887695 C-2.40266274 156.23286637 -2.19671621 140.61652847 -2 125 C-1.9786285 123.30539768 -1.9786285 123.30539768 -1.95682526 121.57656097 C-1.6082706 94.01985567 -1.6082706 94.01985567 -1.32283974 66.46244431 C-1.29983309 64.05175206 -1.27332689 61.64111733 -1.24609375 59.23046875 C-1.22499558 57.31231873 -1.22499558 57.31231873 -1.20347118 55.35541821 C-1.06198187 43.354449 -0.78847003 31.35842203 -0.48461914 19.3605957 C-0.43746904 17.4684192 -0.39041303 15.57624036 -0.34345245 13.68405914 C-0.23004754 9.12267845 -0.11538857 4.56133093 0 0 Z M14 16 C12.36076406 19.27847189 12.85204013 22.91061732 12.85282898 26.51422119 C12.84915229 27.40599461 12.8454756 28.29776803 12.8416875 29.21656489 C12.83062126 32.22283284 12.82680185 35.22906626 12.82299805 38.23535156 C12.81673563 40.38352062 12.81008903 42.53168858 12.80308533 44.67985535 C12.78565525 50.52912302 12.77511815 56.3783825 12.7668798 62.22766972 C12.76173404 65.87977555 12.75565812 69.53187882 12.74936867 73.18398285 C12.73031124 84.60380891 12.71608112 96.02362847 12.7077567 107.44346738 C12.6979804 120.63830134 12.67165281 133.83296773 12.63125581 147.02774262 C12.60112488 157.2180274 12.5862907 167.40826405 12.58297569 177.59859252 C12.5806218 183.68875157 12.57161726 189.7787317 12.54651451 195.86884308 C12.5232817 201.59799106 12.51898136 207.32684172 12.52927589 213.05602455 C12.52977253 215.15951589 12.52341475 217.26302162 12.50971985 219.36646843 C12.49207384 222.2372855 12.49907133 225.10702711 12.51225281 227.97784424 C12.50128356 228.81112063 12.49031432 229.64439702 12.47901267 230.5029242 C12.53767041 235.79098173 13.4763321 238.81620142 17 243 C20.90940268 245.60626845 24.19489491 245.28042542 28.72998047 245.25878906 C29.63446489 245.26224272 30.53894932 245.26569637 31.47084236 245.26925468 C34.51969552 245.27802995 37.56833089 245.2720126 40.6171875 245.265625 C42.80363027 245.26774548 44.99007248 245.27051852 47.17651367 245.27389526 C53.15477148 245.27957457 59.13292455 245.27058461 65.11116791 245.25754547 C68.87703077 245.24999593 72.64288359 245.24586269 76.40875244 245.24261475 C115.91557012 245.20263363 155.4146813 244.81497369 194.91629791 244.18766785 C198.79930561 244.12619827 202.68233505 244.06627712 206.56536865 244.00646973 C242.23072834 243.4493604 277.8674347 242.43010431 313.51292229 241.12657928 C319.71336508 240.90150612 325.91406092 240.68360858 332.11474609 240.46533203 C335.44785142 240.34796501 338.78095543 240.23056294 342.11404991 240.11288834 C344.29665921 240.0358538 346.47927811 239.95909091 348.66190529 239.88256454 C349.73495604 239.84468952 350.80800678 239.8068145 351.91357422 239.76779175 C352.86669495 239.73428556 353.81981567 239.70077938 354.80181885 239.66625786 C371.72124697 239.17980215 371.72124697 239.17980215 388 235 C389.32892392 232.95156528 389.32892392 232.95156528 389.8125 230.4375 C390.02519531 229.63183594 390.23789062 228.82617188 390.45703125 227.99609375 C392.04546397 219.23114486 392.283559 210.43404451 392.53515625 201.55078125 C392.56709642 200.47064066 392.56709642 200.47064066 392.59968185 199.36867905 C392.76736668 193.68361947 392.91828639 187.99819956 393.0625 182.3125 C393.0841283 181.46337162 393.10575661 180.61424324 393.12804031 179.7393837 C393.98743211 145.57235169 394.3101301 111.40018211 394.41456944 77.22350484 C394.43002767 72.52200825 394.45828419 67.82069306 394.49172974 63.11929321 C394.53562083 56.72911951 394.55425659 50.33935928 394.55333328 43.94903946 C394.55681707 41.56916683 394.56875442 39.18929032 394.58948898 36.80950546 C394.61617884 33.53943678 394.61181555 30.2708526 394.59936523 27.00073242 C394.62162469 25.55785087 394.62162469 25.55785087 394.64433384 24.0858202 C394.63456485 23.20467895 394.62479586 22.32353769 394.61473083 21.41569519 C394.61674216 20.65441409 394.61875349 19.89313299 394.62082577 19.10878277 C393.63076247 15.74579668 391.9847016 14.75483744 389 13 C386.07151982 12.61317809 383.52205894 12.45630792 380.59745789 12.48774719 C379.75317272 12.48095151 378.90888754 12.47415582 378.03901798 12.4671542 C375.20893406 12.44919577 372.37967221 12.45966849 369.54956055 12.4699707 C367.51834958 12.46287143 365.48714413 12.45400738 363.45594788 12.44351196 C357.92420615 12.41984023 352.39269989 12.42064633 346.86091971 12.42542672 C341.02701121 12.42602205 335.19319527 12.40328074 329.35932922 12.38285828 C318.25356073 12.34736257 307.1478575 12.33142572 296.04203874 12.3230831 C279.93610049 12.31027094 263.83022413 12.27126607 247.72433949 12.22898388 C245.92516269 12.22427585 245.92516269 12.22427585 244.08963889 12.21947271 C241.68840861 12.21318217 239.28717847 12.20683831 236.88594848 12.20044011 C230.00058002 12.18277021 223.11524158 12.17149881 216.22985303 12.1660195 C189.08185016 12.14245791 161.95974515 11.79313702 134.81911421 11.1694085 C122.83489943 10.89883303 110.85034282 10.78207512 98.86328125 10.7265625 C97.72202475 10.72123882 96.58076824 10.71591515 95.40492821 10.71043015 C89.44028795 10.68446605 83.47566373 10.66481718 77.51098633 10.64990234 C72.63483132 10.63626903 67.7590662 10.60779584 62.88305664 10.56787109 C56.86897737 10.51875484 50.855265 10.49382314 44.84099388 10.48667526 C42.58151317 10.47998473 40.32204015 10.46482046 38.06267738 10.44078445 C34.94798576 10.40934513 31.83477764 10.40905517 28.7199707 10.41650391 C27.80347748 10.40009857 26.88698425 10.38369324 25.94271851 10.36679077 C20.23199451 10.42292718 17.62461707 11.20080478 14 16 Z " fill="#5C5C5C" transform="translate(51,74)"/>
<path d="M0 0 C3.67370791 -0.01108644 7.34728682 -0.02893239 11.02093506 -0.05255127 C15.37064558 -0.07989294 19.7201466 -0.09217955 24.06994057 -0.09296608 C25.68441735 -0.09560061 27.29889479 -0.10332551 28.91332054 -0.11643028 C31.13576549 -0.13345279 33.35744207 -0.13171023 35.57992554 -0.12527466 C36.82982269 -0.12892029 38.07971985 -0.13256592 39.36749268 -0.13632202 C42.95451574 0.26565209 44.79510208 1.05615921 47.64682007 3.23117065 C49.8007001 6.4619907 49.90165772 7.35463848 49.92147827 11.08224487 C49.93101028 12.06691742 49.9405423 13.05158997 49.95036316 14.06610107 C49.94899605 15.65988083 49.94899605 15.65988083 49.94760132 17.28585815 C49.95188644 18.37955719 49.95617157 19.47325623 49.96058655 20.60009766 C49.96633285 22.91510323 49.96682792 25.23012685 49.9624939 27.5451355 C49.95933865 31.08532609 49.98277387 34.62467746 50.00814819 38.1647644 C50.01042163 40.41346127 50.01112448 42.66216038 50.01010132 44.91085815 C50.01931107 45.96932953 50.02852081 47.0278009 50.03800964 48.11834717 C49.97971754 57.39240006 49.97971754 57.39240006 46.64682007 61.23117065 C43.21661511 63.51797396 41.98695551 63.48219578 37.95344543 63.48513794 C36.16897821 63.49360591 36.16897821 63.49360591 34.34846115 63.50224495 C33.03853825 63.49819082 31.72861534 63.4941367 30.3789978 63.48995972 C28.98298082 63.4926238 27.58696523 63.49613428 26.1909523 63.50042534 C22.37299833 63.50947149 18.5551497 63.50577252 14.73719382 63.49959421 C11.50931585 63.4958409 8.28146112 63.49911906 5.05358392 63.50249398 C-4.47178894 63.51240349 -13.99708289 63.50318023 -23.52244568 63.48871613 C-28.89916896 63.48069398 -34.27589047 63.47701607 -39.65261841 63.4737854 C-79.64022146 63.44654733 -119.62678832 63.40599307 -159.60317993 62.35617065 C-160.37190052 62.33645706 -161.14062111 62.31674347 -161.93263626 62.2964325 C-171.66061042 62.04531231 -181.38421109 61.72215783 -191.1072998 61.32225037 C-193.56161324 61.22271782 -196.01609558 61.12818303 -198.47061157 61.03378296 C-202.96479933 60.85891741 -207.45802219 60.66712723 -211.95104218 60.46453476 C-213.69003305 60.387907 -215.42922223 60.31563822 -217.16858673 60.24802017 C-219.58736089 60.15253093 -222.00471945 60.03949747 -224.42251587 59.92208862 C-225.13734383 59.89739376 -225.85217178 59.8726989 -226.58866119 59.84725571 C-232.23164015 59.5434514 -236.22192205 57.94801728 -240.60317993 54.41867065 C-244.68404915 49.31758414 -244.64477297 43.70376308 -244.54067993 37.48117065 C-244.53205933 36.66003784 -244.52343872 35.83890503 -244.51455688 34.9928894 C-244.47776332 32.40499309 -244.41907396 29.81848047 -244.35317993 27.23117065 C-244.33384399 26.37587769 -244.31450806 25.52058472 -244.29458618 24.63937378 C-244.23021776 22.1687624 -244.14100207 19.70056082 -244.04067993 17.23117065 C-244.01836304 16.47223511 -243.99604614 15.71329956 -243.97305298 14.93136597 C-243.71386484 9.80845091 -243.71386484 9.80845091 -242.30264282 7.54977417 C-239.30120584 5.51962249 -236.16245495 5.6740779 -232.65005493 5.5710144 C-231.84956726 5.53629028 -231.04907959 5.50156616 -230.22433472 5.46578979 C-227.51765141 5.35250138 -224.8106715 5.26046839 -222.10317993 5.16867065 C-220.16694379 5.09289969 -218.23074649 5.01613075 -216.29458618 4.93844604 C-209.6482343 4.67872946 -203.00085489 4.45400277 -196.35317993 4.23117065 C-193.79523654 4.14395114 -191.23729385 4.05671098 -188.67935181 3.9694519 C-171.34288839 3.38270553 -154.0051017 2.84719669 -136.66641235 2.33078003 C-132.98410744 2.22007482 -129.30195711 2.10497115 -125.61982727 1.98861694 C-116.19855434 1.69174727 -106.7766653 1.44601726 -97.35317993 1.23117065 C-96.40968689 1.20925659 -95.46619385 1.18734253 -94.49411011 1.1647644 C-62.99938008 0.43977831 -31.50255637 0.09270269 0 0 Z " fill="#020201" transform="translate(355.3531799316406,170.76882934570313)"/>
<path d="M0 0 C14.93748697 -0.03386558 29.87497909 -0.05194633 44.8125 -0.0625 C46.01467037 -0.06335602 47.21684074 -0.06421204 48.45544052 -0.06509399 C110.24179356 -0.10350079 172.02700748 0.2064234 233.8125 0.5 C235.70041283 0.50896057 235.70041283 0.50896057 237.62646532 0.51810217 C270.41766792 0.67383708 303.20884552 0.83444953 336 1 C334 3.66666667 332 6.33333333 330 9 C329.55905345 9.73759646 329.1181069 10.47519293 328.66379833 11.2351408 C327 13 327 13 324.39109516 13.49498463 C323.33530356 13.49259627 322.27951197 13.49020792 321.19172668 13.48774719 C319.37116508 13.49816292 319.37116508 13.49816292 317.51382446 13.50878906 C316.16521863 13.49622368 314.81661636 13.483271 313.46801758 13.4699707 C312.0479364 13.47047962 310.62785492 13.47273612 309.20777893 13.47660828 C305.33276967 13.48204932 301.45823529 13.46252174 297.58331132 13.43850732 C293.48180064 13.41710477 289.38028995 13.41779903 285.2787323 13.41581726 C278.34207131 13.40934973 271.40558518 13.38808973 264.46899414 13.35668945 C254.86816002 13.31326972 245.26743203 13.29712322 235.66651416 13.28638327 C206.04612839 13.24963056 176.43204679 13.14939551 146.81912422 12.43213272 C123.69971576 11.87235487 100.58168234 11.7430969 77.45605469 11.70483398 C72.57312322 11.69576872 67.69045771 11.67435908 62.80761719 11.64331055 C56.7870756 11.60505531 50.76677531 11.58609772 44.74611664 11.58155251 C42.48303527 11.57669676 40.21995749 11.56511186 37.95694733 11.54651451 C34.83981345 11.52233908 31.72364281 11.5230397 28.60644531 11.5300293 C27.68635681 11.51721924 26.76626831 11.50440918 25.81829834 11.49121094 C20.77398447 11.49023504 20.77398447 11.49023504 16.46209717 13.90437317 C13.57349698 18.04460967 13.85175551 21.61042846 13.85282898 26.51422119 C13.84915229 27.40599461 13.8454756 28.29776803 13.8416875 29.21656489 C13.83062126 32.22283284 13.82680185 35.22906626 13.82299805 38.23535156 C13.81673563 40.38352062 13.81008903 42.53168858 13.80308533 44.67985535 C13.78565525 50.52912302 13.77511815 56.3783825 13.7668798 62.22766972 C13.76173404 65.87977555 13.75565812 69.53187882 13.74936867 73.18398285 C13.73031124 84.60380891 13.71608112 96.02362847 13.7077567 107.44346738 C13.6979804 120.63830134 13.67165281 133.83296773 13.63125581 147.02774262 C13.60112488 157.2180274 13.5862907 167.40826405 13.58297569 177.59859252 C13.5806218 183.68875157 13.57161726 189.7787317 13.54651451 195.86884308 C13.5232817 201.59799106 13.51898136 207.32684172 13.52927589 213.05602455 C13.52977253 215.15951589 13.52341475 217.26302162 13.50971985 219.36646843 C13.49207384 222.2372855 13.49907133 225.10702711 13.51225281 227.97784424 C13.50128356 228.81112063 13.49031432 229.64439702 13.47901267 230.5029242 C13.53760809 235.78536312 14.48809965 238.81054112 18 243 C20.75593138 244.37796569 23.01779814 244.16298939 26.10205078 244.20532227 C27.38322784 244.22526749 28.66440491 244.24521271 29.98440552 244.26576233 C31.38803994 244.28274669 32.79167563 244.29962549 34.1953125 244.31640625 C35.62735597 244.3369754 37.05939337 244.35797186 38.49142456 244.37937927 C42.26266563 244.43460403 46.03396152 244.48401147 49.80529785 244.53222656 C53.65280036 244.58243867 57.50022313 244.63812624 61.34765625 244.69335938 C68.89837 244.80094587 76.44915 244.90238971 84 245 C82.13646127 248.85410128 79.89088034 252.27860183 77.3125 255.6875 C76.72758789 256.57791992 76.72758789 256.57791992 76.13085938 257.48632812 C73.64931418 260.6820919 71.81380103 261.84740458 67.78662109 262.60253906 C63.85302381 262.88471964 59.94114307 262.97751824 56 263 C53.54161173 263.06836488 51.08327604 263.13864973 48.625 263.2109375 C47.38685547 263.23744385 46.14871094 263.2639502 44.87304688 263.29125977 C27.47131903 263.66750741 10.29734219 265.09401228 -7 267 C-6.91276232 266.40495289 -6.82552464 265.80990578 -6.73564339 265.19682693 C-4.46193997 249.35120941 -3.48589306 233.79186245 -3.3046875 217.796875 C-3.26795932 215.41404007 -3.23009133 213.03122248 -3.19117737 210.64842224 C-3.09111931 204.32183454 -3.00715395 197.99513204 -2.92658615 191.66827011 C-2.83960659 185.06166332 -2.7372442 178.45529272 -2.63696289 171.84887695 C-2.40266274 156.23286637 -2.19671621 140.61652847 -2 125 C-1.9786285 123.30539768 -1.9786285 123.30539768 -1.95682526 121.57656097 C-1.63689748 96.21627484 -1.63689748 96.21627484 -1.36444473 70.85544777 C-1.133823 47.23025708 -0.63149431 23.61784168 0 0 Z " fill="#8F8F8F" transform="translate(51,74)"/>
<path d="M0 0 C4.41283913 -0.0260735 8.82562993 -0.04345049 13.23852539 -0.05493164 C14.71802553 -0.05974985 16.19752167 -0.06638594 17.67700195 -0.07543945 C26.37171553 -0.12703112 35.058273 -0.04373358 43.74975586 0.20727539 C44.45852119 0.22773422 45.16728653 0.24819305 45.8975296 0.26927185 C46.63278618 0.29055649 47.36804276 0.31184113 48.12557983 0.33377075 C67.24790527 0.88696338 86.36652258 1.16130148 105.49609375 1.31640625 C106.16317266 1.32182332 106.83025156 1.32724039 107.51754498 1.33282161 C115.72688903 1.39896526 123.93627142 1.45928508 132.14567572 1.51740879 C139.23948941 1.56777977 146.33326958 1.62231323 153.42705047 1.67708123 C167.95133588 1.7891295 182.47565632 1.89576872 197 2 C197 9.26 197 16.52 197 24 C184.83317302 24.81120564 172.71281975 25.2038443 160.52191544 25.39170647 C131.06172942 25.8558241 101.61756009 26.76976613 72.17043376 27.74047244 C66.71798415 27.91953044 61.26528819 28.09003501 55.81251824 28.25901407 C49.79530061 28.44594098 43.77839912 28.64160424 37.76156235 28.84045601 C35.24924793 28.92234297 32.73684951 29.00169828 30.22436905 29.07832146 C12.51157095 29.51301026 12.51157095 29.51301026 -5 32 C-4.8631781 31.35198425 -4.7263562 30.70396851 -4.58538818 30.03631592 C-3.219281 23.51460607 -2.23917985 16.97980313 -1.375 10.375 C-1.17390625 8.86873047 -1.17390625 8.86873047 -0.96875 7.33203125 C-0.64293123 4.88839048 -0.32006186 2.44440027 0 0 Z " fill="#F6C600" transform="translate(124,190)"/>
<path d="M0 0 C10.56 0 21.12 0 32 0 C32.2475 2.51625 32.495 5.0325 32.75 7.625 C34.77649749 26.09073222 38.55329131 43.03454902 45.06689453 60.45556641 C46.46731113 64.27428483 47.74272979 68.13216025 49 72 C45.87436347 71.54594101 42.74951126 71.08673823 39.625 70.625 C38.24586426 70.42136841 38.24586426 70.42136841 36.83886719 70.21362305 C32.27790138 69.52963997 27.75701066 68.8006301 23.25 67.8125 C17.60585614 66.63622484 12.52521798 66.55194928 6.8828125 67.9453125 C1.92787168 69.08192975 -3.00716638 69.64652777 -8.0625 70.125 C-8.92810547 70.21136719 -9.79371094 70.29773438 -10.68554688 70.38671875 C-12.78988844 70.59599029 -14.89488124 70.79869668 -17 71 C-16.40064635 67.6274731 -15.55949588 64.59038274 -14.29296875 61.41015625 C-13.95547607 60.55067383 -13.6179834 59.69119141 -13.27026367 58.80566406 C-12.91295166 57.90041992 -12.55563965 56.99517578 -12.1875 56.0625 C-4.99741427 37.44836193 -1.42789143 19.99048006 0 0 Z " fill="#5C5C5C" transform="translate(240,350)"/>
<path d="M0 0 C1.89139766 0.01681131 3.78283483 0.02961056 5.67428589 0.03858948 C10.62368275 0.07275635 15.57065666 0.16098596 20.519104 0.26092529 C25.58011098 0.35342465 30.64151419 0.39418896 35.703125 0.43945312 C45.61320852 0.53562866 55.52086635 0.69376858 65.4296875 0.87890625 C65.4296875 8.13890625 65.4296875 15.39890625 65.4296875 22.87890625 C51.42824657 23.82494956 37.45938405 24.15687141 23.4296875 24.37890625 C9.28158292 24.60576781 -4.85134015 24.90104264 -18.9876709 25.54321289 C-28.51719391 25.96537393 -38.03356503 25.9748065 -47.5703125 25.87890625 C-46.9103125 25.54890625 -46.2503125 25.21890625 -45.5703125 24.87890625 C-45.333125 24.30527344 -45.0959375 23.73164063 -44.8515625 23.140625 C-42.97533281 19.82862198 -40.07247469 17.92386515 -37.0703125 15.69140625 C-35.89009681 14.80624448 -34.71309753 13.91678075 -33.5390625 13.0234375 C-32.93033295 12.57224548 -32.32160339 12.12105347 -31.69442749 11.65618896 C-29.4924605 9.91859317 -29.4924605 9.91859317 -27.68325806 7.63397217 C-19.69916717 -1.31671651 -11.12292945 -0.29164016 0 0 Z " fill="#F69D0F" transform="translate(255.5703125,191.12109375)"/>
<path d="M0 0 C10.56 0 21.12 0 32 0 C34.12149034 18.62197075 34.12149034 18.62197075 31.5078125 24.1640625 C28.8968541 26.86536548 26.12296036 28.95081558 23 31 C21.50664322 32.0282518 20.01454494 33.05833279 18.5234375 34.08984375 C16.06986771 35.77450617 13.61080948 37.44690435 11.12988281 39.09106445 C4.95463921 43.2064669 -0.43092769 47.69506195 -5.75 52.85546875 C-8 55 -8 55 -11 57 C-9.99055376 51.95276882 -8.73995198 47.07022176 -7.22241211 42.14941406 C-2.90665907 28.0924811 -1.05548251 14.77675517 0 0 Z " fill="#8E8E8E" transform="translate(240,350)"/>
<path d="M0 0 C14.52 0 29.04 0 44 0 C44 7.26 44 14.52 44 22 C29.48 22 14.96 22 0 22 C0 14.74 0 7.48 0 0 Z " fill="#C8C8C8" transform="translate(340,192)"/>
<path d="M0 0 C10.23 0 20.46 0 31 0 C29.02 2.31 27.04 4.62 25 7 C24.41395996 7.68634521 23.82791992 8.37269043 23.22412109 9.07983398 C13.3655192 20.40345531 13.3655192 20.40345531 7.421875 21.90234375 C4.125 21.875 4.125 21.875 -1 21 C-0.67 14.07 -0.34 7.14 0 0 Z " fill="#ECECEC" transform="translate(341,193)"/>
</svg>
