<?xml version="1.0" encoding="UTF-8"?>
<svg version="1.1" xmlns="http://www.w3.org/2000/svg" width="512" height="512">
<path d="M0 0 C2.32708364 0.0474117 4.64960285 0.04107568 6.97705078 0.02783203 C8.47056742 0.03898231 9.96406498 0.05320007 11.45751953 0.07080078 C12.48898605 0.06806656 12.48898605 0.06806656 13.54129028 0.0652771 C18.51542726 0.21017717 21.34417246 1.59656794 25.19970703 4.67236328 C29.22485919 9.13266702 30.27584149 12.45399594 30.76220703 18.35986328 C30.84599609 19.35373047 30.92978516 20.34759766 31.01611328 21.37158203 C31.07669922 22.13083984 31.13728516 22.89009766 31.19970703 23.67236328 C32.25029297 24.05908203 33.30087891 24.44580078 34.38330078 24.84423828 C41.76333222 27.57660706 49.05690663 30.35606309 56.19970703 33.67236328 C56.71919922 33.19025391 57.23869141 32.70814453 57.77392578 32.21142578 C62.58687713 27.85219073 65.92286991 25.04332597 72.51220703 24.29736328 C81.70788921 25.2325174 87.33249594 31.18227475 93.51220703 37.48486328 C94.30949219 38.26667969 95.10677734 39.04849609 95.92822266 39.85400391 C101.267915 45.22962354 104.65862372 49.42099444 105.63720703 57.10986328 C104.73975514 64.41768584 100.85903151 69.22489436 96.19970703 74.67236328 C96.67021484 75.65076172 97.14072266 76.62916016 97.62548828 77.63720703 C100.91942931 84.55051459 104.00539778 91.31497345 106.19970703 98.67236328 C106.92416016 98.70974609 107.64861328 98.74712891 108.39501953 98.78564453 C120.17155012 99.58644861 120.17155012 99.58644861 124.63330078 104.13330078 C128.7012587 108.85812443 129.37322529 111.79485933 129.43798828 117.84033203 C129.44606003 118.5533699 129.45413177 119.26640778 129.46244812 120.00105286 C129.47628835 121.51329113 129.48701079 123.02556063 129.49487305 124.5378418 C129.51201359 126.83395086 129.55588737 129.12859214 129.60009766 131.42431641 C129.61023151 132.89631106 129.61874544 134.36831794 129.62548828 135.84033203 C129.64299637 136.51976364 129.66050446 137.19919525 129.67854309 137.8992157 C129.65424897 143.32759279 128.18869071 146.30286155 125.19970703 150.67236328 C120.08874437 154.71854205 116.34686376 155.8190364 109.94970703 155.73486328 C109.05767578 155.72583984 108.16564453 155.71681641 107.24658203 155.70751953 C106.23337891 155.69011719 106.23337891 155.69011719 105.19970703 155.67236328 C104.99345703 156.86861328 104.78720703 158.06486328 104.57470703 159.29736328 C103.3232426 165.07618434 100.87910733 170.28076166 98.44189453 175.63330078 C97.0105296 178.58800557 97.0105296 178.58800557 97.19970703 181.67236328 C98.29351177 183.06889204 99.4490821 184.41764631 100.63720703 185.73486328 C104.51125412 190.56759951 105.71385998 194.50252789 105.19970703 200.67236328 C103.46126063 206.97423149 99.62188939 211.05825981 95.19970703 215.67236328 C94.31154297 216.61208984 93.42337891 217.55181641 92.50830078 218.52001953 C82.38133611 229.01210606 82.38133611 229.01210606 75.45361328 230.10595703 C67.6898224 230.11722523 63.55885255 228.77311299 57.76220703 223.42236328 C57.24658203 222.84486328 56.73095703 222.26736328 56.19970703 221.67236328 C50.47841894 223.47770876 45.10532859 225.88025887 39.63720703 228.33251953 C36.43722208 229.57978639 33.59606511 230.2529959 30.19970703 230.67236328 C30.24611328 231.37361328 30.29251953 232.07486328 30.34033203 232.79736328 C30.59227137 239.41976881 30.24232763 244.29353826 26.19970703 249.67236328 C21.15740058 254.663548 15.71792804 255.24043793 8.82806396 255.27676392 C7.44565919 255.26436208 6.06330691 255.24343305 4.68115234 255.21435547 C2.57180942 255.17230552 0.46565106 255.17331339 -1.64404297 255.18017578 C-15.03265141 255.07666834 -15.03265141 255.07666834 -20.66357422 249.98876953 C-21.14181641 249.40998047 -21.62005859 248.83119141 -22.11279297 248.23486328 C-22.60392578 247.65865234 -23.09505859 247.08244141 -23.60107422 246.48876953 C-25.93685002 242.95086807 -25.91742008 239.57402383 -25.86279297 235.42236328 C-25.85376953 234.53033203 -25.84474609 233.63830078 -25.83544922 232.71923828 C-25.82384766 232.04376953 -25.81224609 231.36830078 -25.80029297 230.67236328 C-26.44353516 230.52541016 -27.08677734 230.37845703 -27.74951172 230.22705078 C-34.65396077 228.5132503 -40.64483531 225.97210974 -46.95263672 222.68408203 C-49.67769116 221.39676577 -49.67769116 221.39676577 -51.98388672 222.34423828 C-53.69048376 223.59207268 -55.33576672 224.84090701 -56.92529297 226.23486328 C-60.78599238 229.50806496 -62.56492387 229.86704983 -67.55029297 229.98486328 C-68.57638672 230.02224609 -69.60248047 230.05962891 -70.65966797 230.09814453 C-78.47210738 229.03899541 -83.7670797 222.00670442 -89.05029297 216.67236328 C-89.86498047 215.86541016 -90.67966797 215.05845703 -91.51904297 214.22705078 C-92.29763672 213.44587891 -93.07623047 212.66470703 -93.87841797 211.85986328 C-94.93657715 210.79832031 -94.93657715 210.79832031 -96.01611328 209.71533203 C-100.18567053 204.940995 -100.22564775 200.75390825 -100.12060547 194.58642578 C-99.48792766 188.83060081 -95.87727498 185.45813229 -91.80029297 181.67236328 C-93.60563845 175.95107519 -96.00818856 170.57798484 -98.46044922 165.10986328 C-99.70771608 161.90987833 -100.38092558 159.06872136 -100.80029297 155.67236328 C-101.35716797 155.70716797 -101.91404297 155.74197266 -102.48779297 155.77783203 C-108.93610628 156.00657288 -114.66901535 155.55177727 -119.59716797 151.02001953 C-125.45179264 144.42659698 -125.07889489 138.10538399 -125.15039062 129.64086914 C-125.16689071 128.21231731 -125.19410251 126.78384601 -125.23242188 125.35571289 C-125.61329813 111.0629174 -125.61329813 111.0629174 -121.17993164 105.1105957 C-117.55200918 101.32859407 -114.82015818 99.82423285 -109.68310547 99.43798828 C-106.70972529 99.4239959 -103.76801903 99.4969312 -100.80029297 99.67236328 C-100.61466797 98.49673828 -100.42904297 97.32111328 -100.23779297 96.10986328 C-99.07366187 90.61306381 -96.62762072 85.83596038 -94.01293945 80.90258789 C-92.10425479 77.31166832 -92.10425479 77.31166832 -92.43701172 73.41455078 C-93.71155734 71.78576182 -95.03558706 70.1960362 -96.36279297 68.60986328 C-99.50787021 64.81964199 -99.98573085 62.21059902 -100.11279297 57.42236328 C-100.15017578 56.50970703 -100.18755859 55.59705078 -100.22607422 54.65673828 C-99.11892345 46.89652557 -93.37995552 41.76004044 -88.05029297 36.48486328 C-87.03322266 35.43782227 -87.03322266 35.43782227 -85.99560547 34.36962891 C-80.76911455 29.14810614 -75.72027928 25.15376511 -68.23779297 24.23486328 C-60.65128536 25.20041879 -55.62173924 29.00008562 -49.80029297 33.67236328 C-49.03845703 33.27404297 -48.27662109 32.87572266 -47.49169922 32.46533203 C-32.3039426 24.67236328 -32.3039426 24.67236328 -25.80029297 24.67236328 C-25.8525 23.72876953 -25.8525 23.72876953 -25.90576172 22.76611328 C-26.11856216 16.03756598 -25.82575569 10.40387728 -21.45703125 5.015625 C-15.17467528 -0.63222198 -7.96931317 -0.17394347 0 0 Z M-42.80029297 93.67236328 C-49.03904957 101.99935234 -53.02971924 112.26961789 -53.80029297 122.67236328 C-53.86345703 123.35943359 -53.92662109 124.04650391 -53.99169922 124.75439453 C-54.76860577 139.86647993 -48.78633391 154.1237901 -39.11279297 165.42236328 C-28.26457446 176.82356444 -13.78721294 183.39344309 1.94970703 183.98486328 C17.95736589 183.55832692 31.25821913 177.66723412 42.50439453 166.52392578 C54.08444194 154.27257127 58.71685891 140.2533387 58.40673828 123.54736328 C57.62948175 108.99946737 50.88784206 95.54727065 40.19970703 85.67236328 C13.86557344 63.99059329 -20.77518616 67.89906164 -42.80029297 93.67236328 Z " fill="#007EB6" transform="translate(181.80029296875,196.32763671875)"/>
<path d="M0 0 C2.00812669 -0.01718416 4.01596651 -0.06108822 6.02368164 -0.10522461 C7.29920898 -0.11360352 8.57473633 -0.12198242 9.88891602 -0.13061523 C11.05334229 -0.14519775 12.21776855 -0.15978027 13.41748047 -0.17480469 C18.01803068 0.48124829 21.29714465 2.49299678 24.17407227 6.15454102 C26.57718373 11.12507926 27.10714522 14.77901961 26.71313477 20.29516602 C27.41438477 20.46532227 28.11563477 20.63547852 28.83813477 20.81079102 C33.56801299 22.01896643 37.87169525 23.22148992 42.15063477 25.60766602 C43.32625977 26.16454102 44.50188477 26.72141602 45.71313477 27.29516602 C48.38713219 26.3136988 49.81045837 25.20340376 51.90063477 23.23266602 C55.66102791 20.64217296 59.16381495 19.90050893 63.71313477 20.29516602 C70.52112771 22.34823988 74.62411114 26.60411588 79.52563477 31.60766602 C80.28811523 32.35467773 81.0505957 33.10168945 81.83618164 33.87133789 C86.39774104 38.46516296 89.35937677 41.93952064 89.90063477 48.60375977 C89.41366216 54.13292787 87.99389608 56.82641967 83.79516602 60.49438477 C82.3866759 62.36337674 82.3866759 62.36337674 83.37329102 65.08032227 C83.81543945 66.1412207 84.25758789 67.20211914 84.71313477 68.29516602 C85.13852539 69.40375977 85.56391602 70.51235352 86.00219727 71.65454102 C86.89707497 73.92575111 87.7929175 76.19658127 88.68969727 78.46704102 C89.71313477 81.29516602 89.71313477 81.29516602 89.71313477 83.29516602 C91.19813477 83.20235352 91.19813477 83.20235352 92.71313477 83.10766602 C98.3234013 83.13042572 102.99868203 84.67094763 107.08813477 88.54516602 C110.8238803 94.86719693 111.05252302 101.06425615 111.02563477 108.23266602 C111.04174805 109.08795898 111.05786133 109.94325195 111.07446289 110.82446289 C111.07908969 116.89019596 110.6068027 123.18257565 106.26098633 127.85717773 C102.20350822 131.32288902 99.81899704 132.42472835 94.58813477 132.35766602 C93.67805664 132.34864258 92.76797852 132.33961914 91.83032227 132.33032227 C91.13165039 132.3187207 90.43297852 132.30711914 89.71313477 132.29516602 C89.61387695 133.14852539 89.51461914 134.00188477 89.41235352 134.88110352 C88.40645122 139.79260413 86.08262724 143.84138601 83.79516602 148.27172852 C82.42264781 151.15083094 82.42264781 151.15083094 83.40844727 153.52563477 C84.51342962 155.02430844 85.64201994 156.50553155 86.77563477 157.98266602 C89.14175027 162.02796026 90.29098154 165.60016098 89.71313477 170.29516602 C87.44209666 176.60634183 83.59569331 181.00667256 78.83813477 185.60766602 C78.2387207 186.21416992 77.63930664 186.82067383 77.02172852 187.44555664 C72.49069437 191.91270418 67.95207947 195.72041566 61.27563477 195.73266602 C55.63433146 195.55161067 51.70712086 193.28915211 47.71313477 189.29516602 C42.63073454 189.78130865 38.16310683 192.18439661 33.55297852 194.23657227 C30.71313477 195.29516602 30.71313477 195.29516602 26.71313477 195.29516602 C26.77500977 196.47079102 26.83688477 197.64641602 26.90063477 198.85766602 C26.87419222 203.84649298 25.81470152 208.07301756 22.28344727 211.80688477 C15.99588356 217.26549107 9.88023825 216.5429838 1.96313477 216.60766602 C0.79524414 216.63666992 -0.37264648 216.66567383 -1.57592773 216.69555664 C-8.3757679 216.74566884 -12.83377048 216.50960767 -18.28686523 212.29516602 C-22.14108595 207.12239611 -22.99775069 202.67014181 -23.28686523 196.29516602 C-24.1440918 195.9690332 -25.00131836 195.64290039 -25.88452148 195.30688477 C-31.73380234 193.0713648 -37.55871996 190.82620695 -43.28686523 188.29516602 C-43.76897461 188.71668945 -44.25108398 189.13821289 -44.74780273 189.57250977 C-45.37944336 190.12036133 -46.01108398 190.66821289 -46.66186523 191.23266602 C-47.28834961 191.77793945 -47.91483398 192.32321289 -48.56030273 192.88500977 C-51.42460512 195.22440606 -53.39616785 195.50285806 -57.03686523 195.60766602 C-57.87733398 195.64504883 -58.71780273 195.68243164 -59.58374023 195.72094727 C-66.46681424 194.63676364 -71.34295327 188.54440897 -76.03686523 183.79516602 C-76.7084668 183.13129883 -77.38006836 182.46743164 -78.07202148 181.78344727 C-79.03688477 180.8147168 -79.03688477 180.8147168 -80.02124023 179.82641602 C-80.60099609 179.2444043 -81.18075195 178.66239258 -81.77807617 178.06274414 C-85.37585912 173.84786574 -85.71409313 170.15208658 -85.61108398 164.76391602 C-85.13862077 161.16636476 -83.57990891 159.04681843 -81.28686523 156.29516602 C-80.28149861 154.96587458 -79.28047646 153.6332671 -78.28686523 152.29516602 C-78.90174805 150.99192383 -78.90174805 150.99192383 -79.52905273 149.66235352 C-80.06788086 148.50993164 -80.60670898 147.35750977 -81.16186523 146.17016602 C-81.69553711 145.03321289 -82.22920898 143.89625977 -82.77905273 142.72485352 C-84.14560823 139.61647081 -85.27316051 136.53311606 -86.28686523 133.29516602 C-87.49922852 133.14821289 -87.49922852 133.14821289 -88.73608398 132.99829102 C-99.69649644 131.46462655 -99.69649644 131.46462655 -103.28686523 127.29516602 C-107.32814821 121.40615708 -106.73032934 115.15679097 -106.66186523 108.29516602 C-106.6734668 107.13243164 -106.68506836 105.96969727 -106.69702148 104.77172852 C-106.67383378 98.01637767 -106.50440198 92.90738727 -101.82202148 87.65063477 C-96.09453547 83.10814586 -92.3522734 83.17740921 -85.28686523 83.29516602 C-85.17600586 82.43149414 -85.06514648 81.56782227 -84.95092773 80.67797852 C-84.05951399 76.13701204 -82.17525496 72.28487408 -80.24780273 68.09985352 C-79.24199534 65.16420428 -79.07892053 64.09540147 -80.28686523 61.29516602 C-81.60008381 59.61260472 -82.93299588 57.94519429 -84.28686523 56.29516602 C-85.17637799 53.62662775 -85.5075346 51.80975132 -85.59936523 49.04516602 C-85.63674805 48.31813477 -85.67413086 47.59110352 -85.71264648 46.84204102 C-84.54200139 39.83965019 -79.37085276 34.85831739 -74.53686523 30.04516602 C-73.95420898 29.43415039 -73.37155273 28.82313477 -72.77124023 28.19360352 C-68.33061111 23.73349795 -63.77630986 20.50126507 -57.22875977 20.20068359 C-52.28381097 20.57625672 -49.17936009 22.37579487 -45.28686523 25.29516602 C-43.5505364 26.72085469 -43.5505364 26.72085469 -41.28686523 27.29516602 C-38.14709177 26.24684562 -38.14709177 26.24684562 -34.91186523 24.48266602 C-30.63253147 22.29288984 -27.07815535 20.85246109 -22.28686523 20.29516602 C-22.33327148 19.64290039 -22.37967773 18.99063477 -22.42749023 18.31860352 C-22.71974962 11.24175133 -21.38937167 7.89407348 -16.72436523 2.48266602 C-12.3178331 -1.1575127 -5.36908663 0.03199383 0 0 Z M-27.28686523 72.29516602 C-28.15311523 72.87266602 -29.01936523 73.45016602 -29.91186523 74.04516602 C-38.49900473 82.1803508 -43.47226409 93.2143664 -44.52514648 104.95141602 C-44.87959981 118.53257498 -40.31462463 131.04701589 -31.03686523 141.04516602 C-22.06692596 149.36879962 -10.49342614 154.36379229 1.77563477 154.73266602 C14.91192573 154.19613766 26.2689508 149.52947923 35.71313477 140.29516602 C46.00517298 127.44708314 48.98698915 115.52079726 47.71313477 99.29516602 C45.39596695 86.78804336 37.85881939 76.72650761 27.71313477 69.29516602 C9.43635416 58.29551092 -10.36900962 59.77870373 -27.28686523 72.29516602 Z " fill="#008BCC" transform="translate(356.286865234375,49.704833984375)"/>
<path d="M0 0 C2 2 2 2 2.375 5.4375 C2 9 2 9 0.28515625 10.76171875 C-2.61201258 12.33163758 -3.74565446 12.07804968 -6.9375 11.375 C-8.53271484 11.065625 -8.53271484 11.065625 -10.16015625 10.75 C-11.42730469 10.5025 -12.69445312 10.255 -14 10 C-48.88958762 3.78130647 -82.9971057 7.26976382 -115 23 C-116.11632812 23.54398438 -117.23265625 24.08796875 -118.3828125 24.6484375 C-154.8159209 43.34784013 -181.94610842 76.53051493 -194.46533203 115.32348633 C-195.75609593 119.52067782 -196.90831415 123.74708167 -198 128 C-198.27118652 129.03737305 -198.27118652 129.03737305 -198.54785156 130.09570312 C-208.17925505 168.96597962 -198.47747046 211.380897 -178.43579102 245.1418457 C-173.36977753 253.4438459 -167.61042052 260.87846449 -161 268 C-160.46890625 268.57492187 -159.9378125 269.14984375 -159.390625 269.7421875 C-133.34076054 297.61797704 -95.32793238 316.90490531 -56.85726929 318.28811646 C-41.51010615 318.70624098 -25.94571236 318.89203974 -11 315 C-9.8238916 314.70198486 -9.8238916 314.70198486 -8.62402344 314.39794922 C33.30368829 303.4954375 67.71833321 277.70241968 89.64697266 240.38134766 C100.01746216 222.12913643 109.89525241 198.34832675 109 177 C108.319375 177.969375 107.63875 178.93875 106.9375 179.9375 C104.67878569 182.65954032 104.01383471 182.99618353 100.375 184 C97 184 97 184 94 182 C93.125 180.25 93.125 180.25 93 178 C94.7033011 173.20946564 97.50184865 170.29166972 101.09375 166.8671875 C103.70046443 164.31388935 106.05041903 161.56726748 108.421875 158.796875 C108.94265625 158.20390625 109.4634375 157.6109375 110 157 C110.65742187 156.14148438 110.65742187 156.14148438 111.328125 155.265625 C113 154 113 154 115.89453125 153.5703125 C119.72358509 154.10011869 120.95023524 155.18885563 123.6875 157.875 C127.78500056 161.84310218 127.78500056 161.84310218 132.08984375 165.578125 C133.09144531 166.41859375 134.09304688 167.2590625 135.125 168.125 C136.05570312 168.89070312 136.98640625 169.65640625 137.9453125 170.4453125 C140 173 140 173 140.4296875 176.6796875 C140 180 140 180 138 182 C134.875 182.5625 134.875 182.5625 131 182 C128.05168222 179.9366921 125.5181674 177.56395227 123 175 C122.84144531 176.29550781 122.68289063 177.59101563 122.51953125 178.92578125 C116.59325474 224.9952661 95.88592642 266.60484746 59 295.9375 C32.05729613 316.41104746 -1.63871647 330.85264604 -35.84765625 331.23828125 C-36.93574837 331.25310799 -36.93574837 331.25310799 -38.04582214 331.26823425 C-87.70671493 331.80482784 -130.77383463 316.14091717 -166.56005859 281.41552734 C-189.13998997 259.21843645 -203.25418744 230.40200838 -211 200 C-211.18079102 199.29343262 -211.36158203 198.58686523 -211.54785156 197.85888672 C-217.22736961 174.15282679 -216.0839934 145.43612247 -210 122 C-209.81808105 121.25492187 -209.63616211 120.50984375 -209.44873047 119.7421875 C-206.61154803 108.2616137 -202.13881554 97.62719301 -197 87 C-196.18402344 85.30423828 -196.18402344 85.30423828 -195.3515625 83.57421875 C-187.76919005 68.72386491 -177.60764751 55.86849353 -166 44 C-165.2884375 43.2265625 -164.576875 42.453125 -163.84375 41.65625 C-125.79615083 1.26726011 -53.2159697 -20.08745101 0 0 Z " fill="#000000" transform="translate(230,161)"/>
<path d="M0 0 C2.32708364 0.0474117 4.64960285 0.04107568 6.97705078 0.02783203 C8.47056742 0.03898231 9.96406498 0.05320007 11.45751953 0.07080078 C12.48898605 0.06806656 12.48898605 0.06806656 13.54129028 0.0652771 C18.51542726 0.21017717 21.34417246 1.59656794 25.19970703 4.67236328 C29.22485919 9.13266702 30.27584149 12.45399594 30.76220703 18.35986328 C30.84599609 19.35373047 30.92978516 20.34759766 31.01611328 21.37158203 C31.07669922 22.13083984 31.13728516 22.89009766 31.19970703 23.67236328 C32.25029297 24.05908203 33.30087891 24.44580078 34.38330078 24.84423828 C41.76333222 27.57660706 49.05690663 30.35606309 56.19970703 33.67236328 C56.71919922 33.19025391 57.23869141 32.70814453 57.77392578 32.21142578 C62.58687713 27.85219073 65.92286991 25.04332597 72.51220703 24.29736328 C81.70788921 25.2325174 87.33249594 31.18227475 93.51220703 37.48486328 C94.30949219 38.26667969 95.10677734 39.04849609 95.92822266 39.85400391 C101.267915 45.22962354 104.65862372 49.42099444 105.63720703 57.10986328 C104.73975514 64.41768584 100.85903151 69.22489436 96.19970703 74.67236328 C96.67021484 75.65076172 97.14072266 76.62916016 97.62548828 77.63720703 C100.91942931 84.55051459 104.00539778 91.31497345 106.19970703 98.67236328 C106.92416016 98.70974609 107.64861328 98.74712891 108.39501953 98.78564453 C120.17155012 99.58644861 120.17155012 99.58644861 124.63330078 104.13330078 C128.7012587 108.85812443 129.37322529 111.79485933 129.43798828 117.84033203 C129.44606003 118.5533699 129.45413177 119.26640778 129.46244812 120.00105286 C129.47628835 121.51329113 129.48701079 123.02556063 129.49487305 124.5378418 C129.51201359 126.83395086 129.55588737 129.12859214 129.60009766 131.42431641 C129.61023151 132.89631106 129.61874544 134.36831794 129.62548828 135.84033203 C129.64299637 136.51976364 129.66050446 137.19919525 129.67854309 137.8992157 C129.65424897 143.32759279 128.18869071 146.30286155 125.19970703 150.67236328 C120.08874437 154.71854205 116.34686376 155.8190364 109.94970703 155.73486328 C109.05767578 155.72583984 108.16564453 155.71681641 107.24658203 155.70751953 C106.23337891 155.69011719 106.23337891 155.69011719 105.19970703 155.67236328 C104.99345703 156.86861328 104.78720703 158.06486328 104.57470703 159.29736328 C103.3232426 165.07618434 100.87910733 170.28076166 98.44189453 175.63330078 C97.0105296 178.58800557 97.0105296 178.58800557 97.19970703 181.67236328 C98.29351177 183.06889204 99.4490821 184.41764631 100.63720703 185.73486328 C104.51125412 190.56759951 105.71385998 194.50252789 105.19970703 200.67236328 C103.46126063 206.97423149 99.62188939 211.05825981 95.19970703 215.67236328 C94.31154297 216.61208984 93.42337891 217.55181641 92.50830078 218.52001953 C82.38133611 229.01210606 82.38133611 229.01210606 75.45361328 230.10595703 C67.6898224 230.11722523 63.55885255 228.77311299 57.76220703 223.42236328 C57.24658203 222.84486328 56.73095703 222.26736328 56.19970703 221.67236328 C50.47841894 223.47770876 45.10532859 225.88025887 39.63720703 228.33251953 C36.43722208 229.57978639 33.59606511 230.2529959 30.19970703 230.67236328 C30.24611328 231.37361328 30.29251953 232.07486328 30.34033203 232.79736328 C30.59227137 239.41976881 30.24232763 244.29353826 26.19970703 249.67236328 C21.15740058 254.663548 15.71792804 255.24043793 8.82806396 255.27676392 C7.44565919 255.26436208 6.06330691 255.24343305 4.68115234 255.21435547 C2.57180942 255.17230552 0.46565106 255.17331339 -1.64404297 255.18017578 C-15.03265141 255.07666834 -15.03265141 255.07666834 -20.66357422 249.98876953 C-21.14181641 249.40998047 -21.62005859 248.83119141 -22.11279297 248.23486328 C-22.60392578 247.65865234 -23.09505859 247.08244141 -23.60107422 246.48876953 C-25.93685002 242.95086807 -25.91742008 239.57402383 -25.86279297 235.42236328 C-25.85376953 234.53033203 -25.84474609 233.63830078 -25.83544922 232.71923828 C-25.82384766 232.04376953 -25.81224609 231.36830078 -25.80029297 230.67236328 C-26.44353516 230.52541016 -27.08677734 230.37845703 -27.74951172 230.22705078 C-34.65396077 228.5132503 -40.64483531 225.97210974 -46.95263672 222.68408203 C-49.67769116 221.39676577 -49.67769116 221.39676577 -51.98388672 222.34423828 C-53.69048376 223.59207268 -55.33576672 224.84090701 -56.92529297 226.23486328 C-60.78599238 229.50806496 -62.56492387 229.86704983 -67.55029297 229.98486328 C-68.57638672 230.02224609 -69.60248047 230.05962891 -70.65966797 230.09814453 C-78.47210738 229.03899541 -83.7670797 222.00670442 -89.05029297 216.67236328 C-89.86498047 215.86541016 -90.67966797 215.05845703 -91.51904297 214.22705078 C-92.29763672 213.44587891 -93.07623047 212.66470703 -93.87841797 211.85986328 C-94.93657715 210.79832031 -94.93657715 210.79832031 -96.01611328 209.71533203 C-100.18567053 204.940995 -100.22564775 200.75390825 -100.12060547 194.58642578 C-99.48792766 188.83060081 -95.87727498 185.45813229 -91.80029297 181.67236328 C-93.60563845 175.95107519 -96.00818856 170.57798484 -98.46044922 165.10986328 C-99.70771608 161.90987833 -100.38092558 159.06872136 -100.80029297 155.67236328 C-101.35716797 155.70716797 -101.91404297 155.74197266 -102.48779297 155.77783203 C-108.93610628 156.00657288 -114.66901535 155.55177727 -119.59716797 151.02001953 C-125.45179264 144.42659698 -125.07889489 138.10538399 -125.15039062 129.64086914 C-125.16689071 128.21231731 -125.19410251 126.78384601 -125.23242188 125.35571289 C-125.61329813 111.0629174 -125.61329813 111.0629174 -121.17993164 105.1105957 C-117.55200918 101.32859407 -114.82015818 99.82423285 -109.68310547 99.43798828 C-106.70972529 99.4239959 -103.76801903 99.4969312 -100.80029297 99.67236328 C-100.61466797 98.49673828 -100.42904297 97.32111328 -100.23779297 96.10986328 C-99.07366187 90.61306381 -96.62762072 85.83596038 -94.01293945 80.90258789 C-92.10425479 77.31166832 -92.10425479 77.31166832 -92.43701172 73.41455078 C-93.71155734 71.78576182 -95.03558706 70.1960362 -96.36279297 68.60986328 C-99.50787021 64.81964199 -99.98573085 62.21059902 -100.11279297 57.42236328 C-100.15017578 56.50970703 -100.18755859 55.59705078 -100.22607422 54.65673828 C-99.11892345 46.89652557 -93.37995552 41.76004044 -88.05029297 36.48486328 C-87.03322266 35.43782227 -87.03322266 35.43782227 -85.99560547 34.36962891 C-80.76911455 29.14810614 -75.72027928 25.15376511 -68.23779297 24.23486328 C-60.65128536 25.20041879 -55.62173924 29.00008562 -49.80029297 33.67236328 C-49.03845703 33.27404297 -48.27662109 32.87572266 -47.49169922 32.46533203 C-32.3039426 24.67236328 -32.3039426 24.67236328 -25.80029297 24.67236328 C-25.8525 23.72876953 -25.8525 23.72876953 -25.90576172 22.76611328 C-26.11856216 16.03756598 -25.82575569 10.40387728 -21.45703125 5.015625 C-15.17467528 -0.63222198 -7.96931317 -0.17394347 0 0 Z M-12.63989258 12.96899414 C-14.61627481 15.87015526 -14.25794108 19.27211166 -14.30029297 22.67236328 C-14.39181976 30.02065683 -14.39181976 30.02065683 -16.00732422 32.59814453 C-18.31318452 33.97965125 -20.34193702 34.37448557 -22.98779297 34.85986328 C-31.94000876 36.89296723 -40.04607051 41.34700646 -47.95654297 45.91845703 C-50.51431654 46.96432631 -52.05880785 47.14113631 -54.80029297 46.67236328 C-57.52469417 44.25451118 -59.8033174 41.5975969 -62.20263672 38.85986328 C-64.60910829 36.43313253 -64.60910829 36.43313253 -67.67993164 36.30053711 C-71.49454142 36.7550908 -72.63374094 37.74559194 -75.32373047 40.43408203 C-76.11650391 41.22363281 -76.90927734 42.01318359 -77.72607422 42.82666016 C-78.53431641 43.66261719 -79.34255859 44.49857422 -80.17529297 45.35986328 C-81.42246094 46.58479492 -81.42246094 46.58479492 -82.69482422 47.83447266 C-87.13013023 51.90985908 -87.13013023 51.90985908 -89.15405273 57.31079102 C-88.52170887 61.53208996 -84.96398901 63.5299019 -81.86669922 66.19580078 C-79.13515267 69.46952576 -78.78674274 71.42210951 -78.80029297 75.67236328 C-79.89614696 78.35981474 -80.99157843 80.62396712 -82.42529297 83.10986328 C-85.4931351 88.78940785 -87.93128323 94.36411484 -89.80029297 100.54736328 C-90.00734863 101.23113037 -90.2144043 101.91489746 -90.42773438 102.61938477 C-91.46155801 106.08898818 -91.46155801 106.08898818 -91.80029297 109.67236328 C-93.67974609 109.71103516 -93.67974609 109.71103516 -95.59716797 109.75048828 C-97.2482442 109.80677497 -98.89928452 109.86412219 -100.55029297 109.92236328 C-101.37529297 109.93654297 -102.20029297 109.95072266 -103.05029297 109.96533203 C-103.84951172 109.99755859 -104.64873047 110.02978516 -105.47216797 110.06298828 C-106.20532227 110.08393555 -106.93847656 110.10488281 -107.69384766 110.12646484 C-110.72181883 110.91118245 -111.92266148 112.19871203 -113.80029297 114.67236328 C-114.39568181 117.39951336 -114.39568181 117.39951336 -114.29638672 120.39111328 C-114.29703125 121.48810547 -114.29767578 122.58509766 -114.29833984 123.71533203 C-114.27835938 124.85615234 -114.25837891 125.99697266 -114.23779297 127.17236328 C-114.24488281 128.31318359 -114.25197266 129.45400391 -114.25927734 130.62939453 C-114.40091635 136.54289583 -114.40091635 136.54289583 -112.50366211 141.99609375 C-109.76316723 144.69298895 -106.44042146 144.27145489 -102.80029297 144.29736328 C-95.15883959 144.4333322 -95.15883959 144.4333322 -91.80029297 146.67236328 C-90.91357422 149.36767578 -90.91357422 149.36767578 -90.11279297 152.79736328 C-87.83685375 161.38547768 -83.96295871 168.86141155 -79.80029297 176.67236328 C-78.36935247 179.53424429 -78.45885559 181.50131267 -78.80029297 184.67236328 C-80.73388672 187.01611328 -80.73388672 187.01611328 -83.23779297 189.17236328 C-86.13501322 191.67512631 -87.60253207 193.04194996 -88.75732422 196.72314453 C-89.0382612 199.60800323 -89.0382612 199.60800323 -87.75341797 201.62158203 C-87.19138672 202.19521484 -86.62935547 202.76884766 -86.05029297 203.35986328 C-85.40576172 204.02244141 -84.76123047 204.68501953 -84.09716797 205.36767578 C-83.33919922 206.12822266 -82.58123047 206.88876953 -81.80029297 207.67236328 C-80.90603575 208.6665038 -80.01560338 209.66409419 -79.12841797 210.66455078 C-78.18705861 211.68922921 -77.24435438 212.71267378 -76.30029297 213.73486328 C-75.42373047 214.69521484 -74.54716797 215.65556641 -73.64404297 216.64501953 C-70.89905643 219.00144595 -70.89905643 219.00144595 -67.24169922 218.76611328 C-63.316738 217.51867952 -61.87750338 216.21626283 -59.23779297 213.10986328 C-55.58219753 208.81034644 -55.58219753 208.81034644 -51.94482422 208.16845703 C-48.11974918 208.78141937 -45.31455628 210.33252276 -42.05029297 212.29736328 C-34.76556063 216.45993477 -27.30017382 219.06988902 -19.30810547 221.54345703 C-15.80029297 222.67236328 -15.80029297 222.67236328 -14.80029297 223.67236328 C-14.63063232 227.25408802 -14.50286973 230.82916111 -14.45849609 234.41455078 C-14.43078125 235.16736328 -14.40306641 235.92017578 -14.37451172 236.69580078 C-14.3599292 237.38593262 -14.34534668 238.07606445 -14.33032227 238.78710938 C-13.91969705 240.82443061 -13.91969705 240.82443061 -12.12182617 242.39379883 C-7.59325979 244.88786783 -2.35033455 244.14124772 2.69970703 244.10986328 C3.84052734 244.12984375 4.98134766 244.14982422 6.15673828 244.17041016 C7.25373047 244.16976562 8.35072266 244.16912109 9.48095703 244.16845703 C10.48191406 244.17031006 11.48287109 244.17216309 12.51416016 244.17407227 C15.94510749 243.53310892 17.11513875 242.43311416 19.19970703 239.67236328 C19.82641718 237.66831385 19.82641718 237.66831385 19.80908203 235.56298828 C19.84130859 234.80888672 19.87353516 234.05478516 19.90673828 233.27783203 C19.92091797 232.50052734 19.93509766 231.72322266 19.94970703 230.92236328 C19.97935547 230.12958984 20.00900391 229.33681641 20.03955078 228.52001953 C20.1099849 226.57134235 20.15714186 224.62184833 20.19970703 222.67236328 C20.74272461 222.4917334 21.28574219 222.31110352 21.84521484 222.125 C38.63677731 217.47800377 38.63677731 217.47800377 53.19970703 208.67236328 C55.76220703 208.17236328 55.76220703 208.17236328 59.19970703 208.67236328 C62.72095626 211.15052548 65.88650772 214.07853507 68.62548828 217.40283203 C70.16958616 218.87254087 70.16958616 218.87254087 72.52148438 218.98461914 C77.75583272 218.37434279 80.96887551 213.65501731 84.51220703 210.04736328 C85.34816406 209.23912109 86.18412109 208.43087891 87.04541016 207.59814453 C87.83496094 206.80537109 88.62451172 206.01259766 89.43798828 205.19580078 C90.16026611 204.47312012 90.88254395 203.75043945 91.62670898 203.00585938 C93.64292826 200.01485769 93.6396409 198.2117489 93.19970703 194.67236328 C91.299365 192.23424282 91.299365 192.23424282 88.76220703 190.17236328 C86.01816967 187.80192725 84.43263267 186.30866971 83.18017578 182.88720703 C83.20714633 178.44785498 84.83430867 175.56358943 86.94970703 171.73486328 C87.67556122 170.3725905 88.39953836 169.00931582 89.12158203 167.64501953 C89.47486572 166.98018555 89.82814941 166.31535156 90.19213867 165.63037109 C93.1310328 159.91921749 94.95027518 154.16435752 96.45361328 147.93017578 C96.82292969 146.81255859 96.82292969 146.81255859 97.19970703 145.67236328 C100.81549451 143.86446954 105.3338523 144.34200867 109.34619141 144.24267578 C113.34583271 144.12838099 113.34583271 144.12838099 116.90527344 142.50756836 C119.76206377 138.45730563 118.66545088 132.50293804 118.63720703 127.73486328 C118.6571875 126.54183594 118.67716797 125.34880859 118.69775391 124.11962891 C118.69710937 122.97300781 118.69646484 121.82638672 118.69580078 120.64501953 C118.69765381 119.59580322 118.69950684 118.54658691 118.70141602 117.46557617 C118.07281305 113.96589417 117.020256 112.78449675 114.19970703 110.67236328 C110.71820611 110.3058895 107.44330248 110.25994604 103.95556641 110.35986328 C101.85205078 110.33642578 101.85205078 110.33642578 98.19970703 109.67236328 C95.60370394 106.00899528 94.64881297 102.042877 93.51220703 97.73486328 C91.70835092 91.5734567 89.07576866 86.29167991 85.84155273 80.78588867 C82.32716038 74.65543883 82.32716038 74.65543883 83.19970703 70.67236328 C85.13330078 68.46142578 85.13330078 68.46142578 87.63720703 66.29736328 C90.56046393 63.49455754 92.10909443 61.8875682 93.69970703 58.10986328 C92.93022401 52.81966754 89.91281453 50.32514954 86.19970703 46.67236328 C85.09755859 45.44839844 85.09755859 45.44839844 83.97314453 44.19970703 C80.69755102 40.64833331 78.12302789 38.06112996 73.63720703 36.17236328 C68.44406322 36.92772965 65.75291369 39.99556682 62.19970703 43.67236328 C61.77173828 44.26533203 61.34376953 44.85830078 60.90283203 45.46923828 C59.19970703 46.67236328 59.19970703 46.67236328 55.98095703 46.59423828 C51.76719036 45.566915 48.47628814 43.99007562 44.69970703 41.92236328 C37.97024662 38.37916127 31.27747396 35.81620191 24.01611328 33.58251953 C21.19970703 32.67236328 21.19970703 32.67236328 20.19970703 31.67236328 C20.02999697 28.33473198 19.90246436 25.00416286 19.85791016 21.66259766 C19.72750494 18.34787899 19.55942271 16.15050518 17.53710938 13.46240234 C14.57520844 11.1941072 12.92972371 11.16973022 9.22705078 11.17626953 C8.08042969 11.175625 6.93380859 11.17498047 5.75244141 11.17431641 C4.55941406 11.19429687 3.36638672 11.21427734 2.13720703 11.23486328 C0.9403125 11.22777344 -0.25658203 11.22068359 -1.48974609 11.21337891 C-7.37430583 10.92571172 -7.37430583 10.92571172 -12.63989258 12.96899414 Z " fill="#000101" transform="translate(181.80029296875,196.32763671875)"/>
<path d="M0 0 C2.00812669 -0.01718416 4.01596651 -0.06108822 6.02368164 -0.10522461 C7.29920898 -0.11360352 8.57473633 -0.12198242 9.88891602 -0.13061523 C11.05334229 -0.14519775 12.21776855 -0.15978027 13.41748047 -0.17480469 C18.01803068 0.48124829 21.29714465 2.49299678 24.17407227 6.15454102 C26.57718373 11.12507926 27.10714522 14.77901961 26.71313477 20.29516602 C27.41438477 20.46532227 28.11563477 20.63547852 28.83813477 20.81079102 C33.56801299 22.01896643 37.87169525 23.22148992 42.15063477 25.60766602 C43.32625977 26.16454102 44.50188477 26.72141602 45.71313477 27.29516602 C48.38713219 26.3136988 49.81045837 25.20340376 51.90063477 23.23266602 C55.66102791 20.64217296 59.16381495 19.90050893 63.71313477 20.29516602 C70.52112771 22.34823988 74.62411114 26.60411588 79.52563477 31.60766602 C80.28811523 32.35467773 81.0505957 33.10168945 81.83618164 33.87133789 C86.39774104 38.46516296 89.35937677 41.93952064 89.90063477 48.60375977 C89.41366216 54.13292787 87.99389608 56.82641967 83.79516602 60.49438477 C82.3866759 62.36337674 82.3866759 62.36337674 83.37329102 65.08032227 C83.81543945 66.1412207 84.25758789 67.20211914 84.71313477 68.29516602 C85.13852539 69.40375977 85.56391602 70.51235352 86.00219727 71.65454102 C86.89707497 73.92575111 87.7929175 76.19658127 88.68969727 78.46704102 C89.71313477 81.29516602 89.71313477 81.29516602 89.71313477 83.29516602 C91.19813477 83.20235352 91.19813477 83.20235352 92.71313477 83.10766602 C98.3234013 83.13042572 102.99868203 84.67094763 107.08813477 88.54516602 C110.8238803 94.86719693 111.05252302 101.06425615 111.02563477 108.23266602 C111.04174805 109.08795898 111.05786133 109.94325195 111.07446289 110.82446289 C111.07908969 116.89019596 110.6068027 123.18257565 106.26098633 127.85717773 C102.20350822 131.32288902 99.81899704 132.42472835 94.58813477 132.35766602 C93.67805664 132.34864258 92.76797852 132.33961914 91.83032227 132.33032227 C91.13165039 132.3187207 90.43297852 132.30711914 89.71313477 132.29516602 C89.61387695 133.14852539 89.51461914 134.00188477 89.41235352 134.88110352 C88.40645122 139.79260413 86.08262724 143.84138601 83.79516602 148.27172852 C82.42264781 151.15083094 82.42264781 151.15083094 83.40844727 153.52563477 C84.51342962 155.02430844 85.64201994 156.50553155 86.77563477 157.98266602 C89.14175027 162.02796026 90.29098154 165.60016098 89.71313477 170.29516602 C87.44209666 176.60634183 83.59569331 181.00667256 78.83813477 185.60766602 C78.2387207 186.21416992 77.63930664 186.82067383 77.02172852 187.44555664 C72.49069437 191.91270418 67.95207947 195.72041566 61.27563477 195.73266602 C55.63433146 195.55161067 51.70712086 193.28915211 47.71313477 189.29516602 C42.63073454 189.78130865 38.16310683 192.18439661 33.55297852 194.23657227 C30.71313477 195.29516602 30.71313477 195.29516602 26.71313477 195.29516602 C26.77500977 196.47079102 26.83688477 197.64641602 26.90063477 198.85766602 C26.87419222 203.84649298 25.81470152 208.07301756 22.28344727 211.80688477 C15.99588356 217.26549107 9.88023825 216.5429838 1.96313477 216.60766602 C0.79524414 216.63666992 -0.37264648 216.66567383 -1.57592773 216.69555664 C-8.3757679 216.74566884 -12.83377048 216.50960767 -18.28686523 212.29516602 C-22.14108595 207.12239611 -22.99775069 202.67014181 -23.28686523 196.29516602 C-24.1440918 195.9690332 -25.00131836 195.64290039 -25.88452148 195.30688477 C-31.73380234 193.0713648 -37.55871996 190.82620695 -43.28686523 188.29516602 C-43.76897461 188.71668945 -44.25108398 189.13821289 -44.74780273 189.57250977 C-45.37944336 190.12036133 -46.01108398 190.66821289 -46.66186523 191.23266602 C-47.28834961 191.77793945 -47.91483398 192.32321289 -48.56030273 192.88500977 C-51.42460512 195.22440606 -53.39616785 195.50285806 -57.03686523 195.60766602 C-57.87733398 195.64504883 -58.71780273 195.68243164 -59.58374023 195.72094727 C-66.46681424 194.63676364 -71.34295327 188.54440897 -76.03686523 183.79516602 C-76.7084668 183.13129883 -77.38006836 182.46743164 -78.07202148 181.78344727 C-79.03688477 180.8147168 -79.03688477 180.8147168 -80.02124023 179.82641602 C-80.60099609 179.2444043 -81.18075195 178.66239258 -81.77807617 178.06274414 C-85.37585912 173.84786574 -85.71409313 170.15208658 -85.61108398 164.76391602 C-85.13862077 161.16636476 -83.57990891 159.04681843 -81.28686523 156.29516602 C-80.28149861 154.96587458 -79.28047646 153.6332671 -78.28686523 152.29516602 C-78.90174805 150.99192383 -78.90174805 150.99192383 -79.52905273 149.66235352 C-80.06788086 148.50993164 -80.60670898 147.35750977 -81.16186523 146.17016602 C-81.69553711 145.03321289 -82.22920898 143.89625977 -82.77905273 142.72485352 C-84.14560823 139.61647081 -85.27316051 136.53311606 -86.28686523 133.29516602 C-87.49922852 133.14821289 -87.49922852 133.14821289 -88.73608398 132.99829102 C-99.69649644 131.46462655 -99.69649644 131.46462655 -103.28686523 127.29516602 C-107.32814821 121.40615708 -106.73032934 115.15679097 -106.66186523 108.29516602 C-106.6734668 107.13243164 -106.68506836 105.96969727 -106.69702148 104.77172852 C-106.67383378 98.01637767 -106.50440198 92.90738727 -101.82202148 87.65063477 C-96.09453547 83.10814586 -92.3522734 83.17740921 -85.28686523 83.29516602 C-85.17600586 82.43149414 -85.06514648 81.56782227 -84.95092773 80.67797852 C-84.05951399 76.13701204 -82.17525496 72.28487408 -80.24780273 68.09985352 C-79.24199534 65.16420428 -79.07892053 64.09540147 -80.28686523 61.29516602 C-81.60008381 59.61260472 -82.93299588 57.94519429 -84.28686523 56.29516602 C-85.17637799 53.62662775 -85.5075346 51.80975132 -85.59936523 49.04516602 C-85.63674805 48.31813477 -85.67413086 47.59110352 -85.71264648 46.84204102 C-84.54200139 39.83965019 -79.37085276 34.85831739 -74.53686523 30.04516602 C-73.95420898 29.43415039 -73.37155273 28.82313477 -72.77124023 28.19360352 C-68.33061111 23.73349795 -63.77630986 20.50126507 -57.22875977 20.20068359 C-52.28381097 20.57625672 -49.17936009 22.37579487 -45.28686523 25.29516602 C-43.5505364 26.72085469 -43.5505364 26.72085469 -41.28686523 27.29516602 C-38.14709177 26.24684562 -38.14709177 26.24684562 -34.91186523 24.48266602 C-30.63253147 22.29288984 -27.07815535 20.85246109 -22.28686523 20.29516602 C-22.33327148 19.64290039 -22.37967773 18.99063477 -22.42749023 18.31860352 C-22.71974962 11.24175133 -21.38937167 7.89407348 -16.72436523 2.48266602 C-12.3178331 -1.1575127 -5.36908663 0.03199383 0 0 Z M-11.28686523 13.29516602 C-11.59325113 16.02951563 -11.79819884 18.67796422 -11.91186523 21.42016602 C-11.95053711 22.17426758 -11.98920898 22.92836914 -12.02905273 23.70532227 C-12.12337555 25.56819786 -12.20621186 27.43164856 -12.28686523 29.29516602 C-13.39481445 29.53299805 -13.39481445 29.53299805 -14.52514648 29.77563477 C-23.16966095 31.76376325 -30.85114296 34.73609548 -38.53686523 39.17016602 C-42.37191738 40.73905098 -44.33431363 40.54334021 -48.28686523 39.29516602 C-50.20754821 37.53488269 -51.87348281 35.71753555 -53.51342773 33.69360352 C-55.20615269 32.08536959 -55.20615269 32.08536959 -57.53686523 32.15844727 C-61.75431026 33.90173775 -64.49520512 36.88596171 -67.66186523 40.10766602 C-68.31541992 40.73737305 -68.96897461 41.36708008 -69.64233398 42.01586914 C-70.56079102 42.93722656 -70.56079102 42.93722656 -71.49780273 43.87719727 C-72.05773926 44.43640869 -72.61767578 44.99562012 -73.19458008 45.57177734 C-74.51219289 47.25531244 -74.51219289 47.25531244 -74.06079102 49.40185547 C-72.80108147 52.48357393 -70.35495686 54.17890646 -67.88061523 56.31860352 C-65.66163361 59.07057583 -65.33784948 60.75600947 -65.28686523 64.29516602 C-66.24468258 67.02524108 -67.61739919 69.46794978 -69.03686523 71.98266602 C-72.41485569 78.30190696 -74.73333002 84.27215973 -76.28686523 91.29516602 C-76.61686523 92.28516602 -76.94686523 93.27516602 -77.28686523 94.29516602 C-78.43026367 94.35575195 -79.57366211 94.41633789 -80.75170898 94.47875977 C-82.24260828 94.56315029 -83.73349298 94.64779903 -85.22436523 94.73266602 C-85.97911133 94.77198242 -86.73385742 94.81129883 -87.51147461 94.85180664 C-91.20630711 94.73554626 -91.20630711 94.73554626 -94.28686523 96.29516602 C-94.53895245 100.10104746 -94.47208867 103.91942058 -94.47436523 107.73266602 C-94.48661133 108.80838867 -94.49885742 109.88411133 -94.51147461 110.99243164 C-94.5134082 112.01916992 -94.5153418 113.0459082 -94.51733398 114.10375977 C-94.52144287 115.05049561 -94.52555176 115.99723145 -94.52978516 116.97265625 C-94.51303029 119.48880945 -94.51303029 119.48880945 -92.28686523 121.29516602 C-89.92177163 121.59576544 -87.54244642 121.79031613 -85.16186523 121.92016602 C-83.88053711 121.99493164 -82.59920898 122.06969727 -81.27905273 122.14672852 C-80.29163086 122.19571289 -79.30420898 122.24469727 -78.28686523 122.29516602 C-76.33849094 126.70464468 -74.59142721 131.15071376 -72.91186523 135.67016602 C-71.07428873 140.52941087 -68.98736203 144.91161414 -66.20483398 149.29516602 C-65.01683661 151.88348369 -64.85018268 153.47657861 -65.28686523 156.29516602 C-67.19667521 158.50764677 -69.30732022 160.24996042 -71.53686523 162.13500977 C-73.48920287 164.21784484 -73.48920287 164.21784484 -73.91967773 167.11938477 C-72.99903863 171.73962918 -70.48690529 173.97523622 -67.16186523 177.17016602 C-66.59209961 177.76313477 -66.02233398 178.35610352 -65.43530273 178.96704102 C-62.65250049 181.71189596 -61.009746 183.15112335 -57.11108398 183.92797852 C-53.62074339 183.1459105 -52.51311018 182.00218263 -50.22436523 179.29516602 C-46.91071465 175.39197024 -46.91071465 175.39197024 -43.79467773 174.90844727 C-41.0836033 175.32651015 -39.53835961 176.03363293 -37.22436523 177.48266602 C-29.38640728 182.09399795 -20.80773319 185.18177195 -12.28686523 188.29516602 C-12.23788086 189.28258789 -12.18889648 190.27000977 -12.13842773 191.28735352 C-12.0262793 193.2093457 -12.0262793 193.2093457 -11.91186523 195.17016602 C-11.80745117 197.08442383 -11.80745117 197.08442383 -11.70092773 199.03735352 C-11.61445417 202.37578301 -11.61445417 202.37578301 -9.28686523 204.29516602 C-6.87798861 204.58951561 -6.87798861 204.58951561 -4.09545898 204.52563477 C-3.0687207 204.52370117 -2.04198242 204.52176758 -0.98413086 204.51977539 C0.0915918 204.5075293 1.16731445 204.4952832 2.27563477 204.48266602 C3.89501953 204.48169922 3.89501953 204.48169922 5.54711914 204.48071289 C10.48157254 204.92180975 10.48157254 204.92180975 14.71313477 203.29516602 C14.95884863 199.73686521 15.09752614 196.17945038 15.23657227 192.61547852 C15.71313477 189.29516602 15.71313477 189.29516602 16.78344727 187.49438477 C19.71610528 185.67186248 22.91259835 184.88378672 26.21313477 183.98266602 C32.47942354 182.18239844 37.77367212 179.90766096 43.28344727 176.33422852 C46.56327475 174.93160133 48.33209132 175.23970801 51.71313477 176.29516602 C53.90844727 178.17797852 53.90844727 178.17797852 55.83813477 180.42016602 C57.67665082 182.67683367 57.67665082 182.67683367 59.71313477 184.29516602 C64.75960536 183.73178485 67.60242903 179.95800887 71.02563477 176.54516602 C72.01273437 175.61317383 72.01273437 175.61317383 73.01977539 174.66235352 C76.68562882 171.23144209 76.68562882 171.23144209 77.85766602 166.58422852 C76.18668987 163.24227623 73.80258242 161.09507902 71.11157227 158.55297852 C69.71313477 156.29516602 69.71313477 156.29516602 69.75610352 153.05688477 C70.87263986 148.66821332 72.5951532 144.99512218 74.65063477 140.98266602 C77.72129871 134.76632852 79.8316343 129.23698218 80.71313477 122.29516602 C81.84493164 122.24618164 82.97672852 122.19719727 84.14282227 122.14672852 C85.62461815 122.07170088 87.10638777 121.99615304 88.58813477 121.92016602 C89.33450195 121.88922852 90.08086914 121.85829102 90.84985352 121.82641602 C95.24786665 121.7387277 95.24786665 121.7387277 98.71313477 119.29516602 C99.02365318 117.00126171 99.02365318 117.00126171 98.97875977 114.35766602 C98.98133789 113.38055664 98.98391602 112.40344727 98.98657227 111.39672852 C98.97883789 110.37321289 98.97110352 109.34969727 98.96313477 108.29516602 C98.97086914 107.27165039 98.97860352 106.24813477 98.98657227 105.19360352 C98.98399414 104.21649414 98.98141602 103.23938477 98.97875977 102.23266602 C98.97537598 100.88495117 98.97537598 100.88495117 98.97192383 99.51000977 C98.92122418 97.08974437 98.92122418 97.08974437 96.71313477 95.29516602 C94.34804116 94.99456659 91.96871595 94.8000159 89.58813477 94.67016602 C88.30680664 94.59540039 87.02547852 94.52063477 85.70532227 94.44360352 C84.22418945 94.37012695 84.22418945 94.37012695 82.71313477 94.29516602 C80.76476047 89.88568735 79.01769674 85.43961827 77.33813477 80.92016602 C75.79590694 76.83724676 74.13788766 73.1033217 71.90063477 69.35766602 C70.49175741 66.87406811 69.64141626 65.02484241 68.90063477 62.23266602 C70.05516046 58.05861158 72.71478934 56.08021968 75.96313477 53.32250977 C77.84778447 51.42281449 77.84778447 51.42281449 78.38110352 49.00610352 C77.29433938 44.59549353 74.2196048 42.08091267 71.02563477 38.98266602 C70.39979492 38.33749023 69.77395508 37.69231445 69.12915039 37.02758789 C65.57157674 33.46961376 65.57157674 33.46961376 61.00219727 31.62719727 C57.16946012 32.74562398 55.37901872 35.58151272 52.87329102 38.54516602 C50.71313477 40.29516602 50.71313477 40.29516602 47.86938477 40.74829102 C44.06425251 40.20200965 41.51391114 38.90022923 38.15063477 37.04516602 C32.34786256 33.93598004 26.65981985 31.87162606 20.26000977 30.21704102 C17.71313477 29.29516602 17.71313477 29.29516602 15.71313477 26.29516602 C15.33683922 22.93843873 15.20733321 19.60256619 15.05688477 16.22875977 C15.00636506 13.17505759 15.00636506 13.17505759 12.71313477 11.29516602 C10.41923046 10.98464761 10.41923046 10.98464761 7.77563477 11.02954102 C6.79852539 11.02696289 5.82141602 11.02438477 4.81469727 11.02172852 C3.79118164 11.02946289 2.76766602 11.03719727 1.71313477 11.04516602 C0.68961914 11.03743164 -0.33389648 11.02969727 -1.38842773 11.02172852 C-2.36553711 11.02430664 -3.34264648 11.02688477 -4.34936523 11.02954102 C-5.69708008 11.0329248 -5.69708008 11.0329248 -7.07202148 11.03637695 C-9.49228688 11.0870766 -9.49228688 11.0870766 -11.28686523 13.29516602 Z " fill="#000102" transform="translate(356.286865234375,49.704833984375)"/>
<path d="M0 0 C0.74668945 0.20367188 1.49337891 0.40734375 2.26269531 0.6171875 C18.87263745 5.23462315 34.60418702 13.11464673 48 24 C48.51224121 24.40831055 49.02448242 24.81662109 49.55224609 25.23730469 C73.92282021 44.73087391 89.70512868 70.00991701 98 100 C98.28810547 101.01368652 98.28810547 101.01368652 98.58203125 102.04785156 C103.8588542 121.61439161 103.22548778 147.52508973 98 167 C97.82839355 167.65097656 97.65678711 168.30195313 97.47998047 168.97265625 C91.44824294 191.35315154 80.69909413 210.96148796 65 228 C64.13761719 228.94488281 63.27523437 229.88976562 62.38671875 230.86328125 C38.20393916 256.19250372 3.27864915 271.25174122 -31.65625 272.21484375 C-53.19978192 272.47290571 -53.19978192 272.47290571 -57.0625 269.3125 C-58.34826105 266.14095607 -57.98665197 264.24185647 -57 261 C-53.51514141 258.67676094 -52.30924912 258.794059 -48.21484375 258.91015625 C-47.05307617 258.93247314 -45.89130859 258.95479004 -44.69433594 258.9777832 C-43.45458008 259.00573975 -42.21482422 259.03369629 -40.9375 259.0625 C-6.17203564 259.42288989 25.8596621 247.76399201 51.30419922 223.66894531 C74.20625448 201.12957737 88.00534235 170.0340216 88.38061523 137.88769531 C88.37876221 136.58413086 88.37690918 135.28056641 88.375 133.9375 C88.37412384 133.25780151 88.37324768 132.57810303 88.37234497 131.87780762 C88.32425475 120.52585404 87.39367297 109.88057063 84 99 C83.75862305 98.2177002 83.51724609 97.43540039 83.26855469 96.62939453 C73.01687196 64.43653171 51.0176338 37.52715155 20.97509766 21.78735352 C-9.04605876 6.91586947 -44.21769755 4.1955567 -76.171875 14.28515625 C-108.3814152 25.16135685 -132.91943356 47.46963464 -149 77 C-150.06195137 79.3135974 -151.03807771 81.64193346 -152 84 C-151.26394531 83.67644531 -150.52789062 83.35289063 -149.76953125 83.01953125 C-148.79371094 82.62121094 -147.81789062 82.22289063 -146.8125 81.8125 C-145.84957031 81.40644531 -144.88664062 81.00039062 -143.89453125 80.58203125 C-141 80 -141 80 -138.20703125 81.23828125 C-136 83 -136 83 -134.875 85.375 C-135.02436768 88.51172124 -135.97697008 89.52482324 -138.20800781 91.64013672 C-142.06692404 94.56849685 -146.53918218 96.40284171 -150.9375 98.375 C-151.91396484 98.83777344 -152.89042969 99.30054687 -153.89648438 99.77734375 C-157.83025922 101.56421097 -161.10478242 102.9327823 -165.43359375 103.2578125 C-169.2885399 101.36847816 -170.47783227 98.25972036 -172.125 94.5 C-172.46265381 93.77111572 -172.80030762 93.04223145 -173.14819336 92.29125977 C-173.81387569 90.84827888 -174.47064778 89.40114823 -175.11767578 87.94970703 C-175.84591553 86.3404866 -176.63233412 84.75773051 -177.43359375 83.18359375 C-179.80785453 78.4597185 -180.61781882 75.2848748 -179 70 C-176 68 -176 68 -173.125 67.8125 C-168.32400743 69.63687718 -167.05707286 73.49446431 -165 78 C-162.60707827 75.05023485 -160.79723339 71.9052334 -158.99414062 68.56884766 C-152.43350345 56.44082858 -144.46667189 46.04870959 -135 36 C-134.40058594 35.33613281 -133.80117188 34.67226563 -133.18359375 33.98828125 C-116.5567227 16.28407514 -93.20653461 5.05739013 -70 -1 C-68.86820312 -1.30035156 -67.73640625 -1.60070312 -66.5703125 -1.91015625 C-45.44599731 -6.55404967 -20.73674461 -5.96423014 0 0 Z " fill="#000000" transform="translate(395,24)"/>
<path d="M0 0 C1.47146484 -0.01160156 1.47146484 -0.01160156 2.97265625 -0.0234375 C20.35610004 0.02285662 36.17431135 7.01320311 48.75 19 C63.83311798 34.80022343 68.13530125 51.74862384 67.8125 72.890625 C67.56501655 79.98102581 66.48301133 85.75592875 63.5 92.25 C63.06429687 93.26707031 62.62859375 94.28414063 62.1796875 95.33203125 C54.32382403 112.39599699 40.83462593 124.56594907 23.3125 131.0625 C5.22680614 137.4493336 -14.3149235 134.88495514 -31.40625 126.890625 C-48.11767385 118.0071839 -58.5860852 103.45484411 -64.80859375 85.84765625 C-69.59216583 67.87547867 -67.08251785 49.21906336 -58.375 33 C-48.82527473 17.86419887 -34.15984629 5.45114365 -16.45703125 1.16796875 C-10.96868401 -0.0073421 -5.59351078 -0.04410127 0 0 Z M-44.5 33.25 C-50.7387566 41.57698906 -54.72942627 51.84725461 -55.5 62.25 C-55.56316406 62.93707031 -55.62632813 63.62414062 -55.69140625 64.33203125 C-56.4683128 79.44411665 -50.48604094 93.70142682 -40.8125 105 C-29.96428149 116.40120116 -15.48691997 122.97107981 0.25 123.5625 C16.25765886 123.13596364 29.5585121 117.24487084 40.8046875 106.1015625 C52.38473491 93.85020799 57.01715188 79.83097542 56.70703125 63.125 C55.92977471 48.57710409 49.18813503 35.12490737 38.5 25.25 C12.16586641 3.56823001 -22.47489319 7.47669835 -44.5 33.25 Z " fill="#000101" transform="translate(183.5,256.75)"/>
<path d="M0 0 C11.67076438 8.86325183 19.65938135 21.57035385 22.5859375 35.9765625 C24.5917745 51.32816647 21.94130127 67.14097481 12.98046875 79.99609375 C4.16825701 91.22798515 -7.56509408 100.45605613 -21.78515625 103.609375 C-40.40943867 105.83619138 -56.41851934 102.802847 -71.83203125 91.80859375 C-82.66443564 82.74803246 -90.61045906 69.11679595 -92.01953125 54.99609375 C-93.30858651 36.49158237 -90.05920838 22.30020904 -78.0625 7.59765625 C-57.16245863 -15.12483771 -24.85072832 -16.49213923 0 0 Z M-64.01953125 10.99609375 C-64.88578125 11.57359375 -65.75203125 12.15109375 -66.64453125 12.74609375 C-75.23167074 20.88127853 -80.20493011 31.91529414 -81.2578125 43.65234375 C-81.61226582 57.23350272 -77.04729065 69.74794362 -67.76953125 79.74609375 C-58.79959198 88.06972736 -47.22609216 93.06472002 -34.95703125 93.43359375 C-21.82074029 92.8970654 -10.46371522 88.23040696 -1.01953125 78.99609375 C9.27250697 66.14801088 12.25432313 54.221725 10.98046875 37.99609375 C8.66330094 25.48897109 1.12615337 15.42743534 -9.01953125 7.99609375 C-27.29631185 -3.00356135 -47.10167563 -1.52036854 -64.01953125 10.99609375 Z " fill="#000102" transform="translate(393.01953125,111.00390625)"/>
<path d="M0 0 C1.9375 1 1.9375 1 3 3 C2.68244893 9.92642986 0.40676318 15.4237456 -2.40234375 21.703125 C-2.84010635 22.70333679 -3.27786896 23.70354858 -3.72889709 24.73406982 C-5.12200712 27.9104432 -6.52961535 31.08015193 -7.9375 34.25 C-8.88049444 36.39542166 -9.82256142 38.54125124 -10.76367188 40.6875 C-12.48788527 44.6108589 -14.21480284 48.53295643 -15.95288086 52.45019531 C-16.30072128 53.23436829 -16.64856171 54.01854126 -17.00694275 54.82647705 C-17.33465164 55.54373962 -17.66236053 56.2610022 -18 57 C-18.45198509 58.10368927 -18.45198509 58.10368927 -18.9131012 59.22967529 C-20 61 -20 61 -23.4375 61.875 C-27 62 -27 62 -30 60 C-31.67528843 55.55503817 -30.43312216 52.77219247 -28.60546875 48.5390625 C-28.21078903 47.60984985 -28.21078903 47.60984985 -27.80813599 46.66186523 C-26.94726767 44.64386248 -26.06788973 42.63455352 -25.1875 40.625 C-24.5896874 39.23661766 -23.99293361 37.84777897 -23.3972168 36.45849609 C-22.19101312 33.65141788 -20.97709393 30.84787113 -19.75683594 28.046875 C-18.14027291 24.33246358 -16.55476428 20.60587324 -14.9765625 16.875 C-14.08920223 14.79138523 -13.20122306 12.70803387 -12.3125 10.625 C-11.90346436 9.65771973 -11.49442871 8.69043945 -11.07299805 7.69384766 C-10.6944165 6.81776855 -10.31583496 5.94168945 -9.92578125 5.0390625 C-9.60005127 4.27803223 -9.27432129 3.51700195 -8.9387207 2.73291016 C-6.9826523 -0.87805825 -3.6990984 -0.30196722 0 0 Z " fill="#221815" transform="translate(198,293)"/>
<path d="M0 0 C4.48467684 0.48746487 6.83329814 2.13720597 10.1484375 4.97265625 C11.27569172 5.89626061 12.40329785 6.81943562 13.53125 7.7421875 C14.07813477 8.19803223 14.62501953 8.65387695 15.18847656 9.12353516 C17.38995298 10.91062399 19.71298256 12.5177402 22.0234375 14.16015625 C24.7788281 16.32583226 25.70100521 17.24553741 27.1484375 20.53515625 C26.56249897 25.02735167 23.2964506 27.18855203 19.91064453 29.90429688 C17.83971045 31.49216318 15.74935785 33.04971038 13.6484375 34.59765625 C12.93300781 35.13068359 12.21757812 35.66371094 11.48046875 36.21289062 C3.11527966 42.42814794 3.11527966 42.42814794 -0.7890625 42.22265625 C-4.2265625 41.41015625 -4.2265625 41.41015625 -6.2265625 38.41015625 C-6.25390625 35.55859375 -6.25390625 35.55859375 -5.2265625 32.41015625 C-3.09021841 30.34647692 -1.18057761 28.7284001 1.2109375 27.03515625 C1.80970703 26.58527344 2.40847656 26.13539063 3.02539062 25.671875 C7.45200893 22.41015625 7.45200893 22.41015625 9.7734375 22.41015625 C6.0822693 18.48084817 2.08882888 15.27301842 -2.23828125 12.05859375 C-4.2265625 10.41015625 -4.2265625 10.41015625 -6.2265625 7.41015625 C-5.76676441 2.69722584 -4.9743183 0.6323286 0 0 Z " fill="#221815" transform="translate(207.2265625,302.58984375)"/>
<path d="M0 0 C1.9375 1.0625 1.9375 1.0625 3 3 C2.95783261 8.91748972 2.95783261 8.91748972 0.69458008 11.4753418 C-1.00566247 12.8528402 -2.74395792 14.09566731 -4.5625 15.3125 C-6.7485307 16.83470986 -8.87843758 18.38596016 -11 20 C-11 20.66 -11 21.32 -11 22 C-9.07191478 23.5802044 -7.14787173 25.05112391 -5.125 26.5 C0.81038136 30.81038136 0.81038136 30.81038136 3 33 C3.375 35.9375 3.375 35.9375 3 39 C1.375 40.9375 1.375 40.9375 -1 42 C-7.47480388 41.99005406 -11.7879182 37.88122109 -16.6875 34.125 C-17.96850586 33.16787109 -17.96850586 33.16787109 -19.27539062 32.19140625 C-28.83624726 24.99635467 -28.83624726 24.99635467 -29.5546875 20.625 C-29 17 -29 17 -26.5078125 14.375 C-25.39737905 13.55942363 -24.26843039 12.76863139 -23.125 12 C-22.53581787 11.57992676 -21.94663574 11.15985352 -21.33959961 10.72705078 C-20.14068761 9.87543558 -18.93517341 9.0330365 -17.72314453 8.20019531 C-16.15882519 7.11062406 -14.63701153 5.96065194 -13.12109375 4.8046875 C-12.27675781 4.16789062 -11.43242187 3.53109375 -10.5625 2.875 C-9.82128906 2.31554687 -9.08007812 1.75609375 -8.31640625 1.1796875 C-5.37348651 -0.31906758 -3.26096618 -0.2829764 0 0 Z " fill="#221815" transform="translate(164,303)"/>
</svg>
