<?xml version="1.0" encoding="UTF-8"?>
<svg version="1.1" xmlns="http://www.w3.org/2000/svg" width="512" height="512">
<path d="M0 0 C0.66773438 0.58523437 1.33546875 1.17046875 2.0234375 1.7734375 C6.74558668 6.16565486 10.19747173 11.19959297 13 17 C13.34853027 17.71776611 13.69706055 18.43553223 14.05615234 19.17504883 C17.72076848 27.73527445 17.45870861 36.08012555 17.25 45.1875 C17.22988817 46.7271901 17.21164574 48.2669058 17.1953125 49.80664062 C17.15515879 53.5389281 17.07682515 57.26757801 17 61 C25.58 61 34.16 61 43 61 C42.84210651 53.61024383 42.84210651 53.61024383 42.63964844 46.22167969 C42.6296582 45.29774414 42.61966797 44.37380859 42.609375 43.421875 C42.58842773 42.47924805 42.56748047 41.53662109 42.54589844 40.56542969 C43.15751858 37.11010471 44.13371999 36.00453781 47 34 C50.20800781 33.54589844 50.20800781 33.54589844 53.953125 33.609375 C54.61334656 33.61503479 55.27356812 33.62069458 55.95379639 33.62652588 C58.05328263 33.6488377 60.1510337 33.69901686 62.25 33.75 C63.6770586 33.77007206 65.10414408 33.78832161 66.53125 33.8046875 C70.02139293 33.84868307 73.51052699 33.91767124 77 34 C77.29640381 33.05979004 77.59280762 32.11958008 77.89819336 31.15087891 C80.11623926 24.80784756 85.18628513 19.55671286 91.125 16.4375 C98.63732787 13.61712777 107.63758694 13.650599 115.0625 16.6875 C121.79137993 20.24472673 127.57847239 26.73541717 130 34 C131.17999767 51.39045751 131.17999767 51.39045751 126 58 C123.5625 60.75 123.5625 60.75 121 63 C120.195625 63.721875 119.39125 64.44375 118.5625 65.1875 C111.80500862 69.96718902 103.96062484 69.83380304 96 69 C88.70236724 66.87687274 83.07580303 62.40317919 79 56 C78.34 54.02 77.68 52.04 77 50 C71.39 50 65.78 50 60 50 C60.03480469 51.45792969 60.06960938 52.91585937 60.10546875 54.41796875 C60.13361264 56.34113429 60.16091215 58.26431232 60.1875 60.1875 C60.22520508 61.62706055 60.22520508 61.62706055 60.26367188 63.09570312 C60.35853221 72.23391556 60.35853221 72.23391556 57 76 C53.22690008 78.62977138 49.14737791 78.25497307 44.734375 78.1953125 C43.67887451 78.19229126 43.67887451 78.19229126 42.60205078 78.18920898 C39.98463379 78.17877991 37.36731005 78.15085732 34.75 78.125 C28.8925 78.08375 23.035 78.0425 17 78 C17 92.52 17 107.04 17 122 C24.71624902 122.07935646 32.42214412 122.14911151 40.1370697 122.12670898 C43.72970363 122.11902253 47.3203003 122.12883383 50.91259766 122.18164062 C54.37596584 122.2318668 57.83626726 122.23307864 61.29981613 122.20095444 C63.25749598 122.19540203 65.21511097 122.24001069 67.17227173 122.28543091 C70.71981789 122.22851427 73.62137157 122.09010668 77 121 C79.20925471 118.62115561 80.44764239 116.45551794 81.74227905 113.48727417 C84.22012602 108.58707372 89.11756305 106.09959632 94.109375 104.1953125 C101.90793132 101.98874424 108.73028628 102.68420975 116 106 C122.95445139 110.00786157 127.45735671 115.37207014 130 123 C130.78496989 132.2514308 130.75705099 140.30064297 125 148 C119.57752146 154.21227433 113.69524952 157.27100806 105.55859375 158.3125 C97.81461555 158.70030486 90.76284294 156.39031023 84.625 151.625 C81.1101425 148.1101425 78.57709018 144.73127055 77 140 C47.3 139.505 47.3 139.505 17 139 C17 153.85 17 168.7 17 184 C29.32588218 183.88140041 29.32588218 183.88140041 41.65136719 183.72973633 C43.19986349 183.72097215 44.7483667 183.71332805 46.296875 183.70703125 C47.09689941 183.69168335 47.89692383 183.67633545 48.72119141 183.66052246 C52.04756357 183.65895834 54.51811011 183.74156023 57.48144531 185.33081055 C60.15443175 188.26894693 60.12058541 191.10340685 60.09765625 194.88671875 C60.09443359 195.82451172 60.09121094 196.76230469 60.08789062 197.72851562 C60.07951172 198.70498047 60.07113281 199.68144531 60.0625 200.6875 C60.05798828 201.67556641 60.05347656 202.66363281 60.04882812 203.68164062 C60.0370432 206.12111958 60.01910783 208.56056741 60 211 C65.61 210.67 71.22 210.34 77 210 C77.7425 208.2365625 77.7425 208.2365625 78.5 206.4375 C81.57881317 200.32323722 86.48986343 195.85347756 92.75 193.0625 C100.76153731 190.54907653 109.16281304 191.19843825 116.74609375 194.6796875 C122.61696935 198.11877927 126.82872337 202.93975423 129.33984375 209.27734375 C131.07327611 216.42647012 131.48315995 224.8635901 128.25 231.625 C127.53585158 232.77309278 126.78872857 233.90180501 126 235 C125.4225 235.886875 124.845 236.77375 124.25 237.6875 C118.3552496 243.74599347 112.25575544 246.15165722 103.875 246.3125 C95.22658699 246.32181941 89.46212295 244.55454866 83.125 238.625 C80.29720263 235.7425592 78.76542706 232.61241085 77 229 C76.17798096 228.98541748 75.35596191 228.97083496 74.5090332 228.95581055 C70.77638677 228.88123667 67.04462541 228.78460488 63.3125 228.6875 C62.01892578 228.66494141 60.72535156 228.64238281 59.39257812 228.61914062 C58.14541016 228.58369141 56.89824219 228.54824219 55.61328125 228.51171875 C54.46641846 228.48553467 53.31955566 228.45935059 52.13793945 228.43237305 C48.69993488 227.95865437 46.77199798 227.05467304 44 225 C42.72138385 222.44276771 42.88663391 220.63262898 42.90234375 217.7734375 C42.90484131 216.84450684 42.90733887 215.91557617 42.90991211 214.95849609 C42.92356812 213.18466553 42.92356812 213.18466553 42.9375 211.375 C42.958125 207.62125 42.97875 203.8675 43 200 C34.42 200 25.84 200 17 200 C17.04640625 202.32675781 17.0928125 204.65351563 17.140625 207.05078125 C17.17195103 209.3412051 17.19616401 211.63160375 17.21972656 213.92211914 C17.23966084 215.49612365 17.26681871 217.07005589 17.30175781 218.64379883 C17.6829081 236.27199967 13.12974525 247.47308953 0.9375 260.5625 C-12.06566001 273.00996941 -37.40042148 289 -56 289 C-56 298.9 -56 308.8 -56 319 C-49.31371183 318.88176555 -49.31371183 318.88176555 -42.62817383 318.72973633 C-33.91540995 318.65204076 -33.91540995 318.65204076 -30 322 C-28.53901155 324.9219769 -28.88865099 327.49893475 -28.90234375 330.7578125 C-28.90446617 331.75238968 -28.90446617 331.75238968 -28.90663147 332.76705933 C-28.91223246 334.88641863 -28.924785 337.00567259 -28.9375 339.125 C-28.94251488 340.56119639 -28.94707781 341.99739444 -28.95117188 343.43359375 C-28.96220218 346.95576345 -28.97946741 350.47787145 -29 354 C-28.2272876 354.12963135 -27.4545752 354.2592627 -26.65844727 354.39282227 C-20.64811991 355.76555476 -15.66613575 361.35877208 -12.46484375 366.43359375 C-8.99311118 374.21077245 -8.7421372 382.14783745 -11.5 390.1875 C-14.87668639 397.58797296 -19.8834542 402.47414972 -27.4375 405.5 C-35.60657605 408.0352305 -43.28863599 407.96849886 -51 404 C-58.05315282 399.05938571 -62.34003139 393.67155941 -64.75 385.4375 C-65.5678815 377.46315542 -64.94671005 370.13942603 -60.1953125 363.46484375 C-56.80790411 359.53417175 -53.65853301 356.38918333 -49 354 C-48.01 354 -47.02 354 -46 354 C-46 348.06 -46 342.12 -46 336 C-47.53011719 336.05800781 -49.06023437 336.11601562 -50.63671875 336.17578125 C-52.6536153 336.22268582 -54.67054488 336.26818523 -56.6875 336.3125 C-57.69490234 336.35439453 -58.70230469 336.39628906 -59.74023438 336.43945312 C-60.71669922 336.45556641 -61.69316406 336.47167969 -62.69921875 336.48828125 C-63.59471436 336.51446533 -64.49020996 336.54064941 -65.4128418 336.56762695 C-69.29412161 335.7160675 -70.67624681 334.19051726 -73 331 C-73.65523172 328.04820844 -73.58477158 325.21060206 -73.48828125 322.19921875 C-73.48120651 321.36284378 -73.47413177 320.52646881 -73.46684265 319.66474915 C-73.43894985 317.00473948 -73.37622481 314.34686861 -73.3125 311.6875 C-73.28741034 309.87958779 -73.26459833 308.07164243 -73.24414062 306.26367188 C-73.18914042 301.84162927 -73.10290643 297.42117669 -73 293 C-74.78398193 293.46865479 -74.78398193 293.46865479 -76.60400391 293.94677734 C-80.1720564 294.83719745 -83.67696608 295.440539 -87.3359375 295.8515625 C-88.48320312 295.98046875 -89.63046875 296.109375 -90.8125 296.2421875 C-91.988125 296.36851562 -93.16375 296.49484375 -94.375 296.625 C-95.54289062 296.7590625 -96.71078125 296.893125 -97.9140625 297.03125 C-99.63882813 297.22074219 -99.63882813 297.22074219 -101.3984375 297.4140625 C-102.42630371 297.5270166 -103.45416992 297.6399707 -104.51318359 297.75634766 C-108.99858496 298.06977929 -113.50366096 298 -118 298 C-118 316.48 -118 334.96 -118 354 C-116.35 354.33 -114.7 354.66 -113 355 C-106.57779402 358.51518471 -101.71364642 363.82589337 -99.39453125 370.828125 C-97.865207 379.24697927 -98.08045773 387.41886653 -102.4609375 394.8828125 C-107.18548626 401.38206486 -113.26519169 404.93583826 -121 407 C-129.11539978 408.23687275 -136.24731797 406.15330911 -143.04296875 401.64453125 C-148.18696762 397.55346179 -151.74093612 392.55419234 -153 386 C-153.80932044 376.08914152 -152.69873031 368.68920393 -146.6875 360.6875 C-143.57670976 357.57670976 -140.95541319 355.9044582 -137 354 C-136.01 354 -135.02 354 -134 354 C-134 335.52 -134 317.04 -134 298 C-137.3 298 -140.6 298 -144 298 C-146.20379757 297.84600266 -148.40561056 297.65537968 -150.6015625 297.4140625 C-151.75140625 297.28773438 -152.90125 297.16140625 -154.0859375 297.03125 C-155.25382813 296.8971875 -156.42171875 296.763125 -157.625 296.625 C-158.800625 296.49867188 -159.97625 296.37234375 -161.1875 296.2421875 C-162.33476562 296.11328125 -163.48203125 295.984375 -164.6640625 295.8515625 C-165.68967285 295.73635254 -166.7152832 295.62114258 -167.77197266 295.50244141 C-171.60094513 294.90646309 -175.2525537 293.98445988 -179 293 C-178.97381592 294.12494873 -178.94763184 295.24989746 -178.9206543 296.40893555 C-178.82998255 300.59265157 -178.77268963 304.77628121 -178.7253418 308.96069336 C-178.7002361 310.76976132 -178.66614405 312.57872822 -178.62280273 314.38745117 C-178.56197421 316.99162751 -178.53375191 319.59446031 -178.51171875 322.19921875 C-178.48591232 323.00461594 -178.4601059 323.81001312 -178.43351746 324.63981628 C-178.43144177 328.81922538 -178.66316066 330.53751899 -181.19921875 334.01953125 C-184.28126502 336.19888615 -185.5863096 336.59689153 -189.30078125 336.48828125 C-190.27724609 336.47216797 -191.25371094 336.45605469 -192.25976562 336.43945312 C-193.26716797 336.39755859 -194.27457031 336.35566406 -195.3125 336.3125 C-196.33923828 336.28994141 -197.36597656 336.26738281 -198.42382812 336.24414062 C-200.94984666 336.18539601 -203.47511224 336.09572026 -206 336 C-206 341.94 -206 347.88 -206 354 C-204.35 354.33 -202.7 354.66 -201 355 C-193.9314242 359.77993069 -189.62626764 365.44358557 -187.25 373.5625 C-186.41033531 381.74923069 -187.18424137 388.77938975 -191.81640625 395.72265625 C-197.59460104 402.74125064 -203.37973362 405.94880906 -212.3125 407.3671875 C-219.49841678 407.8034753 -226.50343409 405.48501758 -232.3359375 401.33984375 C-238.74387089 395.53935386 -242.00621159 388.1258662 -242.5 379.5 C-242.09419357 372.19548428 -239.67526975 365.29138179 -234.5625 360 C-227.84307554 354 -227.84307554 354 -223 354 C-223.02094727 353.1121582 -223.04189453 352.22431641 -223.06347656 351.30957031 C-223.13175677 348.00705545 -223.1818487 344.7052933 -223.21972656 341.40234375 C-223.23980982 339.97448879 -223.26708252 338.54671575 -223.30175781 337.11914062 C-223.35042669 335.06359632 -223.37299967 333.00914145 -223.390625 330.953125 C-223.41157227 329.71723633 -223.43251953 328.48134766 -223.45410156 327.20800781 C-222.91713917 323.41462835 -221.98212544 322.31111256 -219 320 C-216.54724859 318.7736243 -214.9494219 318.88584686 -212.2109375 318.90234375 C-211.36321777 318.90484131 -210.51549805 318.90733887 -209.64208984 318.90991211 C-208.02488037 318.92356812 -208.02488037 318.92356812 -206.375 318.9375 C-201.239375 318.9684375 -201.239375 318.9684375 -196 319 C-196 309.1 -196 299.2 -196 289 C-201.94 287.515 -201.94 287.515 -208 286 C-211.19153749 284.83733166 -214.2688637 283.65908125 -217.375 282.3125 C-218.18445068 281.96509766 -218.99390137 281.61769531 -219.82788086 281.25976562 C-231.2205572 276.26583898 -241.6537931 270.30230247 -251 262 C-252.06154297 261.06220703 -252.06154297 261.06220703 -253.14453125 260.10546875 C-262.10977692 251.68876584 -268.48410559 241.55109714 -269.23510742 229.10302734 C-269.32982257 224.69220755 -269.26287457 220.28559763 -269.1875 215.875 C-269.17242062 214.33074227 -269.15873799 212.78647024 -269.14648438 211.2421875 C-269.11632306 207.49414154 -269.05756499 203.74812061 -269 200 C-277.58 200 -286.16 200 -295 200 C-294.84210651 207.38975617 -294.84210651 207.38975617 -294.63964844 214.77832031 C-294.6296582 215.70225586 -294.61966797 216.62619141 -294.609375 217.578125 C-294.5779541 218.99206543 -294.5779541 218.99206543 -294.54589844 220.43457031 C-295.13368583 223.75525307 -296.43205069 224.89287283 -299 227 C-301.78145297 228.39072649 -304.03656504 228.07435183 -307.14453125 228.03515625 C-308.99594727 228.04385742 -308.99594727 228.04385742 -310.88476562 228.05273438 C-313.49161165 228.05921584 -316.09867316 228.03862222 -318.70507812 227.99023438 C-325.29921386 227.79658179 -325.29921386 227.79658179 -330.86303711 230.70703125 C-332.10387156 232.7557241 -333.05241581 234.80385327 -334 237 C-336.02734375 239.2421875 -336.02734375 239.2421875 -337.9375 240.875 C-338.56527344 241.42929687 -339.19304687 241.98359375 -339.83984375 242.5546875 C-346.76733369 247.18971694 -354.99969967 246.70388908 -363 246 C-366.06402259 245.09936306 -368.41671615 243.85532606 -371 242 C-371.886875 241.4225 -372.77375 240.845 -373.6875 240.25 C-379.74599347 234.3552496 -382.15165722 228.25575544 -382.3125 219.875 C-382.32167851 211.35734022 -380.55524847 205.5660296 -374.875 199.1875 C-368.25478331 193.14356544 -360.72013617 191.27759092 -351.890625 191.6171875 C-344.45877905 192.60140494 -337.92649892 196.35877585 -333 202 C-331.40313776 204.61734226 -330.21900789 207.17190171 -329 210 C-320.585 210.495 -320.585 210.495 -312 211 C-312.05220703 208.81310547 -312.05220703 208.81310547 -312.10546875 206.58203125 C-312.13361264 204.65886571 -312.16091215 202.73568768 -312.1875 200.8125 C-312.21263672 199.85279297 -312.23777344 198.89308594 -312.26367188 197.90429688 C-312.3568739 188.92583557 -312.3568739 188.92583557 -309 185 C-305.72056355 183.36028177 -302.09441377 183.87959926 -298.4921875 183.90234375 C-297.74718994 183.90335083 -297.00219238 183.90435791 -296.23461914 183.90539551 C-293.4480638 183.91063286 -290.66153038 183.92459411 -287.875 183.9375 C-281.64625 183.958125 -275.4175 183.97875 -269 184 C-269 169.15 -269 154.3 -269 139 C-276.73280384 138.94168323 -284.45723951 138.89188804 -292.18881989 138.9250412 C-295.78915772 138.93800821 -299.38787888 138.93518349 -302.98803711 138.89379883 C-306.45776582 138.85452802 -309.92494411 138.85917639 -313.39469337 138.89392281 C-315.35842423 138.90222414 -317.32217803 138.86537145 -319.28556824 138.8278656 C-322.75232511 138.88370061 -325.67840243 139.0013951 -329 140 C-330.99839523 142.15256952 -331.97820967 144.00201948 -333.01252747 146.74024963 C-335.25975978 151.88285752 -340.91316601 154.70983608 -345.875 156.875 C-352.750284 159.13536734 -360.03058302 158.71955715 -366.765625 156.1640625 C-373.25709693 152.78214181 -378.815163 147.61324438 -381.40625 140.6796875 C-383.36483104 131.840302 -383.20479222 122.9937427 -378.5546875 115.0859375 C-374.21794106 109.26728775 -368.58483635 105.29315897 -361.5625 103.3125 C-352.6917264 102.23069834 -343.88617774 103.74044519 -336.6612854 109.28079224 C-334.64424676 111.36815693 -333.83696651 113.46623857 -332.65380859 116.10888672 C-330.72522208 119.3762151 -329.79723522 120.74255608 -326.14727783 121.92120361 C-322.49488296 122.25603376 -318.955938 122.28041041 -315.2890625 122.1953125 C-313.95240376 122.19910356 -312.61575091 122.2072991 -311.27914429 122.21969604 C-307.77634365 122.24043781 -304.27667631 122.20169259 -300.77429199 122.15020752 C-297.19455497 122.10822333 -293.61506127 122.12241721 -290.03515625 122.1328125 C-283.02081493 122.14907764 -276.01621434 122.07215707 -269 122 C-269 107.48 -269 92.96 -269 78 C-280.62264843 78.11850743 -280.62264843 78.11850743 -292.24487305 78.27026367 C-293.70881493 78.27903074 -295.17276415 78.28667416 -296.63671875 78.29296875 C-297.3884436 78.30831665 -298.14016846 78.32366455 -298.91467285 78.33947754 C-303.4593813 78.34173372 -306.45097016 77.92338505 -310 75 C-312.06442347 72.02158657 -312.23888035 69.5881891 -312.1953125 66.015625 C-312.18886719 65.08105469 -312.18242187 64.14648438 -312.17578125 63.18359375 C-312.15064453 61.73146484 -312.15064453 61.73146484 -312.125 60.25 C-312.11597656 59.26644531 -312.10695313 58.28289062 -312.09765625 57.26953125 C-312.07412925 54.84624974 -312.03825937 52.42309369 -312 50 C-317.61 50 -323.22 50 -329 50 C-329.66 51.98 -330.32 53.96 -331 56 C-335.28016773 62.34327017 -340.41533165 67.29061952 -348 69 C-356.33356497 69.91843233 -363.84775129 69.68648417 -371 65 C-375.713555 61.03632875 -380.03508734 55.89473799 -382 50 C-382.70704672 39.57975405 -382.67195932 31.58039585 -375.75 23.3125 C-367.97746715 16.77650647 -361.85319154 14.55885885 -351.6484375 14.6640625 C-343.24216827 15.43808729 -337.73672385 19.56301799 -332.375 25.83984375 C-330.71895715 28.4415247 -329.93438661 31.07130694 -329 34 C-327.6682373 33.9685791 -327.6682373 33.9685791 -326.30957031 33.93652344 C-323.00705545 33.86824323 -319.7052933 33.8181513 -316.40234375 33.78027344 C-314.97448879 33.76019018 -313.54671575 33.73291748 -312.11914062 33.69824219 C-310.06359632 33.64957331 -308.00914145 33.62700033 -305.953125 33.609375 C-304.71723633 33.58842773 -303.48134766 33.56748047 -302.20800781 33.54589844 C-299 34 -299 34 -296.58984375 35.68554688 C-294.64874597 38.51134647 -294.53372724 40.01772561 -294.609375 43.421875 C-294.61936523 44.34581055 -294.62935547 45.26974609 -294.63964844 46.22167969 C-294.67606445 47.38602539 -294.71248047 48.55037109 -294.75 49.75 C-294.8325 53.4625 -294.915 57.175 -295 61 C-286.42 61 -277.84 61 -269 61 C-269.04640625 58.74542969 -269.0928125 56.49085937 -269.140625 54.16796875 C-269.17195667 51.9470443 -269.19616637 49.72614591 -269.21972656 47.50512695 C-269.23965311 45.97962141 -269.26680485 44.45419032 -269.30175781 42.92895508 C-269.64867601 27.38395887 -266.21794757 15.56214717 -255.8984375 3.5546875 C-250.78586182 -1.77467584 -245.23221133 -6.06293732 -239 -10 C-238.00742188 -10.63679688 -237.01484375 -11.27359375 -235.9921875 -11.9296875 C-172.75448884 -50.35070064 -56.87578254 -50.94736221 0 0 Z " fill="#010000" transform="translate(382,71)"/>
<path d="M0 0 C2.93696464 0.0237286 5.87302108 0.02050787 8.81005859 0.01391602 C24.2275552 0.03630679 39.61988128 0.89999392 54.74365234 4.08618164 C55.9642334 4.33887817 55.9642334 4.33887817 57.20947266 4.59667969 C72.38282268 7.86328602 86.82831151 12.59356679 100.80615234 19.33618164 C101.81162109 19.81829102 102.81708984 20.30040039 103.85302734 20.79711914 C116.13674377 27.07777641 126.85079727 35.97703878 132.10302734 48.99633789 C134.18791455 55.93437922 133.21987174 61.10327081 130.11865234 67.58618164 C117.88903214 89.75766399 91.77083196 98.60198496 68.80615234 105.33618164 C64.49319493 106.53006464 60.20499575 107.51995789 55.80615234 108.33618164 C54.81542725 108.52688232 54.81542725 108.52688232 53.8046875 108.72143555 C51.59856139 109.14456228 49.39059319 109.55573285 47.18115234 109.96118164 C46.51220947 110.08468994 45.8432666 110.20819824 45.15405273 110.33544922 C-3.54723648 118.86305028 -61.26199885 112.75282905 -103.20947266 85.36743164 C-111.5877876 79.09654561 -119.76880654 69.71013458 -121.57275391 59.10961914 C-122.23486815 50.2344708 -117.8459172 43.31428595 -113.06884766 36.14868164 C-86.14159192 7.28602939 -37.39763775 -0.32158596 0 0 Z " fill="#FDA731" transform="translate(250.19384765625,50.663818359375)"/>
<path d="M0 0 C0.53984024 0.40674957 1.07968048 0.81349915 1.63587952 1.23257446 C2.70569313 2.03711563 2.70569313 2.03711563 3.79711914 2.85791016 C4.50195938 3.38840973 5.20679962 3.9189093 5.93299866 4.46548462 C13.74600668 10.26576193 21.89685921 15.16703132 30.6875 19.3125 C31.35128662 19.62558105 32.01507324 19.93866211 32.69897461 20.26123047 C42.20072834 24.6056183 51.89920482 27.68671641 62.0625 30.0625 C63.14869629 30.31926514 64.23489258 30.57603027 65.35400391 30.84057617 C74.49982724 32.96229399 83.68108175 34.82448549 93 36 C94.09163452 36.14139404 94.09163452 36.14139404 95.20532227 36.28564453 C120.13942149 39.03180973 147.36583989 38.57268516 172 34 C173.70833008 33.70198486 173.70833008 33.70198486 175.45117188 33.39794922 C203.39232787 28.46128389 228.65477985 19.79341604 251 2 C251.99 1.34 252.98 0.68 254 0 C254.11635778 8.43253553 254.20494784 16.86473013 254.25906086 25.29787254 C254.28504559 29.21465995 254.32023604 33.13089416 254.37719727 37.04736328 C254.43191985 40.83403507 254.46150398 44.62017813 254.47438622 48.40721512 C254.48355468 49.84481748 254.50145721 51.28239413 254.52865028 52.71976852 C254.76665466 65.83358785 251.56270229 74.0968728 242.49609375 83.625 C214.04968235 110.69138205 167.92416645 117.2554456 130.3125 117.1875 C129.58768433 117.18623108 128.86286865 117.18496216 128.11608887 117.18365479 C88.9789209 117.05383414 40.97486629 112.18700232 11.125 83.5625 C3.75508122 75.79705785 -0.27048132 68.29653428 -0.22705078 57.33032227 C-0.22689972 56.04952286 -0.22674866 54.76872345 -0.22659302 53.44911194 C-0.21638289 52.07154175 -0.20595096 50.69397319 -0.1953125 49.31640625 C-0.19157721 47.89151712 -0.18873267 46.46662541 -0.18673706 45.04173279 C-0.17914121 41.31154145 -0.15952809 37.5815086 -0.1373291 33.85137939 C-0.11678291 30.0370091 -0.10771667 26.22261293 -0.09765625 22.40820312 C-0.07627788 14.93873024 -0.04219155 7.46938742 0 0 Z " fill="#FDD55B" transform="translate(129,141)"/>
<path d="M0 0 C3.12297995 1.49535771 5.35523678 3.12452308 7.9375 5.4375 C19.74036283 15.01967605 34.5576092 21.54796831 49 26 C50.01449219 26.34289062 51.02898437 26.68578125 52.07421875 27.0390625 C61.54648097 30.15290529 71.19338714 32.26305533 81 34 C81.86447754 34.15388184 82.72895508 34.30776367 83.61962891 34.46630859 C98.20226302 36.92286233 112.68679606 37.28848477 127.4375 37.3125 C128.76516891 37.31787781 128.76516891 37.31787781 130.11965942 37.32336426 C171.38059182 37.41328758 214.31591602 28.91764628 248 4 C249.99632914 2.66117673 251.99588295 1.327137 254 0 C254.139847 8.26756881 254.24604419 16.53463254 254.31087303 24.80309677 C254.34200914 28.64373703 254.38414856 32.48356028 254.45263672 36.32373047 C254.51847453 40.03911454 254.55383878 43.75371965 254.56926346 47.46964264 C254.58023603 48.87772109 254.60165926 50.28576336 254.63438034 51.69350433 C254.90870753 64.00026315 251.81293339 73.955057 243.2109375 83.0078125 C228.22297455 96.51286745 210.21145312 103.68924123 191 109 C190.16452637 109.23348145 189.32905273 109.46696289 188.46826172 109.70751953 C179.00704491 112.29832657 169.62054881 114.27300679 159.83984375 115.12109375 C158.42948349 115.24522896 158.42948349 115.24522896 156.9906311 115.37187195 C146.97514261 116.18398744 136.97546009 116.3373869 126.93115234 116.31567383 C123.86910962 116.31249388 120.80801981 116.33618234 117.74609375 116.36132812 C100.48120827 116.41764246 84.01601376 114.3347789 67.25 110.1875 C66.19635254 109.92888184 65.14270508 109.67026367 64.05712891 109.40380859 C42.58277954 103.97687597 19.28414256 94.71410836 5.46484375 76.49609375 C4.98144531 75.67238281 4.49804688 74.84867187 4 74 C3.50286247 73.16754257 3.50286247 73.16754257 2.99568176 72.31826782 C-0.80462142 65.05724607 -0.51345539 57.92116197 -0.390625 49.90234375 C-0.38315015 48.45789886 -0.37746311 47.01344371 -0.37347412 45.56898499 C-0.35831525 41.79586009 -0.3191204 38.02336644 -0.2746582 34.25048828 C-0.23349272 30.38908422 -0.21541804 26.5275766 -0.1953125 22.66601562 C-0.15261425 15.11039156 -0.08448455 7.55528475 0 0 Z " fill="#FDA731" transform="translate(129,236)"/>
<path d="M0 0 C4.24804823 2.03279124 7.48859957 4.79804579 11.07421875 7.83203125 C14.80072093 10.59332459 18.94560998 12.7475611 23 15 C23 40.08 23 65.16 23 91 C12.14015208 86.65606083 5.81320795 78.06937096 0.94192505 67.76094055 C-0.16678931 64.5111125 -0.24038084 61.89806546 -0.22705078 58.46557617 C-0.22682419 56.51411934 -0.22682419 56.51411934 -0.22659302 54.52323914 C-0.21638124 53.11314743 -0.20594927 51.70305731 -0.1953125 50.29296875 C-0.19157959 48.84280086 -0.18873393 47.39263043 -0.18673706 45.94245911 C-0.17912249 42.13661666 -0.15949289 38.3309283 -0.1373291 34.52514648 C-0.11682363 30.63722823 -0.10772531 26.74928494 -0.09765625 22.86132812 C-0.07624478 15.24081538 -0.04213534 7.62042933 0 0 Z " fill="#E2952C" transform="translate(129,236)"/>
<path d="M0 0 C0.80058334 0.60645355 0.80058334 0.60645355 1.61734009 1.22515869 C2.32579071 1.75961609 3.03424133 2.29407349 3.76416016 2.84472656 C4.46288239 3.37277893 5.16160461 3.9008313 5.88150024 4.44488525 C8.95245228 6.69916108 12.14637086 8.73122753 15.375 10.75 C21.73946629 14.73946629 21.73946629 14.73946629 24 17 C24.15820026 19.41176149 24.19266218 21.70281855 24.13525391 24.11181641 C24.12579239 24.84362625 24.11633087 25.5754361 24.10658264 26.329422 C24.07284421 28.75371973 24.02474639 31.17751235 23.9765625 33.6015625 C23.95040159 35.28020906 23.92513409 36.95886976 23.90072632 38.63754272 C23.83401423 43.0600369 23.75513489 47.48223441 23.67376709 51.90447998 C23.59290644 56.41537064 23.5234894 60.92643556 23.453125 65.4375 C23.31331781 74.29187559 23.1606632 83.14598002 23 92 C13.10959923 86.47084587 4.55391761 78.84639896 0.95339966 67.78453064 C0.02907328 64.1154067 -0.2419788 61.09964649 -0.22705078 57.33032227 C-0.22689972 56.04952286 -0.22674866 54.76872345 -0.22659302 53.44911194 C-0.21638289 52.07154175 -0.20595096 50.69397319 -0.1953125 49.31640625 C-0.19157721 47.89151712 -0.18873267 46.46662541 -0.18673706 45.04173279 C-0.17914121 41.31154145 -0.15952809 37.5815086 -0.1373291 33.85137939 C-0.11678291 30.0370091 -0.10771667 26.22261293 -0.09765625 22.40820312 C-0.07627788 14.93873024 -0.04219155 7.46938742 0 0 Z " fill="#E3C052" transform="translate(129,141)"/>
<path d="M0 0 C-1.31043057 3.93129171 -2.69011274 4.12068106 -6.3125 6 C-18.46804567 12.88814254 -28.05549531 22.39598858 -33.4375 35.5 C-35.53044947 48.52279667 -32.51690385 58.30492778 -25 69 C-18.00797055 77.79050422 -7.12793319 84.43250072 3 89 C3 89.66 3 90.32 3 91 C-3.77555493 89.14142454 -10.10172246 86.84601732 -16.4375 83.8125 C-17.26008301 83.42030273 -18.08266602 83.02810547 -18.93017578 82.62402344 C-27.62004513 78.37062411 -35.48405679 73.26062243 -42 66 C-42.48984375 65.49082031 -42.9796875 64.98164062 -43.484375 64.45703125 C-48.63940803 58.88091879 -52.08243311 52.88208501 -52.625 45.1875 C-52.30015861 37.47552476 -47.85310742 29.0765339 -42.625 23.47265625 C-32.88669274 14.64731529 -13.88185997 0 0 0 Z " fill="#E1942C" transform="translate(181,62)"/>
<path d="M0 0 C3.6578218 2.03993908 5.66946174 3.50419262 8 7 C8.4606067 11.97455239 8.16781812 15.06753613 5 19 C2.07104403 21.35943675 0.25318497 21.96835188 -3.5 22.4375 C-7.61647408 21.92294074 -9.13461399 20.94725418 -12 18 C-14.29399862 14.72285911 -14.61717397 11.93448403 -14 8 C-10.17972095 2.28130007 -7.12639564 -0.68523035 0 0 Z " fill="#048DF2" transform="translate(488,279)"/>
<path d="M0 0 C3.21899883 2.15039676 6.25082294 4.50164588 8 8 C8.44408691 11.9079648 8.13704844 13.74548146 6.25 17.25 C3.08484 21.11852888 1.54156269 21.8001678 -3.375 22.4375 C-8.20918218 21.85406422 -9.63062001 20.44960332 -13 17 C-14.20190901 13.39427296 -14.32670315 10.7897565 -14 7 C-10.51424959 1.39790112 -6.64400934 -1.04219754 0 0 Z " fill="#048DF2" transform="translate(30,279)"/>
<path d="M0 0 C3.57512324 2.80212362 5.07942757 5.24758513 5.75 9.75 C5.18922496 13.67542527 3.80961051 15.76047605 1.3125 18.8125 C-1.89535018 21.16492347 -4.78399252 21.2809209 -8.6875 20.8125 C-11.72272895 19.17814595 -13.97102297 17.756947 -16.0625 15 C-16.98928233 11.75626185 -17.04090896 9.16988508 -16.6875 5.8125 C-12.67701168 -0.63292766 -7.2643033 -3.20980844 0 0 Z " fill="#048DF3" transform="translate(32.6875,103.1875)"/>
<path d="M0 0 C3.6578218 2.03993908 5.66946174 3.50419262 8 7 C8.48256365 11.26264558 8.26873267 13.49132744 6.25 17.3125 C3.24080771 20.90681302 1.68299118 21.82095839 -2.9375 22.3125 C-6.49256959 21.9497378 -8.19582377 21.19786786 -11 19 C-13.16232881 16.24116669 -13.93942763 14.48457897 -14.375 11 C-13.80520344 6.44162752 -12.2898825 4.01098899 -8.6875 1.1875 C-5.42414686 -0.25444674 -3.53748596 -0.50535514 0 0 Z " fill="#048EF3" transform="translate(488,102)"/>
<path d="M0 0 C3.02508145 1.73602105 5.41790069 3.83580137 7 7 C7.22455057 11.96940167 6.68307821 15.1632292 3.5 19.0625 C0.19295563 21.34954032 -2.91543283 21.73332314 -6.87890625 21.47265625 C-10.58826263 20.64607776 -11.95175535 19.13637463 -14 16 C-15.01062385 12.91135183 -15.40353827 10.23398982 -15 7 C-11.69021659 0.75683993 -6.83956798 -1.16742162 0 0 Z " fill="#048FF5" transform="translate(260,440)"/>
<path d="M0 0 C3.86134614 0.04843983 6.16579789 0.80078068 9.25 3.25 C11.9290573 7.26858595 11.94610694 10.52641721 11.25 15.25 C9.45606332 18.12029869 8.26736724 19.74131638 5.25 21.25 C2.19079426 21.67071592 -0.6967746 21.73514117 -3.75 21.25 C-6.50569447 19.06840855 -8.18588747 17.37822506 -9.75 14.25 C-10.25698467 9.09565588 -10.25698467 9.09565588 -9.75 6.25 C-7.3125 3.3125 -7.3125 3.3125 -4.75 1.25 C-3.75 0.25 -3.75 0.25 0 0 Z " fill="#048FF6" transform="translate(343.75,439.75)"/>
<path d="M0 0 C3.58552881 1.63687185 4.79315055 2.68972583 7 6 C7.48384204 10.91906075 7.51355236 13.05848735 5.125 17.4375 C2.99173128 20.00997111 2.25464149 20.84964021 -0.98828125 21.23828125 C-5.15410332 21.3713075 -7.37869331 21.38831668 -11 19.125 C-14.32530877 15.59185943 -14.33074386 12.95338737 -14.29296875 8.26171875 C-13.86344199 4.9457722 -12.39075646 3.25012373 -10 1 C-6.80876226 -0.59561887 -3.47254909 -0.3799142 0 0 Z " fill="#048FF6" transform="translate(171,440)"/>
<path d="M0 0 C3.39890142 2.06889652 5.88937011 4.11279537 7 8 C6.80743088 13.29565084 5.69046589 16.19770181 2 20 C-1.49153681 21.7457684 -5.19027545 21.55928599 -9 21 C-12.14697999 18.96757543 -13.52651348 17.44705992 -14.6953125 13.875 C-15.30522742 10.59254882 -15.59988819 8.1315538 -14.00390625 5.12109375 C-9.95790216 0.1386258 -6.25858594 -0.87692279 0 0 Z " fill="#048FF6" transform="translate(31,191)"/>
<path d="M0 0 C3.02508145 1.73602105 5.41790069 3.83580137 7 7 C7.04259733 11.41308343 6.80364944 14.96303299 4.0625 18.5 C0.20423088 21.3060139 -3.318919 21.65589043 -8 21 C-11.39890142 18.93110348 -13.88937011 16.88720463 -15 13 C-14.80743088 7.70434916 -13.69046589 4.80229819 -10 1 C-6.77140153 -0.61429923 -3.49006347 -0.59570657 0 0 Z " fill="#048FF6" transform="translate(489,191)"/>
</svg>
