<?xml version="1.0" standalone="no"?>
<!DOCTYPE svg PUBLIC "-//W3C//DTD SVG 20010904//EN"
 "http://www.w3.org/TR/2001/REC-SVG-20010904/DTD/svg10.dtd">
<svg version="1.0" xmlns="http://www.w3.org/2000/svg"
 width="512.000000pt" height="512.000000pt" viewBox="0 0 512.000000 512.000000"
 preserveAspectRatio="xMidYMid meet">

<g transform="translate(0.000000,512.000000) scale(0.100000,-0.100000)"
fill="#000000" stroke="none">
<path d="M1415 5108 c-46 -25 -45 -9 -45 -655 l0 -613 -656 0 -656 0 -29 -29
-29 -29 0 -1557 c0 -1164 3 -1562 12 -1578 21 -41 39 -46 146 -47 l102 0 0
-269 c0 -148 3 -277 6 -286 18 -47 -90 -45 2294 -45 2384 0 2276 -2 2294 45 3
9 6 138 6 286 l0 269 103 0 c106 1 124 6 145 47 9 16 12 414 12 1578 l0 1557
-29 29 -29 29 -656 0 -656 0 0 609 c0 335 -3 617 -6 626 -18 46 9 45 -1186 45
-794 -1 -1129 -4 -1143 -12z m2165 -1741 l0 -1583 -67 4 c-78 4 -154 -19 -222
-69 -47 -33 -101 -114 -119 -175 -27 -93 -5 -215 52 -293 l25 -33 -57 -42
c-31 -24 -69 -58 -85 -77 l-27 -34 -18 24 c-58 82 -142 162 -210 200 -13 7 -9
17 26 56 23 26 54 73 69 104 26 52 28 65 28 176 0 112 -2 124 -29 178 -145
292 -532 331 -728 72 -59 -78 -81 -157 -76 -273 5 -113 30 -178 100 -257 35
-39 39 -49 26 -56 -68 -38 -152 -118 -210 -200 l-18 -24 -27 34 c-16 19 -54
54 -85 77 l-57 42 18 23 c70 90 91 226 51 331 -28 75 -96 150 -168 185 -49 24
-69 28 -144 28 l-88 0 0 1583 0 1582 1020 0 1020 0 0 -1583z m-2212 -691 l2
-989 -31 -48 c-77 -121 -77 -267 2 -378 30 -42 30 -46 13 -56 -77 -43 -190
-185 -215 -270 -7 -25 -16 -45 -19 -45 -3 0 -22 12 -41 26 -19 14 -41 29 -49
34 -12 7 -10 15 13 47 47 68 61 113 61 198 0 66 -4 90 -26 136 -102 221 -377
273 -549 105 -115 -112 -132 -306 -39 -435 l30 -40 -43 -30 c-46 -31 -118
-105 -136 -140 -10 -19 -20 -21 -91 -21 l-80 0 0 1450 0 1450 598 -2 597 -3 3
-989z m3582 -456 l0 -1450 -80 0 c-71 0 -81 2 -91 21 -18 35 -90 109 -136 140
l-43 30 30 41 c90 124 77 308 -29 421 -170 182 -454 135 -559 -92 -22 -46 -26
-70 -26 -136 0 -85 14 -130 61 -198 23 -32 25 -40 13 -47 -8 -5 -30 -20 -49
-34 -19 -14 -38 -26 -41 -26 -3 0 -12 20 -19 45 -25 85 -138 227 -215 270 -17
10 -17 14 13 56 78 111 79 263 1 379 l-30 45 0 986 c0 542 3 989 7 992 3 4
273 7 600 7 l593 0 0 -1450z m-2291 -366 c94 -39 153 -128 153 -232 0 -71 -21
-125 -70 -176 -52 -54 -104 -76 -182 -76 -78 0 -130 22 -182 76 -49 51 -70
105 -70 177 0 181 182 300 351 231z m-959 -256 c118 -60 118 -233 0 -295 -75
-40 -149 -26 -207 40 -56 64 -56 150 0 214 58 66 130 80 207 41z m1863 8 c44
-18 95 -78 103 -121 19 -104 -64 -205 -169 -205 -86 0 -167 85 -167 174 1 115
126 197 233 152z m-2694 -275 c37 -27 70 -91 71 -136 0 -40 -38 -114 -71 -138
-55 -40 -144 -40 -198 0 -51 39 -66 70 -66 138 0 71 17 103 76 143 46 32 138
28 188 -7z m3571 7 c45 -31 69 -66 76 -110 18 -110 -56 -200 -166 -200 -137 0
-215 149 -137 262 47 70 160 93 227 48z m-1748 -167 c157 -54 265 -183 288
-346 5 -38 10 -202 10 -362 l0 -293 -430 0 -430 0 0 293 c0 160 5 324 10 362
23 161 130 290 284 345 71 26 196 26 268 1z m-983 -76 c103 -27 185 -100 228
-204 22 -54 23 -65 23 -388 l0 -333 -340 0 -340 0 0 318 c0 383 6 414 94 511
43 46 97 79 159 96 68 18 110 18 176 0z m1874 0 c120 -31 205 -115 241 -235
13 -44 16 -111 16 -372 l0 -318 -340 0 -340 0 0 333 c0 323 1 334 23 388 43
104 128 180 229 205 71 17 104 17 171 -1z m-2671 -277 c31 -14 75 -45 98 -69
85 -88 100 -145 100 -391 l0 -188 -340 0 -340 0 0 198 c0 224 8 267 65 344 39
53 109 105 169 124 66 22 181 13 248 -18z m3583 2 c64 -31 134 -101 165 -165
24 -48 25 -60 28 -267 l3 -218 -340 0 -341 0 0 188 c0 230 12 287 79 369 38
46 76 73 140 100 75 32 192 29 266 -7z"/>
<path d="M2012 4770 c-48 -20 -52 -53 -52 -419 0 -344 3 -381 38 -407 25 -19
1099 -19 1124 0 35 26 38 63 38 407 0 371 -4 400 -55 419 -34 13 -1061 12
-1093 0z m978 -415 l0 -255 -430 0 -430 0 0 255 0 255 430 0 430 0 0 -255z"/>
<path d="M2132 3668 l3 -83 83 -3 82 -3 0 86 0 85 -85 0 -86 0 3 -82z"/>
<path d="M2472 3668 l3 -83 85 0 85 0 3 83 3 82 -91 0 -91 0 3 -82z"/>
<path d="M2820 3665 l0 -86 83 3 82 3 3 83 3 82 -86 0 -85 0 0 -85z"/>
<path d="M1790 3325 l0 -85 85 0 85 0 0 85 0 85 -85 0 -85 0 0 -85z"/>
<path d="M2132 3328 l3 -83 83 -3 82 -3 0 86 0 85 -85 0 -86 0 3 -82z"/>
<path d="M2472 3328 l3 -83 85 0 85 0 3 83 3 82 -91 0 -91 0 3 -82z"/>
<path d="M2820 3325 l0 -86 83 3 82 3 3 83 3 82 -86 0 -85 0 0 -85z"/>
<path d="M3160 3325 l0 -85 85 0 85 0 0 85 0 85 -85 0 -85 0 0 -85z"/>
<path d="M1790 2985 l0 -85 85 0 85 0 0 85 0 85 -85 0 -85 0 0 -85z"/>
<path d="M2130 2985 l0 -85 85 0 85 0 0 85 0 85 -85 0 -85 0 0 -85z"/>
<path d="M2472 2988 l3 -83 85 0 85 0 3 83 3 82 -91 0 -91 0 3 -82z"/>
<path d="M2820 2985 l0 -85 85 0 85 0 0 85 0 85 -85 0 -85 0 0 -85z"/>
<path d="M3160 2985 l0 -85 85 0 85 0 0 85 0 85 -85 0 -85 0 0 -85z"/>
<path d="M1790 2645 l0 -85 85 0 85 0 0 85 0 85 -85 0 -85 0 0 -85z"/>
<path d="M2130 2645 l0 -85 85 0 85 0 0 85 0 85 -85 0 -85 0 0 -85z"/>
<path d="M2470 2645 l0 -85 90 0 90 0 0 85 0 85 -90 0 -90 0 0 -85z"/>
<path d="M2820 2645 l0 -85 85 0 85 0 0 85 0 85 -85 0 -85 0 0 -85z"/>
<path d="M3160 2645 l0 -85 85 0 85 0 0 85 0 85 -85 0 -85 0 0 -85z"/>
<path d="M1790 2305 l0 -85 85 0 85 0 0 85 0 85 -85 0 -85 0 0 -85z"/>
<path d="M2130 2305 l0 -85 85 0 85 0 0 85 0 85 -85 0 -85 0 0 -85z"/>
<path d="M2477 2384 c-4 -4 -7 -43 -7 -86 l0 -78 90 0 91 0 -3 83 -3 82 -80 3
c-45 1 -84 0 -88 -4z"/>
<path d="M2820 2305 l0 -85 85 0 85 0 0 85 0 85 -85 0 -85 0 0 -85z"/>
<path d="M3160 2305 l0 -85 85 0 85 0 0 85 0 85 -85 0 -85 0 0 -85z"/>
<path d="M430 2475 l0 -685 85 0 85 0 0 685 0 685 -85 0 -85 0 0 -685z"/>
<path d="M940 2475 l0 -685 85 0 85 0 0 685 0 685 -85 0 -85 0 0 -685z"/>
<path d="M4010 2475 l0 -685 85 0 85 0 0 685 0 685 -85 0 -85 0 0 -685z"/>
<path d="M4520 2475 l0 -685 85 0 85 0 0 685 0 685 -85 0 -85 0 0 -685z"/>
</g>
</svg>
