<?xml version="1.0" encoding="UTF-8"?>
<svg version="1.1" xmlns="http://www.w3.org/2000/svg" width="1500" height="1500">
<path d="M0 0 C189.37974684 0 189.37974684 0 225.59375 34.46875 C239.31840238 48.94543813 245.98026264 66.59706068 249 86 C249.13148438 86.81082031 249.26296875 87.62164063 249.3984375 88.45703125 C252.89553864 115.44141977 247.84752062 143.60767226 231.66113281 165.83886719 C211.25736151 192.28389746 183.02250259 202.67643489 151 207 C151.52464844 207.83015625 152.04929687 208.6603125 152.58984375 209.515625 C160.46293742 222.02169788 168.10658929 234.66691022 175.76220703 247.30664062 C178.98548069 252.62765582 182.21514851 257.94478726 185.44454956 263.26208496 C187.21331529 266.17455194 188.98163426 269.08729015 190.75 272 C191.45833121 273.16666796 192.16666454 274.33333462 192.875 275.5 C199.95833333 287.16666667 207.04166667 298.83333333 214.125 310.5 C214.47561996 311.07748993 214.82623993 311.65497986 215.18748474 312.24996948 C215.89587531 313.41673401 216.6042595 314.5835024 217.31263733 315.75027466 C219.08254279 318.66547585 220.85255861 321.58060992 222.62280273 324.49560547 C225.82141983 329.76289365 229.01926015 335.03064478 232.21290588 340.3009491 C233.64126416 342.65794047 235.07026092 345.01454446 236.4992981 347.37112427 C237.20409035 348.53376141 237.90858199 349.69658083 238.61276245 350.85958862 C242.57836908 357.40864631 246.57299366 363.93758358 250.625 370.43359375 C251.37695014 371.6423666 252.12882312 372.85118745 252.88061523 374.06005859 C254.3051305 376.35033478 255.73806112 378.63456408 257.17602539 380.91650391 C257.81016357 381.93534668 258.44430176 382.95418945 259.09765625 384.00390625 C259.65976807 384.89924072 260.22187988 385.7945752 260.80102539 386.71704102 C262 389 262 389 262 392 C255.13216267 392.22855169 248.26530757 392.38594448 241.39453125 392.49438477 C239.05854654 392.53959424 236.72281581 392.60097605 234.38769531 392.67895508 C231.02605605 392.78838716 227.66778514 392.83921873 224.3046875 392.87890625 C223.26384003 392.92535782 222.22299255 392.97180939 221.15060425 393.01966858 C214.05354021 393.02458864 214.05354021 393.02458864 211.08378601 390.13644409 C209.51756061 387.8232278 208.23399246 385.50410777 207 383 C206.39937744 382.00613281 205.79875488 381.01226563 205.17993164 379.98828125 C204.42764282 378.66376953 204.42764282 378.66376953 203.66015625 377.3125 C203.07999756 376.29720215 202.49983887 375.2819043 201.90209961 374.23583984 C200.9914978 372.63409912 200.9914978 372.63409912 200.0625 371 C194.94808828 362.06644656 189.75632519 353.18915257 184.4375 344.375 C178.91983922 335.22724256 173.49106912 326.03284397 168.12207031 316.79711914 C163.81487646 309.38920624 159.46756085 302.00609811 155.10058594 294.63330078 C152.03165253 289.44814724 148.97507375 284.25599135 145.93359375 279.0546875 C145.58281769 278.45486053 145.23204163 277.85503357 144.87063599 277.23703003 C144.51629486 276.63110016 144.16195374 276.02517029 143.796875 275.40087891 C137.64519281 264.88182117 131.46300538 254.38341047 125.1875 243.9375 C124.2759314 242.41987061 124.2759314 242.41987061 123.34594727 240.87158203 C120.37460652 235.93099033 117.39249041 230.99717291 114.3984375 226.0703125 C113.83487549 225.13968994 113.27131348 224.20906738 112.69067383 223.25024414 C111.63182353 221.50232348 110.56935177 219.75658974 109.50268555 218.01342773 C109.03902588 217.24716064 108.57536621 216.48089355 108.09765625 215.69140625 C107.69039307 215.02310791 107.28312988 214.35480957 106.86352539 213.66625977 C106 212 106 212 106 210 C84.55 210 63.1 210 41 210 C41 270.06 41 330.12 41 392 C27.47 392 13.94 392 0 392 C0 262.64 0 133.28 0 0 Z M41 38 C41 82.55 41 127.1 41 173 C54.591875 173.061875 68.18375 173.12375 82.1875 173.1875 C88.55712036 173.22846802 88.55712036 173.22846802 95.05541992 173.27026367 C98.95761512 173.28031443 98.95761512 173.28031443 102.8598175 173.28633118 C104.55975217 173.29085242 106.25967902 173.30121818 107.95954895 173.31672668 C124.54432849 173.46009099 141.52870166 172.3808368 157.4375 167.3125 C158.66122314 166.93121948 158.66122314 166.93121948 159.90966797 166.54223633 C172.05748228 162.55463094 182.00001596 156.13307068 191 147 C191.58394531 146.42636719 192.16789063 145.85273437 192.76953125 145.26171875 C202.94265747 134.47047853 206.46797203 117.37947549 206.203125 102.9453125 C205.01121612 85.66263373 199.12794049 69.8129548 186 58 C164.40527935 40.24750313 136.44368421 37.47812679 109.5546875 37.70703125 C107.78589158 37.71145858 106.01709168 37.71450892 104.24829102 37.71618652 C97.79046623 37.73172427 91.33272635 37.77360633 84.875 37.8125 C63.156875 37.9053125 63.156875 37.9053125 41 38 Z " fill="#244B5A" transform="translate(516,543)"/>
<path d="M0 0 C7.06642018 6.00538972 12.4696836 12.28217287 18.35839844 19.64306641 C18.68839844 6.11306641 19.01839844 -7.41693359 19.35839844 -21.35693359 C31.56839844 -21.35693359 43.77839844 -21.35693359 56.35839844 -21.35693359 C56.44911945 12.83465365 56.52059551 47.0261982 56.56265976 81.21788003 C56.56766165 85.26887009 56.57283903 89.31985991 56.578125 93.37084961 C56.57917424 94.17721445 56.58022348 94.98357928 56.58130452 95.81437942 C56.59863567 108.81329501 56.63013239 121.81213872 56.66700962 134.81101189 C56.70462335 148.18257451 56.72667707 161.5540999 56.73475242 174.92571324 C56.74019822 183.15432474 56.7572971 191.38273292 56.79006431 199.61128172 C56.81146559 205.2797804 56.81754175 210.94817642 56.81240395 216.61671243 C56.80988115 219.87076589 56.81560594 223.12440177 56.83522034 226.37840652 C57.05945519 265.55024168 51.18141764 303.95807909 22.99902344 333.00244141 C-2.00362544 358.00509028 -36.12924464 369.66193755 -71.13769531 369.84619141 C-72.01071793 369.85189148 -72.88374054 369.85759155 -73.78321838 369.86346436 C-75.62101051 369.87284173 -77.45881891 369.87941911 -79.29663086 369.88330078 C-82.04149535 369.89293442 -84.78558608 369.92399843 -87.53027344 369.95556641 C-103.34814284 370.0512668 -118.57996496 368.2077676 -133.82910156 363.89306641 C-134.7470752 363.63630127 -135.66504883 363.37953613 -136.61083984 363.11499023 C-159.16914778 356.57563767 -178.31473331 344.46647319 -196.14160156 329.39306641 C-196.7295752 328.89766357 -197.31754883 328.40226074 -197.92333984 327.8918457 C-201.20084491 325.07110437 -204.29108646 322.31274814 -206.64160156 318.64306641 C-206.26572848 315.34199203 -205.08693469 313.73354795 -202.72753906 311.47119141 C-201.83784424 310.60373291 -201.83784424 310.60373291 -200.93017578 309.71875 C-199.98295654 308.81503662 -199.98295654 308.81503662 -199.01660156 307.89306641 C-197.73349219 306.64236697 -196.45222294 305.38977678 -195.17285156 304.13525391 C-194.55925781 303.53422852 -193.94566406 302.93320312 -193.31347656 302.31396484 C-190.72455023 299.72655073 -188.3388192 296.98807506 -185.97363281 294.19775391 C-184.29692881 292.24077974 -182.49998899 290.42711834 -180.64160156 288.64306641 C-176.93863737 290.15601566 -174.92158516 292.32365381 -172.32910156 295.33056641 C-171.53375 296.23033203 -170.73839844 297.13009766 -169.91894531 298.05712891 C-169.16742188 298.91048828 -168.41589844 299.76384766 -167.64160156 300.64306641 C-150.43897582 320.04092282 -121.21177546 332.64723513 -95.64160156 334.64306641 C-78.39233683 335.54487693 -61.35197235 335.47716612 -44.64160156 330.64306641 C-43.9896582 330.45583008 -43.33771484 330.26859375 -42.66601562 330.07568359 C-21.04149852 323.6117727 -4.37557675 310.87525027 6.57373047 291.11450195 C10.02126313 284.54564253 12.40133758 277.88880656 14.23339844 270.70556641 C14.42450195 269.95662109 14.61560547 269.20767578 14.8125 268.43603516 C18.82871487 251.1174752 18.6091344 233.74646881 18.48339844 216.08056641 C18.47334366 213.60465859 18.46422225 211.12874679 18.45605469 208.65283203 C18.43425056 202.64948859 18.40097283 196.64629665 18.35839844 190.64306641 C17.6800293 191.53292236 17.00166016 192.42277832 16.30273438 193.33959961 C15.39950383 194.52025097 14.4961785 195.70082982 13.59277344 196.88134766 C13.14724121 197.46630005 12.70170898 198.05125244 12.24267578 198.65393066 C-5.05059092 221.22243698 -31.4544872 232.60812811 -59.01660156 237.01806641 C-97.14746571 241.11995959 -134.79207982 232.33791457 -165.14160156 208.45556641 C-166.64838645 207.19278508 -168.14892985 205.9224993 -169.64160156 204.64306641 C-170.66447266 203.81935547 -170.66447266 203.81935547 -171.70800781 202.97900391 C-177.50558262 198.19118283 -182.05147579 192.57231499 -186.64160156 186.64306641 C-187.32351562 185.78841797 -188.00542969 184.93376953 -188.70800781 184.05322266 C-210.79504067 155.30982373 -216.38752187 118.35690868 -212.00097656 83.1796875 C-207.92703478 54.42407943 -194.37819325 29.63107242 -174.64160156 8.64306641 C-174.05378906 7.97919922 -173.46597656 7.31533203 -172.86035156 6.63134766 C-129.38461092 -40.37202984 -47.36332194 -39.15011055 0 0 Z M-136.64160156 27.64306641 C-137.44082031 28.29791016 -138.24003906 28.95275391 -139.06347656 29.62744141 C-158.76140172 46.3890299 -170.44834371 70.9941343 -172.64160156 96.64306641 C-174.26646615 124.32379522 -165.71125865 150.86351738 -147.29101562 171.76318359 C-131.41820842 189.07443274 -108.50506882 202.34657922 -84.64160156 203.64306641 C-58.11672126 204.63813812 -33.33246417 197.51061745 -12.64160156 180.64306641 C-11.79082031 179.95599609 -10.94003906 179.26892578 -10.06347656 178.56103516 C7.67974759 163.4575238 18.47755323 140.77746248 20.35839844 117.64306641 C21.71537744 86.7233305 15.60262631 57.99191747 -5.64160156 34.64306641 C-22.78305888 16.7303679 -47.05794533 6.37064135 -71.79785156 5.43994141 C-95.78860604 5.00903551 -118.14457512 11.80748262 -136.64160156 27.64306641 Z " fill="#244B5A" transform="translate(351.6416015625,697.35693359375)"/>
<path d="M0 0 C13.51055868 12.31342057 13.51055868 12.31342057 17 19.6875 C5.76209629 28.48476959 -5.54892577 37.16939846 -17 45.6875 C-20.84290235 44.17441093 -22.59164355 41.93886998 -25.0625 38.6875 C-41.82410764 17.78318608 -65.64513251 5.89251305 -91 -1.3125 C-92.20011719 -1.65410156 -93.40023438 -1.99570312 -94.63671875 -2.34765625 C-130.96111689 -10.79062447 -171.26682222 -1.22644162 -202.76953125 17.66796875 C-240.16529158 41.04597128 -263.51274438 77.38225249 -273.7109375 119.85546875 C-284.31933989 166.57413167 -277.47966254 217.45681685 -252.36816406 258.54248047 C-229.14639575 294.94977105 -194.28216823 318.08376919 -152.33911133 327.43310547 C-144.90852221 329.01602283 -137.61084342 329.84180895 -130.01171875 329.890625 C-129.27525116 329.89772995 -128.53878357 329.9048349 -127.77999878 329.91215515 C-89.96745987 330.19407089 -55.81877653 323.30995502 -27.078125 296.8046875 C-19.88576773 289.47713555 -13.92952123 281.04053127 -8 272.6875 C-3.0191227 274.31530139 0.85782391 277.21921348 5.0625 280.25 C5.80749756 280.78141602 6.55249512 281.31283203 7.32006836 281.86035156 C13.62072548 286.37154899 19.83944669 290.98696222 26 295.6875 C24.5301878 300.28493583 21.88668067 303.49754479 18.75 307.0625 C18.25201904 307.63758301 17.75403809 308.21266602 17.2409668 308.80517578 C16.26170902 309.93588826 15.28025986 311.06470747 14.29638672 312.19140625 C12.76833167 313.9548566 11.29247608 315.75865103 9.8125 317.5625 C-17.39403947 348.99604419 -63.65017223 365.5934517 -104.0144043 368.52197266 C-143.82295068 370.72903738 -183.83271866 364.0395144 -219 344.6875 C-219.59570801 344.36813477 -220.19141602 344.04876953 -220.80517578 343.71972656 C-245.78318988 330.31556209 -267.12907892 311.39025777 -284 288.6875 C-284.62390625 287.85863281 -285.2478125 287.02976562 -285.890625 286.17578125 C-302.53450925 263.27099662 -312.8706917 237.12667162 -318.75 209.5625 C-318.94883789 208.63397217 -319.14767578 207.70544434 -319.35253906 206.7487793 C-322.28453167 192.23088966 -323.38672599 177.84200592 -323.3125 163.0625 C-323.31034485 162.28135834 -323.3081897 161.50021667 -323.30596924 160.69540405 C-323.15301021 125.9325909 -315.70316062 91.35719094 -299 60.6875 C-298.67918457 60.08744141 -298.35836914 59.48738281 -298.02783203 58.86914062 C-279.74094621 24.80296632 -251.18585204 -2.48882792 -217 -20.3125 C-216.34725098 -20.65522949 -215.69450195 -20.99795898 -215.02197266 -21.35107422 C-147.18089726 -56.45635202 -58.13084151 -50.88712294 0 0 Z " fill="#244B5A" transform="translate(1462,576.3125)"/>
<path d="M0 0 C141.69664572 0 141.69664572 0 159.875 4.25 C160.82568359 4.46615967 161.77636719 4.68231934 162.75585938 4.9050293 C188.86318449 11.08590767 214.37519601 24.42071097 228.89819336 47.71679688 C244.0669429 72.8579993 247.57960015 106.42761302 240.59521484 134.83300781 C233.82876698 159.46754071 219.79704858 179.00995048 197.5234375 192.09375 C188.06188705 197.30952907 178.21722772 201.15395632 167.875 204.25 C166.74288086 204.60118896 166.74288086 204.60118896 165.58789062 204.95947266 C148.24544651 209.86472601 130.18051943 210.4400754 112.2890625 210.29296875 C110.4449084 210.28853789 108.60075046 210.28548974 106.7565918 210.28381348 C100.04600229 210.26831655 93.33549444 210.22643571 86.625 210.1875 C71.56875 210.125625 56.5125 210.06375 41 210 C41 270.06 41 330.12 41 392 C27.47 392 13.94 392 0 392 C0 262.64 0 133.28 0 0 Z M41 38 C41 82.55 41 127.1 41 173 C53.436875 173.061875 65.87375 173.12375 78.6875 173.1875 C82.56846436 173.21481201 86.44942871 173.24212402 90.44799805 173.27026367 C115.36204333 173.41020194 115.36204333 173.41020194 140 170 C140.70209091 169.8548143 141.40418182 169.7096286 142.12754822 169.56004333 C159.40382739 165.92106212 178.66447826 156.85406642 189 142 C199.15579997 125.61334691 201.55089041 106.74536378 197.375 88.125 C193.20242671 71.4724165 182.60073881 58.96646183 167.98828125 50.19140625 C148.30660986 39.56193215 126.44881418 37.67054488 104.4765625 37.8046875 C102.84269345 37.80763691 101.2088225 37.8096718 99.57495117 37.81079102 C93.59160484 37.82117438 87.60829926 37.84909629 81.625 37.875 C61.515625 37.936875 61.515625 37.936875 41 38 Z " fill="#244B5A" transform="translate(846,543)"/>
<path d="M0 0 C1.12653974 0.96069543 2.25238935 1.92220018 3.37794495 2.88404846 C4.31849149 3.68707571 4.31849149 3.68707571 5.27803898 4.50632572 C7.0830512 6.07204079 8.79484992 7.69351912 10.46484375 9.40234375 C11.03275635 9.97863525 11.60066895 10.55492676 12.18579102 11.14868164 C12.76385498 11.7389917 13.34191895 12.32930176 13.9375 12.9375 C18.12254215 17.17080368 22.29341704 21.30274097 26.91015625 25.0703125 C28.72248683 26.74375419 30.22944446 28.41933923 31.80859375 30.3046875 C37.83391036 37.63099184 37.83391036 37.63099184 46.39453125 40.8359375 C50.32298357 40.94673779 54.11792962 40.58305807 58 40 C56.44805246 43.32759923 54.69378051 45.48580485 52 48 C60.23888632 65.68226558 81.10515066 87.80143113 99.59113312 95.49446869 C117.82506397 101.21444887 137.56008603 100.66331037 156.4620018 100.05892944 C160.853141 99.92367813 165.24175898 99.8975715 169.63467407 99.87841797 C201.11646622 99.66058553 231.47669541 98.4592265 255.07495117 74.95141602 C264.78995864 64.67704244 273.07822374 53.31874947 280 41 C287.6796395 46.31855885 294.0469102 52.79109633 300.59375 59.3984375 C301.79256968 60.60099397 302.99183662 61.80310473 304.19152832 63.00479126 C307.32603849 66.14688546 310.45449194 69.29494171 313.58166504 72.44433594 C316.78253386 75.66577668 319.98917343 78.8814622 323.1953125 82.09765625 C329.46915961 88.39286082 335.73661465 94.69438765 342 101 C338.37152806 105.32774644 334.65222079 109.46286679 330.62890625 113.43359375 C330.14348862 113.91522476 329.65807098 114.39685577 329.15794373 114.89308167 C327.11753856 116.91742048 325.07113369 118.93565132 323.02514648 120.9543457 C316.08946846 127.7579557 316.08946846 127.7579557 309.5546875 134.94140625 C304.5671266 140.78037376 299.00992667 146.09515018 293.5625 151.5 C292.4379167 152.61955632 291.31356595 153.73934629 290.18945312 154.859375 C287.46230656 157.57561534 284.73204093 160.28868292 282 163 C276.46460949 158.36719546 271.38081555 153.45597558 266.33789062 148.29882812 C263.44709371 145.36909792 260.55473675 142.63798651 257.33666992 140.07055664 C253.82204253 137.05400604 251.5124114 133.88781645 249.00878906 130.00146484 C242.04086489 119.88723001 233.9249362 112.0696743 221.62084961 109.34680176 C204.71399229 106.42411773 187.49982869 106.5558179 170.39865065 106.65494704 C165.25086585 106.66759864 160.13108399 106.49890395 154.99072266 106.23193359 C127.83168529 104.85090198 102.39147123 103.66515062 81.14532518 122.81771636 C70.34916018 132.85032531 60.82973473 144.22706048 52 156 C53.33171983 159.99515948 55.80895461 161.35211127 59 164 C59 164.66 59 165.32 59 166 C57.93990723 165.84523193 56.87981445 165.69046387 55.78759766 165.53100586 C47.97111335 164.89706051 42.07624583 165.6772657 35.85839844 170.73876953 C30.39320166 175.72237607 25.38551326 181.12880785 20.375 186.5625 C18.5821738 188.44072203 16.78532639 190.31511434 14.984375 192.18554688 C10.60883976 196.74717592 6.2855592 201.3538235 2 206 C-0.95667717 204.66826484 -3.03032898 203.21657624 -5.31243896 200.92134094 C-5.94585205 200.28923203 -6.57926514 199.65712311 -7.23187256 199.00585938 C-7.91557922 198.31339111 -8.59928589 197.62092285 -9.30371094 196.9074707 C-10.03271606 196.17715134 -10.76172119 195.44683197 -11.51281738 194.69438171 C-13.92462832 192.2760743 -16.32938665 189.85087212 -18.734375 187.42578125 C-20.41292168 185.74096196 -22.09198603 184.05665826 -23.77154541 182.37284851 C-28.19830319 177.93277615 -32.61947078 173.48718222 -37.0390625 169.03997803 C-44.09747284 161.93850147 -51.16248721 154.84361196 -58.23090363 147.75209618 C-60.69263822 145.28019047 -63.15089809 142.80486829 -65.60882568 140.32917786 C-67.13200153 138.79916717 -68.65529077 137.26926936 -70.17871094 135.73950195 C-70.85432068 135.05715485 -71.52993042 134.37480774 -72.22601318 133.67178345 C-76.11554806 129.77310437 -80.1167064 126.066385 -84.29129314 122.47399712 C-87.85505716 119.39975541 -91.2019972 116.10498895 -94.5625 112.8125 C-95.29791016 112.11447266 -96.03332031 111.41644531 -96.79101562 110.69726562 C-97.82452148 109.68116211 -97.82452148 109.68116211 -98.87890625 108.64453125 C-99.5035376 108.03971924 -100.12816895 107.43490723 -100.77172852 106.81176758 C-102 105 -102 105 -101.82392979 103.15647507 C-100.74282619 100.32689786 -99.19152964 98.82278789 -97.0453949 96.68463135 C-96.19419067 95.82930313 -95.34298645 94.97397491 -94.46598816 94.09272766 C-93.51579364 93.1531501 -92.56545618 92.21371706 -91.61499023 91.27441406 C-90.61913718 90.27940726 -89.62394433 89.28373932 -88.62936401 88.28746033 C-85.92750865 85.58474354 -83.21649745 82.89138198 -80.50376773 80.19958591 C-77.67034069 77.38490114 -74.84539602 74.56172952 -72.01954651 71.73944092 C-66.66713281 66.39635488 -61.3071171 61.06096275 -55.94433886 55.72828174 C-49.83937156 49.65683597 -43.74291142 43.57687867 -37.6471566 37.49618578 C-25.10755747 24.987952 -12.55729651 12.49046561 0 0 Z " fill="#244B5A" transform="translate(110,466)"/>
<path d="M0 0 C1.12653974 0.96069543 2.25238935 1.92220018 3.37794495 2.88404846 C4.31849149 3.68707571 4.31849149 3.68707571 5.27803898 4.50632572 C7.0830512 6.07204079 8.79484992 7.69351912 10.46484375 9.40234375 C11.03275635 9.97863525 11.60066895 10.55492676 12.18579102 11.14868164 C12.76385498 11.7389917 13.34191895 12.32930176 13.9375 12.9375 C19.34389705 18.41559839 19.34389705 18.41559839 25.0625 23.5625 C28.89794127 26.81045573 32.44259345 30.32905509 36 33.875 C36.58918213 34.45967041 37.17836426 35.04434082 37.78540039 35.64672852 C42 39.87627572 42 39.87627572 42 41 C40.93789307 40.94126709 39.87578613 40.88253418 38.78149414 40.82202148 C17.39745358 38.91829186 17.39745358 38.91829186 -2.0625 45.5703125 C-5.60182573 48.87115606 -8.60153125 52.49586086 -11.24780273 56.54711914 C-16.25724018 63.55977318 -22.46118347 69.60072624 -28.55859375 75.65625 C-29.34774673 76.44398804 -30.13689972 77.23172607 -30.94996643 78.04333496 C-33.44345012 80.53127102 -35.94040784 83.01568624 -38.4375 85.5 C-40.14020587 87.1976841 -41.84268207 88.89559858 -43.54492188 90.59375 C-47.69396412 94.7318328 -51.84585576 98.86703935 -56 103 C-47.70275064 112.78015455 -39.15981476 122.32133018 -30.35389709 131.64528465 C-27.38250322 134.79712492 -24.4552701 137.97269478 -21.60839844 141.23779297 C-10.4781185 153.95784216 -0.72327873 164.84274142 16.93592834 166.06733894 C25.32275127 166.39222088 33.66383686 165.91045513 42 165 C37.56583328 170.31068805 32.88483314 175.24836617 27.9765625 180.12109375 C27.23038666 180.86585464 26.48421082 181.61061554 25.71542358 182.37794495 C23.35430611 184.73350827 20.98971838 187.08555216 18.625 189.4375 C17.01409144 191.04338763 15.40341204 192.64950516 13.79296875 194.25585938 C9.86462487 198.17323513 5.93343326 202.08773487 2 206 C-0.95667717 204.66826484 -3.03032898 203.21657624 -5.31243896 200.92134094 C-5.94585205 200.28923203 -6.57926514 199.65712311 -7.23187256 199.00585938 C-7.91557922 198.31339111 -8.59928589 197.62092285 -9.30371094 196.9074707 C-10.03271606 196.17715134 -10.76172119 195.44683197 -11.51281738 194.69438171 C-13.92462832 192.2760743 -16.32938665 189.85087212 -18.734375 187.42578125 C-20.41292168 185.74096196 -22.09198603 184.05665826 -23.77154541 182.37284851 C-28.19830319 177.93277615 -32.61947078 173.48718222 -37.0390625 169.03997803 C-44.09747284 161.93850147 -51.16248721 154.84361196 -58.23090363 147.75209618 C-60.69263822 145.28019047 -63.15089809 142.80486829 -65.60882568 140.32917786 C-67.13200153 138.79916717 -68.65529077 137.26926936 -70.17871094 135.73950195 C-70.85432068 135.05715485 -71.52993042 134.37480774 -72.22601318 133.67178345 C-76.11554806 129.77310437 -80.1167064 126.066385 -84.29129314 122.47399712 C-87.85505716 119.39975541 -91.2019972 116.10498895 -94.5625 112.8125 C-95.29791016 112.11447266 -96.03332031 111.41644531 -96.79101562 110.69726562 C-97.82452148 109.68116211 -97.82452148 109.68116211 -98.87890625 108.64453125 C-99.5035376 108.03971924 -100.12816895 107.43490723 -100.77172852 106.81176758 C-102 105 -102 105 -101.82392979 103.15647507 C-100.74282619 100.32689786 -99.19152964 98.82278789 -97.0453949 96.68463135 C-96.19419067 95.82930313 -95.34298645 94.97397491 -94.46598816 94.09272766 C-93.51579364 93.1531501 -92.56545618 92.21371706 -91.61499023 91.27441406 C-90.61913718 90.27940726 -89.62394433 89.28373932 -88.62936401 88.28746033 C-85.92750865 85.58474354 -83.21649745 82.89138198 -80.50376773 80.19958591 C-77.67034069 77.38490114 -74.84539602 74.56172952 -72.01954651 71.73944092 C-66.66713281 66.39635488 -61.3071171 61.06096275 -55.94433886 55.72828174 C-49.83937156 49.65683597 -43.74291142 43.57687867 -37.6471566 37.49618578 C-25.10755747 24.987952 -12.55729651 12.49046561 0 0 Z " fill="#4FC2C1" transform="translate(110,466)"/>
<path d="M0 0 C7.6796395 5.31855885 14.0469102 11.79109633 20.59375 18.3984375 C21.79256968 19.60099397 22.99183662 20.80310473 24.19152832 22.00479126 C27.32603849 25.14688546 30.45449194 28.29494171 33.58166504 31.44433594 C36.78253386 34.66577668 39.98917343 37.8814622 43.1953125 41.09765625 C49.46915961 47.39286082 55.73661465 53.69438765 62 60 C58.37152806 64.32774644 54.65222079 68.46286679 50.62890625 72.43359375 C49.9007798 73.15604027 49.9007798 73.15604027 49.15794373 73.89308167 C47.11753856 75.91742048 45.07113369 77.93565132 43.02514648 79.9543457 C36.08946846 86.7579557 36.08946846 86.7579557 29.5546875 93.94140625 C24.5671266 99.78037376 19.00992667 105.09515018 13.5625 110.5 C12.4379167 111.61955632 11.31356595 112.73934629 10.18945312 113.859375 C7.46230656 116.57561534 4.73204093 119.28868292 2 122 C-2.89999805 117.89898252 -7.46937512 113.62606298 -11.9375 109.0625 C-16.35473272 104.5883124 -20.79491398 100.24642511 -25.64453125 96.234375 C-27 95 -27 95 -28 93 C-26.92685547 93.00954712 -26.92685547 93.00954712 -25.83203125 93.01928711 C-22.55365496 93.02803439 -19.27805168 92.98318076 -16 92.9375 C-14.31197266 92.95393555 -14.31197266 92.95393555 -12.58984375 92.97070312 C-5.84451667 92.83264087 -1.83604041 92.1686275 2.921875 87.27514648 C3.60765625 86.52434814 4.2934375 85.7735498 5 85 C6.42097506 83.59721363 7.84233563 82.19479567 9.27026367 80.79908752 C11.87190732 78.2451925 14.43276509 75.65089564 17 73.0625 C18.07137887 71.98609346 19.14299182 70.90991986 20.21484375 69.83398438 C22.81259638 67.22533255 25.40717962 64.61355529 28 62 C23.34707356 50.95998117 8.18313762 34.76562372 -2.96118164 30.19580078 C-11.08141478 27.89424149 -19.77069902 28.64854043 -28 30 C-28 30.66 -28 31.32 -28 32 C-27.4337793 32.24097412 -26.86755859 32.48194824 -26.28417969 32.73022461 C-23.53867753 34.25644914 -21.66842243 36.08936452 -19.453125 38.31640625 C-18.18662109 39.58581055 -18.18662109 39.58581055 -16.89453125 40.88085938 C-15.58548828 42.20827148 -15.58548828 42.20827148 -14.25 43.5625 C-13.36183594 44.45130859 -12.47367187 45.34011719 -11.55859375 46.25585938 C-5 52.85978903 -5 52.85978903 -5 54 C-20.84 54 -36.68 54 -53 54 C-49.37033587 49.76539185 -45.91940335 45.79529686 -42.00439453 41.89086914 C-41.54510056 41.43142914 -41.08580658 40.97198914 -40.6125946 40.49862671 C-39.1216965 39.00841502 -37.62730865 37.52175872 -36.1328125 36.03515625 C-35.08741675 34.99162921 -34.04224425 33.94787848 -32.99728394 32.90391541 C-30.2672716 30.17769255 -27.53426807 27.45448819 -24.80059814 24.73193359 C-22.00324846 21.94487541 -19.20878299 19.15492854 -16.4140625 16.36523438 C-10.94550306 10.90734919 -5.47377555 5.45265441 0 0 Z " fill="#56C3C2" transform="translate(390,507)"/>
<path d="M0 0 C30.69 0 61.38 0 93 0 C86.25 7.875 86.25 7.875 82.64697266 11.46655273 C81.84659576 12.2668541 81.04621887 13.06715546 80.22158813 13.89170837 C79.37760468 14.73053055 78.53362122 15.56935272 77.6640625 16.43359375 C76.78471039 17.31153091 75.90535828 18.18946808 74.99935913 19.0940094 C72.21025942 21.87754412 69.41768982 24.65756769 66.625 27.4375 C64.7247458 29.33216665 62.82525347 31.2275963 60.92578125 33.12304688 C56.28649396 37.75135161 51.64435833 42.37678421 47 47 C42.91841178 43.56675136 38.96827003 40.08868568 35.22265625 36.28515625 C34.37896484 35.43373047 33.53527344 34.58230469 32.66601562 33.70507812 C30.93421549 31.94729449 29.20244453 30.18948212 27.47070312 28.43164062 C23.05770053 23.97824442 18.5963004 19.6836476 13.83764648 15.60180664 C10.94307748 13.07872079 8.21600619 10.4000419 5.5 7.6875 C4.96375 7.16349609 4.4275 6.63949219 3.875 6.09960938 C2.54282499 4.77253198 1.26592951 3.39041258 0 2 C0 1.34 0 0.68 0 0 Z " fill="#00AFAC" transform="translate(114,576)"/>
<path d="M0 0 C3.52564829 1.5060077 5.79532278 3.54742795 8.49316406 6.25024414 C9.37377502 7.12777847 10.25438599 8.00531281 11.16168213 8.90943909 C12.11317825 9.86783099 13.0644882 10.82640775 14.015625 11.78515625 C14.99603394 12.76675771 15.97681328 13.74798934 16.95794678 14.72886658 C19.00860901 16.78109024 21.05587482 18.83662265 23.10058594 20.89477539 C25.72741757 23.53865244 28.36084046 26.17584248 30.99658585 28.81083012 C33.01967516 30.83419062 35.04015354 32.86014094 37.05974579 34.8869915 C38.03043014 35.86086653 39.00172887 36.83412958 39.97364044 37.80677986 C41.32642408 39.16171965 42.67551821 40.5203401 44.02441406 41.87915039 C45.17879974 43.03925377 45.17879974 43.03925377 46.35650635 44.22279358 C48 46 48 46 48 47 C17.31 47 -13.38 47 -45 47 C-40.95533425 42.28122329 -36.94266647 37.81480009 -32.53515625 33.47265625 C-31.93875839 32.88004501 -31.34236053 32.28743378 -30.72789001 31.67686462 C-28.20954847 29.17466326 -25.68523618 26.6785186 -23.16137695 24.18188477 C-13.9356418 15.10722398 -13.9356418 15.10722398 -5.27490234 5.49975586 C-3.62271521 3.55617379 -1.83937287 1.76579796 0 0 Z " fill="#00B0AD" transform="translate(159,515)"/>
<path d="M0 0 C0.60141563 0.63568405 0.60141563 0.63568405 1.21498108 1.28421021 C6.02190436 5.93134692 9.41796931 6.87992701 15.99609375 6.8046875 C17.24641136 6.82524704 17.24641136 6.82524704 18.52198792 6.84622192 C21.16104979 6.88334711 23.79821531 6.87981929 26.4375 6.875 C28.23635731 6.89313919 30.03518982 6.91394572 31.83398438 6.9375 C36.22297153 6.98918647 40.61072533 7.00444226 45 7 C40.56583328 12.31068805 35.88483314 17.24836617 30.9765625 22.12109375 C29.85729874 23.23823509 29.85729874 23.23823509 28.71542358 24.37794495 C26.35430611 26.73350827 23.98971838 29.08555216 21.625 31.4375 C20.01409144 33.04338763 18.40341204 34.64950516 16.79296875 36.25585938 C12.86462487 40.17323513 8.93343326 44.08773487 5 48 C1.18873762 46.1976923 -1.34052867 44.34742485 -4 41 C-4.375 37.63671875 -4.375 37.63671875 -4 33.6875 C-3.93820557 32.97343994 -3.87641113 32.25937988 -3.81274414 31.52368164 C-3.57978786 29.01034516 -3.2951549 26.50679505 -3 24 C-2.81993408 22.44635742 -2.81993408 22.44635742 -2.63623047 20.86132812 C-1.81677449 13.89954188 -0.93259005 6.94748879 0 0 Z " fill="#03B4B2" transform="translate(107,624)"/>
<path d="M0 0 C0.33 0.99 0.66 1.98 1 3 C2.32471333 3.68363501 3.6598457 4.34715341 5 5 C6.56146824 6.38891594 8.07307395 7.83479191 9.546875 9.31640625 C10.81337891 10.58581055 10.81337891 10.58581055 12.10546875 11.88085938 C13.41451172 13.20827148 13.41451172 13.20827148 14.75 14.5625 C15.63816406 15.45130859 16.52632813 16.34011719 17.44140625 17.25585938 C24 23.85978903 24 23.85978903 24 25 C8.16 25 -7.68 25 -24 25 C-20.51466895 20.93378044 -17.23815147 17.11323733 -13.4765625 13.37890625 C-12.68378906 12.58935547 -11.89101563 11.79980469 -11.07421875 10.98632812 C-10.26597656 10.18646484 -9.45773437 9.38660156 -8.625 8.5625 C-7.79355469 7.73556641 -6.96210938 6.90863281 -6.10546875 6.05664062 C-4.0725896 4.03544469 -2.03740037 2.01663665 0 0 Z " fill="#27BAB8" transform="translate(361,536)"/>
<path d="M0 0 C15.18 0 30.36 0 46 0 C39.25 7.875 39.25 7.875 35.9140625 11.18359375 C34.86025391 12.23256836 34.86025391 12.23256836 33.78515625 13.30273438 C32.71587891 14.35944336 32.71587891 14.35944336 31.625 15.4375 C30.88894531 16.16904297 30.15289062 16.90058594 29.39453125 17.65429688 C27.59863926 19.43852723 25.80044015 21.22036124 24 23 C20.3468423 21.46213169 18.016051 19.26051042 15.234375 16.46484375 C14.34492188 15.57345703 13.45546875 14.68207031 12.5390625 13.76367188 C11.15847656 12.3647168 11.15847656 12.3647168 9.75 10.9375 C8.8050908 9.99113361 7.85978238 9.04516564 6.9140625 8.09960938 C0 1.14019224 0 1.14019224 0 0 Z " fill="#24BCBA" transform="translate(338,576)"/>
<path d="M0 0 C3.18230364 1.59115182 4.85372787 2.58217915 7.3203125 4.90625 C7.93382568 5.48093018 8.54733887 6.05561035 9.17944336 6.64770508 C9.82147705 7.2589624 10.46351074 7.87021973 11.125 8.5 C12.11608765 9.43525513 12.11608765 9.43525513 13.12719727 10.3894043 C24.66987925 21.32346959 24.66987925 21.32346959 29 26 C29 26.33 29 26.66 29 27 C18.44 27 7.88 27 -3 27 C-2.01 18.09 -1.02 9.18 0 0 Z " fill="#03B7B4" transform="translate(123,480)"/>
<path d="M0 0 C6.93 0 13.86 0 21 0 C21 6.93 21 13.86 21 21 C13.11134235 14.23829344 13.11134235 14.23829344 10.25390625 11.38671875 C9.64482422 10.77892578 9.03574219 10.17113281 8.40820312 9.54492188 C7.79912109 8.93197266 7.19003906 8.31902344 6.5625 7.6875 C5.92634766 7.05521484 5.29019531 6.42292969 4.63476562 5.77148438 C4.03470703 5.17013672 3.43464844 4.56878906 2.81640625 3.94921875 C2.27443604 3.40612061 1.73246582 2.86302246 1.17407227 2.3034668 C0 1 0 1 0 0 Z " fill="#03B7B5" transform="translate(338,576)"/>
<path d="M0 0 C0.33 6.6 0.66 13.2 1 20 C-5.93 20 -12.86 20 -20 20 C-13.23827936 12.11132592 -13.23827936 12.11132592 -10.60546875 9.47265625 C-10.04279297 8.90869141 -9.48011719 8.34472656 -8.90039062 7.76367188 C-8.05250977 6.9215918 -8.05250977 6.9215918 -7.1875 6.0625 C-6.31061523 5.17981445 -6.31061523 5.17981445 -5.41601562 4.27929688 C-1.12677846 0 -1.12677846 0 0 0 Z " fill="#03B7B5" transform="translate(357,541)"/>
<path d="M0 0 C1.53198242 1.01196289 1.53198242 1.01196289 3 3 C3.00399503 5.71947699 2.83927812 8.13160521 2.48828125 10.80859375 C2.35585274 11.9532888 2.35585274 11.9532888 2.2207489 13.12110901 C2.03068294 14.73507681 1.83262284 16.34812025 1.62719727 17.96020508 C1.31436781 20.42279661 1.02719254 22.88734269 0.74414062 25.35351562 C0.55619695 26.9220566 0.36679167 28.49042328 0.17578125 30.05859375 C0.08919754 30.79411972 0.00261383 31.52964569 -0.08659363 32.28746033 C-0.55245174 35.87823505 -1.08486925 38.89188661 -3 42 C-3.33 41.67 -3.66 41.34 -4 41 C-3.98752763 38.62713118 -3.89829487 36.30348953 -3.75 33.9375 C-3.68437866 32.8393396 -3.68437866 32.8393396 -3.61743164 31.71899414 C-2.90017692 21.09772904 -1.41568398 10.54637952 0 0 Z " fill="#0EBAB8" transform="translate(107,624)"/>
<path d="M0 0 C0.99 0.33 1.98 0.66 3 1 C2.69182184 4.39623999 2.37769353 7.79190447 2.0625 11.1875 C1.97548828 12.14720703 1.88847656 13.10691406 1.79882812 14.09570312 C1.66831055 15.49272461 1.66831055 15.49272461 1.53515625 16.91796875 C1.456604 17.77156982 1.37805176 18.6251709 1.29711914 19.50463867 C0.99518456 22.0404426 0.53368625 24.50359947 0 27 C-0.99 26.67 -1.98 26.34 -3 26 C-2.01 17.42 -1.02 8.84 0 0 Z " fill="#0EBAB8" transform="translate(123,480)"/>
</svg>
