<?xml version="1.0" encoding="UTF-8"?>
<svg version="1.1" xmlns="http://www.w3.org/2000/svg" width="512" height="512">
<path d="M0 0 C1.47660837 -0.00302401 2.95321517 -0.00691474 4.42981923 -0.01159257 C8.47003896 -0.02184915 12.51016973 -0.01969673 16.55039668 -0.01541197 C20.91450752 -0.0129405 25.27859717 -0.02196413 29.6427002 -0.02944946 C38.18569153 -0.04218669 46.72865142 -0.04399138 55.27165066 -0.0416492 C62.21690239 -0.03986482 69.16214458 -0.04161825 76.10739517 -0.04587364 C77.59117112 -0.04676643 77.59117112 -0.04676643 79.10492233 -0.04767724 C81.11457148 -0.04888902 83.12422063 -0.05010315 85.13386978 -0.05131962 C103.97247593 -0.06219136 122.81106417 -0.06003438 141.64967133 -0.05393478 C158.87498352 -0.04876572 176.10023916 -0.06002141 193.32554017 -0.07903299 C211.02300777 -0.09841561 228.72044862 -0.10666666 246.41792691 -0.10290974 C256.34949742 -0.10099837 266.28101979 -0.10347906 276.21258163 -0.11762428 C284.66726471 -0.12954442 293.12187001 -0.13093584 301.57655416 -0.11883412 C305.88779729 -0.11294995 310.19889822 -0.11183321 314.51013184 -0.12383652 C318.461709 -0.13471038 322.41302549 -0.13157423 326.36459054 -0.11757483 C327.78913757 -0.11493204 329.21370513 -0.11728127 330.63823198 -0.1253107 C346.08070642 -0.20626692 360.98353478 3.28351552 372.52957153 14.22944641 C381.46230871 23.92678114 388.48268771 35.67573928 388.55456543 49.13017273 C388.56316589 50.33022446 388.57176636 51.53027618 388.58062744 52.76669312 C388.58701736 54.73671547 388.58701736 54.73671547 388.59353638 56.74653625 C388.60144158 58.14624228 388.60971079 59.5459463 388.61831665 60.94564819 C388.64448074 65.53762378 388.65983515 70.12960825 388.67410278 74.72163391 C388.67946411 76.3039564 388.68484162 77.88627884 388.69023514 79.46860123 C388.71185248 86.05006051 388.73058976 92.63151739 388.74185753 99.21300316 C388.7581036 108.63926912 388.79131007 118.0651234 388.84825838 127.49123418 C388.88695857 134.12320091 388.90649008 140.75505751 388.91177809 147.38713419 C388.91543047 151.34679685 388.9274396 155.30601986 388.95988083 159.26556015 C388.98996469 162.99051594 388.99627274 166.71476606 388.98449707 170.43981743 C388.98417133 172.45449302 389.0086329 174.46912509 389.03387451 176.48364258 C388.9657617 186.35600054 388.9657617 186.35600054 385.99090576 190.06285095 C382.86505875 192.71516401 381.3464487 193.23080892 377.39285278 193.42475891 C374.08705911 193.15251708 372.0770463 192.1901804 369.40066528 190.26069641 C357.01967627 165.49871839 366.40066528 134.94542947 366.40066528 107.26069641 C233.08066528 107.26069641 99.76066528 107.26069641 -37.59933472 107.26069641 C-37.51683472 159.21507141 -37.43433472 211.16944641 -37.34933472 264.69819641 C-37.3335437 281.11368225 -37.31775269 297.52916809 -37.30148315 314.4420929 C-37.26827061 329.13406281 -37.26827061 329.13406281 -37.22976685 343.82601929 C-37.21273538 350.37898384 -37.2065758 356.93184855 -37.20779419 363.48483276 C-37.20916198 371.04276363 -37.19673631 378.60052194 -37.16729583 386.15839792 C-37.15266973 390.02438579 -37.14422157 393.89010512 -37.15351057 397.75611579 C-37.16332275 401.89827892 -37.14229884 406.03971854 -37.11831665 410.18182373 C-37.12995787 411.98629014 -37.12995787 411.98629014 -37.14183426 413.82721043 C-37.06977319 420.87104481 -36.09661642 426.11885184 -32.59933472 432.26069641 C-32.23157354 432.91519679 -31.86381237 433.56969717 -31.48490691 434.24403089 C-27.70988418 440.60999227 -21.18269853 444.10441342 -14.30640984 446.32326031 C-8.12164687 447.81003765 -1.81518105 447.54028294 4.50683594 447.52139282 C5.942046 447.52441615 7.37725445 447.52830654 8.81246006 447.53298539 C12.74285475 447.54325074 16.67315808 447.54108731 20.60356021 447.5368048 C24.84769593 447.53433492 29.09180981 447.54335499 33.3359375 447.55084229 C41.6454486 447.563584 49.95492738 447.56538364 58.2644466 447.56304202 C65.01951352 447.56125812 71.77457064 447.56301005 78.52963638 447.56726646 C79.49149095 447.56786165 80.45334551 447.56845684 81.44434718 447.56907007 C83.3984336 447.57028183 85.35252001 447.57149597 87.30660643 447.57271244 C105.62727221 447.58358594 123.94791959 447.58142638 142.26858641 447.5753276 C159.02258195 447.57015855 175.77651934 447.58141391 192.53050338 447.60042582 C209.7408993 447.61980567 226.95126771 447.62805996 244.16167462 447.62430257 C253.82103776 447.62239075 263.48035142 447.62487616 273.13970566 447.63901711 C281.3627782 447.65093373 289.58577079 447.65233262 297.80884443 447.64022694 C302.00249268 447.63434026 306.19599469 447.63323297 310.38963318 447.64522934 C314.23264241 447.65609474 318.07538344 447.65297709 321.91838016 447.63896766 C323.95856051 447.63507462 325.99875281 447.64586243 328.03890502 447.65726453 C339.15897975 447.59196353 348.85702497 445.79151512 357.40066528 438.26069641 C363.373002 431.23968387 365.64023718 424.17763979 365.67190552 414.95185852 C365.67974564 413.91139626 365.67974564 413.91139626 365.68774414 412.84991455 C365.69791877 411.35658951 365.70375303 409.86322966 365.70562553 408.36987114 C365.70931434 406.00254916 365.72610695 403.63563676 365.74638367 401.2684021 C365.80156912 394.54252238 365.83249929 387.81658478 365.85696411 381.0905304 C365.87286864 376.96503547 365.90310973 372.83983617 365.94172859 368.71449471 C365.95334452 367.14810391 365.95930864 365.58166023 365.95940971 364.01522636 C365.95960253 361.82321761 365.97792107 359.63202173 366.00003052 357.44013977 C366.00510117 356.19550461 366.01017181 354.95086945 366.01539612 353.66851807 C366.44235699 349.89192073 367.41756029 347.48640304 369.40066528 344.26069641 C373.44817586 341.34272367 376.58291771 340.96848341 381.37332153 341.35054016 C384.60639923 342.80199893 386.59417479 345.29377954 388.40066528 348.26069641 C388.88242464 351.05216009 389.07827307 353.22603375 389.0317688 356.00337219 C389.04250175 357.13157127 389.04250175 357.13157127 389.05345154 358.28256226 C389.07029363 360.7576717 389.05095302 363.23095684 389.02957153 365.70600891 C389.03040117 367.43988697 389.03286415 369.17376494 389.03688049 370.90763855 C389.03973611 374.54086504 389.02507011 378.17347436 388.99758911 381.80659485 C388.96365936 386.43309399 388.96947561 391.05847901 388.98825169 395.68502998 C388.99889671 399.26791936 388.98981383 402.85055609 388.97486687 406.43342209 C388.96972905 408.13722352 388.97011261 409.84105186 388.97641182 411.5448494 C389.01472138 428.14489736 385.4890756 442.04580928 374.01004028 454.67866516 C361.14780135 467.32237091 346.23264201 470.57212659 328.80133057 470.52139282 C327.3247222 470.52441683 325.8481154 470.52830756 324.37151134 470.53298539 C320.3312916 470.54324197 316.29116084 470.54108956 312.25093389 470.5368048 C307.88682305 470.53433332 303.5227334 470.54335696 299.15863037 470.55084229 C290.61563903 470.56357951 282.07267914 470.5653842 273.52967991 470.56304202 C266.58442818 470.56125764 259.63918598 470.56301108 252.69393539 470.56726646 C251.21015945 470.56815925 251.21015945 470.56815925 249.69640823 470.56907007 C247.68675908 470.57028184 245.67710993 470.57149598 243.66746078 470.57271244 C224.82885463 470.58358418 205.99026639 470.5814272 187.15165924 470.5753276 C169.92634704 470.57015855 152.7010914 470.58141423 135.4757904 470.60042582 C117.7783228 470.61980843 100.08088194 470.62805949 82.38340366 470.62430257 C72.45183315 470.6223912 62.52031077 470.62487188 52.58874893 470.63901711 C44.13406586 470.65093724 35.67946056 470.65232866 27.2247764 470.64022694 C22.91353327 470.63434277 18.60243235 470.63322603 14.29119873 470.64522934 C10.33962156 470.6561032 6.38830508 470.65296705 2.43674003 470.63896766 C1.012193 470.63632486 -0.41237456 470.63867409 -1.83690141 470.64670352 C-17.27937585 470.72765974 -32.18220422 467.2378773 -43.72824097 456.29194641 C-52.89240304 446.34337798 -59.71232917 434.55367884 -59.73355579 420.80495453 C-59.73590802 420.15559881 -59.73826025 419.5062431 -59.74068376 418.83720994 C-59.7473628 416.65222415 -59.74691587 414.46729799 -59.74650574 412.28230286 C-59.74980506 410.70347869 -59.75353077 409.12465536 -59.75764722 407.54583311 C-59.7676678 403.19983225 -59.77138411 398.85384521 -59.77403653 394.50783443 C-59.77793946 389.82323558 -59.78751787 385.13864766 -59.79624939 380.45405579 C-59.81601512 369.13632449 -59.82608059 357.8185923 -59.83497718 346.50084805 C-59.8393603 341.17075114 -59.84472708 335.84065521 -59.84996605 330.51055908 C-59.86697918 312.79096432 -59.88147292 295.07137017 -59.88871479 277.35176849 C-59.89062468 272.75305175 -59.89254501 268.15433501 -59.89450073 263.55561829 C-59.89498447 262.41263195 -59.89546821 261.2696456 -59.89596661 260.09202331 C-59.90426526 241.58022167 -59.92959902 223.06848468 -59.96208141 204.55671126 C-59.99516072 185.5497168 -60.01316438 166.54275519 -60.01635903 147.53573179 C-60.01852342 136.86459056 -60.02726165 126.19354359 -60.05282021 115.52243042 C-60.07453916 106.43340901 -60.08257175 97.34450474 -60.07285342 88.25546032 C-60.06831208 83.62004436 -60.07018531 78.98487004 -60.08961487 74.3494873 C-60.10727134 70.10031032 -60.10622879 65.85155082 -60.09071758 61.60236925 C-60.08834525 60.07065182 -60.09264548 58.53890529 -60.10454623 57.00723225 C-60.22010009 41.14379583 -56.02069456 27.74148418 -45.20870972 15.84272766 C-32.34647079 3.19902192 -17.43131144 -0.05073377 0 0 Z M-30.64620972 33.66304016 C-42.49417531 49.94175322 -37.59933472 61.61271741 -37.59933472 85.26069641 C95.72066528 85.26069641 229.04066528 85.26069641 366.40066528 85.26069641 C368.80662105 56.4024423 368.80662105 56.4024423 358.48660278 32.33882141 C349.87846905 23.76292788 339.9904486 22.04431234 328.30639184 21.9885475 C326.96909225 21.99217984 325.63179318 21.99600417 324.29449463 22 C322.85928457 21.99697667 321.42407612 21.99308628 319.9888705 21.98840743 C316.05847581 21.97814208 312.12817249 21.98030551 308.19777036 21.98458803 C303.95363463 21.98705791 299.70952076 21.97803784 295.46539307 21.97055054 C287.15588197 21.95780882 278.84640319 21.95600919 270.53688397 21.9583508 C263.78181705 21.9601347 257.02675993 21.95838277 250.27169418 21.95412636 C249.30983962 21.95353117 248.34798506 21.95293598 247.35698339 21.95232276 C245.40289697 21.95111099 243.44881055 21.94989685 241.49472414 21.94868038 C223.17405835 21.93780688 204.85341098 21.93996644 186.53274415 21.94606522 C169.77874862 21.95123427 153.02481122 21.93997891 136.27082719 21.92096701 C119.06043127 21.90158716 101.85006285 21.89333286 84.63965595 21.89709026 C74.9802928 21.89900207 65.32097915 21.89651666 55.66162491 21.88237572 C47.43855237 21.8704591 39.21555978 21.86906021 30.99248613 21.88116588 C26.79883789 21.88705256 22.60533587 21.88815985 18.41169739 21.87616348 C14.56868816 21.86529808 10.72594713 21.86841573 6.88295041 21.88242517 C4.84277005 21.8863182 2.80257775 21.87553039 0.76242554 21.86412829 C-11.29962858 21.93496093 -22.48527733 24.08484661 -30.64620972 33.66304016 Z " fill="#000000" transform="translate(59.599334716796875,20.739303588867188)"/>
<path d="M0 0 C3.28674702 3.20051395 5.27626582 5.32914297 5.56762695 9.98583984 C5.56639232 11.47777301 5.53936695 12.9698787 5.48828125 14.4609375 C5.48324585 15.16259033 5.47821045 15.86424316 5.47302246 16.5871582 C5.44705597 19.18352701 5.37724903 21.7793088 5.3125 24.375 C5.209375 30.19125 5.10625 36.0075 5 42 C18.86 42 32.72 42 47 42 C46.8815968 31.08058343 46.8815968 31.08058343 46.72973633 20.16162109 C46.72096602 18.78223368 46.71332337 17.40283844 46.70703125 16.0234375 C46.69168335 15.32001221 46.67633545 14.61658691 46.66052246 13.8918457 C46.65804447 9.17870246 47.48767799 5.98952422 50 2 C54.04751057 -0.91797274 57.18225242 -1.292213 61.97265625 -0.91015625 C65.23915005 0.55630436 67.238857 2.96428068 69 6 C69.70764387 9.0791564 69.68456257 12.06548208 69.64697266 15.21484375 C69.65573425 16.12291779 69.66449585 17.03099182 69.67352295 17.96658325 C69.69546419 20.95738013 69.68098279 23.94668905 69.6640625 26.9375 C69.66743214 29.02205691 69.672286 31.10661191 69.67855835 33.19116211 C69.68592255 37.55569197 69.67523845 41.91970948 69.65185547 46.28417969 C69.62336834 51.87315147 69.63977468 57.46092271 69.66971779 63.04985046 C69.68780278 67.35307834 69.68202714 71.65602252 69.66907883 75.95925903 C69.66574816 78.01970564 69.66981994 80.08017816 69.68147659 82.14059448 C69.69420482 85.02280705 69.67478044 87.90308728 69.64697266 90.78515625 C69.66215439 92.05711349 69.66215439 92.05711349 69.67764282 93.35476685 C69.60298711 97.54055249 69.25959309 100.20164992 66.58627319 103.51904297 C63.48273242 106.49620382 62.10677209 106.96221495 57.9921875 107.1640625 C54.68639382 106.89182067 52.67638101 105.92948399 50 104 C47.06427773 99.33812343 46.5896072 95.35834381 46.70703125 89.9765625 C46.71005249 89.31422607 46.71307373 88.65188965 46.71618652 87.96948242 C46.73175324 85.52116061 46.7736364 83.07306284 46.8125 80.625 C46.874375 75.13875 46.93625 69.6525 47 64 C33.14 64 19.28 64 5 64 C5.19739266 75.57798633 5.19739266 75.57798633 5.45043945 87.15478516 C5.4650551 88.61619229 5.47779323 90.07761992 5.48828125 91.5390625 C5.51386108 92.28567139 5.53944092 93.03228027 5.5657959 93.80151367 C5.56914283 97.84594607 5.17914025 100.27436148 2.59619141 103.47192383 C-0.51103141 106.49762368 -1.86379888 106.96077127 -6.0078125 107.1640625 C-9.31360618 106.89182067 -11.32361899 105.92948399 -14 104 C-17.20355471 98.99479148 -17.43119869 94.89389567 -17.38818359 89.15234375 C-17.39344055 88.283284 -17.39869751 87.41422424 -17.40411377 86.51882935 C-17.41727196 83.65820112 -17.4085905 80.79813348 -17.3984375 77.9375 C-17.40045944 75.94262587 -17.40337187 73.94775246 -17.40713501 71.95288086 C-17.4115527 67.77678372 -17.40514511 63.60087938 -17.39111328 59.42480469 C-17.37402182 54.07822827 -17.38386596 48.73210368 -17.40183067 43.38554382 C-17.41268345 39.26766571 -17.40921529 35.1498943 -17.4014473 31.03201294 C-17.39944943 29.06088202 -17.40189003 27.08974134 -17.40888596 25.11862183 C-17.41652495 22.36137313 -17.40486191 19.60485099 -17.38818359 16.84765625 C-17.39425629 16.03708771 -17.40032898 15.22651917 -17.40658569 14.39138794 C-17.35236488 9.54036791 -16.68786021 6.19949151 -14 2 C-9.69468976 -1.10382832 -4.94817433 -2.22143472 0 0 Z " fill="#000000" transform="translate(59,235)"/>
<path d="M0 0 C1.1859375 -0.020625 2.371875 -0.04125 3.59375 -0.0625 C14.86779566 -0.11227504 24.1310757 1.82938991 32.875 9.25 C40.10378129 16.87336543 42.44609664 24.77110386 42.43530273 35.10327148 C42.09053914 43.73241284 38.38678819 50.73358526 32.75 57.1875 C25.44138215 63.66992627 17.47220971 65.59652416 7.9609375 65.37890625 C7.18000732 65.36960083 6.39907715 65.36029541 5.59448242 65.35070801 C3.68784469 65.32663798 1.78137727 65.289655 -0.125 65.25 C-0.10928955 66.24854004 -0.0935791 67.24708008 -0.07739258 68.27587891 C-0.02287381 71.99942887 0.01142934 75.7229439 0.03979492 79.44677734 C0.05483176 81.05491072 0.07526672 82.66300344 0.10131836 84.27099609 C0.13792822 86.58962064 0.15477722 88.90770049 0.16796875 91.2265625 C0.18345261 91.93930328 0.19893646 92.65204407 0.21488953 93.38638306 C0.21645604 98.08919316 -0.61892403 101.27039439 -3.125 105.25 C-7.17251057 108.16797274 -10.30725242 108.542213 -15.09765625 108.16015625 C-18.36415005 106.69369564 -20.363857 104.28571932 -22.125 101.25 C-22.83264387 98.1708436 -22.80956257 95.18451792 -22.77197266 92.03515625 C-22.78073425 91.12708221 -22.78949585 90.21900818 -22.79852295 89.28341675 C-22.82046419 86.29261987 -22.80598279 83.30331095 -22.7890625 80.3125 C-22.79243214 78.22794309 -22.797286 76.14338809 -22.80355835 74.05883789 C-22.81092255 69.69430803 -22.80023845 65.33029052 -22.77685547 60.96582031 C-22.74836834 55.37684853 -22.76477468 49.78907729 -22.79471779 44.20014954 C-22.81280278 39.89692166 -22.80702714 35.59397748 -22.79407883 31.29074097 C-22.79074816 29.23029436 -22.79481994 27.16982184 -22.80647659 25.10940552 C-22.81920482 22.22719295 -22.79978044 19.34691272 -22.77197266 16.46484375 C-22.78209381 15.61687225 -22.79221497 14.76890076 -22.80264282 13.89523315 C-22.72791583 9.70545065 -22.38335126 7.04725465 -19.70587158 3.72796631 C-14.33314127 -1.43054091 -7.08501577 0.03021329 0 0 Z M-0.125 22.25 C-0.125 29.18 -0.125 36.11 -0.125 43.25 C2.4428125 43.311875 2.4428125 43.311875 5.0625 43.375 C6.50689453 43.40980469 6.50689453 43.40980469 7.98046875 43.4453125 C12.37856278 43.14854502 15.03156748 42.07063705 18.1875 39 C20.21773858 35.69146305 20.43208476 34.0700098 19.875 30.25 C18.43584322 26.60977992 17.20000523 25.44235003 13.8125 23.4375 C8.96476682 21.76876367 8.96476682 21.76876367 -0.125 22.25 Z " fill="#000000" transform="translate(342.125,233.75)"/>
<path d="M0 0 C1.02049438 -0.00287018 2.04098877 -0.00574036 3.09240723 -0.00869751 C5.24406491 -0.01073358 7.39574129 -0.00523577 9.54736328 0.00732422 C12.83277952 0.02338387 16.11696558 0.00745948 19.40234375 -0.01171875 C21.49739854 -0.00973624 23.59245256 -0.0058924 25.6875 0 C26.66577759 -0.00607269 27.64405518 -0.01214539 28.65197754 -0.0184021 C33.96030042 0.03609253 37.77324927 0.38573094 42.34375 3.3984375 C44.78715191 6.33051979 45.31034534 8.08666071 45.71875 11.8984375 C45.31916536 15.62789415 44.61605196 17.45286088 42.34375 20.3984375 C38.66287647 22.85235319 35.90019412 22.62646509 31.65625 22.5234375 C30.95435547 22.51441406 30.25246094 22.50539063 29.52929688 22.49609375 C27.80063475 22.47257454 26.07214855 22.43670463 24.34375 22.3984375 C24.35041183 23.3497757 24.35707367 24.30111389 24.36393738 25.28128052 C24.42480961 34.25622257 24.46975196 43.23112262 24.49918652 52.20622444 C24.51482796 56.82018782 24.53603842 61.43398425 24.57006836 66.04785156 C24.60271611 70.50230419 24.62061446 74.95659645 24.62838173 79.41115952 C24.63391552 81.10878905 24.64472173 82.80641002 24.66094017 84.5039711 C24.68278674 86.8858141 24.68571395 89.26699836 24.68432617 91.64892578 C24.695112 92.34736099 24.70589783 93.0457962 24.7170105 93.76539612 C24.68808476 98.36755534 23.7793758 101.49839386 21.34375 105.3984375 C17.29623943 108.31641024 14.16149758 108.6906505 9.37109375 108.30859375 C6.1334275 106.85507499 4.13954721 104.37800383 2.34375 101.3984375 C1.88220053 98.54237101 1.70497905 96.30349927 1.77612305 93.46533203 C1.77539291 92.6939238 1.77466278 91.92251556 1.77391052 91.12773132 C1.77737556 88.59483885 1.81618189 86.06381849 1.85546875 83.53125 C1.86480082 81.76863611 1.87191507 80.00600921 1.87690735 78.24337769 C1.89594633 73.61690101 1.94501989 68.99121627 2.00042725 64.36505127 C2.05168698 59.63930981 2.07443571 54.91343967 2.09960938 50.1875 C2.15314204 40.9241323 2.23841688 31.6613509 2.34375 22.3984375 C1.30589355 22.42164063 0.26803711 22.44484375 -0.80126953 22.46875 C-2.17219331 22.48751371 -3.54312489 22.50571327 -4.9140625 22.5234375 C-5.93850464 22.54857422 -5.93850464 22.54857422 -6.98364258 22.57421875 C-13.52000446 22.63764009 -13.52000446 22.63764009 -16.53125 20.3984375 C-19.17350707 16.66819222 -20.0307555 13.9460043 -19.65625 9.3984375 C-18.45057479 5.63956771 -17.48499625 3.95307774 -14.20117188 1.75537109 C-9.39259838 -0.08526606 -5.10614977 -0.03169661 0 0 Z " fill="#000000" transform="translate(253.65625,233.6015625)"/>
<path d="M0 0 C1.02190933 -0.00428513 2.04381866 -0.00857025 3.09669495 -0.01298523 C5.2543158 -0.01871901 7.41195598 -0.01923582 9.56958008 -0.01489258 C12.86378064 -0.01173326 16.15708229 -0.03520205 19.45117188 -0.06054688 C21.55078012 -0.06282008 23.65039077 -0.06352327 25.75 -0.0625 C26.73141464 -0.07170975 27.71282928 -0.08091949 28.72398376 -0.09040833 C34.03408861 -0.05462716 37.88790676 0.24653291 42.44140625 3.30078125 C44.85400496 6.64728913 45.70329694 9.2987787 45.50390625 13.36328125 C44.83393665 16.81926305 43.65015034 19.30899125 40.72998047 21.48046875 C37.41205985 22.66973836 34.17327032 22.51102399 30.69921875 22.42578125 C30.00127197 22.41675781 29.3033252 22.40773438 28.58422852 22.3984375 C26.86980597 22.37497235 25.15556104 22.33910423 23.44140625 22.30078125 C23.45806084 23.76537277 23.45806084 23.76537277 23.47505188 25.259552 C23.57649583 34.46988546 23.65140412 43.68010528 23.70046711 52.89087105 C23.72653928 57.62605229 23.76189359 62.36078183 23.81860352 67.09570312 C23.8730086 71.66689353 23.9028447 76.23765002 23.91579247 80.80913925 C23.92501714 82.55146997 23.94303123 84.29377747 23.97005653 86.035923 C24.0064614 88.48035883 24.01134706 90.92301162 24.0090332 93.36767578 C24.02700958 94.08481247 24.04498596 94.80194916 24.06350708 95.54081726 C24.00580663 101.19026201 22.30485768 103.48230738 18.44140625 107.30078125 C14.55556381 109.0452924 11.10021893 108.51209852 7.12890625 107.23828125 C3.82114557 104.85361657 2.9595521 103.07366238 1.44140625 99.30078125 C1.1773288 96.63284285 1.05976139 94.21066833 1.10083008 91.55126953 C1.10017296 90.42341789 1.10017296 90.42341789 1.09950256 89.27278137 C1.1015806 86.80528136 1.12486423 84.338474 1.1484375 81.87109375 C1.15403698 80.15331392 1.15830541 78.43552927 1.16130066 76.71774292 C1.17272178 72.20986564 1.20216524 67.70228113 1.2354126 63.19451904 C1.26617257 58.58935506 1.27981864 53.98414349 1.29492188 49.37890625 C1.32703772 40.35273638 1.37820083 31.32678322 1.44140625 22.30078125 C0.41660156 22.35878906 -0.60820312 22.41679687 -1.6640625 22.4765625 C-3.02469386 22.52348082 -4.38537471 22.56897877 -5.74609375 22.61328125 C-6.75639648 22.67612305 -6.75639648 22.67612305 -7.78710938 22.74023438 C-11.77695693 22.83754773 -13.35754395 22.46532534 -16.484375 19.90625 C-19.72329761 15.83777282 -19.9938711 13.52410949 -19.55859375 8.30078125 C-17.93248339 5.10878685 -16.70524357 2.96473508 -13.57397461 1.15161133 C-9.06206058 -0.12148562 -4.66668697 -0.00432488 0 0 Z " fill="#000000" transform="translate(168.55859375,233.69921875)"/>
<path d="M0 0 C2.70567626 1.82339052 4.53728718 3.07457436 6 6 C6.8125171 15.83272177 4.14381795 24.78922628 1.73046875 34.23046875 C1.28839026 35.99281112 0.84718708 37.75537327 0.40681458 39.5181427 C-0.51488694 43.19716205 -1.44440796 46.87408192 -2.38012695 50.54956055 C-3.57577285 55.24706835 -4.75583187 59.94831485 -5.93057728 64.65108776 C-6.83951991 68.28549525 -7.7545989 71.91833453 -8.67172813 75.55068398 C-9.10886456 77.28338899 -9.54460593 79.01644661 -9.97889137 80.74986839 C-10.58786951 83.17487149 -11.20457508 85.59777934 -11.82348633 88.02026367 C-11.99971527 88.72744537 -12.17594421 89.43462708 -12.35751343 90.16323853 C-15.13432681 100.92702979 -15.13432681 100.92702979 -18.6875 104.875 C-22.05787736 106.51464304 -25.27903738 107.24329371 -29 107 C-32.1604644 105.4197678 -34.19631373 104.02287343 -36.375 101.25 C-38.13081323 94.92907237 -36.70984153 88.66438753 -35.13574219 82.47607422 C-34.93734238 81.66524384 -34.73894257 80.85441345 -34.53453064 80.01901245 C-33.88149657 77.3617797 -33.21480162 74.70821275 -32.546875 72.0546875 C-32.08515139 70.19731391 -31.62391646 68.33981877 -31.16314697 66.48220825 C-30.19753954 62.59901235 -29.22494288 58.71765013 -28.24755859 54.83740234 C-26.99797971 49.87349478 -25.7676408 44.90504907 -24.54270554 39.93501091 C-23.59533967 36.10156393 -22.63695132 32.27093747 -21.67533112 28.44104385 C-21.21725503 26.61037577 -20.76278007 24.77880257 -20.31203461 22.94631577 C-19.67992881 20.38293054 -19.03283517 17.82377929 -18.38183594 15.26513672 C-18.19985153 14.5138147 -18.01786713 13.76249268 -17.83036804 12.98840332 C-16.43980334 7.61930092 -14.60806366 2.62122876 -9.6875 -0.4375 C-6.09951584 -1.18847343 -3.55523301 -0.88880825 0 0 Z " fill="#000000" transform="translate(506,235)"/>
<path d="M0 0 C3.75606397 2.63723641 4.82555986 4.13859288 5.73931885 8.65084839 C6.20280126 13.22147462 5.38553041 17.11435792 4.23339844 21.52392578 C4.03353836 22.33475616 3.83367828 23.14558655 3.62776184 23.98098755 C2.96867918 26.63940453 2.28951874 29.29221292 1.609375 31.9453125 C1.14327616 33.80254707 0.678225 35.66004485 0.21417236 37.51779175 C-0.75913453 41.40165777 -1.74184612 45.28297618 -2.73193359 49.16259766 C-3.99840239 54.12647124 -5.24620382 59.0947964 -6.48761368 64.06498909 C-7.44621608 67.89776442 -8.41217622 71.72865362 -9.3806076 75.55895615 C-9.84315427 77.39010213 -10.30401382 79.22167517 -10.76313019 81.05368423 C-11.40695855 83.61593535 -12.06004613 86.17564719 -12.71582031 88.73486328 C-12.90297104 89.4861853 -13.09012177 90.23750732 -13.28294373 91.01159668 C-14.69129113 96.44725662 -16.30241645 102.50573835 -21 106 C-25.12422527 107.22027639 -28.83618118 107.43010696 -32.875 105.9375 C-35.65115015 103.40630427 -36.80461313 101.58616061 -38 98 C-37.87722731 92.13493652 -36.5308959 86.39219257 -35.09814453 80.72973633 C-34.90774597 79.9577742 -34.71734741 79.18581207 -34.5211792 78.39045715 C-33.89764263 75.86946918 -33.26560679 73.35071002 -32.6328125 70.83203125 C-32.19271506 69.06572527 -31.75293145 67.29934106 -31.31344604 65.53288269 C-30.39433162 61.84458587 -29.4708863 58.15740738 -28.54443359 54.47094727 C-27.35988755 49.75569175 -26.18708886 45.03760507 -25.01761055 40.31859303 C-24.11325921 36.67557858 -23.20227185 33.03424834 -22.28933334 29.3933773 C-21.85423066 27.65444933 -21.42127408 25.91498287 -20.99054337 24.17496681 C-20.38736995 21.74224151 -19.77517174 19.31195846 -19.16064453 16.88208008 C-18.98598663 16.16973206 -18.81132874 15.45738403 -18.63137817 14.72344971 C-17.23719882 9.27291964 -15.56254426 3.61201421 -11 0 C-7.13272975 -1.28909008 -3.87282106 -1.07955831 0 0 Z " fill="#000000" transform="translate(464,235)"/>
<path d="M0 0 C2.58297781 2.18991597 4.48415844 3.96831688 6 7 C6.37712577 11.99691647 6.09290612 14.99067725 3 19 C-1.2258785 21.81725233 -5.03624688 21.79958384 -10 21 C-12.82424288 18.80977082 -14.41508603 17.16982793 -16 14 C-16.40335728 9.80508432 -16.24198067 7.4749991 -14.3125 3.6875 C-10.02671103 -1.29328178 -6.27824274 -1.68167216 0 0 Z " fill="#000000" transform="translate(421,299)"/>
<path d="M0 0 C2.82424288 2.19022918 4.41508603 3.83017207 6 7 C6.40335728 11.19491568 6.24198067 13.5250009 4.3125 17.3125 C1.8331358 20.19392326 0.68950764 21.22777747 -3 22 C-7.48980038 21.91982499 -9.41944237 21.49221191 -12.875 18.5625 C-16.20881499 14.54231133 -16.3542605 12.22534241 -16 7 C-12.60834796 -0.26782581 -7.45538401 -1.20094703 0 0 Z " fill="#000000" transform="translate(421,256)"/>
<path d="M0 0 C2.82424288 2.19022918 4.41508603 3.83017207 6 7 C6.40335728 11.19491568 6.24198067 13.5250009 4.3125 17.3125 C1.8331358 20.19392326 0.68950764 21.22777747 -3 22 C-7.48980038 21.91982499 -9.41944237 21.49221191 -12.875 18.5625 C-16.20881499 14.54231133 -16.3542605 12.22534241 -16 7 C-12.60834796 -0.26782581 -7.45538401 -1.20094703 0 0 Z " fill="#000000" transform="translate(101,64)"/>
<path d="M0 0 C2.94214318 1.30086496 3.83163498 2.39796197 6 5 C7.4949461 9.11321329 7.26538023 12.17263812 5.9375 16.3125 C3.52954361 19.65256854 1.92303116 20.74166925 -2 22 C-6.75720954 22.3917702 -9.30678137 21.57768219 -13 18.5 C-15.36115495 15.17837524 -15.65656233 12.12777148 -15.43359375 8.12109375 C-14.78656435 4.95589587 -13.31896482 3.18255512 -11 1 C-7.50018464 -0.74990768 -3.81877994 -0.551032 0 0 Z " fill="#000000" transform="translate(143,64)"/>
<path d="M0 0 C2.87029869 1.79393668 4.49131638 2.98263276 6 6 C6.63758037 10.55414548 6.77602706 14.66200286 4 18.5 C0.30678137 21.57768219 -2.24279046 22.3917702 -7 22 C-10.92303116 20.74166925 -12.52954361 19.65256854 -14.9375 16.3125 C-16.26538023 12.17263812 -16.4949461 9.11321329 -15 5 C-10.73865347 -0.11361584 -6.55255828 -1.33947324 0 0 Z " fill="#000000" transform="translate(58,64)"/>
</svg>
