<?xml version="1.0" encoding="UTF-8"?>
<svg version="1.1" xmlns="http://www.w3.org/2000/svg" width="512" height="512">
<path d="M0 0 C4.75833345 3.8513093 9.00266862 8.29729564 13.3046875 12.640625 C14.55803956 13.89060174 15.81213243 15.13983607 17.06692505 16.3883667 C19.68204639 18.99615333 22.28800476 21.61267278 24.88769531 24.23583984 C28.20605794 27.58271686 31.54641025 30.90659847 34.89396477 34.22424698 C37.48369134 36.79583407 40.06130323 39.3793006 42.63550186 41.96642303 C43.86213346 43.1963687 45.09243107 44.42267035 46.32656479 45.6450882 C53.65281622 52.91696865 59.9917767 59.22056746 61.56640625 69.80859375 C61.55439077 80.97097925 59.34629541 87.64659934 51.8125 95.875 C44.57258288 102.61396733 37.15774966 104.85583921 27.30859375 104.5078125 C17.51347264 103.00442909 10.32155171 97.32556287 4 90 C-1.22948744 94.37029366 -6.10289955 98.96911804 -10.90234375 103.8046875 C-11.6249086 104.5286673 -12.34747345 105.25264709 -13.0919342 105.99856567 C-15.37616922 108.28835265 -17.65688312 110.58160993 -19.9375 112.875 C-21.49521039 114.43773161 -23.05315087 116.0002339 -24.61132812 117.5625 C-28.41021602 121.3723531 -32.20622713 125.18505379 -36 129 C-34.53227434 132.40714028 -32.64628379 134.57260644 -29.99682617 137.15087891 C-29.17224411 137.95917145 -28.34766205 138.76746399 -27.49809265 139.60025024 C-26.60540176 140.46693329 -25.71271088 141.33361633 -24.79296875 142.2265625 C-23.39060125 143.60648061 -21.98824901 144.9864146 -20.58677387 146.367239 C-17.13852922 149.76221049 -13.68046687 153.14702957 -10.21166992 156.52099609 C-8.26561537 158.41471925 -6.32664573 160.31521536 -4.39460754 162.22323608 C-2.57974165 164.0147992 -0.75491211 165.79634342 1.08125305 167.56607056 C7.19705921 173.63177167 12.74610307 180.24267149 13.6640625 189.125 C13.55916237 199.53109288 11.93297025 206.91586475 4.8125 214.8125 C-1.65020885 220.80751282 -9.89506929 224.37532459 -18.72265625 224.2109375 C-26.70274505 223.47178691 -32.42886182 220.70027052 -38 215 C-40.93221691 216.32347507 -43.00083721 217.75358937 -45.26535416 220.03043175 C-45.89191257 220.65547486 -46.51847098 221.28051797 -47.16401601 221.92450178 C-48.18307314 222.95639015 -48.18307314 222.95639015 -49.22271729 224.00912476 C-49.95144633 224.73896721 -50.68017538 225.46880967 -51.43098712 226.22076857 C-53.87835268 228.67421937 -56.3184924 231.13473443 -58.75878906 233.59521484 C-60.50946468 235.35300103 -62.26061037 237.11031916 -64.01219177 238.86720276 C-67.78703769 242.65516334 -71.55893514 246.44602428 -75.32846832 250.23926926 C-80.78527055 255.73003362 -86.24949842 261.21336162 -91.71595463 266.69451304 C-100.59352834 275.5959824 -109.46809291 284.50044403 -118.33935547 293.40820312 C-118.87031502 293.94134292 -119.40127458 294.47448272 -119.94832382 295.02377827 C-127.47924174 302.58590116 -135.00715913 310.15100398 -142.53386685 317.71731706 C-143.06361364 318.24985048 -143.59336043 318.78238389 -144.13916016 319.33105469 C-144.93280729 320.12888241 -144.93280729 320.12888241 -145.7424877 320.94282787 C-154.57206912 329.81851614 -163.40939325 338.68644841 -172.25307441 347.54808772 C-177.70529189 353.01199821 -183.15091019 358.48232506 -188.58816615 363.96112503 C-192.75805111 368.1617262 -196.93831262 372.35189387 -201.12245369 376.53829765 C-202.83517129 378.25530782 -204.54444727 379.975759 -206.24999046 381.69989586 C-208.58060594 384.05492895 -210.92329897 386.39726383 -213.26934814 388.73690796 C-214.27502095 389.76210417 -214.27502095 389.76210417 -215.30101037 390.80801141 C-221.71422244 397.1534578 -228.52234642 401.07289558 -237.6875 401.25 C-247.29728993 401.06709038 -252.65725178 397.99747838 -259.54296875 391.3515625 C-261.37590278 389.59730767 -263.20277287 387.96566387 -265.15356445 386.35302734 C-266.56255005 385.18827881 -266.56255005 385.18827881 -268 384 C-269.30878616 385.31211708 -269.30878616 385.31211708 -270.64401245 386.65074158 C-278.85239305 394.87936175 -287.06338848 403.10536457 -295.27697563 411.3287878 C-299.49994241 415.55698132 -303.72197059 419.7861034 -307.94189453 424.01733398 C-312.01158671 428.09786241 -316.08369082 432.17596924 -320.15750504 436.25238228 C-321.71416157 437.81089173 -323.26993526 439.37028348 -324.82482529 440.93055534 C-326.99663455 443.10958477 -329.17151356 445.28550408 -331.34716797 447.46069336 C-331.99452911 448.11164978 -332.64189026 448.7626062 -333.30886841 449.43328857 C-333.90060852 450.02365402 -334.49234863 450.61401947 -335.10202026 451.22227478 C-335.87356099 451.9951982 -335.87356099 451.9951982 -336.6606884 452.78373623 C-338.60714216 454.55136162 -340.02837574 455.0054049 -342.625 455.5 C-347.84547728 454.72659596 -350.33967055 451.64270347 -354 448 C-354.80606689 447.20432617 -354.80606689 447.20432617 -355.62841797 446.39257812 C-359.4464158 442.62187176 -363.23153156 438.82016999 -367 435 C-371.8357682 439.01701223 -376.34411569 443.2352951 -380.72631836 447.73974609 C-382.0343486 449.07407389 -383.34245228 450.4083297 -384.65061951 451.74252319 C-385.33302641 452.44040325 -386.01543331 453.13828331 -386.71851921 453.85731125 C-390.36295345 457.57871481 -394.02567472 461.28207047 -397.68554688 464.98828125 C-402.32906887 469.69186562 -406.96673632 474.4007609 -411.58276367 479.13134766 C-415.32763811 482.96819304 -419.09173474 486.78520313 -422.86953926 490.58961868 C-424.30204699 492.03939662 -425.72736018 493.49632067 -427.14518547 494.96046066 C-429.12670888 497.00477772 -431.13185045 499.02279314 -433.14428711 501.03662109 C-434.01037094 501.9482048 -434.01037094 501.9482048 -434.89395142 502.87820435 C-437.94856828 505.8803628 -439.92825558 507.36193261 -444.30348206 507.43521118 C-448 507 -448 507 -450 506 C-451.64643236 502.70713528 -451.71310553 499.53814825 -451 496 C-449.20547177 493.07634721 -446.85924551 490.84557987 -444.390625 488.48242188 C-443.33723938 487.42728394 -443.33723938 487.42728394 -442.26257324 486.35083008 C-439.94350986 484.03732709 -437.59743763 481.75342739 -435.25 479.46875 C-433.63400361 477.86767898 -432.019768 476.26482898 -430.40722656 474.66027832 C-426.16342392 470.44698438 -421.8961478 466.25826743 -417.62353516 462.07421875 C-413.26584063 457.79843882 -408.93077528 453.49985097 -404.59375 449.203125 C-396.08449491 440.77960424 -387.55026748 432.38187395 -379 424 C-379.9606224 422.87352991 -380.92205639 421.7477519 -381.88383484 420.62226868 C-382.6868026 419.68178161 -382.6868026 419.68178161 -383.50599194 418.72229481 C-385.0693553 416.9200471 -386.68815817 415.21028321 -388.39453125 413.54296875 C-389.23854492 412.71055664 -389.23854492 412.71055664 -390.09960938 411.86132812 C-390.66486328 411.30896484 -391.23011719 410.75660156 -391.8125 410.1875 C-398.72882121 403.42368863 -398.72882121 403.42368863 -399.5 399.375 C-398.06421597 389.68345778 -384.08919856 379.96539038 -377.31640625 373.21875 C-375.89129587 371.79550756 -374.46640824 370.37204206 -373.04173279 368.94836426 C-369.31382991 365.22425698 -365.58293244 361.50316416 -361.85137939 357.78271484 C-358.0351557 353.97676924 -354.22180483 350.16794755 -350.40820312 346.359375 C-342.94159322 338.90345019 -335.471813 331.45071037 -328 324 C-328.95270008 322.88128978 -329.90643206 321.76345828 -330.8605957 320.64599609 C-331.39159378 320.02340912 -331.92259186 319.40082214 -332.46968079 318.7593689 C-334.30729455 316.64671131 -336.24889862 314.64486012 -338.1875 312.625 C-343.75270395 306.33621312 -345.65494353 299.90629474 -345.34375 291.54296875 C-343.69567451 279.35095573 -334.82737487 271.67046175 -326.51454163 263.39428711 C-325.79393899 262.67283005 -325.07333635 261.95137299 -324.33089727 261.20805359 C-321.93658565 258.81210623 -319.53873857 256.41973003 -317.14086914 254.02734375 C-315.41550572 252.30226264 -313.69036294 250.57696083 -311.96542358 248.85145569 C-308.26196821 245.14777323 -304.55699305 241.44561851 -300.8506031 237.74487305 C-295.49190439 232.39432978 -290.13599607 227.04100036 -284.78074687 221.6870048 C-276.09040752 212.99884964 -267.39784119 204.31292617 -258.70385742 195.62841797 C-250.26257607 187.19632716 -241.82235424 178.76317812 -233.38354492 170.32861328 C-232.60221718 169.54767962 -232.60221718 169.54767962 -231.80510504 168.75096953 C-229.19176977 166.13893938 -226.57845522 163.52688851 -223.96515095 160.91482735 C-202.31330978 139.27333904 -180.65781 117.63551506 -159 96 C-160.30190542 93.32600188 -161.64822738 91.07600707 -163.5 88.75 C-167.6658671 82.98660274 -168.96697969 76.04513772 -168 69 C-165.81054299 59.22826232 -160.6222377 52.34134529 -152.75390625 46.265625 C-145.84457356 42.11769509 -136.84635934 41.31044054 -129 43 C-120.41879472 46.10746455 -114.66210329 51.6721485 -108.3984375 58.11328125 C-107.42734532 59.09372293 -106.45512542 60.0730488 -105.48184204 61.05131531 C-102.94879678 63.60326244 -100.43114526 66.16986552 -97.91662598 68.74005127 C-95.33783205 71.37040474 -92.74445365 73.98629538 -90.15234375 76.60351562 C-85.08735097 81.7217984 -80.03856651 86.85568604 -75 92 C-71.77254476 90.58098338 -69.62741893 88.87144235 -67.14941406 86.37646484 C-66.40894836 85.63584808 -65.66848267 84.89523132 -64.90557861 84.13217163 C-64.11689392 83.33316437 -63.32820923 82.5341571 -62.515625 81.7109375 C-61.70003113 80.89251373 -60.88443726 80.07408997 -60.04412842 79.23086548 C-57.44135438 76.61690027 -54.84562238 73.99606495 -52.25 71.375 C-50.4861366 69.60110546 -48.7218191 67.82766234 -46.95703125 66.0546875 C-42.63273864 61.70834858 -38.3142067 57.35634919 -34 53 C-34.61787384 52.28512924 -34.61787384 52.28512924 -35.24822998 51.55581665 C-35.78860901 50.92847626 -36.32898804 50.30113586 -36.88574219 49.65478516 C-37.42140808 49.03382965 -37.95707397 48.41287415 -38.50897217 47.77310181 C-40.23246862 45.72355276 -41.77229617 43.60779424 -43.25 41.375 C-43.72953125 40.66085938 -44.2090625 39.94671875 -44.703125 39.2109375 C-48.94470751 31.97980587 -49.09064896 24.42208338 -47.453125 16.28125 C-44.58418993 7.72857565 -37.71074685 0.62329944 -29.8125 -3.625 C-19.41779757 -7.4769376 -9.10773128 -5.85013756 0 0 Z M-30.3125 16.625 C-32.80999481 20.1399927 -33.17903242 22.41201627 -33.42578125 26.734375 C-32.37620741 32.31926331 -27.71120257 36.54075653 -23.8359375 40.42285156 C-23.08392059 41.18012543 -23.08392059 41.18012543 -22.31671143 41.95269775 C-20.67443513 43.60370655 -19.02503557 45.24737367 -17.375 46.890625 C-16.22415435 48.04281932 -15.07360561 49.19531026 -13.92333984 50.3480835 C-11.51918654 52.75517621 -9.11147619 55.15863731 -6.70117188 57.55957031 C-3.61423437 60.63508831 -0.53639741 63.71953308 2.53884888 66.80673599 C4.90984258 69.18495833 7.28558109 71.55839468 9.66278076 73.93041229 C10.79973093 75.06603008 11.93520221 76.20313052 13.06915283 77.34174347 C14.65328897 78.93096409 16.24370436 80.51362389 17.8359375 82.09472656 C18.73876465 82.99596252 19.6415918 83.89719849 20.57177734 84.82574463 C24.59329952 88.42665666 27.48137979 89.46961766 32.9765625 89.31640625 C37.55978671 88.59972447 40.35862727 85.72804472 43.3125 82.375 C45.51538438 79.27464421 46.19106955 77.50795285 46.3125 73.75 C46.34988281 73.00234375 46.38726562 72.2546875 46.42578125 71.484375 C45.45223587 65.8038717 40.860675 61.60895668 36.92773438 57.66894531 C36.43614334 57.17384964 35.94455231 56.67875397 35.43806458 56.1686554 C33.82825196 54.55011265 32.21132117 52.93891102 30.59375 51.328125 C29.46532462 50.1983509 28.33719615 49.06828017 27.20935059 47.93792725 C24.85227529 45.57791287 22.49164455 43.22153 20.12841797 40.86767578 C17.10201378 37.8526916 14.08471262 34.82878161 11.06999969 31.80211258 C8.74532923 29.47021302 6.41591381 27.14310042 4.08503723 24.8174057 C2.97041583 23.70411653 1.85727286 22.58934509 0.74565125 21.47306061 C-0.80735245 19.9149716 -2.36663402 18.36344756 -3.92773438 16.81347656 C-5.25532776 15.48826996 -5.25532776 15.48826996 -6.60974121 14.1362915 C-10.89083553 10.31006756 -14.13122883 9.54510416 -19.75390625 9.68359375 C-24.50740325 10.35321681 -27.25366681 13.15281097 -30.3125 16.625 Z M-150 65 C-152.4264208 68.52933934 -153.01390502 70.22131869 -152.9375 74.5 C-151.27970259 80.68911034 -147.38187879 84.86873945 -142.93449402 89.33293152 C-142.43782189 89.83413476 -141.94114977 90.335338 -141.42942697 90.85172921 C-139.7769106 92.51682689 -138.11740952 94.17477438 -136.45776367 95.83276367 C-135.26617703 97.03033931 -134.07500005 98.22832269 -132.88420105 99.42668152 C-129.65753483 102.67097298 -126.42444674 105.90878963 -123.18959594 109.1449182 C-121.16755921 111.16837858 -119.14695413 113.19325723 -117.12685585 115.21865273 C-110.07587308 122.28812133 -103.01975935 129.35242128 -95.95874023 136.41186523 C-89.38193297 142.98747016 -82.81637105 149.57415658 -76.25596827 156.16612452 C-70.61710757 161.83114536 -64.97055358 167.48841935 -59.31795865 173.139736 C-55.9445463 176.51263883 -52.57430105 179.88856295 -49.21175194 183.27229881 C-46.04983585 186.45359367 -42.87843801 189.62512173 -39.69955635 192.78946114 C-38.53633916 193.95058901 -37.3765124 195.11512514 -36.22040558 196.28333282 C-34.63820627 197.881012 -33.04407976 199.46578425 -31.44645691 201.04801941 C-30.11442372 202.3816869 -30.11442372 202.3816869 -28.75548077 203.74229717 C-24.68359246 207.07859836 -20.9243412 208.93002396 -15.5625 209.125 C-9.60020475 207.24216992 -5.43267134 203.149007 -2 198 C-1.49505936 195.76710017 -1.49505936 195.76710017 -1.4375 193.3125 C-1.37433594 192.50425781 -1.31117188 191.69601563 -1.24609375 190.86328125 C-3.57013082 182.03675703 -14.4763651 174.38194736 -20.87036133 168.00024414 C-22.06045838 166.80878981 -23.25034308 165.61712335 -24.44003296 164.42526245 C-27.6501334 161.21062951 -30.86335682 157.99913572 -34.07731462 154.78835988 C-37.4451096 151.42310664 -40.81045285 148.05540299 -44.17619324 144.68809509 C-49.82066262 139.04181081 -55.46722779 133.39762889 -61.11499023 127.75463867 C-67.64885619 121.22622986 -74.17909058 114.69420506 -80.70748121 108.1603213 C-86.31765847 102.54561238 -91.92977409 96.93284651 -97.54352778 91.32171339 C-100.89465281 87.97214881 -104.24509499 84.62190871 -107.59379005 81.26991463 C-110.73602928 78.12479541 -113.88068805 74.98211595 -117.02726364 71.8413353 C-118.18350647 70.6864187 -119.33889181 69.53064292 -120.49337196 68.37396431 C-122.06427702 66.80034282 -123.6382035 65.22980834 -125.21296692 63.66004944 C-126.09432721 62.77906617 -126.9756875 61.8980829 -127.88375568 60.99040318 C-131.49726389 57.59176997 -134.49312156 57.48148875 -139.32421875 57.5234375 C-144.12740133 58.37889484 -146.93402291 61.37657253 -150 65 Z M-24.75906372 65.51855469 C-25.81829544 66.58444824 -25.81829544 66.58444824 -26.89892578 67.671875 C-27.6996048 68.47270508 -28.50028381 69.27353516 -29.32522583 70.09863281 C-30.18985443 70.97358398 -31.05448303 71.84853516 -31.9453125 72.75 C-32.8303244 73.6378418 -33.7153363 74.52568359 -34.62716675 75.44042969 C-36.98166258 77.80424682 -39.33173408 80.17229654 -41.67980957 82.54248047 C-44.07589152 84.9590037 -46.47762961 87.36989058 -48.87890625 89.78125 C-53.59118948 94.51563465 -58.29772387 99.25567712 -63 104 C-62.04957913 105.11674511 -61.09802392 106.23252489 -60.14599609 107.34790039 C-59.61622162 107.9693544 -59.08644714 108.59080841 -58.5406189 109.23109436 C-56.65646139 111.39444368 -54.67078197 113.42699013 -52.625 115.4375 C-51.59246094 116.45650391 -51.59246094 116.45650391 -50.5390625 117.49609375 C-50.03117187 117.99238281 -49.52328125 118.48867187 -49 119 C-43.68931195 114.56583328 -38.75163383 109.88483314 -33.87890625 104.9765625 C-32.76176491 103.85729874 -32.76176491 103.85729874 -31.62205505 102.71542358 C-29.26649173 100.35430611 -26.91444784 97.98971838 -24.5625 95.625 C-22.95661237 94.01409144 -21.35049484 92.40341204 -19.74414062 90.79296875 C-15.82676487 86.86462487 -11.91226513 82.93343326 -8 79 C-9.82763412 75.03729911 -12.41918074 72.28305462 -15.5 69.25 C-15.99886719 68.74339844 -16.49773437 68.23679687 -17.01171875 67.71484375 C-20.54830446 63.69566419 -20.54830446 63.69566419 -24.75906372 65.51855469 Z M-149.94420528 108.81557083 C-150.57545753 109.44359864 -151.20670978 110.07162644 -151.85709089 110.71868539 C-152.90706773 111.77098513 -152.90706773 111.77098513 -153.97825623 112.84454346 C-154.7168225 113.58084417 -155.45538877 114.31714489 -156.21633583 115.07575774 C-158.71230795 117.5653553 -161.20464625 120.05855973 -163.69702148 122.55175781 C-165.47695111 124.32869806 -167.25708688 126.10543182 -169.03741455 127.88197327 C-173.38411119 132.22072502 -177.72838578 136.5618888 -182.07138997 140.9043363 C-185.60086205 144.43333398 -189.13112129 147.96154225 -192.66194344 151.48918915 C-202.66429184 161.48272504 -212.66453433 171.47836146 -222.66210293 181.47667912 C-223.47143595 182.28607207 -223.47143595 182.28607207 -224.29711914 183.11181641 C-225.10743587 183.92219445 -225.10743587 183.92219445 -225.93412263 184.74894378 C-234.6875424 193.50276992 -243.4459375 202.25159923 -252.20660876 210.99816766 C-261.19402546 219.97123023 -270.17771811 228.94800634 -279.15752846 237.92868114 C-284.20220877 242.97369381 -289.248426 248.01714702 -294.29864311 253.05661774 C-299.04818292 257.79611607 -303.79254319 262.54073838 -308.53341675 267.288908 C-310.27722598 269.03376664 -312.02275507 270.77690835 -313.77009773 272.51822853 C-316.14962184 274.89007988 -318.52294294 277.26796752 -320.89476013 279.64752197 C-321.59251397 280.34013225 -322.29026781 281.03274252 -323.0091657 281.74634099 C-323.9599557 282.70402918 -323.9599557 282.70402918 -324.92995358 283.68106461 C-325.4784871 284.22938076 -326.02702062 284.77769692 -326.59217638 285.34262872 C-328.6754782 287.79521195 -329.94350221 289.94725789 -330.1171875 293.18359375 C-329.57709725 298.20991756 -328.84589989 301.38718495 -325 305 C-324.34 305 -323.68 305 -323 305 C-322.73114833 305.59347481 -322.46229666 306.18694962 -322.18529797 306.79840851 C-320.9952898 309.0087488 -319.79935394 310.45447564 -318.03523254 312.22546387 C-317.12493286 313.14639076 -317.12493286 313.14639076 -316.19624329 314.08592224 C-315.53182724 314.74786087 -314.86741119 315.4097995 -314.18286133 316.09179688 C-313.48180267 316.79796646 -312.78074402 317.50413605 -312.05844116 318.23170471 C-309.7381298 320.56592163 -307.4104559 322.89262806 -305.08203125 325.21875 C-303.46476014 326.8399082 -301.84771309 328.46128995 -300.23088074 330.08288574 C-296.83888585 333.48234544 -293.44303689 336.87789908 -290.04467773 340.27099609 C-285.69624242 344.61364405 -281.35926018 348.96753148 -277.02534962 353.32466888 C-273.68737258 356.67740085 -270.34246945 360.02315553 -266.99555016 363.36695862 C-265.39407967 364.96894168 -263.79496426 366.57328272 -262.19828224 368.18003845 C-259.96067838 370.43001946 -257.71368549 372.67019871 -255.46411133 374.90820312 C-254.80981644 375.57014175 -254.15552155 376.23208038 -253.48139954 376.91407776 C-248.93926106 381.40490907 -244.4407247 385.43824903 -237.9375 386.5 C-230.8244419 385.28926671 -225.94920336 379.19574337 -221.125 374.25 C-220.43664062 373.55261719 -219.74828125 372.85523438 -219.0390625 372.13671875 C-217.35470418 370.42896657 -215.67522383 368.71670557 -214 367 C-218.91515295 361.0568412 -224.25756213 355.65883912 -229.75 350.25 C-231.45543857 348.57005378 -233.15866891 346.88786202 -234.859375 345.203125 C-235.60670898 344.46739258 -236.35404297 343.73166016 -237.12402344 342.97363281 C-239.86439412 340.09060879 -240.95355925 338.52013637 -241.3125 334.5 C-241 331 -241 331 -239.875 329.0625 C-236.88360708 327.36737734 -235.41358101 327.35592811 -232 328 C-225.18033913 332.903005 -219.38958747 339.49226963 -213.5 345.4375 C-212.5821875 346.35982422 -211.664375 347.28214844 -210.71875 348.23242188 C-208.47684945 350.48599899 -206.237334 352.74189075 -204 355 C-200.53370165 353.51346494 -198.30977964 351.54277649 -195.671875 348.8671875 C-194.87265625 348.06152344 -194.0734375 347.25585938 -193.25 346.42578125 C-192.425 345.58402344 -191.6 344.74226562 -190.75 343.875 C-189.90953125 343.02550781 -189.0690625 342.17601562 -188.203125 341.30078125 C-186.13084317 339.20495077 -184.06337607 337.10459287 -182 335 C-183.30379393 332.08948677 -184.64732284 330.15102596 -187.00390625 328.01171875 C-187.57947266 327.46966797 -188.15503906 326.92761719 -188.74804688 326.36914062 C-189.95396934 325.25148805 -191.16752165 324.1420099 -192.38867188 323.04101562 C-195.50201984 320.08141324 -196.86654724 318.50398043 -197.99609375 314.23828125 C-198 311 -198 311 -196.5 308.5 C-194 307 -194 307 -190.83984375 306.93359375 C-185.45041372 308.43035306 -182.79838321 311.54065125 -179.0625 315.5625 C-178.03672852 316.62887695 -178.03672852 316.62887695 -176.99023438 317.71679688 C-175.31239062 319.46503967 -173.6501846 321.22569351 -172 323 C-168.53370165 321.51346494 -166.30977964 319.54277649 -163.671875 316.8671875 C-162.87265625 316.06152344 -162.0734375 315.25585938 -161.25 314.42578125 C-160.425 313.58402344 -159.6 312.74226562 -158.75 311.875 C-157.90953125 311.02550781 -157.0690625 310.17601562 -156.203125 309.30078125 C-154.13084317 307.20495077 -152.06337607 305.10459287 -150 303 C-151.59911121 298.91761292 -154.53889329 296.32384986 -157.6640625 293.38671875 C-158.79760522 292.29307407 -159.93039507 291.19864859 -161.0625 290.10351562 C-162.84362802 288.39045776 -164.62934711 286.68340767 -166.42871094 284.98950195 C-168.16909748 283.34614792 -169.88634244 281.68127099 -171.6015625 280.01171875 C-172.14213287 279.51355148 -172.68270325 279.01538422 -173.23965454 278.50212097 C-176.07400039 275.70784155 -176.9724302 274.25634581 -177.40380859 270.24536133 C-177 267 -177 267 -175.9375 265.0625 C-172.79605235 263.33977065 -170.5330613 263.59406316 -167 264 C-164.43627363 265.61902755 -162.47783425 267.7038414 -160.41015625 269.90625 C-159.82076767 270.50554321 -159.23137909 271.10483643 -158.62413025 271.72229004 C-156.75312901 273.63234591 -154.90798254 275.56530912 -153.0625 277.5 C-151.79525273 278.80237214 -150.52638864 280.10317316 -149.25585938 281.40234375 C-146.15154589 284.5836639 -143.07019066 287.78575069 -140 291 C-136.53370165 289.51346494 -134.30977964 287.54277649 -131.671875 284.8671875 C-130.87265625 284.06152344 -130.0734375 283.25585938 -129.25 282.42578125 C-128.425 281.58402344 -127.6 280.74226562 -126.75 279.875 C-125.90953125 279.02550781 -125.0690625 278.17601562 -124.203125 277.30078125 C-122.13084317 275.20495077 -120.06337607 273.10459287 -118 271 C-119.30555095 268.08909619 -120.66050972 266.13215821 -123.00390625 263.9765625 C-123.57947266 263.43 -124.15503906 262.8834375 -124.74804688 262.3203125 C-125.95588611 261.19178241 -127.16944223 260.06933952 -128.38867188 258.953125 C-132.01253239 255.48788464 -133.87200803 253.26272866 -134 248 C-133.5 245.6875 -133.5 245.6875 -132 244 C-128.875 242.8125 -128.875 242.8125 -125 243 C-121.91544494 244.91217336 -119.5218059 247.40891372 -117 250 C-116.17242187 250.81597656 -115.34484375 251.63195312 -114.4921875 252.47265625 C-112.30972432 254.63117391 -110.14799124 256.80725894 -108 259 C-104.53370165 257.51346494 -102.30977964 255.54277649 -99.671875 252.8671875 C-98.87265625 252.06152344 -98.0734375 251.25585938 -97.25 250.42578125 C-96.425 249.58402344 -95.6 248.74226562 -94.75 247.875 C-93.90953125 247.02550781 -93.0690625 246.17601562 -92.203125 245.30078125 C-90.13084317 243.20495077 -88.06337607 241.10459287 -86 239 C-87.59911121 234.91761292 -90.53889329 232.32384986 -93.6640625 229.38671875 C-94.79760522 228.29307407 -95.93039507 227.19864859 -97.0625 226.10351562 C-98.84362802 224.39045776 -100.62934711 222.68340767 -102.42871094 220.98950195 C-104.16909748 219.34614792 -105.88634244 217.68127099 -107.6015625 216.01171875 C-108.14213287 215.51355148 -108.68270325 215.01538422 -109.23965454 214.50212097 C-112.0286205 211.75257995 -112.9694225 210.24389351 -113.46240234 206.31176758 C-113 203 -113 203 -111 200 C-107.0974887 199.32715322 -104.53834309 198.95747449 -101.19189453 201.2253418 C-100.59489746 201.77359619 -99.99790039 202.32185059 -99.3828125 202.88671875 C-98.6913916 203.52061523 -97.9999707 204.15451172 -97.28759766 204.80761719 C-92.96069583 208.95442385 -88.71771311 213.17993931 -84.5 217.4375 C-83.5821875 218.35982422 -82.664375 219.28214844 -81.71875 220.23242188 C-79.47684945 222.48599899 -77.237334 224.74189075 -75 227 C-69.19108254 222.18132753 -63.86934448 216.98743592 -58.5625 211.625 C-57.73556641 210.79355469 -56.90863281 209.96210938 -56.05664062 209.10546875 C-54.03544469 207.0725896 -52.01663665 205.03740037 -50 203 C-54.70217508 197.35064997 -59.72492112 192.13281789 -64.92700195 186.94360352 C-65.80409317 186.06475998 -66.68118439 185.18591644 -67.58485413 184.28044128 C-69.97105086 181.89061811 -72.35944888 179.50304 -74.74905038 177.11662412 C-77.25381555 174.6144037 -79.7561254 172.10972973 -82.25883484 169.60545349 C-86.45404591 165.40842891 -90.65134869 161.21350487 -94.84985352 157.01977539 C-99.70858023 152.16651104 -104.56366533 147.30962601 -109.41691619 142.45088631 C-113.58842989 138.2748435 -117.76187789 134.1007413 -121.93696755 129.92827362 C-124.42902626 127.43777606 -126.92039913 124.94660254 -129.41002846 122.45367622 C-132.17715855 119.68313669 -134.94833997 116.91667225 -137.7199707 114.15063477 C-138.96278809 112.90478104 -138.96278809 112.90478104 -140.23071289 111.63375854 C-140.98069046 110.8866008 -141.73066803 110.13944305 -142.50337219 109.36964417 C-143.15834844 108.71504495 -143.81332468 108.06044573 -144.48814869 107.38601017 C-147.12263508 104.97080908 -147.67769276 106.55196981 -149.94420528 108.81557083 Z M-321.24690247 338.99806213 C-321.82880844 339.58715866 -322.41071442 340.17625519 -323.01025391 340.78320312 C-323.6250209 341.39767807 -324.2397879 342.01215302 -324.8731842 342.64524841 C-326.91241727 344.68587943 -328.94446741 346.73351275 -330.9765625 348.78125 C-332.3857441 350.19416008 -333.79536671 351.60663044 -335.20541382 353.01867676 C-338.92194915 356.74286156 -342.6324405 360.4730127 -346.34173584 364.20440674 C-350.12525729 368.00835833 -353.91442128 371.80667987 -357.703125 375.60546875 C-365.14097325 383.06479009 -372.57245331 390.53042192 -380 398 C-378.6238464 401.09179136 -377.04841555 403.19638753 -374.65185547 405.57519531 C-373.97130096 406.25559875 -373.29074646 406.9360022 -372.58956909 407.63702393 C-371.85618317 408.36008728 -371.12279724 409.08315063 -370.3671875 409.828125 C-369.61535187 410.57713074 -368.86351624 411.32613647 -368.08889771 412.09783936 C-365.68892099 414.4866302 -363.28207991 416.86836897 -360.875 419.25 C-359.24563648 420.86933169 -357.61672466 422.48911802 -355.98828125 424.109375 C-351.99741194 428.07820505 -348.00088585 432.04126899 -344 436 C-339.82384201 434.36256066 -337.0351847 431.30218208 -333.94628906 428.17333984 C-333.35073715 427.57807999 -332.75518524 426.98282013 -332.1415863 426.36952209 C-330.17815357 424.40469823 -328.22189627 422.43288961 -326.265625 420.4609375 C-324.9041436 419.09572521 -323.54221939 417.73095439 -322.17987061 416.36660767 C-318.59816176 412.77726841 -315.0225001 409.1819632 -311.44805908 405.58538818 C-307.79842879 401.91528681 -304.14311908 398.25085171 -300.48828125 394.5859375 C-293.31994671 387.39616348 -286.157987 380.20007484 -279 373 C-280.37297814 369.92306169 -281.94214627 367.80542976 -284.31640625 365.42480469 C-285.32755493 364.40419952 -285.32755493 364.40419952 -286.35913086 363.36297607 C-287.08624268 362.63991272 -287.81335449 361.91684937 -288.5625 361.171875 C-289.30959229 360.42286926 -290.05668457 359.67386353 -290.82641602 358.90216064 C-292.40427919 357.32293796 -293.98466499 355.74623226 -295.56738281 354.171875 C-297.99777965 351.75221054 -300.41730061 349.32203811 -302.8359375 346.890625 C-304.36915052 345.35873303 -305.90298352 343.82746128 -307.4375 342.296875 C-308.16461182 341.56571472 -308.89172363 340.83455444 -309.64086914 340.08123779 C-310.65201782 339.07954559 -310.65201782 339.07954559 -311.68359375 338.05761719 C-312.57389282 337.1697049 -312.57389282 337.1697049 -313.48217773 336.26385498 C-316.93597396 333.38795991 -318.61506443 336.37980373 -321.24690247 338.99806213 Z " fill="#000000" transform="translate(451,5)"/>
</svg>
