<?xml version="1.0" encoding="UTF-8"?>
<svg version="1.1" xmlns="http://www.w3.org/2000/svg" width="2177" height="600">
<path d="M0 0 C5.32779149 1.60361249 9.17379791 5.07642516 13.4375 8.5 C18.85852718 12.78575924 24.28538026 17.02258241 29.9375 21 C35.42864316 24.86699092 40.85073147 28.81811821 46.25 32.8125 C52.47311239 37.41308474 58.71853114 41.97941323 65 46.5 C71.99113587 51.53205607 78.93439301 56.62570822 85.86157227 61.74536133 C92.28057141 66.48377875 98.73869378 71.16623206 105.21484375 75.82617188 C108.49852799 78.18933801 111.77841194 80.55226599 115 83 C113.65008634 86.15078009 112.33725021 87.78663118 109.53515625 89.7421875 C108.82746094 90.24363281 108.11976563 90.74507813 107.390625 91.26171875 C106.62234375 91.79410156 105.8540625 92.32648438 105.0625 92.875 C103.41725981 94.0380603 101.77275175 95.20215681 100.12890625 96.3671875 C99.2795752 96.9662793 98.43024414 97.56537109 97.55517578 98.18261719 C93.49746772 101.06868434 89.49987978 104.03457903 85.5 107 C79.36061225 111.53854443 73.1964392 116.03967597 67 120.5 C58.42055202 126.67776544 49.90675657 132.94195346 41.40429688 139.22509766 C38.9851429 141.01096782 36.56333981 142.79318282 34.140625 144.57421875 C32.5312177 145.75776858 30.92184244 146.94136197 29.3125 148.125 C28.53197266 148.69887451 27.75144531 149.27274902 26.94726562 149.86401367 C23.07853849 152.71344271 19.22308239 155.57849161 15.390625 158.4765625 C14.66061279 159.02812012 13.93060059 159.57967773 13.1784668 160.14794922 C11.80787675 161.18565684 10.43940658 162.22617278 9.07348633 163.27001953 C6.16057273 165.47631816 3.36814971 167.54806579 0 169 C-5.58268078 157.58088022 -6.73299832 144.76934633 -3.03125 132.6015625 C-0.54876677 126.33893435 3.40847351 122.30283802 8.7109375 118.265625 C9.5157959 117.64977539 10.3206543 117.03392578 11.14990234 116.39941406 C11.76043457 115.93760742 12.3709668 115.47580078 13 115 C-62.05517356 114.96569651 -137.11034806 114.93390093 -212.16552734 114.91531372 C-213.27762165 114.91503761 -214.38971596 114.91476149 -215.53551009 114.91447701 C-239.70842914 114.90849021 -263.88134827 114.90294999 -288.05426753 114.89786934 C-299.90987629 114.89537482 -311.76548502 114.89278169 -323.62109375 114.89013672 C-325.39069043 114.88974444 -325.39069043 114.88974444 -327.19603655 114.88934424 C-365.38579984 114.88083232 -403.57555718 114.86581776 -441.76531687 114.84740556 C-481.03344813 114.82850798 -520.3015761 114.81622161 -559.56971183 114.81217002 C-565.1250675 114.81159377 -570.68042315 114.8109425 -576.23577881 114.81024551 C-577.32907645 114.81011067 -578.4223741 114.80997582 -579.54880197 114.80983689 C-597.09773648 114.80747996 -614.64666077 114.79822148 -632.19559112 114.78633593 C-649.86853968 114.77451535 -667.5414782 114.77007552 -685.21443057 114.77299725 C-695.69454154 114.77451022 -706.17461553 114.77053675 -716.65471978 114.75840491 C-723.68130919 114.75083197 -730.70787475 114.75072331 -737.73446589 114.75633637 C-741.72150855 114.75931792 -745.70848198 114.75938674 -749.69551682 114.75023364 C-778.64917204 114.68781695 -807.273903 116.08351847 -836 120 C-834.84049696 116.52149089 -834.07055411 116.07673383 -831.125 114.06640625 C-830.31240723 113.50550293 -829.49981445 112.94459961 -828.66259766 112.36669922 C-827.78394043 111.77131348 -826.9052832 111.17592773 -826 110.5625 C-824.17418819 109.30641244 -822.34867259 108.04989421 -820.5234375 106.79296875 C-819.13850098 105.84429932 -819.13850098 105.84429932 -817.72558594 104.87646484 C-813.66489733 102.08083132 -809.64459509 99.22925407 -805.625 96.375 C-801.12559365 93.18171858 -796.60626451 90.03756762 -792 87 C-795.07887422 83.72032963 -798.4487315 81.12255216 -802.125 78.5625 C-803.37017839 77.68414172 -804.614949 76.80520517 -805.859375 75.92578125 C-806.52388672 75.45736816 -807.18839844 74.98895508 -807.87304688 74.50634766 C-811.72458032 71.77862023 -815.54913996 69.01356239 -819.375 66.25 C-820.47932373 65.45444702 -820.47932373 65.45444702 -821.60595703 64.64282227 C-823.03216225 63.61324925 -824.45621905 62.5806925 -825.87792969 61.54492188 C-827.35255957 60.47135332 -828.83281331 59.4054843 -830.31738281 58.34570312 C-831.05053711 57.81396484 -831.78369141 57.28222656 -832.5390625 56.734375 C-833.20373535 56.25709961 -833.8684082 55.77982422 -834.55322266 55.28808594 C-835.03065918 54.86301758 -835.5080957 54.43794922 -836 54 C-836 53.34 -836 52.68 -836 52 C-794.8557517 50.97559021 -753.73101581 50.85849172 -712.57675474 50.88238947 C-702.96153509 50.88775056 -693.34631783 50.88704497 -683.73109705 50.88625254 C-665.99937647 50.88495158 -648.26765966 50.88823003 -630.53594017 50.89426994 C-613.02101815 50.9002205 -595.50609772 50.90404259 -577.9911747 50.90512276 C-576.8954449 50.9051915 -575.79971511 50.90526024 -574.67078138 50.90533106 C-569.10440057 50.90566947 -563.53801976 50.90597082 -557.97163896 50.90625793 C-518.71294378 50.9083492 -479.45425066 50.91506076 -440.19555664 50.92456055 C-402.09529633 50.93376926 -363.99503659 50.94084092 -325.89477539 50.94506836 C-324.12805221 50.94526565 -324.12805221 50.94526565 -322.32563766 50.94546692 C-310.49576137 50.94678563 -298.66588508 50.94806142 -286.83600878 50.94930578 C-262.74478321 50.95184088 -238.65355767 50.95466213 -214.56233215 50.95765686 C-213.45505581 50.95779415 -212.34777946 50.95793144 -211.20694928 50.95807289 C-137.47129867 50.96724805 -63.73564919 50.98309015 10 51 C9.38511719 50.48195801 8.77023437 49.96391602 8.13671875 49.43017578 C7.32847656 48.7339209 6.52023437 48.03766602 5.6875 47.3203125 C4.48673828 46.29574951 4.48673828 46.29574951 3.26171875 45.25048828 C-1.59354916 40.419329 -4.56340756 33.83994824 -5 27 C-5.07541016 26.07380859 -5.07541016 26.07380859 -5.15234375 25.12890625 C-5.53083257 16.87784988 -4.10904605 7.23549414 0 0 Z " fill="#BE1522" transform="translate(2060,1)"/>
<path d="M0 0 C5.71771559 6.50250008 6.55793768 17.30418551 6.21484375 25.703125 C5.35469873 34.89885725 2.63306051 42.00063126 -4.52929688 48.18334961 C-5.41681641 48.87436768 -6.30433594 49.56538574 -7.21875 50.27734375 C-8.11529297 50.97980225 -9.01183594 51.68226074 -9.93554688 52.40600586 C-10.61681641 52.93202393 -11.29808594 53.45804199 -12 54 C59.8701759 54.03429968 131.74035279 54.06609579 203.61053467 54.08468628 C204.67525013 54.08496239 205.73996559 54.08523851 206.83694515 54.08552299 C229.97940722 54.09150964 253.12186937 54.09704988 276.26433165 54.10213066 C287.61437216 54.1046252 298.96441265 54.10721833 310.31445312 54.10986328 C312.00859739 54.11025556 312.00859739 54.11025556 313.73696679 54.11065576 C350.30562781 54.11916936 386.87428264 54.13418517 423.44293991 54.15259444 C461.04074099 54.1714873 498.63853863 54.1837773 536.23634437 54.18782998 C541.55405493 54.18840624 546.87176547 54.18905751 552.18947601 54.18975449 C553.75928634 54.18995676 553.75928634 54.18995676 555.36081001 54.19016311 C572.16666819 54.19252105 588.97251572 54.20178228 605.77836957 54.21366407 C622.69846961 54.22547789 639.61855916 54.22992615 656.53866318 54.22700275 C666.57525886 54.22548852 676.61181597 54.22947478 686.64840465 54.24159509 C693.37425362 54.24915787 700.10007766 54.24928361 706.82592843 54.24366363 C710.64448364 54.24067693 714.4629665 54.2406356 718.2815136 54.24976636 C741.52031688 54.30203917 764.62277575 53.44459872 787.6796875 50.3671875 C790.81961445 50.01994852 793.84430715 49.93244694 797 50 C792.99891757 54.26782126 788.63657445 57.61704821 783.875 61 C782.71194336 61.8350708 782.71194336 61.8350708 781.52539062 62.68701172 C774.77625403 67.50840253 767.92739072 72.18328162 761.01904297 76.7734375 C760.25994629 77.28390625 759.50084961 77.794375 758.71875 78.3203125 C758.04779297 78.76648926 757.37683594 79.21266602 756.68554688 79.67236328 C754.72629058 81.07428797 754.72629058 81.07428797 753 84 C753.80050781 84.36158203 753.80050781 84.36158203 754.6171875 84.73046875 C757.64076176 86.34138946 760.35896191 88.30413987 763.125 90.3125 C763.72393066 90.74401367 764.32286133 91.17552734 764.93994141 91.62011719 C766.25189284 92.5659504 767.56288506 93.51311516 768.87304688 94.46142578 C771.1262276 96.09130927 773.38313801 97.71593068 775.640625 99.33984375 C777.2188772 100.47638589 778.79700383 101.61310241 780.375 102.75 C781.11121582 103.28020752 781.84743164 103.81041504 782.60595703 104.35668945 C784.03208724 105.38652959 785.45614182 106.41925123 786.87792969 107.45507812 C788.35255957 108.52864668 789.83281331 109.5945157 791.31738281 110.65429688 C792.05053711 111.18603516 792.78369141 111.71777344 793.5390625 112.265625 C794.20373535 112.74290039 794.8684082 113.22017578 795.55322266 113.71191406 C796.26937744 114.3495166 796.26937744 114.3495166 797 115 C797 115.66 797 116.32 797 117 C787.62456235 117.78093969 778.33005283 118.14647142 768.92399025 118.1386652 C767.55867893 118.1411199 766.19336833 118.14400589 764.82805872 118.14727798 C761.1024886 118.15497555 757.37693755 118.15661644 753.65136045 118.1572054 C749.58844119 118.15894613 745.52553171 118.16643789 741.46261823 118.17318195 C734.35080404 118.18420364 727.23899335 118.19159686 720.12717247 118.19658089 C709.55224399 118.2040085 698.97732774 118.21709656 688.40240649 118.23132664 C670.61154247 118.25510737 652.82067628 118.27432405 635.02980423 118.29092598 C617.41845018 118.30737535 599.80710019 118.32586161 582.19575119 118.34705925 C581.10011324 118.34837686 580.00447529 118.34969446 578.8756362 118.351052 C573.31128606 118.35775422 567.74693596 118.36449275 562.18258588 118.37124526 C522.78579037 118.41898917 483.38899106 118.46217968 443.9921875 118.50268555 C405.72232792 118.54204318 367.45247148 118.58346758 329.18261719 118.62768555 C328.00266033 118.62904808 326.82270347 118.63041061 325.60699034 118.63181442 C313.75721563 118.64549998 301.90744097 118.6592275 290.05766635 118.67298577 C265.91900888 118.70101118 241.7803511 118.72875649 217.64169312 118.7563324 C216.53187344 118.7576006 215.42205376 118.7588688 214.27860318 118.76017542 C140.18574057 118.84480977 66.0928708 118.92291516 -8 119 C-7.44384506 119.47445053 -6.88769012 119.94890106 -6.31468201 120.43772888 C-5.58878372 121.06341263 -4.86288544 121.68909637 -4.11499023 122.33374023 C-3.3938353 122.95256577 -2.67268036 123.5713913 -1.92967224 124.20896912 C4.24878316 129.94352041 5.7395053 137.89720842 6.25 145.9375 C6.15385805 153.98595469 5.11940248 163.63826837 0 170 C-0.54188965 169.58339111 -1.0837793 169.16678223 -1.64208984 168.73754883 C-12.49884215 160.40123649 -23.4191195 152.18331587 -34.54296875 144.20703125 C-39.20274139 140.86363667 -43.82335201 137.46848405 -48.4375 134.0625 C-49.22455322 133.48169678 -50.01160645 132.90089355 -50.82250977 132.30249023 C-54.01431372 129.9459125 -57.20488347 127.58766664 -60.39550781 125.22949219 C-69.62496071 118.41001475 -78.87734337 111.62672555 -88.19116211 104.92285156 C-96.8456323 98.68543006 -105.42354212 92.34405212 -114 86 C-112.17274026 81.91801701 -109.63122344 80.01851652 -106 77.5625 C-104.72213401 76.67392765 -103.44481658 75.78456603 -102.16796875 74.89453125 C-101.48911621 74.4248291 -100.81026367 73.95512695 -100.11083984 73.47119141 C-96.48022698 70.94076426 -92.89750138 68.34445528 -89.3125 65.75 C-88.18026001 64.93208984 -88.18026001 64.93208984 -87.02514648 64.09765625 C-78.30659075 57.79088899 -69.65340591 51.39568892 -61 45 C-57.81331039 42.64473369 -54.625939 40.29039761 -51.4375 37.9375 C-50.64980225 37.35605225 -49.86210449 36.77460449 -49.05053711 36.17553711 C-44.49881821 32.82176212 -39.92522722 29.50119161 -35.33056641 26.20654297 C-26.70728784 20.02305852 -18.23252309 13.66452235 -9.81494141 7.20361328 C-8.547229 6.23077393 -8.547229 6.23077393 -7.25390625 5.23828125 C-6.50439697 4.66118408 -5.7548877 4.08408691 -4.98266602 3.48950195 C-3.36150013 2.27158137 -1.6871365 1.12475767 0 0 Z " fill="#F39200" transform="translate(118,430)"/>
<path d="M0 0 C2.71332651 2.28490654 5.38544818 4.6027032 8 7 C9.12678162 6.16907724 10.25126021 5.33503194 11.375 4.5 C12.11363281 3.95214844 12.85226562 3.40429688 13.61328125 2.83984375 C15.18750495 1.62632597 16.72858683 0.36838795 18.23046875 -0.93359375 C35.12782568 -15.45343312 58.15005034 -20.3495984 80 -19 C99.22890975 -17.08011556 116.46122987 -9.79222956 131 3 C131.7734375 3.67804688 132.546875 4.35609375 133.34375 5.0546875 C150.47167756 21.06812662 159.18194076 47.75826508 160.11125183 70.75277138 C160.28304416 78.74842255 160.22948085 86.74531612 160.1953125 94.7421875 C160.19157637 97.32292572 160.18873224 99.90366537 160.18673706 102.48440552 C160.17992059 108.54719172 160.16421088 114.60989311 160.14403808 120.6726476 C160.12154765 127.58455946 160.11065288 134.49647516 160.10064721 141.4084146 C160.07984002 155.60565552 160.04321722 169.80281002 160 184 C144.16 184 128.32 184 112 184 C111.95101562 176.29398438 111.90203125 168.58796875 111.8515625 160.6484375 C111.816146 155.74477913 111.78016872 150.84113754 111.7421875 145.9375 C111.68205399 138.16701759 111.62391301 130.39655847 111.578125 122.62597656 C111.54104842 116.35594348 111.49462973 110.08604074 111.44193649 103.81612015 C111.42351076 101.43296233 111.40836 99.0497767 111.39665604 96.66657639 C112.24914667 69.02001046 112.24914667 69.02001046 100.625 45 C90.15729364 35.72795838 78.43948802 35.27202736 65.05566406 35.85205078 C56.25634502 36.48535094 48.05350304 40.38006859 42.2109375 47.0390625 C34.64034005 57.59314663 33.86477226 69.60571865 33.79467773 82.16772461 C33.78477814 83.27090027 33.77487854 84.37407593 33.76467896 85.51068115 C33.73320158 89.14121385 33.70836107 92.7717596 33.68359375 96.40234375 C33.66301234 98.9258304 33.64201556 101.44931369 33.62062073 103.97279358 C33.57114818 109.92596123 33.52585131 115.87915129 33.48259836 121.83236653 C33.41953825 130.47065642 33.34798368 139.10887673 33.27747345 147.74710846 C33.1796184 159.83137164 33.09065658 171.91567101 33 184 C16.83 184 0.66 184 -16 184 C-16.01458252 180.58438721 -16.02916504 177.16877441 -16.04418945 173.6496582 C-16.09465868 162.33006489 -16.16112799 151.01060261 -16.23571491 139.69114399 C-16.28052434 132.83211627 -16.31997241 125.97313875 -16.34643555 119.11401367 C-16.37201737 112.48734049 -16.41302085 105.86087511 -16.46318626 99.23433495 C-16.47979572 96.71359252 -16.49134668 94.19281122 -16.49761391 91.67202187 C-15.98435138 67.44133982 -15.98435138 67.44133982 -26 46 C-35.56868354 36.82028734 -46.57998937 35.50465333 -59.33984375 35.73046875 C-69.04721192 36.13173035 -77.15019017 38.82858257 -84.12890625 45.73046875 C-94.14182149 57.87557053 -94.11467084 73.99059325 -94.20532227 88.97924805 C-94.21522186 90.01473282 -94.22512146 91.05021759 -94.23532104 92.11708069 C-94.26660386 95.49860442 -94.29156038 98.88014214 -94.31640625 102.26171875 C-94.33700456 104.62254679 -94.35800173 106.98337139 -94.37937927 109.3441925 C-94.43430305 115.52706084 -94.48384204 121.7099608 -94.53222656 127.8928833 C-94.59154288 135.32787244 -94.65760583 142.76280437 -94.72252655 150.19774628 C-94.82016187 161.46512895 -94.90927357 172.73255005 -95 184 C-110.84 184 -126.68 184 -143 184 C-143.06808398 169.33401339 -143.12319323 154.668127 -143.15543652 140.00201702 C-143.17081476 133.19017002 -143.1917279 126.37842918 -143.22631836 119.56665039 C-143.25975449 112.97897057 -143.27691037 106.39135906 -143.28463173 99.8035984 C-143.29012634 97.30451548 -143.30085413 94.80543778 -143.31719017 92.30640221 C-143.50510999 62.33607228 -140.22902867 31.08555969 -119 8 C-118.30132812 7.22140625 -117.60265625 6.4428125 -116.8828125 5.640625 C-111.53811252 -0.02741982 -105.76028473 -4.16308164 -99 -8 C-97.77990234 -8.69416016 -97.77990234 -8.69416016 -96.53515625 -9.40234375 C-66.16245852 -25.59783411 -26.48063379 -21.90320598 0 0 Z " fill="#373736" transform="translate(322,222)"/>
<path d="M0 0 C1.19882812 1.07314453 1.19882812 1.07314453 2.421875 2.16796875 C3.37320313 2.97814453 3.37320313 2.97814453 4.34375 3.8046875 C22.84647596 20.65235311 29.82608786 48.72942159 31.26171875 72.69140625 C32.64454887 102.70893805 28.54465448 136.12979605 7.6328125 159.32421875 C-7.29983461 175.22467736 -27.22394045 183.86912274 -48.9453125 185.40625 C-68.28143337 185.81536614 -85.0532582 180.23279694 -99.578125 167.16796875 C-102.053125 164.69296875 -102.053125 164.69296875 -104.578125 162.16796875 C-104.908125 189.88796875 -105.238125 217.60796875 -105.578125 246.16796875 C-121.088125 246.16796875 -136.598125 246.16796875 -152.578125 246.16796875 C-152.64603157 222.5054893 -152.70121673 198.84308962 -152.73356152 175.18053722 C-152.74898367 164.19185568 -152.76998351 153.20323931 -152.80444336 142.21459961 C-152.83448892 132.62897056 -152.85373374 123.04338874 -152.86039048 113.4577139 C-152.86427724 108.38937961 -152.87331292 103.32118034 -152.89531517 98.25288963 C-152.9159207 93.46683704 -152.92191105 88.68097304 -152.91744804 83.89488029 C-152.91826263 82.1532259 -152.92408317 80.41156414 -152.93574142 78.66994858 C-153.10255525 52.42689118 -148.69344976 22.72442908 -129.63500977 3.12109375 C-128.29518273 1.79071023 -126.93718099 0.47870275 -125.578125 -0.83203125 C-124.94519531 -1.49589844 -124.31226563 -2.15976563 -123.66015625 -2.84375 C-92.56326826 -33.39146558 -30.71759815 -26.50058684 0 0 Z M-95.328125 37.73046875 C-108.13113968 53.35549363 -106.81923063 77.7503689 -105.38769531 96.68701172 C-103.96830927 109.89888872 -98.90481933 122.26455934 -88.9609375 131.33203125 C-79.53044221 138.59815057 -68.35339004 141.23999432 -56.578125 140.16796875 C-44.41692594 138.40311181 -36.27266618 134.0477364 -28.36328125 124.64453125 C-21.02018972 114.45739771 -18.17771971 101.54142314 -17.578125 89.16796875 C-17.52527344 88.15605469 -17.47242188 87.14414062 -17.41796875 86.1015625 C-16.94620866 68.40030342 -19.56639305 50.16036876 -31.41796875 36.359375 C-40.05162245 27.60082215 -49.99533073 24.92039236 -62.015625 24.79296875 C-75.33144022 24.93387685 -85.84487792 28.06367495 -95.328125 37.73046875 Z " fill="#373736" transform="translate(865.578125,224.83203125)"/>
<path d="M0 0 C21.47904769 18.25060187 28.03479897 43.95016625 30.421875 70.9765625 C30.89232547 79.99812938 30.77480923 89.03220589 30.71484375 98.0625 C30.70923152 100.58696233 30.70496914 103.11142798 30.70198059 105.63589478 C30.69065979 112.20177626 30.66130616 118.76745085 30.62786865 125.33325195 C30.59843091 131.40015211 30.58633251 137.46709824 30.57284582 143.5340507 C30.54175306 157.34833378 30.48688832 171.16239954 30.421875 184.9765625 C14.911875 184.9765625 -0.598125 184.9765625 -16.578125 184.9765625 C-16.908125 178.7065625 -17.238125 172.4365625 -17.578125 165.9765625 C-19.104375 167.4615625 -20.630625 168.9465625 -22.203125 170.4765625 C-36.21375905 183.47669129 -53.40745019 189.35918843 -72.44140625 189.19140625 C-94.98559105 188.33313863 -115.90614056 178.77291619 -131.265625 162.2265625 C-152.68182072 136.19922416 -155.6913543 101.35848668 -153.35986328 68.94189453 C-150.74454776 43.12427187 -141.26238254 19.33248966 -121.29296875 2.1015625 C-87.8068665 -24.10914199 -33.96789756 -26.65965293 0 0 Z M-92.328125 41.7265625 C-105.67685819 58.010781 -105.9452633 80.34729616 -104.39208984 100.37548828 C-102.94882597 113.42365191 -97.79077237 127.20886925 -87.40234375 135.76953125 C-75.11688897 143.78764342 -62.65197347 145.61351742 -48.27734375 142.7265625 C-38.77436456 140.08608203 -30.59934663 133.53277752 -25.328125 125.2890625 C-14.28637421 105.39590822 -14.11133751 79.40206088 -19.390625 57.625 C-22.46721477 47.49789201 -27.26111357 39.36629751 -36.578125 33.9765625 C-55.09810191 25.15483304 -77.79760639 26.19177478 -92.328125 41.7265625 Z " fill="#373736" transform="translate(658.578125,221.0234375)"/>
<path d="M0 0 C16.17 0 32.34 0 49 0 C49.03738281 7.70601562 49.07476563 15.41203125 49.11328125 23.3515625 C49.14358378 28.25523001 49.1747467 33.15886223 49.20898438 38.0625 C49.26315749 45.83298897 49.31427332 53.60340813 49.34643555 61.37402344 C49.37258739 67.64410355 49.41307312 73.9139471 49.46318626 80.18387985 C49.47977492 82.567031 49.4913387 84.95022299 49.49761391 87.33342361 C49.16460928 114.68997446 49.16460928 114.68997446 62 138 C71.25972352 145.71643626 82.1429374 147.98510339 94 147 C102.9477654 146.05734244 110.54915037 141.86388693 116.8125 135.4375 C128.97254396 120.35216245 127.32144633 98.94934791 127.4140625 80.76171875 C127.43280078 78.42616614 127.45237612 76.09062011 127.4727478 73.75508118 C127.52379404 67.64787702 127.56356605 61.54065098 127.60089111 55.43334961 C127.6481913 48.08421752 127.70966992 40.73519166 127.76873779 33.38614655 C127.85661412 22.25747457 127.92661892 11.12881948 128 0 C143.84 0 159.68 0 176 0 C176.06808398 14.66598661 176.12319323 29.331873 176.15543652 43.99798298 C176.17081476 50.80982998 176.1917279 57.62157082 176.22631836 64.43334961 C176.25975449 71.02102943 176.27691037 77.60864094 176.28463173 84.1964016 C176.29012634 86.69548452 176.30085413 89.19456222 176.31719017 91.69359779 C176.51018197 122.47283093 172.58387791 152.30270072 151 176 C150.484375 176.60714844 149.96875 177.21429688 149.4375 177.83984375 C135.9367097 192.72446506 113.85526112 200.50425872 94.3125 201.8125 C72.27290125 202.88596247 49.31941812 197.37395754 32.5 182.4375 C30.98805836 180.97054175 29.48689899 179.49233555 28 178 C27.05060547 177.13955078 27.05060547 177.13955078 26.08203125 176.26171875 C14.82236022 165.84714445 8.20812384 150.38535916 4.1875 135.8125 C3.99269043 135.13251953 3.79788086 134.45253906 3.59716797 133.75195312 C-0.77994276 116.6137328 -0.27872202 98.39736511 -0.1953125 80.859375 C-0.19157133 78.51141481 -0.1887296 76.16345304 -0.18673706 73.81549072 C-0.1791874 67.70666003 -0.1596159 61.59792806 -0.1373291 55.48913574 C-0.1130359 48.12156209 -0.10404833 40.75395498 -0.09242249 33.38635254 C-0.07318448 22.2575002 -0.03480187 11.12886345 0 0 Z " fill="#373736" transform="translate(1501,207)"/>
<path d="M0 0 C2.5259478 2.21067913 4.95177433 4.48541651 7.34765625 6.8359375 C7.96253906 7.42632812 8.57742188 8.01671875 9.2109375 8.625 C21.41134545 21.35829933 31.34765625 43.21496973 31.34765625 60.8359375 C15.17765625 60.8359375 -0.99234375 60.8359375 -17.65234375 60.8359375 C-19.63234375 56.2159375 -21.61234375 51.5959375 -23.65234375 46.8359375 C-29.89171399 37.06996669 -37.46216966 31.8734953 -48.65234375 28.8359375 C-59.30114546 26.49422669 -70.98639252 28.07498713 -80.4765625 33.43359375 C-91.25234499 40.37884674 -96.70391604 50.4610462 -99.65234375 62.8359375 C-103.39987628 84.02273489 -103.33563843 108.92008418 -90.76171875 127.32421875 C-84.80317957 134.41929411 -76.90269151 139.61909737 -67.65234375 140.8359375 C-57.15658586 141.68733824 -47.20215026 141.80183688 -37.65234375 136.8359375 C-36.07453125 136.0315625 -36.07453125 136.0315625 -34.46484375 135.2109375 C-25.6809376 127.79341675 -22.29442843 119.66746841 -17.65234375 108.8359375 C-1.48234375 108.8359375 14.68765625 108.8359375 31.34765625 108.8359375 C29.23215713 127.87542958 22.81046435 144.16098096 10.34765625 158.8359375 C9.62578125 159.8259375 8.90390625 160.8159375 8.16015625 161.8359375 C-6.6672802 179.15055684 -30.88609405 185.98151793 -52.65234375 187.8359375 C-78.1868563 189.65172506 -103.21601386 181.24171521 -122.65234375 164.8359375 C-123.37808594 164.22363281 -124.10382813 163.61132812 -124.8515625 162.98046875 C-141.02988282 148.0735292 -149.63949107 123.32248367 -150.75935364 101.77714539 C-150.81552601 99.6309236 -150.84308163 97.48676405 -150.85546875 95.33984375 C-150.86116882 94.54803207 -150.8668689 93.7562204 -150.8727417 92.94041443 C-150.88213246 91.27059233 -150.8887019 89.6007522 -150.89257812 87.9309082 C-150.90219886 85.43601023 -150.93324336 82.94196807 -150.96484375 80.44726562 C-151.05773075 66.4958111 -149.582827 52.90495586 -144.96484375 39.6484375 C-144.70993164 38.90706543 -144.45501953 38.16569336 -144.19238281 37.40185547 C-136.37053143 15.65112775 -121.20244463 -0.52269642 -100.60400391 -10.53466797 C-94.46039598 -13.38552669 -88.23709516 -15.55596126 -81.65234375 -17.1640625 C-80.77320313 -17.38835937 -79.8940625 -17.61265625 -78.98828125 -17.84375 C-52.05130923 -23.51060579 -21.45355259 -17.50407678 0 0 Z " fill="#373736" transform="translate(1850.65234375,221.1640625)"/>
<path d="M0 0 C4.00490642 1.35377118 6.46047316 3.08538522 9.5 6 C14.75547948 10.85476843 20.30295407 15.21736168 26.01708984 19.51025391 C28.22983597 21.17267411 30.43705843 22.8423034 32.64453125 24.51171875 C42.9313265 32.27427096 53.31148667 39.89510633 63.78222656 47.40722656 C67.52724243 50.09684386 71.26305635 52.79918499 75 55.5 C76.49867644 56.58206099 77.99737436 57.66409225 79.49609375 58.74609375 C82.51092519 60.92329023 85.52374694 63.10322917 88.53515625 65.28515625 C95.82748234 70.56580617 103.13621886 75.81934332 110.5 81 C118.60664259 86.70550814 126.66017347 92.4815037 134.67773438 98.31152344 C136.24573387 99.45158699 137.81477072 100.59022498 139.38476562 101.72753906 C149.3094047 108.92390691 159.0301027 116.28912099 168.47265625 124.109375 C171.41466522 126.5435981 174.4433556 128.83600602 177.5 131.125 C190.92238192 141.86290554 197.514976 158.923988 199.75 175.5625 C199.85964374 177.0399494 199.94048979 178.51968348 200 180 C200.0515625 180.98613281 200.103125 181.97226562 200.15625 182.98828125 C200.50780311 195.68813732 199.38864091 211.31990924 194 223 C193.34 223.33 192.68 223.66 192 224 C190.99324219 223.22398437 189.98648437 222.44796875 188.94921875 221.6484375 C185.11673523 218.70055111 181.2727839 215.76798319 177.42333984 212.84228516 C175.90126455 211.68516444 174.38054823 210.52625166 172.86181641 209.36474609 C160.64006231 200.04424706 147.93104532 191.50987359 135.08789062 183.07836914 C126.38516544 177.35095238 117.9278347 171.3699838 109.56585693 165.15670776 C106.31415469 162.75465611 103.00161309 160.43967375 99.6875 158.125 C92.99124951 153.42337732 86.34743378 148.65375534 79.72460938 143.84936523 C75.4287076 140.7379816 71.1084013 137.66707517 66.75756836 134.63305664 C50.94440378 123.59051065 35.66499741 111.8067207 20.81689453 99.49951172 C19.01138541 98.00939656 17.1924787 96.53704986 15.37109375 95.06640625 C1.72245167 83.94635068 -6.58427657 71.81691613 -8.40625 54.03515625 C-9.88774455 36.21012773 -8.12211201 16.24422403 0 0 Z " fill="#E94E1B" transform="translate(973,188)"/>
<path d="M0 0 C15.84 0 31.68 0 48 0 C48 17.49 48 34.98 48 53 C62.85 53 77.7 53 93 53 C93 68.51 93 84.02 93 100 C78.15 100 63.3 100 48 100 C48.09078234 115.31654803 48.09078234 115.31654803 48.20898438 130.6328125 C48.26328829 136.88083615 48.31439923 143.12877045 48.34643555 149.37695312 C48.37246883 154.4150982 48.41287172 159.4529429 48.46318626 164.49090195 C48.47985475 166.41175471 48.49136914 168.33265943 48.49761391 170.25357437 C48.50725511 172.94687544 48.53531466 175.6394081 48.56762695 178.33251953 C48.56619186 179.12446213 48.56475677 179.91640472 48.5632782 180.73234558 C48.65770402 186.30745084 49.82253827 190.41073851 53.5078125 194.79296875 C54.04148437 195.25316406 54.57515625 195.71335937 55.125 196.1875 C55.90230469 196.88939453 55.90230469 196.88939453 56.6953125 197.60546875 C65.65596116 203.02742057 75.45257461 202.53884585 85.5625 202.6875 C90.986875 202.790625 96.41125 202.89375 102 203 C102 218.84 102 234.68 102 251 C95.02909894 251.09253408 88.0603846 251.17196016 81.08935547 251.21972656 C78.72502363 251.23966787 76.36073998 251.26683088 73.99658203 251.30175781 C51.24665066 251.62909495 31.48189892 249.91732202 14.21875 233.3828125 C4.49138548 222.93617103 -0.17286332 211.79164846 -0.12025452 197.57817078 C-0.12110894 196.73268687 -0.12196337 195.88720296 -0.12284368 195.01609832 C-0.12448999 192.18478288 -0.11899098 189.35352677 -0.11352539 186.5222168 C-0.11324331 184.49194846 -0.11340166 182.46168002 -0.1139679 180.43141174 C-0.11425505 174.919478 -0.10837143 169.40756597 -0.10139394 163.89563727 C-0.09514689 158.13540745 -0.09455553 152.37517714 -0.09336853 146.61494446 C-0.09025921 135.70698824 -0.08205118 124.79904203 -0.07201904 113.89109021 C-0.06084554 101.47283219 -0.05534433 89.05457369 -0.05032361 76.63631189 C-0.03986825 51.09086776 -0.02152771 25.54543736 0 0 Z " fill="#373736" transform="translate(1248,154)"/>
<path d="M0 0 C15.84 0 31.68 0 48 0 C48 17.49 48 34.98 48 53 C62.85 53 77.7 53 93 53 C93 68.51 93 84.02 93 100 C78.15 100 63.3 100 48 100 C48.06175585 115.09002838 48.06175585 115.09002838 48.16015625 130.1796875 C48.20843856 136.33756771 48.25250308 142.49526919 48.27099609 148.65332031 C48.2861819 153.62021597 48.32066183 158.58664287 48.36830902 163.55332947 C48.38310294 165.44461484 48.39103987 167.33596714 48.39188385 169.22731018 C48.39426127 171.88446551 48.42140238 174.54033352 48.45410156 177.19726562 C48.4490712 177.97266693 48.44404083 178.74806824 48.43885803 179.54696655 C48.5603325 185.96097674 50.47961356 191.25722653 54.859375 196.0234375 C55.48328125 196.46945312 56.1071875 196.91546875 56.75 197.375 C57.36359375 197.83648437 57.9771875 198.29796875 58.609375 198.7734375 C64.39087135 201.73976079 70.59646762 202.30574939 77 202.4140625 C77.96099609 202.44052856 77.96099609 202.44052856 78.94140625 202.4675293 C81.29403365 202.52974893 83.64704945 202.57651635 86 202.625 C91.28 202.74875 96.56 202.8725 102 203 C102 218.84 102 234.68 102 251 C95.17149919 251.09255498 88.34523328 251.17197389 81.51660156 251.21972656 C79.20077074 251.2396629 76.88498905 251.26682197 74.56933594 251.30175781 C52.74190786 251.62247197 32.83265744 250.22611292 16.25 234.28125 C15.13625 233.15203125 15.13625 233.15203125 14 232 C13.34 231.3503125 12.68 230.700625 12 230.03125 C-0.57379003 216.80709152 -0.29461147 200.30281358 -0.22705078 183.22998047 C-0.22648601 181.22853094 -0.22680452 179.227081 -0.22793579 177.22563171 C-0.22850771 171.81520274 -0.21677945 166.40486313 -0.20278788 160.99445486 C-0.19025368 155.33168591 -0.1891079 149.66891472 -0.18673706 144.00613403 C-0.18053019 133.29311728 -0.1641301 122.58014153 -0.14403808 111.8671428 C-0.1216544 99.66642325 -0.11067944 87.46570171 -0.10064721 75.26496673 C-0.07976317 50.17661654 -0.04309683 25.08832254 0 0 Z " fill="#373736" transform="translate(1906,154)"/>
<path d="M0 0 C3.4373169 1.25888876 6.21752045 2.68934145 9.15234375 4.87109375 C9.9218335 5.43989258 10.69132324 6.00869141 11.48413086 6.59472656 C12.29374268 7.2028418 13.10335449 7.81095703 13.9375 8.4375 C14.77998291 9.06495117 15.62246582 9.69240234 16.49047852 10.33886719 C27.93869815 18.89759314 39.07908774 27.77922976 50 37 C47.92105761 53.16610429 32.21425134 69.29922555 20 79 C18.9001442 79.90907153 17.80128089 80.81934446 16.703125 81.73046875 C-26.06440129 116.92044632 -80.52359853 137.27854043 -135 145 C-136.01964844 145.15210938 -137.03929687 145.30421875 -138.08984375 145.4609375 C-142.69558799 144.73143707 -145.73553558 142.04741076 -149.375 139.25 C-150.16084473 138.66379883 -150.94668945 138.07759766 -151.75634766 137.47363281 C-154.18050232 135.66148105 -156.59017818 133.8311475 -159 132 C-160.43622527 130.92537755 -161.87366836 129.85238022 -163.3125 128.78125 C-166.60082218 126.33042359 -169.87841812 123.86583757 -173.15136719 121.39453125 C-176.09604178 119.17319193 -179.0481976 116.96185313 -182 114.75 C-183.66666667 113.5 -185.33333333 112.25 -187 111 C-182.86248063 106.57400816 -178.27712618 103.10545257 -173.375 99.5625 C-171.68077159 98.32842422 -169.98676798 97.09403977 -168.29296875 95.859375 C-167.42333496 95.22708984 -166.55370117 94.59480469 -165.65771484 93.94335938 C-163.00570816 92.00417389 -160.36979673 90.04500721 -157.73828125 88.078125 C-156.89152832 87.44704834 -156.04477539 86.81597168 -155.17236328 86.16577148 C-153.55242913 84.95758518 -151.93479712 83.74630413 -150.31982422 82.53149414 C-142.50925373 76.72918623 -135.26182768 74.12901197 -125.875 71.75 C-78.14410344 59.22072274 -34.70474307 35.4082176 0 0 Z " fill="#ED6F0D" transform="translate(1098,400)"/>
<path d="M0 0 C0.93070313 0.80179688 1.86140625 1.60359375 2.8203125 2.4296875 C3.92860221 3.35053718 5.03944491 4.26831981 6.15234375 5.18359375 C7.05073975 5.93406982 7.05073975 5.93406982 7.96728516 6.69970703 C11.70542698 9.73285247 15.61911502 12.53162303 19.5078125 15.3671875 C21.13051989 16.56207701 22.75292145 17.75738197 24.375 18.953125 C27.18116579 21.01658524 29.99718556 23.06443998 32.828125 25.09375 C33.3945874 25.50488037 33.9610498 25.91601074 34.54467773 26.33959961 C36.02123645 27.41121125 37.50449762 28.47357097 38.98828125 29.53515625 C39.63410156 30.11910156 40.27992188 30.70304687 40.9453125 31.3046875 C40.9453125 32.2946875 40.9453125 33.2846875 40.9453125 34.3046875 C39.0423214 35.88482203 37.18082907 37.24656616 35.1328125 38.6171875 C33.84649129 39.50612913 32.56140202 40.39685522 31.27734375 41.2890625 C30.5807666 41.77052734 29.88418945 42.25199219 29.16650391 42.74804688 C25.16658953 45.55124033 21.24894402 48.46543729 17.3203125 51.3671875 C16.49708496 51.96635986 15.67385742 52.56553223 14.82568359 53.18286133 C11.41171307 55.67721276 8.04093464 58.14241566 4.91015625 60.98828125 C-2.20129786 67.19902099 -9.29036762 68.981333 -18.29467773 71.00463867 C-37.6671908 75.36549293 -56.24520106 82.58190827 -74.0546875 91.3046875 C-75.14934326 91.83763428 -75.14934326 91.83763428 -76.26611328 92.38134766 C-102.37414388 105.24421382 -124.87062114 123.57106172 -146.0546875 143.3046875 C-156.41916919 137.23210572 -165.67096958 129.76400571 -175.0546875 122.3046875 C-176.55322266 121.11552734 -176.55322266 121.11552734 -178.08203125 119.90234375 C-180.41202402 118.04350275 -182.73427737 116.17546799 -185.0546875 114.3046875 C-186.92918081 112.80405435 -188.80417792 111.30405031 -190.6796875 109.8046875 C-192.13802083 108.63802083 -193.59635417 107.47135417 -195.0546875 106.3046875 C-191.51587491 84.14689503 -170.03730224 66.95803096 -153.0546875 54.3046875 C-152.50087402 53.88477539 -151.94706055 53.46486328 -151.37646484 53.03222656 C-114.52272892 25.15526423 -69.54344834 8.91515478 -24.4921875 0.3671875 C-23.38029053 0.15537842 -22.26839355 -0.05643066 -21.12280273 -0.2746582 C-5.53034988 -3.06927346 -5.53034988 -3.06927346 0 0 Z " fill="#D4331F" transform="translate(1186.0546875,56.6953125)"/>
<path d="M0 0 C1.35047936 0.00561264 2.70096492 0.00987482 4.05145264 0.01286316 C7.56302505 0.0241811 11.07421028 0.05353107 14.58563232 0.0869751 C18.18594027 0.11796198 21.78631418 0.13159468 25.38671875 0.14648438 C32.41960997 0.17681599 39.45144552 0.23556576 46.484375 0.29296875 C46.484375 16.13296875 46.484375 31.97296875 46.484375 48.29296875 C25.109375 48.48046875 25.109375 48.48046875 18.42431641 48.50073242 C16.64482718 48.52721527 14.86536349 48.55550061 13.0859375 48.5859375 C12.18705811 48.58194946 11.28817871 48.57796143 10.36206055 48.57385254 C2.44936866 48.74857061 -4.40810078 51.10775642 -10.015625 56.85546875 C-12.63650381 61.11439682 -13.76576712 63.81845634 -13.7940979 68.89910889 C-13.80526138 70.04051834 -13.81642487 71.1819278 -13.82792664 72.35792542 C-13.83008682 73.60589401 -13.83224701 74.85386261 -13.83447266 76.13964844 C-13.84954109 78.11562263 -13.84954109 78.11562263 -13.86491394 80.1315155 C-13.89221361 83.74065531 -13.9073632 87.34975608 -13.92034197 90.95897198 C-13.93597268 94.73199121 -13.96276308 98.50493075 -13.9883728 102.27789307 C-14.03516167 109.42113048 -14.07190524 116.56438289 -14.10504568 123.70769525 C-14.14326631 131.84069338 -14.19267662 139.97361146 -14.24302983 148.10654211 C-14.34635133 164.83529899 -14.43413382 181.56408912 -14.515625 198.29296875 C-30.685625 198.29296875 -46.855625 198.29296875 -63.515625 198.29296875 C-63.58350527 179.10756852 -63.63870151 159.92226644 -63.67106152 140.73677635 C-63.68649026 131.82740333 -63.70750287 122.91811056 -63.74194336 114.00878906 C-63.77196858 106.23789812 -63.79122897 98.46706534 -63.79789048 90.696118 C-63.80178065 86.58646604 -63.81083847 82.47698038 -63.83281517 78.36738205 C-63.8533884 74.48829075 -63.8594174 70.60943205 -63.85494804 66.73029137 C-63.85576404 65.31710859 -63.86160442 63.90391689 -63.87324142 62.49078178 C-64.0106149 44.92669034 -60.94433414 30.46314832 -48.578125 17.60546875 C-34.92370522 4.1210128 -18.88307431 -0.22979474 0 0 Z " fill="#373736" transform="translate(1434.515625,206.70703125)"/>
</svg>
