<?xml version="1.0" encoding="UTF-8"?>
<svg version="1.1" xmlns="http://www.w3.org/2000/svg" width="512" height="512">
<path d="M0 0 C1.17033279 -0.00852997 2.34066559 -0.01705994 3.54646301 -0.02584839 C4.81671326 -0.02494202 6.0869635 -0.02403564 7.39570618 -0.02310181 C8.75804002 -0.02909167 10.12037049 -0.03589827 11.48269653 -0.04345703 C15.17306303 -0.0610817 18.8633367 -0.06581103 22.55374122 -0.0670886 C24.86382806 -0.06851323 27.17389153 -0.07278881 29.48397255 -0.07808304 C37.55612808 -0.09657451 45.62821767 -0.10475512 53.70039368 -0.10317993 C61.20305619 -0.10198008 68.70543031 -0.12305372 76.20801991 -0.15466726 C82.66602249 -0.18090111 89.12393133 -0.1915442 95.58198673 -0.19026911 C99.43158892 -0.18976139 103.28093491 -0.19533835 107.13048363 -0.21662521 C110.75612389 -0.23612702 114.38126678 -0.23605173 118.00692558 -0.22159195 C119.95497449 -0.21853581 121.90302409 -0.23509807 123.85099792 -0.25247192 C136.72088594 -0.16131836 146.37164754 3.77405702 156.03755188 12.26742554 C166.36199127 23.24312827 169.66979683 34.75390281 169.34223938 49.49398804 C168.74869138 61.97811755 162.75858056 72.21300888 153.66255188 80.64242554 C150.87867337 82.81769149 147.98103114 84.380191 144.81098938 85.93148804 C143.91557434 86.37186401 143.0201593 86.81223999 142.09761047 87.26596069 C141.41779114 87.59644409 140.7379718 87.92692749 140.03755188 88.26742554 C139.99114191 98.31644766 139.95563868 108.36544413 139.93392754 118.41455173 C139.9235055 123.08112445 139.90937518 127.74762364 139.88667297 132.41415405 C139.86488822 136.92047279 139.85297137 141.42672096 139.84779739 145.9330883 C139.84411174 147.64941455 139.83691462 149.36573708 139.82609177 151.08203316 C139.81150191 153.49230315 139.80957705 155.90228426 139.8105011 158.31259155 C139.79971527 159.36887756 139.79971527 159.36887756 139.78871155 160.44650269 C139.81311329 166.35695273 140.54893463 171.35348907 144.22505188 176.07992554 C150.08649167 180.63882315 156.35063859 180.54168802 163.47505188 180.39242554 C164.30198547 180.3834021 165.12891907 180.37437866 165.98091125 180.36508179 C167.99991896 180.34174066 170.01877544 180.30587842 172.03755188 180.26742554 C172.30567688 179.6499646 172.57380188 179.03250366 172.85005188 178.39633179 C178.59280366 165.98518731 187.63414449 157.12798077 200.60005188 152.32992554 C211.98223226 149.4253819 225.52933116 149.93110292 236.03755188 155.26742554 C244.75381264 160.56149169 251.21512962 166.32595396 255.70161438 175.49398804 C256.14199036 176.38940308 256.58236633 177.28481812 257.03608704 178.20736694 C257.36657043 178.88718628 257.69705383 179.56700562 258.03755188 180.26742554 C259.50055725 180.28144409 259.50055725 180.28144409 260.99311829 180.29574585 C285.6282726 180.571864 308.61697186 181.97582586 332.03755188 190.26742554 C333.11778625 190.63480835 334.19802063 191.00219116 335.31098938 191.38070679 C374.73130254 205.54281929 406.28063607 236.33159033 425.03755188 273.26742554 C425.53770813 274.23937866 426.03786438 275.21133179 426.55317688 276.21273804 C435.65517184 295.05041115 441.10500104 316.97362012 441.24287415 337.87460327 C441.25277374 338.81196823 441.26267334 339.74933319 441.27287292 340.71510315 C441.30429924 343.79371673 441.3291703 346.87234571 441.35395813 349.95101929 C441.37454397 352.09336229 441.39554086 354.23570138 441.41693115 356.3780365 C441.47198348 362.00200216 441.52146669 367.62600345 441.56977844 373.25003052 C441.62011679 378.9947932 441.67573834 384.73950449 441.73091125 390.48422241 C441.83828672 401.74524615 441.93977704 413.00631463 442.03755188 424.26742554 C442.72811172 424.60688202 443.41867157 424.9463385 444.13015747 425.29608154 C445.03392624 425.74343658 445.93769501 426.19079163 446.86885071 426.65170288 C447.76566055 427.09428436 448.6624704 427.53686584 449.5864563 427.99285889 C459.34123273 433.06533049 466.1709491 442.6113558 469.97505188 452.76742554 C472.84496415 463.97802036 472.73554215 478.05919507 467.03755188 488.26742554 C459.64250086 500.48678749 449.68152543 508.21092048 436.03755188 512.26742554 C433.14355946 512.52469444 433.14355946 512.52469444 430.07510376 512.53485107 C428.90477097 512.54338104 427.73443817 512.55191101 426.52864075 512.56069946 C425.2583905 512.55979309 423.98814026 512.55888672 422.67939758 512.55795288 C421.31706374 512.56394275 419.95473327 512.57074935 418.59240723 512.57830811 C414.90204073 512.59593278 411.21176706 512.6006621 407.52136254 512.60193968 C405.2112757 512.60336431 402.90121223 512.60763989 400.59113121 512.61293411 C392.51897568 512.63142558 384.44688609 512.63960619 376.37471008 512.63803101 C368.87204757 512.63683116 361.36967345 512.65790479 353.86708385 512.68951833 C347.40908127 512.71575219 340.95117243 512.72639527 334.49311703 512.72512019 C330.64351484 512.72461246 326.79416885 512.73018942 322.94462013 512.75147629 C319.31897987 512.7709781 315.69383698 512.7709028 312.06817818 512.75644302 C310.12012927 512.75338689 308.17207967 512.76994914 306.22410583 512.787323 C293.35421782 512.69616943 283.70345622 508.76079405 274.03755188 500.26742554 C263.71311249 489.29172281 260.40530693 477.78094827 260.73286438 463.04086304 C261.32641238 450.55673353 267.3165232 440.32184219 276.41255188 431.89242554 C279.19643039 429.71715958 282.09407261 428.15466007 285.26411438 426.60336304 C286.15952942 426.16298706 287.05494446 425.72261108 287.97749329 425.26889038 C288.65731262 424.93840698 289.33713196 424.60792358 290.03755188 424.26742554 C290.08396185 414.21840342 290.11946508 404.16940694 290.14117622 394.12029934 C290.15159826 389.45372663 290.16572858 384.78722743 290.18843079 380.12069702 C290.21021554 375.61437829 290.22213239 371.10813012 290.22730637 366.60176277 C290.23099202 364.88543653 290.23818914 363.16911399 290.24901199 361.45281792 C290.26360185 359.04254792 290.26552671 356.63256681 290.26460266 354.22225952 C290.27179321 353.51806885 290.27898376 352.81387817 290.28639221 352.08834839 C290.26199047 346.17789835 289.52616913 341.18136201 285.85005188 336.45492554 C279.98861209 331.89602792 273.72446517 331.99316305 266.60005188 332.14242554 C265.35965149 332.15596069 265.35965149 332.15596069 264.0941925 332.16976929 C262.0751848 332.19311042 260.05632832 332.22897265 258.03755188 332.26742554 C257.76942688 332.88488647 257.50130188 333.50234741 257.22505188 334.13851929 C251.4823001 346.54966377 242.44095927 355.40687031 229.47505188 360.20492554 C218.0928715 363.10946918 204.5457726 362.60374815 194.03755188 357.26742554 C185.32129112 351.97335938 178.85997414 346.20889711 174.37348938 337.04086304 C173.9331134 336.145448 173.49273743 335.25003296 173.03901672 334.32748413 C172.70853333 333.64766479 172.37804993 332.96784546 172.03755188 332.26742554 C170.57454651 332.25340698 170.57454651 332.25340698 169.08198547 332.23910522 C144.44683116 331.96298708 121.4581319 330.55902522 98.03755188 322.26742554 C96.41720032 321.71635132 96.41720032 321.71635132 94.76411438 321.15414429 C55.34380122 306.99203178 23.79446769 276.20326074 5.03755188 239.26742554 C4.53739563 238.29547241 4.03723938 237.32351929 3.52192688 236.32211304 C-5.58006808 217.48443993 -11.02989728 195.56123095 -11.16777039 174.6602478 C-11.17766998 173.72288284 -11.18756958 172.78551788 -11.19776917 171.81974792 C-11.22919548 168.74113434 -11.25406654 165.66250537 -11.27885437 162.58383179 C-11.29944021 160.44148878 -11.3204371 158.2991497 -11.34182739 156.15681458 C-11.39687972 150.53284891 -11.44636293 144.90884762 -11.49467468 139.28482056 C-11.54501303 133.54005787 -11.60063458 127.79534659 -11.6558075 122.05062866 C-11.76318296 110.78960492 -11.86467328 99.52853644 -11.96244812 88.26742554 C-12.99828789 87.75824081 -12.99828789 87.75824081 -14.05505371 87.23876953 C-14.95882248 86.79141449 -15.86259125 86.34405945 -16.79374695 85.88314819 C-17.69055679 85.44056671 -18.58736664 84.99798523 -19.51135254 84.54199219 C-29.26612897 79.46952059 -36.09584534 69.92349528 -39.89994812 59.76742554 C-42.76986039 48.55683072 -42.66043839 34.475656 -36.96244812 24.26742554 C-29.05806944 11.20646573 -15.98719371 0.05291784 0 0 Z M-5.77494812 34.70492554 C-9.71323675 39.31834936 -10.40790692 41.85760966 -10.27885437 47.75961304 C-9.81202795 51.45964467 -8.43681232 53.52556251 -5.96244812 56.26742554 C-1.22948838 59.78680586 3.36486225 60.39001528 9.14738464 60.40113831 C10.15384033 60.40540329 11.16029602 60.40966827 12.19725037 60.4140625 C13.2903653 60.41360931 14.38348022 60.41315613 15.50971985 60.41268921 C16.6696344 60.41604782 17.82954895 60.41940643 19.02461243 60.42286682 C22.85966563 60.43236713 26.69467514 60.43431945 30.52973938 60.43539429 C32.52224523 60.43779521 34.5147511 60.44019788 36.50725663 60.4428547 C42.77142728 60.45098887 49.03558358 60.45343988 55.29975891 60.45272827 C61.75095774 60.45212768 68.20207291 60.46267812 74.65325058 60.47847193 C80.20161419 60.49156895 85.74995053 60.49691126 91.29832947 60.49627286 C94.60783961 60.49601852 97.91725879 60.4997609 101.22675705 60.50945091 C104.92010688 60.51925266 108.61324152 60.51637189 112.30659485 60.51034546 C113.94019455 60.51877472 113.94019455 60.51877472 115.60679626 60.52737427 C125.46639396 60.52348308 125.46639396 60.52348308 133.85005188 55.82992554 C137.78834051 51.21650171 138.48301068 48.67724141 138.35395813 42.77523804 C137.88713171 39.07520641 136.51191608 37.00928857 134.03755188 34.26742554 C129.30459214 30.74804522 124.71024151 30.14483579 118.92771912 30.13371277 C117.92126343 30.12944778 116.91480774 30.1251828 115.87785339 30.12078857 C114.78473846 30.12124176 113.69162354 30.12169495 112.56538391 30.12216187 C111.40546936 30.11880325 110.24555481 30.11544464 109.05049133 30.11198425 C105.21543813 30.10248394 101.38042862 30.10053163 97.54536438 30.09945679 C95.55285853 30.09705586 93.56035266 30.09465319 91.56784713 30.09199637 C85.30367647 30.08386221 79.03952018 30.08141119 72.77534485 30.0821228 C66.32414602 30.08272339 59.87303085 30.07217295 53.42185318 30.05637914 C47.87348957 30.04328212 42.32515323 30.03793981 36.77677429 30.03857821 C33.46726415 30.03883256 30.15784497 30.03509017 26.84834671 30.02540016 C23.15499688 30.01559842 19.46186224 30.01847919 15.76850891 30.02450562 C14.67944244 30.01888611 13.59037598 30.0132666 12.4683075 30.00747681 C2.6087098 30.011368 2.6087098 30.011368 -5.77494812 34.70492554 Z M19.03755188 90.26742554 C19.01692688 102.47742554 18.99630188 114.68742554 18.97505188 127.26742554 C18.96594788 131.08949585 18.95684387 134.91156616 18.94746399 138.84945679 C18.94411478 142.3459163 18.94411478 142.3459163 18.94210815 145.84237671 C18.94059596 147.37167657 18.93712916 148.90097541 18.93197632 150.43026733 C18.85014101 171.3739832 18.85014101 171.3739832 21.66255188 192.07992554 C21.83440002 192.91048462 22.00624817 193.7410437 22.18330383 194.59677124 C29.48537972 227.76154064 49.50319842 258.6936702 77.97724915 277.52938843 C79.98119325 278.80436051 82.00181378 280.04392142 84.03755188 281.26742554 C84.70335266 281.6704187 85.36915344 282.07341187 86.05513 282.48861694 C112.40140317 298.12775455 139.89164046 301.26742554 170.03755188 301.26742554 C170.03755188 271.56742554 170.03755188 241.86742554 170.03755188 211.26742554 C157.16755188 210.77242554 157.16755188 210.77242554 144.03755188 210.26742554 C129.10033195 204.8357092 119.86061554 198.55491529 112.89692688 184.32211304 C110.5437364 178.69584852 109.73554609 173.77123733 109.71870422 167.69174194 C109.70855097 166.83857077 109.69839771 165.98539959 109.68793678 165.10637474 C109.65744299 162.36058315 109.64018543 159.61489449 109.62348938 156.86898804 C109.60654352 155.16740031 109.58872563 153.46582103 109.57002258 151.76425171 C109.50697327 145.47373995 109.46077443 139.18306842 109.41255188 132.89242554 C109.28880188 118.82617554 109.16505188 104.75992554 109.03755188 90.26742554 C79.33755188 90.26742554 49.63755188 90.26742554 19.03755188 90.26742554 Z M204.03755188 186.26742554 C200.51817156 191.00038528 199.91496213 195.59473591 199.90383911 201.3772583 C199.89957413 202.38371399 199.89530914 203.39016968 199.89091492 204.42712402 C199.8913681 205.52023895 199.89182129 206.61335388 199.89228821 207.73959351 C199.8889296 208.89950806 199.88557098 210.05942261 199.8821106 211.25448608 C199.87261029 215.08953929 199.87065797 218.9245488 199.86958313 222.75961304 C199.8671822 224.75211889 199.86477954 226.74462475 199.86212271 228.73713028 C199.85398855 235.00130094 199.85153753 241.26545724 199.85224915 247.52963257 C199.85284973 253.9808314 199.84229929 260.43194657 199.82650548 266.88312423 C199.81340846 272.43148785 199.80806615 277.97982418 199.80870456 283.52820313 C199.8089589 286.83771326 199.80521651 290.14713245 199.7955265 293.45663071 C199.78572476 297.14998054 199.78860553 300.84311518 199.79463196 304.53646851 C199.78901245 305.62553497 199.78339294 306.71460144 199.77760315 307.83666992 C199.78149434 317.69626762 199.78149434 317.69626762 204.47505188 326.07992554 C209.08847571 330.01821417 211.62773601 330.71288434 217.52973938 330.58383179 C221.22977101 330.11700537 223.29568885 328.74178973 226.03755188 326.26742554 C229.5569322 321.53446579 230.16014163 316.94011517 230.17126465 311.15759277 C230.17552963 310.15113708 230.17979462 309.1446814 230.18418884 308.10772705 C230.18350906 306.46805466 230.18350906 306.46805466 230.18281555 304.79525757 C230.18617416 303.63534302 230.18953278 302.47542847 230.19299316 301.28036499 C230.20249347 297.44531178 230.20444579 293.61030228 230.20552063 289.77523804 C230.20792156 287.78273218 230.21032422 285.79022632 230.21298105 283.79772079 C230.22111521 277.53355013 230.22356623 271.26939384 230.22285461 265.00521851 C230.22225403 258.55401967 230.23280447 252.10290451 230.24859828 245.65172684 C230.2616953 240.10336323 230.26703761 234.55502689 230.2663992 229.00664794 C230.26614486 225.69713781 230.26988725 222.38771863 230.27957726 219.07822037 C230.289379 215.38487054 230.28649823 211.6917359 230.2804718 207.99838257 C230.28609131 206.9093161 230.29171082 205.82024963 230.29750061 204.69818115 C230.29360942 194.83858346 230.29360942 194.83858346 225.60005188 186.45492554 C220.98662805 182.5166369 218.44736775 181.82196674 212.54536438 181.95101929 C208.84533275 182.41784571 206.77941491 183.79306134 204.03755188 186.26742554 Z M260.03755188 211.26742554 C260.03755188 240.96742554 260.03755188 270.66742554 260.03755188 301.26742554 C272.90755188 301.76242554 272.90755188 301.76242554 286.03755188 302.26742554 C300.97477181 307.69914188 310.21448822 313.97993578 317.17817688 328.21273804 C319.53136736 333.83900256 320.33955767 338.76361375 320.35639954 344.84310913 C320.36655279 345.69628031 320.37670605 346.54945148 320.38716698 347.42847633 C320.41766077 350.17426792 320.43491833 352.91995659 320.45161438 355.66586304 C320.46856024 357.36745077 320.48637813 359.06903004 320.50508118 360.77059937 C320.56813049 367.06111112 320.61432933 373.35178265 320.66255188 379.64242554 C320.78630188 393.70867554 320.91005188 407.77492554 321.03755188 422.26742554 C350.73755188 422.26742554 380.43755188 422.26742554 411.03755188 422.26742554 C411.05817688 410.05742554 411.07880188 397.84742554 411.10005188 385.26742554 C411.10915588 381.44535522 411.11825989 377.62328491 411.12763977 373.68539429 C411.13098898 370.18893477 411.13098898 370.18893477 411.13299561 366.69247437 C411.1345078 365.16317451 411.1379746 363.63387566 411.14312744 362.10458374 C411.22496275 341.16086788 411.22496275 341.16086788 408.41255188 320.45492554 C408.24070374 319.62436646 408.06885559 318.79380737 407.89179993 317.93807983 C400.58972404 284.77331044 380.57190534 253.84118087 352.09785461 235.00546265 C350.09391051 233.73049057 348.07328998 232.49092966 346.03755188 231.26742554 C345.03885071 230.66293579 345.03885071 230.66293579 344.01997375 230.04623413 C317.67370059 214.40709653 290.1834633 211.26742554 260.03755188 211.26742554 Z M296.22505188 456.70492554 C292.28676325 461.31834936 291.59209308 463.85760966 291.72114563 469.75961304 C292.18797205 473.45964467 293.56318768 475.52556251 296.03755188 478.26742554 C300.77051162 481.78680586 305.36486225 482.39001528 311.14738464 482.40113831 C312.15384033 482.40540329 313.16029602 482.40966827 314.19725037 482.4140625 C315.2903653 482.41360931 316.38348022 482.41315613 317.50971985 482.41268921 C318.6696344 482.41604782 319.82954895 482.41940643 321.02461243 482.42286682 C324.85966563 482.43236713 328.69467514 482.43431945 332.52973938 482.43539429 C334.52224523 482.43779521 336.5147511 482.44019788 338.50725663 482.4428547 C344.77142728 482.45098887 351.03558358 482.45343988 357.29975891 482.45272827 C363.75095774 482.45212768 370.20207291 482.46267812 376.65325058 482.47847193 C382.20161419 482.49156895 387.74995053 482.49691126 393.29832947 482.49627286 C396.60783961 482.49601852 399.91725879 482.4997609 403.22675705 482.50945091 C406.92010688 482.51925266 410.61324152 482.51637189 414.30659485 482.51034546 C415.94019455 482.51877472 415.94019455 482.51877472 417.60679626 482.52737427 C427.46639396 482.52348308 427.46639396 482.52348308 435.85005188 477.82992554 C439.78834051 473.21650171 440.48301068 470.67724141 440.35395813 464.77523804 C439.88713171 461.07520641 438.51191608 459.00928857 436.03755188 456.26742554 C431.30459214 452.74804522 426.71024151 452.14483579 420.92771912 452.13371277 C419.92126343 452.12944778 418.91480774 452.1251828 417.87785339 452.12078857 C416.78473846 452.12124176 415.69162354 452.12169495 414.56538391 452.12216187 C413.40546936 452.11880325 412.24555481 452.11544464 411.05049133 452.11198425 C407.21543813 452.10248394 403.38042862 452.10053163 399.54536438 452.09945679 C397.55285853 452.09705586 395.56035266 452.09465319 393.56784713 452.09199637 C387.30367647 452.08386221 381.03952018 452.08141119 374.77534485 452.0821228 C368.32414602 452.08272339 361.87303085 452.07217295 355.42185318 452.05637914 C349.87348957 452.04328212 344.32515323 452.03793981 338.77677429 452.03857821 C335.46726415 452.03883256 332.15784497 452.03509017 328.84834671 452.02540016 C325.15499688 452.01559842 321.46186224 452.01847919 317.76850891 452.02450562 C316.67944244 452.01888611 315.59037598 452.0132666 314.4683075 452.00747681 C304.6087098 452.011368 304.6087098 452.011368 296.22505188 456.70492554 Z " fill="#000000" transform="translate(40.96244812011719,-0.267425537109375)"/>
</svg>
