<?xml version="1.0" encoding="UTF-8"?>
<svg version="1.1" xmlns="http://www.w3.org/2000/svg" width="512" height="512">
<path d="M0 0 C7.58992287 4.5928764 12.13314498 10.80502419 14.28515625 19.3828125 C14.19605492 21.13464374 14.096829 22.88598487 13.98828125 24.63671875 C14.33261655 28.68291296 14.86987436 30.00398798 17.91040039 32.77758789 C21.64103033 35.31234552 25.61823843 37.3962572 29.59765625 39.5078125 C31.06424898 40.32448085 32.5284192 41.14551355 33.99023438 41.97070312 C36.97703666 43.65356423 39.97246023 45.31920736 42.97509766 46.97363281 C49.19373478 50.42224843 55.23325667 54.15210513 61.28515625 57.8828125 C63.5599354 59.27167161 65.83552174 60.6590215 68.11328125 62.04296875 C68.97070168 62.56412514 68.97070168 62.56412514 69.84544373 63.09580994 C77.20772411 67.56145541 84.62427815 71.93600127 92.03515625 76.3203125 C107.94170352 85.73106977 107.94170352 85.73106977 115.28515625 90.3828125 C120.49051218 93.67335041 125.74489083 96.85827351 131.06640625 99.95703125 C132.50931555 100.80369406 133.95201869 101.65070829 135.39453125 102.49804688 C138.26411348 104.18204861 141.13997848 105.8546044 144.01953125 107.52148438 C162.34002148 118.19543408 162.34002148 118.19543408 163.95581055 123.64453125 C164.49846504 130.91624476 161.16933001 136.47751665 157.59765625 142.5703125 C156.71460815 144.13616089 156.71460815 144.13616089 155.8137207 145.73364258 C153.98930254 148.96093603 152.13804416 152.17180246 150.28515625 155.3828125 C149.21745769 157.26676119 148.15224478 159.15212134 147.08984375 161.0390625 C144.97483699 164.79461062 142.85135123 168.54516398 140.72265625 172.29296875 C136.92259676 179.00368866 133.19310464 185.75277835 129.47265625 192.5078125 C129.13761078 193.11611908 128.80256531 193.72442566 128.45736694 194.35116577 C126.74869614 197.45409558 125.04091169 200.55751218 123.33349609 203.66113281 C121.31608195 207.32761066 119.29533649 210.99224378 117.2734375 214.65625 C116.94372452 215.25375565 116.61401154 215.85126129 116.27430725 216.46687317 C114.94838398 218.86951497 113.62231036 221.27207371 112.29605103 223.67453003 C108.86894223 229.88261256 105.44367127 236.09166781 102.02923584 242.30673218 C100.58735341 244.93093249 99.14406874 247.55436037 97.70068359 250.17773438 C97.01964771 251.41644629 96.33928255 252.65552725 95.65966797 253.89501953 C83.10072417 276.79884922 83.10072417 276.79884922 78.28515625 279.3828125 C67.42434004 281.55497574 54.48196394 270.01609192 45.34765625 264.5703125 C43.93196973 263.72802132 42.51627956 262.88573627 41.10058594 262.04345703 C26.86984502 253.56813684 12.71831653 244.96387779 -1.42333984 236.34106445 C-5.43595519 233.8946413 -9.44965892 231.4500164 -13.46484375 229.0078125 C-14.03127594 228.66321991 -14.59770813 228.31862732 -15.18130493 227.96359253 C-26.27728664 221.21774113 -37.43770338 214.58178504 -48.61816406 207.97705078 C-56.7040049 203.19660045 -64.73283957 198.33504022 -72.71484375 193.3828125 C-79.66568631 204.9309392 -86.17909555 216.67884567 -92.56640625 228.546875 C-96.40848188 235.68413622 -100.34712261 242.76556482 -104.29833984 249.84277344 C-107.17330065 254.9980806 -110.03658121 260.1598885 -112.90234375 265.3203125 C-114.19916263 267.65497912 -115.49602091 269.98962378 -116.79296875 272.32421875 C-117.11822037 272.90970993 -117.44347198 273.49520111 -117.77857971 274.09843445 C-120.00102209 278.09878941 -122.22485377 282.0983699 -124.44921875 286.09765625 C-125.06071777 287.19746826 -125.6722168 288.29728027 -126.30224609 289.43041992 C-127.53395452 291.64564217 -128.76604985 293.86064934 -129.99853516 296.07543945 C-133.35337439 302.11002131 -136.68940317 308.1541394 -140.00390625 314.2109375 C-141.08007886 316.17402432 -142.15649445 318.13697776 -143.23294067 320.09991455 C-144.24546895 321.94958415 -145.25353364 323.80163651 -146.26147461 325.65380859 C-156.49861052 344.32362198 -156.49861052 344.32362198 -161.71484375 346.3828125 C-167.52680295 347.23212459 -171.24796529 344.85274325 -176.08984375 342.0078125 C-176.8698877 341.56026611 -177.64993164 341.11271973 -178.45361328 340.65161133 C-180.88468898 339.24604595 -183.30116254 337.81801395 -185.71484375 336.3828125 C-186.48441406 335.92922363 -187.25398438 335.47563477 -188.046875 335.00830078 C-190.23713749 333.71031492 -192.41577855 332.39522056 -194.58984375 331.0703125 C-195.24903809 330.67473145 -195.90823242 330.27915039 -196.58740234 329.87158203 C-200.37735713 327.51090244 -203.44420589 325.33646084 -205.71484375 321.3828125 C-207.1221226 313.51759143 -203.33886983 308.01224411 -199.52734375 301.3203125 C-198.57710327 299.60545654 -198.57710327 299.60545654 -197.60766602 297.85595703 C-195.66500292 294.35248063 -193.69151897 290.86721448 -191.71484375 287.3828125 C-190.59221261 285.39205976 -189.46980368 283.40118169 -188.34765625 281.41015625 C-186.75213607 278.58455399 -185.15393068 275.76060074 -183.54882812 272.94042969 C-179.04605303 265.02090726 -174.69794339 257.02301073 -170.37426758 249.00463867 C-166.02456247 240.94050483 -161.59772807 232.92279286 -157.13134766 224.92285156 C-154.25638685 219.7675444 -151.39310629 214.6057365 -148.52734375 209.4453125 C-147.23052487 207.11064588 -145.93366659 204.77600122 -144.63671875 202.44140625 C-144.31146713 201.85591507 -143.98621552 201.27042389 -143.65110779 200.66719055 C-141.42866541 196.66683559 -139.20483373 192.6672551 -136.98046875 188.66796875 C-130.19980146 176.47421633 -123.43958862 164.26951837 -116.7048645 152.050354 C-111.27758005 142.20401646 -105.82436334 132.37234877 -100.359375 122.546875 C-95.79400142 114.33494517 -91.25001474 106.11144077 -86.71484375 97.8828125 C-80.95445815 87.43115105 -75.17137019 76.99242479 -69.36816406 66.56445312 C-65.75053469 60.05995171 -62.15050032 53.54617022 -58.56651306 47.02310181 C-54.96420262 40.46804228 -51.34191658 33.92420184 -47.71484375 27.3828125 C-46.8937915 25.89442871 -46.8937915 25.89442871 -46.05615234 24.37597656 C-44.60071689 21.74600332 -43.12975825 19.12548526 -41.65234375 16.5078125 C-41.24790039 15.77175781 -40.84345703 15.03570312 -40.42675781 14.27734375 C-36.35149246 7.14142981 -31.08546523 1.10798467 -23.296875 -1.95703125 C-15.44490566 -3.96456955 -7.35252273 -3.41922195 0 0 Z M-19.01782227 21.47363281 C-22.39952283 25.27810676 -24.53202183 29.89967844 -26.83322144 34.40866089 C-28.45734275 37.58965396 -30.12541223 40.74765107 -31.78515625 43.91015625 C-32.11867599 44.54887161 -32.45219574 45.18758698 -32.79582214 45.84565735 C-35.79289241 51.57410131 -38.94327556 57.20795969 -42.15234375 62.8203125 C-47.01048719 71.34678881 -51.79375912 79.91177906 -56.52734375 88.5078125 C-56.86223816 89.11581696 -57.19713257 89.72382141 -57.54217529 90.35025024 C-59.24959502 93.45052191 -60.95612842 96.55128017 -62.66210938 99.65234375 C-66.02960608 105.77317485 -69.40317886 111.89065548 -72.77734375 118.0078125 C-73.27435287 118.90901825 -73.27435287 118.90901825 -73.78140259 119.82843018 C-79.19108483 129.6365345 -84.62603797 139.43042205 -90.07055664 149.21923828 C-94.63589335 157.4309814 -99.1796636 165.65439651 -103.71484375 173.8828125 C-111.96347367 188.84762451 -120.26307613 203.78390011 -128.56933594 218.71679688 C-135.97500967 232.03220604 -143.36384432 245.35657358 -150.71676636 258.70117188 C-154.39143096 265.37010318 -158.0727615 272.03513152 -161.77734375 278.6875 C-162.27288002 279.57736855 -162.27288002 279.57736855 -162.77842712 280.48521423 C-163.75722743 282.24274991 -164.73603554 284.00028123 -165.71484375 285.7578125 C-170.81308846 294.91563607 -175.84784996 304.09976045 -180.71484375 313.3828125 C-177.08484375 315.6928125 -173.45484375 318.0028125 -169.71484375 320.3828125 C-166.85886065 317.5268294 -165.39577748 315.27418101 -163.484375 311.765625 C-162.8545874 310.61626465 -162.2247998 309.4669043 -161.57592773 308.28271484 C-160.89303195 307.02443276 -160.2101716 305.76613145 -159.52734375 304.5078125 C-158.81313484 303.201032 -158.09836303 301.894559 -157.38305664 300.58837891 C-155.89606101 297.8719706 -154.41150354 295.15425161 -152.92871094 292.43554688 C-149.85221954 286.79861637 -146.74911967 281.1764108 -143.6446228 275.55487061 C-142.64511471 273.74472041 -141.64633385 271.93417058 -140.64770508 270.12353516 C-135.57072733 260.92045382 -130.4680309 251.73178706 -125.35913086 242.54638672 C-120.79379415 234.3346436 -116.2500239 226.11122849 -111.71484375 217.8828125 C-103.46621383 202.91800049 -95.16661137 187.98172489 -86.86035156 173.04882812 C-79.45204373 159.72868285 -72.06200876 146.39880797 -64.7048645 133.050354 C-59.27758005 123.20401646 -53.82436334 113.37234877 -48.359375 103.546875 C-43.45859014 94.73162677 -38.58204538 85.90321087 -33.71566772 77.06893921 C-30.00800096 70.33816615 -26.29099267 63.61292168 -22.546875 56.90234375 C-22.20719696 56.29305023 -21.86751892 55.68375671 -21.51754761 55.05599976 C-19.90561188 52.16474535 -18.29169148 49.2746645 -16.67382812 46.38671875 C-15.00442839 43.39408244 -13.35550176 40.39128274 -11.71484375 37.3828125 C-11.19712402 36.4551709 -10.6794043 35.5275293 -10.14599609 34.57177734 C-9.67758301 33.69859863 -9.20916992 32.82541992 -8.7265625 31.92578125 C-8.10527466 30.78725708 -8.10527466 30.78725708 -7.47143555 29.62573242 C-6.52473562 26.81923605 -6.86098693 25.18825789 -7.71484375 22.3828125 C-9.16293245 20.45202757 -10.42462672 19.54293224 -12.52734375 18.3828125 C-15.44769616 18.3828125 -16.86314528 19.6033012 -19.01782227 21.47363281 Z M5.28515625 50.3828125 C-3.82882515 66.4009664 -12.77916773 82.50538637 -21.66210938 98.65234375 C-24.69747429 104.1694853 -27.73779403 109.68389322 -30.77911377 115.19775391 C-31.77023876 116.99492925 -32.76085997 118.79238167 -33.75146484 120.58984375 C-37.15856185 126.76918284 -40.57943588 132.94052763 -44.01953125 139.1015625 C-44.71997903 140.35725447 -45.42041861 141.61295101 -46.12084961 142.86865234 C-47.44690387 145.24562326 -48.77635928 147.62058436 -50.10766602 149.99462891 C-50.9940979 151.58283447 -50.9940979 151.58283447 -51.8984375 153.203125 C-52.41978271 154.13398926 -52.94112793 155.06485352 -53.47827148 156.02392578 C-54.81917562 158.42849487 -54.81917562 158.42849487 -55.71484375 161.3828125 C-47.19036716 160.05161628 -38.7809921 158.3852774 -30.36010742 156.51293945 C-28.44244316 156.09045677 -28.44244316 156.09045677 -26.48603821 155.65943909 C-23.00895156 154.89330386 -19.53271608 154.12337141 -16.05663848 153.35267282 C-12.37476811 152.53700877 -8.69213559 151.72479946 -5.00959778 150.91215515 C1.191728 149.54317517 7.39254805 148.17192499 13.59301758 146.79907227 C21.44949542 145.0595677 29.30672542 143.32348762 37.16423512 141.5886507 C44.0223884 140.07445647 50.88024336 138.55891268 57.73802352 137.04302955 C59.18359571 136.72350661 60.62917648 136.40402247 62.0747664 136.08457971 C82.49094875 131.57299289 102.89380263 127.00538941 123.28515625 122.3828125 C123.28515625 121.7228125 123.28515625 121.0628125 123.28515625 120.3828125 C120.95819661 118.74677351 120.95819661 118.74677351 117.92578125 117.06640625 C117.35879013 116.7384758 116.79179901 116.41054535 116.20762634 116.07267761 C114.97204207 115.35881205 113.73455799 114.64822729 112.49545288 113.94049072 C109.14668919 112.02689658 105.81244017 110.08828502 102.4765625 108.15234375 C101.78923538 107.754245 101.10190826 107.35614624 100.39375305 106.94598389 C93.69597463 103.05906883 87.07964999 99.04695603 80.47265625 95.0078125 C69.74707628 88.45759529 58.95877371 82.02007538 48.1394043 75.62609863 C37.40080248 69.27652667 26.7478966 62.79986976 16.16552734 56.19311523 C15.16730957 55.57251221 14.1690918 54.95190918 13.140625 54.3125 C12.27074951 53.76835449 11.40087402 53.22420898 10.50463867 52.66357422 C8.23383054 51.25444681 8.23383054 51.25444681 5.28515625 50.3828125 Z M123.87963867 143.28239441 C122.97643481 143.48235079 122.07323095 143.68230717 121.14265728 143.88832283 C120.15198663 144.111043 119.16131598 144.33376316 118.140625 144.56323242 C117.09278493 144.79616438 116.04494486 145.02909634 114.96535206 145.26908684 C111.46711534 146.04750386 107.96989991 146.83041574 104.47265625 147.61328125 C102.01143305 148.16178681 99.55014337 148.70999414 97.08879089 149.25791931 C91.86196582 150.42205429 86.63555322 151.58801405 81.40951538 152.75567627 C73.31839579 154.56344175 65.22632526 156.36692474 57.1340332 158.16943359 C55.12595762 158.61674516 53.11788326 159.06406225 51.1098091 159.5113802 C49.77779294 159.808098 48.4457754 160.10480962 47.11375648 160.40151501 C42.48290972 161.43306734 37.85218915 162.46518487 33.22151184 163.49749756 C13.64447357 167.8612662 -5.93775061 172.20077077 -25.52734375 176.5078125 C-26.73140869 176.77266449 -27.93547363 177.03751648 -29.17602539 177.31039429 C-35.35527677 178.66948632 -41.5348312 180.0271859 -47.71484375 181.3828125 C-44.8366733 184.47181781 -41.93765906 186.65130472 -38.32421875 188.82421875 C-37.23882812 189.48035156 -36.1534375 190.13648438 -35.03515625 190.8125 C-33.84514641 191.52359538 -32.65503929 192.23452798 -31.46484375 192.9453125 C-30.21720013 193.69620303 -28.96980963 194.44751427 -27.72265625 195.19921875 C-17.06563871 201.61252823 -6.36144595 207.94743438 4.34106445 214.28442383 C14.31480436 220.19313727 24.23682119 226.18279614 34.13769531 232.21264648 C45.81969796 239.32603708 57.54809074 246.36070272 69.28515625 253.3828125 C72.36929542 250.54042 74.33903965 247.8217266 76.28125 244.11328125 C76.83304932 243.07155762 77.38484863 242.02983398 77.95336914 240.95654297 C78.53723389 239.83908691 79.12109863 238.72163086 79.72265625 237.5703125 C80.97846736 235.20072731 82.23584357 232.83206203 83.49609375 230.46484375 C83.81387283 229.86667847 84.13165192 229.26851318 84.45906067 228.65222168 C87.48950573 222.96350588 90.6522569 217.35501132 93.84765625 211.7578125 C98.25842831 204.01707129 102.5634198 196.22825364 106.78515625 188.3828125 C112.19612225 178.32918015 117.76518632 168.37309035 123.41015625 158.44921875 C123.8896875 157.60375488 124.36921875 156.75829102 124.86328125 155.88720703 C125.8280192 154.18798281 126.79691186 152.49111201 127.76953125 150.79638672 C128.2284375 149.98830566 128.68734375 149.18022461 129.16015625 148.34765625 C129.57007813 147.63085693 129.98 146.91405762 130.40234375 146.17553711 C131.43241653 144.41682219 131.43241653 144.41682219 131.28515625 142.3828125 C128.57240414 142.3828125 126.50649909 142.69610314 123.87963867 143.28239441 Z " fill="#000000" transform="translate(348.71484375,85.6171875)"/>
<path d="M0 0 C7.27659139 5.34178492 11.48180728 11.39584173 15.625 19.3125 C16.83830297 21.55351466 18.05185299 23.79439559 19.265625 26.03515625 C19.88115234 27.1864502 20.49667969 28.33774414 21.13085938 29.52392578 C24.14805339 35.13505541 27.26788106 40.68834297 30.375 46.25 C32.58300511 50.22504912 34.78728893 54.20215635 36.9911499 58.17950439 C38.04539348 60.08191369 39.1000887 61.98407222 40.15478516 63.88623047 C41.98135711 67.18115062 43.80584898 70.47721558 45.62896729 73.77404785 C46.32500544 75.03223825 47.0215644 76.29014071 47.71868896 77.54772949 C59.01234808 97.92591155 59.01234808 97.92591155 58 104 C55.93533693 107.59650987 54.78904611 109.45882947 50.8046875 110.6640625 C46.59853165 111.26097571 43.62135764 111.45813367 40 109 C38.3515625 106.875 38.3515625 106.875 36.625 104 C36.12842896 103.17314697 36.12842896 103.17314697 35.62182617 102.32958984 C31.34897796 95.08609479 27.44887904 87.62659897 23.48901367 80.20947266 C19.06349027 71.92900667 14.50421655 63.73694093 9.84301758 55.5871582 C6.97453063 50.55404023 4.18037204 45.49277424 1.47265625 40.37109375 C0.89136963 39.27555176 0.31008301 38.18000977 -0.28881836 37.05126953 C-1.40215805 34.94404107 -2.50634955 32.83194517 -3.59985352 30.71435547 C-7.18318437 23.92567802 -7.18318437 23.92567802 -13 19 C-16.65316671 20.24976756 -17.78065836 20.67098753 -20 24 C-19.69789799 28.64230096 -18.19186904 31.96261675 -15.9296875 35.98046875 C-15.28837891 37.1303125 -14.64707031 38.28015625 -13.98632812 39.46484375 C-13.28266217 40.7057916 -12.57888309 41.9466753 -11.875 43.1875 C-11.14690513 44.48648557 -10.4197055 45.78597329 -9.69335938 47.0859375 C-8.19805022 49.75947731 -6.69815877 52.43036109 -5.19433594 55.09912109 C-1.93617566 60.88457438 1.27938648 66.69358055 4.5 72.5 C5.73172002 74.71487201 6.96349133 76.92971549 8.1953125 79.14453125 C10.86503784 83.94989759 13.52580241 88.76009512 16.1796875 93.57421875 C16.52827316 94.2063327 16.87685883 94.83844666 17.23600769 95.48971558 C18.9631947 98.62266865 20.68792738 101.75693501 22.40844727 104.89355469 C25.20536068 109.98611015 28.01114614 115.06713167 30.97265625 120.06640625 C31.39820801 120.79126221 31.82375977 121.51611816 32.26220703 122.26293945 C33.32707746 124.06330929 34.41053829 125.85265131 35.49609375 127.640625 C37.32063698 131.71622805 38.06323169 135.5321675 38 140 C36.43818681 143.670261 35.34089404 144.7727373 32 147 C29.94921875 147.37109375 29.94921875 147.37109375 27.6875 147.4375 C26.94886719 147.47746094 26.21023437 147.51742187 25.44921875 147.55859375 C20.6149922 146.45605085 17.99327909 143.55784106 15.42016602 139.5222168 C13.69082048 136.4216556 12.05379709 133.28595266 10.4375 130.125 C9.51344023 128.36232561 8.58934366 126.59966814 7.66212463 124.83865356 C7.03156926 123.64102162 6.40237423 122.4426725 5.77452087 121.24362183 C2.7860193 115.54879939 -0.36960905 109.95696016 -3.5625 104.375 C-8.59702515 95.53969172 -13.48352608 86.63290911 -18.30761719 77.68115234 C-23.12641537 68.74315436 -28.04309549 59.86200536 -33 51 C-38.79468379 53.64661038 -44.25491621 56.70591271 -49.625 60.125 C-57.73038862 65.27886063 -65.98266586 70.17505944 -74.25 75.0625 C-84.57729266 81.17175297 -94.87663872 87.32168935 -105.125 93.5625 C-124.79297109 105.52763262 -124.79297109 105.52763262 -133.59222412 110.83493042 C-134.93975546 111.64868883 -136.28632615 112.46404028 -137.63189697 113.28103638 C-139.49432138 114.41155054 -141.35998484 115.53651676 -143.2265625 116.66015625 C-144.29471191 117.30605713 -145.36286133 117.95195801 -146.46337891 118.61743164 C-149 120 -149 120 -151 120 C-151 120.66 -151 121.32 -151 122 C-149.72582214 122.1204921 -148.45164429 122.24098419 -147.13885498 122.36512756 C-141.92876087 122.94731458 -136.88748393 124.00233307 -131.77832031 125.15795898 C-130.30469528 125.48521217 -130.30469528 125.48521217 -128.80130005 125.81907654 C-125.55921679 126.54023424 -122.31868972 127.26814555 -119.078125 127.99609375 C-116.77749882 128.50921594 -114.47677661 129.02190777 -112.17596436 129.53419495 C-106.09646616 130.88901002 -100.01825483 132.24951334 -93.94030762 133.61126709 C-86.74193177 135.22293084 -79.54201856 136.82770924 -72.34235382 138.43360329 C-66.44538707 139.74924399 -60.54883782 141.06669874 -54.65319824 142.38827515 C-43.32794061 144.92590104 -31.99901235 147.44337397 -20.65820312 149.91064453 C-17.54538058 150.59088633 -14.43268482 151.27170515 -11.32003021 151.95271492 C-9.36844243 152.37784366 -7.41622778 152.80010628 -5.46335602 153.21929741 C-2.79136469 153.79287892 -0.12162564 154.37602917 2.54785156 154.96118164 C3.70974125 155.20617873 3.70974125 155.20617873 4.89510345 155.45612526 C10.07550148 156.60498745 14.78273164 158.07836742 18.875 161.625 C20.65007411 165.37237868 20.79535729 168.94367783 20 173 C17.81840855 175.75569447 16.12822506 177.43588747 13 179 C8.17703287 179.21806586 3.90902095 178.72976196 -0.79296875 177.6847229 C-1.43921204 177.5432097 -2.08545532 177.4016965 -2.75128174 177.25589502 C-4.89829981 176.78387194 -7.04282372 176.30138988 -9.1875 175.81884766 C-10.73366636 175.47664096 -12.27997568 175.13507965 -13.82641602 174.79411316 C-18.01379681 173.86888825 -22.19908703 172.93451166 -26.3840332 171.9983449 C-30.77052547 171.01861143 -35.15880573 170.04695129 -39.546875 169.0743103 C-46.91516382 167.43987892 -54.2822108 165.79994895 -61.6484375 164.15625 C-71.09273169 162.04887626 -80.53895232 159.95027665 -89.98583984 157.85456276 C-98.12048105 156.04991733 -106.25429364 154.24154786 -114.38793945 152.43242216 C-116.99618764 151.85241028 -119.60453503 151.27284604 -122.21289062 150.69331741 C-126.31736209 149.78110171 -130.42131105 148.8665693 -134.52487183 147.95026588 C-136.02790446 147.61496911 -137.53109419 147.2803756 -139.03445435 146.94655037 C-141.09242639 146.48942308 -143.14979423 146.02966656 -145.20703125 145.56924438 C-146.3566333 145.31298594 -147.50623535 145.05672749 -148.69067383 144.79270363 C-152.16421305 143.96066502 -155.57306738 143.00500327 -159 142 C-151.87828425 155.1981962 -144.72254995 168.37410305 -137.41210938 181.46875 C-134.56062846 186.58011829 -131.71818937 191.69651646 -128.875 196.8125 C-128.2454541 197.94478027 -127.6159082 199.07706055 -126.96728516 200.24365234 C-123.54134738 206.40826461 -120.12672314 212.57894247 -116.7265625 218.7578125 C-116.37214081 219.40157333 -116.01771912 220.04533417 -115.65255737 220.70860291 C-113.94723579 223.80637192 -112.24344258 226.90496207 -110.54248047 230.00512695 C-106.47138834 237.4048612 -102.29197538 244.72629211 -98 252 C-89.20374968 247.31133029 -80.62209741 242.28961867 -72.0625 237.1875 C-70.66294893 236.35542543 -69.26337168 235.52339489 -67.86376953 234.69140625 C-60.85473087 230.5199026 -53.86239405 226.32197525 -46.89453125 222.08203125 C-46.25421463 221.69242722 -45.61389801 221.30282318 -44.95417786 220.90141296 C-41.91982718 219.05368966 -38.88802137 217.20193873 -35.85961914 215.34448242 C-34.23914673 214.35411987 -34.23914673 214.35411987 -32.5859375 213.34375 C-31.6479834 212.76818359 -30.7100293 212.19261719 -29.74365234 211.59960938 C-24.2654004 208.40566857 -20.47673568 206.29344702 -14 207 C-11.17724064 208.25455972 -9.53711459 209.28384722 -7.6875 211.75 C-6.41751695 215.90630817 -6.30933752 219.54661577 -8.1887207 223.50146484 C-10.28973734 226.39967273 -12.21910584 227.71764876 -15.29296875 229.5390625 C-16.38174316 230.19205322 -17.47051758 230.84504395 -18.59228516 231.51782227 C-19.79058429 232.22039535 -20.98899252 232.92278239 -22.1875 233.625 C-23.43862135 234.36995018 -24.68909679 235.11598607 -25.93896484 235.86303711 C-29.26981905 237.84993844 -32.6089573 239.82246165 -35.95050049 241.7913208 C-39.32350229 243.78052699 -42.69095232 245.77908044 -46.05859375 247.77734375 C-47.40379692 248.5755405 -48.74901177 249.37371758 -50.09423828 250.171875 C-50.75957581 250.56665039 -51.42491333 250.96142578 -52.1104126 251.36816406 C-54.12204048 252.56074547 -56.13490084 253.75122449 -58.14794922 254.94140625 C-68.21586931 260.90064426 -78.19556875 266.9939364 -88.11962891 273.18969727 C-89.61695557 274.12060181 -89.61695557 274.12060181 -91.14453125 275.0703125 C-92.01440674 275.61445801 -92.88428223 276.15860352 -93.78051758 276.71923828 C-97.91677569 279.10608352 -101.27993319 279.48000679 -106 279 C-112.48260399 274.90572379 -115.14784755 268.80295221 -118.5625 262.125 C-119.48655977 260.36232561 -120.41065634 258.59966814 -121.33787537 256.83865356 C-121.96843074 255.64102162 -122.59762577 254.4426725 -123.22547913 253.24362183 C-126.21397942 247.54880182 -129.36955865 241.95692917 -132.5625 236.375 C-136.97398983 228.63467653 -141.27815717 220.84535911 -145.5 213 C-150.19791219 204.27400063 -155.00951617 195.62217199 -159.9074707 187.00708008 C-165.09644332 177.8660095 -170.18671204 168.67155741 -175.23364258 159.45141602 C-178.17271002 154.08720643 -181.12594142 148.73931728 -184.23828125 143.47265625 C-184.71177002 142.66094971 -185.18525879 141.84924316 -185.6730957 141.01293945 C-186.51868562 139.57084691 -187.3790612 138.1372518 -188.25854492 136.71557617 C-190.68005635 132.55405019 -191.47766993 129.0839798 -191.62890625 124.28222656 C-190.12923102 118.84008214 -185.76707443 115.51615372 -181.09069824 112.75523376 C-180.48326782 112.41190506 -179.8758374 112.06857635 -179.25 111.71484375 C-178.60421997 111.33715347 -177.95843994 110.9594632 -177.29309082 110.57032776 C-175.91516653 109.76602698 -174.53425925 108.96681805 -173.15063477 108.17236328 C-170.22694484 106.49362294 -167.31776104 104.79044849 -164.40759277 103.08840942 C-162.95137385 102.23695868 -161.49442593 101.38675349 -160.03674316 100.53781128 C-154.46277476 97.28819956 -148.96317348 93.93279221 -143.5 90.5 C-134.8912939 85.11467675 -126.17660224 79.9196478 -117.4375 74.75 C-105.5813257 67.73701915 -105.5813257 67.73701915 -93.77734375 60.63671875 C-93.20101196 60.28714111 -92.62468018 59.93756348 -92.03088379 59.57739258 C-89.18125692 57.84629395 -86.33752112 56.10646275 -83.49853516 54.35791016 C-77.97392034 50.96540799 -72.43097615 47.6522755 -66.75909424 44.51081848 C-63.94601862 42.94954907 -61.14925518 41.36019685 -58.35284424 39.76931763 C-57.00742539 39.01474569 -55.65404916 38.27416646 -54.29266357 37.54879761 C-46.67656729 33.81636285 -46.67656729 33.81636285 -42.01342773 27.19702148 C-41.70272968 24.3266727 -41.70272968 24.3266727 -41.90332031 21.60961914 C-42.14709109 15.02965488 -38.69069185 9.34174605 -34.375 4.625 C-25.11374172 -3.81607304 -11.16373898 -6.39406733 0 0 Z " fill="#000000" transform="translate(191,86)"/>
<path d="M0 0 C2.7145381 1.75554105 3.79815822 3.65612279 5.4609375 6.43359375 C5.79456299 6.98998535 6.12818848 7.54637695 6.47192383 8.11962891 C10.4773136 14.90537703 14.1653686 21.87402984 17.89233398 28.81494141 C21.68101713 35.86509223 25.56200582 42.85418704 29.5234375 49.80859375 C34.70853248 58.91762971 39.74636363 68.09907359 44.7109375 77.33007812 C47.41819611 82.36227256 50.15953199 87.36372092 53.0234375 92.30859375 C56.6534375 90.32859375 60.2834375 88.34859375 64.0234375 86.30859375 C54.35045896 68.07312968 44.58931915 49.88847772 34.3371582 31.97070312 C25.15607971 15.87573127 25.15607971 15.87573127 26.0234375 9.30859375 C27.27799722 6.48583439 28.30728472 4.84570834 30.7734375 2.99609375 C34.81844397 1.76011955 38.45151924 1.68395628 42.40234375 3.25390625 C46.30323388 6.31183204 48.18026517 10.18396483 50.5234375 14.49609375 C51.29892944 15.88755615 51.29892944 15.88755615 52.09008789 17.30712891 C53.75073269 20.29903441 55.39016864 23.30166438 57.0234375 26.30859375 C57.55565918 27.28747559 58.08788086 28.26635742 58.63623047 29.27490234 C60.79168719 33.24617204 62.94269314 37.21974664 65.08251953 41.19946289 C68.92484478 48.33414252 72.88519246 55.39389116 76.8984375 62.43359375 C84.29531 75.47978641 84.29531 75.47978641 87.3359375 81.30859375 C88.13451172 82.82453125 88.13451172 82.82453125 88.94921875 84.37109375 C90.28258431 88.01724249 90.55290188 90.45168253 90.0234375 94.30859375 C86.72830006 98.91797676 83.27857064 101.76576181 78.33203125 104.54296875 C77.70490738 104.90706848 77.07778351 105.27116821 76.43165588 105.64630127 C74.44749429 106.79468267 72.45451457 107.92665359 70.4609375 109.05859375 C69.11984349 109.8322956 67.77934272 110.60702672 66.43945312 111.3828125 C51.55356797 119.97220941 51.55356797 119.97220941 46.0234375 119.30859375 C41.36076583 116.69717621 38.99723275 114.28739373 36.5 109.59375 C35.87988037 108.4476123 35.25976074 107.30147461 34.62084961 106.12060547 C33.96326451 104.87082841 33.30579704 103.62098946 32.6484375 102.37109375 C31.94891827 101.06832826 31.24779783 99.76642142 30.54516602 98.46533203 C29.08685652 95.76191873 27.63549351 93.05494886 26.18896484 90.34521484 C23.16500369 84.69269326 20.05999088 79.08528792 16.95404053 73.47753906 C15.62696185 71.08029878 14.30358555 68.68102286 12.9800415 66.28182983 C8.67126946 58.47266113 4.35165337 50.6695013 0.0234375 42.87109375 C-0.59942139 41.74880371 -1.22228027 40.62651367 -1.86401367 39.47021484 C-5.73157338 32.51435256 -9.64605415 25.58946521 -13.65625 18.71484375 C-15.9910084 14.4597811 -16.46660716 11.12736621 -15.9765625 6.30859375 C-12.41009181 0.12579321 -6.95142849 -2.43162617 0 0 Z " fill="#000000" transform="translate(278.9765625,312.69140625)"/>
</svg>
