<?xml version="1.0" encoding="UTF-8"?>
<svg version="1.1" xmlns="http://www.w3.org/2000/svg" width="512" height="512">
<path d="M0 0 C14.76456789 12.35499041 24.8154301 29.01393747 27.8125 48.1875 C27.9375 51.25 27.9375 51.25 27.8125 53.1875 C28.699375 53.39375 29.58625 53.6 30.5 53.8125 C35.12056999 55.73047245 37.55164994 58.66579987 39.8125 63.1875 C40.11234725 67.76503014 40.09067228 72.35131623 40.125 76.9375 C40.15400391 78.21367187 40.18300781 79.48984375 40.21289062 80.8046875 C40.29271824 92.57004985 40.29271824 92.57004985 35.8125 97.1875 C32.1683226 99.6169516 30.10008728 99.34929575 25.8125 99.1875 C25.84730469 99.94933594 25.88210938 100.71117187 25.91796875 101.49609375 C26.13344061 109.71480623 25.78603691 116.49067033 20.5 123.0625 C15.37765292 127.11272793 10.33016313 129.38675161 3.80078125 129.1875 C-4.94406366 128.91390847 -4.94406366 128.91390847 -12.87890625 131.9375 C-14.27489867 133.46329058 -15.6247235 135.03238066 -16.9296875 136.63671875 C-26.51678194 147.46781334 -42.09810237 153.08310541 -56.1875 154.1875 C-75.50990299 154.54606006 -91.55383817 148.05469897 -105.76953125 134.765625 C-119.39741228 120.23508949 -126.27255848 101.87770333 -126.390625 82.05078125 C-126.39632507 81.29008835 -126.40202515 80.52939545 -126.40789795 79.74565125 C-126.41729262 78.14302944 -126.42385974 76.5403888 -126.42773438 74.93774414 C-126.43740427 72.52389587 -126.46846515 70.1109135 -126.5 67.69726562 C-126.6201108 50.33510463 -122.99113339 35.31274231 -110.5859375 22.43359375 C-95.92853244 8.7071965 -76.82989851 4.12688868 -57.1875 4.1875 C-37.52754428 4.91174178 -19.91042931 11.87101838 -6.1875 26.1875 C4.48711883 39.45059936 6.17260712 53.48077051 6.12817383 69.92602539 C6.12502872 72.35284022 6.14848631 74.77841446 6.17382812 77.20507812 C6.23385918 91.75519811 4.35787351 104.95548592 -2.1875 118.1875 C-2.5175 118.5175 -2.8475 118.8475 -3.1875 119.1875 C2.91195522 119.512965 7.5067433 119.63624186 12.8125 116.1875 C15.62447457 113.37552543 15.51152557 110.34738755 15.9375 106.5625 C16.06705078 105.50289062 16.06705078 105.50289062 16.19921875 104.421875 C16.41131183 102.67799859 16.61290991 100.9328516 16.8125 99.1875 C14.1725 99.1875 11.5325 99.1875 8.8125 99.1875 C7.67757721 96.91765442 7.68029496 95.656949 7.66723633 93.13671875 C7.66085648 92.30245361 7.65447662 91.46818848 7.64790344 90.60864258 C7.64623421 89.2554895 7.64623421 89.2554895 7.64453125 87.875 C7.64120285 86.95033936 7.63787445 86.02567871 7.63444519 85.07299805 C7.62937779 83.11605325 7.62703681 81.15909979 7.62719727 79.20214844 C7.62500891 76.19972606 7.60684614 73.19766991 7.58789062 70.1953125 C7.58495711 68.29687626 7.58297203 66.39843827 7.58203125 64.5 C7.57484573 63.59789795 7.56766022 62.6957959 7.56025696 61.76635742 C7.56333359 60.93209229 7.56641022 60.09782715 7.56958008 59.23828125 C7.56815506 58.50262939 7.56673004 57.76697754 7.56526184 57.0090332 C7.8125 55.1875 7.8125 55.1875 9.8125 53.1875 C11.9765625 52.9921875 11.9765625 52.9921875 14.4375 53.0625 C15.25476563 53.08054687 16.07203125 53.09859375 16.9140625 53.1171875 C17.54054688 53.14039063 18.16703125 53.16359375 18.8125 53.1875 C14.62434698 33.15720295 6.36985765 15.93243556 -11.1875 4.1875 C-20.03473318 -1.29396562 -29.0278547 -5.37213008 -39.1875 -7.8125 C-40.11433594 -8.03679687 -41.04117188 -8.26109375 -41.99609375 -8.4921875 C-63.6971219 -12.88657045 -87.84734929 -9.43426283 -106.5625 2.5625 C-108.80550427 4.06294599 -110.99466138 5.61216913 -113.1875 7.1875 C-113.95964844 7.74179688 -114.73179687 8.29609375 -115.52734375 8.8671875 C-129.28887503 19.82191141 -135.20857583 36.71608766 -139.1875 53.1875 C-138.56101563 53.16429687 -137.93453125 53.14109375 -137.2890625 53.1171875 C-136.47179687 53.09914063 -135.65453125 53.08109375 -134.8125 53.0625 C-134.00039062 53.03929687 -133.18828125 53.01609375 -132.3515625 52.9921875 C-130.1875 53.1875 -130.1875 53.1875 -128.1875 55.1875 C-127.94026184 57.0537262 -127.94026184 57.0537262 -127.94458008 59.34594727 C-127.93996513 60.63221764 -127.93996513 60.63221764 -127.93525696 61.94447327 C-127.94244247 62.87158615 -127.94962799 63.79869904 -127.95703125 64.75390625 C-127.95748947 65.70313461 -127.95794769 66.65236298 -127.9584198 67.63035583 C-127.96144362 69.63859303 -127.96933376 71.64682784 -127.98168945 73.6550293 C-127.99994561 76.74080649 -128.00219918 79.82628383 -128.00195312 82.91210938 C-128.00686817 84.85937761 -128.01269643 86.8066438 -128.01953125 88.75390625 C-128.02064407 89.68304337 -128.0217569 90.61218048 -128.02290344 91.56947327 C-128.02928329 92.42383469 -128.03566315 93.27819611 -128.04223633 94.15844727 C-128.04795403 95.29190331 -128.04795403 95.29190331 -128.05378723 96.44825745 C-128.1875 98.1875 -128.1875 98.1875 -129.1875 99.1875 C-133.09606764 99.49672212 -137.01821069 99.46597839 -140.9375 99.5 C-142.58492187 99.54350586 -142.58492187 99.54350586 -144.265625 99.58789062 C-152.36349854 99.65176948 -152.36349854 99.65176948 -156.328125 97.41796875 C-161.31955942 91.43034469 -160.55458592 85.38150547 -160.5625 77.875 C-160.58699219 76.66392578 -160.61148438 75.45285156 -160.63671875 74.20507812 C-160.65931259 67.32525336 -160.46692662 62.69841629 -156.1875 57.1875 C-151.05929487 53.1875 -151.05929487 53.1875 -148.1875 53.1875 C-148.125625 52.0325 -148.06375 50.8775 -148 49.6875 C-145.71298599 29.793611 -134.89695678 11.96466012 -119.7578125 -0.90625 C-84.48453963 -27.06636726 -34.7646429 -26.54074888 0 0 Z M-106.2890625 31.421875 C-113.76755697 40.65065541 -117.50428158 50.18843527 -117.48828125 62.1328125 C-117.49256638 62.86515106 -117.4968515 63.59748962 -117.50126648 64.35202026 C-117.50697045 65.8931984 -117.50753933 67.43440343 -117.50317383 68.97558594 C-117.50003559 71.28629751 -117.52344557 73.59569806 -117.54882812 75.90625 C-117.63467159 96.18636197 -112.58922365 113.47832743 -98.87109375 128.76953125 C-88.63842182 138.6650476 -75.00970786 144.79351746 -60.75390625 145.3125 C-46.32341795 144.79769997 -33.34304068 139.4998343 -23.1875 129.1875 C-27.29143012 129.07158236 -31.39494106 129.00034399 -35.5 128.9375 C-36.66724609 128.90398437 -37.83449219 128.87046875 -39.03710938 128.8359375 C-40.15537109 128.82304687 -41.27363281 128.81015625 -42.42578125 128.796875 C-43.45743408 128.77592773 -44.48908691 128.75498047 -45.55200195 128.73339844 C-48.32177677 128.92127287 -48.32177677 128.92127287 -49.86010742 131.14941406 C-50.29814697 131.82198242 -50.73618652 132.49455078 -51.1875 133.1875 C-54.34759533 134.24086511 -56.7428136 134.38782888 -60.0625 134.4375 C-61.09117187 134.46328125 -62.11984375 134.4890625 -63.1796875 134.515625 C-66.59970687 134.14253198 -68.43775853 133.21777507 -71.1875 131.1875 C-72.97759505 127.60730989 -72.65388897 123.62553267 -71.4375 119.875 C-69.85810356 117.7428148 -68.65217612 117.17589401 -66.1875 116.1875 C-63.3828125 115.8515625 -63.3828125 115.8515625 -60.3125 115.8125 C-58.80042969 115.76996094 -58.80042969 115.76996094 -57.2578125 115.7265625 C-54.1875 116.1875 -54.1875 116.1875 -51.47021484 118.17211914 C-46.04145283 121.50503826 -40.1574059 120.96957882 -33.96533203 120.98364258 C-31.69068569 120.99997712 -29.42519161 121.08557889 -27.15234375 121.17382812 C-19.57683523 121.47475126 -19.57683523 121.47475126 -12.91918945 118.39672852 C-11.28366807 116.04772634 -10.20314625 113.85934514 -9.1875 111.1875 C-8.89601074 110.51130615 -8.60452148 109.8351123 -8.30419922 109.13842773 C-7.56547176 107.29445218 -6.96739408 105.39605732 -6.375 103.5 C-5.97667969 102.25863281 -5.57835937 101.01726562 -5.16796875 99.73828125 C-3.55868881 93.9102515 -3.02097666 88.36163381 -2.984375 82.33203125 C-2.97867493 81.58974777 -2.97297485 80.84746429 -2.96710205 80.08268738 C-2.95769694 78.51697189 -2.95113603 76.951237 -2.94726562 75.38549805 C-2.93759912 73.02421303 -2.90655008 70.66381426 -2.875 68.30273438 C-2.76852196 53.18614312 -5.58383703 40.52482214 -16.125 29.09765625 C-28.42715477 17.70418336 -45.83428333 12.50646103 -62.40234375 12.9375 C-78.84206114 14.41315486 -94.64453185 19.04144465 -106.2890625 31.421875 Z M-149.78149414 63.85302734 C-151.46052073 66.64081207 -151.69005712 68.29557489 -151.68359375 71.5390625 C-151.68423828 72.55484375 -151.68488281 73.570625 -151.68554688 74.6171875 C-151.66556641 75.67164063 -151.64558594 76.72609375 -151.625 77.8125 C-151.63208984 78.8746875 -151.63917969 79.936875 -151.64648438 81.03125 C-151.64905553 85.13028027 -151.64905553 85.13028027 -151.1875 89.1875 C-147.26299967 92.20445036 -147.26299967 92.20445036 -137.1875 91.1875 C-137.1875 81.6175 -137.1875 72.0475 -137.1875 62.1875 C-146.29881082 61.28701803 -146.29881082 61.28701803 -149.78149414 63.85302734 Z M16.8125 62.1875 C16.8125 71.7575 16.8125 81.3275 16.8125 91.1875 C26.88799967 92.20445036 26.88799967 92.20445036 30.8125 89.1875 C31.47865728 85.43689362 31.27538198 81.61518207 31.25 77.8125 C31.26998047 76.75804687 31.28996094 75.70359375 31.31054688 74.6171875 C31.30990234 73.60140625 31.30925781 72.585625 31.30859375 71.5390625 C31.31044678 70.60916504 31.3122998 69.67926758 31.31420898 68.72119141 C30.94637378 66.11071709 30.94637378 66.11071709 29.40649414 63.85302734 C25.92381082 61.28701803 25.92381082 61.28701803 16.8125 62.1875 Z M-64.1875 124.1875 C-64.1875 124.8475 -64.1875 125.5075 -64.1875 126.1875 C-61.5475 126.1875 -58.9075 126.1875 -56.1875 126.1875 C-56.1875 125.5275 -56.1875 124.8675 -56.1875 124.1875 C-58.8275 124.1875 -61.4675 124.1875 -64.1875 124.1875 Z " fill="#191919" transform="translate(376.1875,83.8125)"/>
<path d="M0 0 C1.625 1.8125 1.625 1.8125 2 4 C-0.29759083 8.7816727 -3.90577522 12.1633202 -7.63671875 15.83203125 C-8.27615921 16.46864182 -8.91559967 17.10525238 -9.57441711 17.76115417 C-11.60744499 19.78303333 -13.64733362 21.79782668 -15.6875 23.8125 C-17.07142297 25.18638633 -18.45489168 26.56073039 -19.83789062 27.93554688 C-23.22002237 31.29568867 -26.60832238 34.64949505 -30 38 C-26.7498913 41.8488174 -23.49349707 45.63349881 -19.9140625 49.18359375 C-18.86025391 50.23256836 -18.86025391 50.23256836 -17.78515625 51.30273438 C-17.07230469 52.00720703 -16.35945312 52.71167969 -15.625 53.4375 C-14.88894531 54.16904297 -14.15289062 54.90058594 -13.39453125 55.65429688 C-11.59863926 57.43852723 -9.80044015 59.22036124 -8 61 C-3.33278599 57.12424633 1.00563279 53.07548115 5.1953125 48.69140625 C6.3338868 47.5207558 7.47323179 46.35085452 8.61328125 45.18164062 C10.38273555 43.36252697 12.1470306 41.53941122 13.89892578 39.70336914 C15.60909639 37.91473076 17.33757281 36.14565245 19.0703125 34.37890625 C19.59126495 33.82384903 20.11221741 33.26879181 20.6489563 32.69691467 C24.31283957 29.00592696 24.31283957 29.00592696 27.74560547 28.97631836 C30 30 30 30 32 33 C35.36802594 45.34218538 33.18541172 58.75929299 27.4921875 69.96875 C20.50085986 81.80523028 10.42456357 89.12954628 -2.69226074 93.1245575 C-6.2678317 94.00610913 -9.27052291 93.9007044 -12.94452667 93.44705486 C-18.65344141 92.85823561 -23.24446158 93.06016472 -27.98852539 96.51986694 C-32.23660889 100.12332373 -35.99496146 104.18603017 -39.78125 108.26171875 C-41.21103457 109.73346531 -42.64499759 111.20116286 -44.08288574 112.66499329 C-47.83966283 116.50885047 -51.54423751 120.39912282 -55.23779297 124.3036499 C-61.16152378 130.5459107 -67.16835375 136.70859996 -73.16404724 142.88160133 C-75.24071077 145.03223551 -77.29870655 147.19938772 -79.3536377 149.37077332 C-80.63204327 150.70529985 -81.91063858 152.03964466 -83.18945312 153.3737793 C-83.74753662 153.97295166 -84.30562012 154.57212402 -84.88061523 155.18945312 C-91.18480442 161.71497625 -98.48461516 166.07216648 -107.6875 166.25 C-116.07332404 166.11454616 -122.1588637 163.74273355 -128.2734375 157.95703125 C-132.73177545 152.90357579 -134.44815413 147.62215042 -135 141 C-137.31 140.67 -139.62 140.34 -142 140 C-144.25433614 134.43930418 -144.59961828 128.9214349 -145 123 C-145.68707031 122.79503906 -146.37414062 122.59007812 -147.08203125 122.37890625 C-147.98308594 122.10949219 -148.88414062 121.84007812 -149.8125 121.5625 C-150.70582031 121.29566406 -151.59914062 121.02882813 -152.51953125 120.75390625 C-154.35473055 120.19612127 -156.18033726 119.60655425 -158 119 C-160.89535231 120.8958731 -163.51337828 123.04862195 -166.2109375 125.21484375 C-169 127 -169 127 -171.453125 127.6015625 C-175.34179002 126.68307414 -177.65009355 124.19195363 -180.375 121.4375 C-180.93316406 120.92380859 -181.49132812 120.41011719 -182.06640625 119.88085938 C-185.05763443 116.90809557 -185.98195825 115.72951428 -186.08984375 111.3671875 C-184.93996592 107.81451835 -183.81306246 106.2729009 -181.1875 103.6875 C-179.19506615 101.50550931 -179.19506615 101.50550931 -178 99 C-178.47987076 95.99426403 -179.44744252 93.84009263 -180.87890625 91.1640625 C-182 89 -182 89 -182 86 C-182.96099609 85.92652344 -182.96099609 85.92652344 -183.94140625 85.8515625 C-189.19452995 85.3974922 -194.02879061 84.79809701 -199 83 C-200.63405901 79.73188198 -200.18453757 76.15000593 -200.1875 72.5625 C-200.19974609 71.78583984 -200.21199219 71.00917969 -200.22460938 70.20898438 C-200.23474195 66.28767691 -200.2225417 64.33381255 -198 61 C-196.25270135 60.72084578 -194.50156894 60.45336673 -192.74047852 60.28149414 C-187.94541141 59.76999751 -184.11832555 59.14399203 -180.6171875 55.5625 C-178.8467352 52.14614982 -178.05867209 49.85881802 -178 46 C-179.68400124 42.45720245 -181.62720077 39.76879394 -184.171875 36.7890625 C-186 34 -186 34 -186.03125 30.9453125 C-184.82053256 27.48743012 -183.38403896 25.77937516 -180.75 23.25 C-179.98171875 22.49203125 -179.2134375 21.7340625 -178.421875 20.953125 C-175.94887339 18.95876886 -174.07078522 17.80236646 -171 17 C-167.18986927 18.76898927 -164.51748583 20.54411963 -161.375 23.3125 C-159.17110149 25.23643653 -159.17110149 25.23643653 -156.6875 24.9375 C-155.800625 24.628125 -154.91375 24.31875 -154 24 C-153.34386719 23.92652344 -152.68773437 23.85304688 -152.01171875 23.77734375 C-149.34032627 23.27432103 -148.03831828 22.83891758 -146 21 C-144.75857844 17.12274322 -144.10683762 13.39355 -143.5703125 9.37109375 C-143 6 -143 6 -141 4 C-137.87675934 3.50251719 -134.72092364 3.58341671 -131.5625 3.5625 C-130.69044922 3.52962891 -129.81839844 3.49675781 -128.91992188 3.46289062 C-126.51464297 3.44255391 -124.35379714 3.50296241 -122 4 C-118.79109863 7.34260559 -118.70416659 10.57455808 -118.4375 15.0625 C-117.84567342 19.5719116 -117.84567342 19.5719116 -114.79296875 22.703125 C-110.65810222 24.42245457 -107.3141852 25.6911606 -103 24 C-100.73209811 22.51143167 -98.58303181 20.90598678 -96.4140625 19.27734375 C-93.25762129 17.60718796 -91.53072043 17.42200135 -88 18 C-85.73202312 19.66397259 -84.03221512 21.12449718 -82.125 23.125 C-81.62742187 23.599375 -81.12984375 24.07375 -80.6171875 24.5625 C-78.22449481 26.99463267 -77.05845819 28.67154066 -76.45703125 32.05078125 C-77.27793504 36.50964714 -79.76745693 39.08148194 -82.56640625 42.53515625 C-84.26152925 44.90868009 -84.26152925 44.90868009 -83.78125 47.64453125 C-83.22395212 49.32478436 -82.60168989 50.98406026 -81.9375 52.625 C-81 55 -81 55 -81 58 C-78.73122896 58.24875561 -76.45980265 58.47339246 -74.1875 58.6875 C-72.92292969 58.81511719 -71.65835938 58.94273437 -70.35546875 59.07421875 C-67.09894868 59.32584367 -67.09894868 59.32584367 -65.31347656 57.74707031 C-63.72760628 55.63768597 -63.63159933 54.58703994 -63.62890625 51.97265625 C-63.61448486 51.18624756 -63.60006348 50.39983887 -63.58520508 49.58959961 C-63.5777124 48.75565674 -63.57021973 47.92171387 -63.5625 47.0625 C-63.12344199 33.39504908 -59.22952141 21.44327362 -49.75 11.25 C-36.56563496 -0.98439987 -17.18707892 -5.99399377 0 0 Z M-43.97265625 19.0703125 C-48.75670134 24.90055005 -54.33910149 33.10818766 -53.8831749 41.02980995 C-53.78554981 41.74238142 -53.68792473 42.45495289 -53.58734131 43.18911743 C-52.87871613 50.35800195 -52.28497626 57.18361033 -56.56945801 63.33172607 C-60.19486361 67.71777433 -64.34215647 71.54439192 -68.515625 75.3984375 C-70.01269741 76.85302002 -71.50520273 78.31231628 -72.99334717 79.77603149 C-76.89510088 83.59073601 -80.85212112 87.34235684 -84.82550049 91.08221436 C-89.64774632 95.64248585 -94.40085235 100.27458062 -99.16479111 104.89557838 C-102.87060869 108.48749554 -106.58534191 112.06825227 -110.331604 115.61801147 C-111.01861893 116.2721553 -111.70563385 116.92629913 -112.41346741 117.6002655 C-113.68800871 118.81277478 -114.96667089 120.02097487 -116.25041199 121.22373962 C-121.57057641 126.2994708 -125.66995973 131.10552486 -126.3125 138.6875 C-126.22414465 144.68461915 -123.80943596 149.23695983 -119.5625 153.375 C-114.50235425 156.58387291 -110.03026772 157.89580632 -104 157 C-97.78734885 154.81113514 -93.58201929 151.06587699 -89.18286133 146.30371094 C-88.55218246 145.63988403 -87.9215036 144.97605713 -87.27171326 144.29211426 C-85.91125597 142.85989936 -84.55504346 141.42364257 -83.20270729 139.98375702 C-80.30699588 136.91230194 -77.37188743 133.87974874 -74.43849468 130.84433365 C-68.99008842 125.20622506 -63.55729271 119.55557051 -58.19750977 113.83300781 C-54.45444292 109.83972988 -50.66053548 105.90130044 -46.82929039 101.99262238 C-45.38943848 100.5043385 -43.96866907 98.9973179 -42.56913185 97.47106171 C-31.05193396 84.93954011 -31.05193396 84.93954011 -22.50741577 84.14855957 C-18.02734662 84.03910923 -13.65253105 84.41401962 -9.20152855 84.88201141 C-1.02647386 85.32014479 5.85950643 80.27846278 11.77734375 75.1953125 C18.42507767 68.6293609 23.39666152 59.72430465 24.2421875 50.30078125 C24.24878656 48.19898024 24.13752833 46.09730708 24 44 C19.70895359 47.50121094 15.79826882 51.17596876 11.96875 55.1796875 C11.07542969 56.1078125 10.18210937 57.0359375 9.26171875 57.9921875 C7.87347164 59.44130541 6.48534786 60.89069097 5.11572266 62.35742188 C3.77097852 63.79321391 2.40134923 65.20557011 1.03125 66.6171875 C0.23267578 67.45878418 -0.56589844 68.30038086 -1.38867188 69.16748047 C-4.78864268 71.55343605 -6.93092795 71.43734832 -11 71 C-13.23828125 69.6640625 -13.23828125 69.6640625 -15.3125 67.625 C-16.14265625 66.82191406 -16.9728125 66.01882813 -17.828125 65.19140625 C-18.54838867 64.46655029 -18.54838867 64.46655029 -19.28320312 63.72705078 C-21.37526169 61.62249698 -23.49296203 59.54489959 -25.609375 57.46484375 C-28.85474077 54.25833118 -32.09571015 51.04771138 -35.31640625 47.81640625 C-36.00162354 47.13006104 -36.68684082 46.44371582 -37.39282227 45.73657227 C-39.39648336 43.57159561 -39.94573655 42.28488312 -40.5 39.375 C-39.23131136 30.81135167 -28.47035508 23.38528877 -22.5625 17.5625 C-20.74906068 15.77440574 -18.93773299 13.98416643 -17.12890625 12.19140625 C-15.93890015 11.01880249 -15.93890015 11.01880249 -14.72485352 9.82250977 C-12.88543663 8.29716953 -12.88543663 8.29716953 -13 7 C-24.72347198 6.23124774 -35.8012776 10.49441016 -43.97265625 19.0703125 Z M-135 13 C-135.06574219 14.02480469 -135.13148438 15.04960937 -135.19921875 16.10546875 C-135.64860324 20.39929248 -136.33814534 23.98242354 -138 28 C-142.08230736 30.81873604 -146.22542174 31.83764949 -151 33 C-152.34529788 33.64218052 -153.68224195 34.30305241 -155 35 C-157.6875 35.5625 -157.6875 35.5625 -161 35 C-164.20442512 32.89693212 -167.1121096 30.51567341 -170 28 C-171.65 29.32 -173.3 30.64 -175 32 C-173.89204981 35.32385056 -172.47709103 37.73176121 -170.3125 40.4375 C-168.46515377 42.97350192 -168.00649823 43.69458321 -167.9375 46.9375 C-169.04147139 50.11953518 -170.37228942 52.96872937 -172.00390625 55.91015625 C-173.08930326 57.95459273 -173.08930326 57.95459273 -173.40234375 60.18359375 C-173.89793594 62.75595324 -174.23403814 64.03027331 -176 66 C-180.94184516 67.63815045 -185.84096527 68.39081509 -191 69 C-191 71.31 -191 73.62 -191 76 C-189.64455078 76.18175781 -189.64455078 76.18175781 -188.26171875 76.3671875 C-187.08222656 76.53476562 -185.90273437 76.70234375 -184.6875 76.875 C-183.51574219 77.03742188 -182.34398437 77.19984375 -181.13671875 77.3671875 C-178 78 -178 78 -175 80 C-173.68359375 82.8984375 -173.68359375 82.8984375 -172.4375 86.375 C-170.86857412 90.85685751 -170.86857412 90.85685751 -168.78515625 95.1015625 C-167.67559243 97.78438845 -168.12325217 99.2606874 -169 102 C-170.41015625 104.45703125 -170.41015625 104.45703125 -172.0625 106.8125 C-172.61035156 107.60269531 -173.15820312 108.39289063 -173.72265625 109.20703125 C-174.14417969 109.79871094 -174.56570312 110.39039063 -175 111 C-174.20882096 112.99983534 -174.20882096 112.99983534 -173 115 C-171.515 115.495 -171.515 115.495 -170 116 C-167.4053832 114.32086761 -165.07308399 112.40775763 -162.66796875 110.46875 C-159.21008528 108.56514211 -157.75086229 108.93174675 -154 110 C-151.93589817 110.75368604 -149.89298842 111.56785537 -147.875 112.4375 C-146.35519531 113.08525391 -146.35519531 113.08525391 -144.8046875 113.74609375 C-143.41636719 114.36677734 -143.41636719 114.36677734 -142 115 C-141.25492188 115.22558594 -140.50984375 115.45117188 -139.7421875 115.68359375 C-136.83635804 117.87925413 -136.78410594 121.21928921 -136.25 124.625 C-136.12496094 125.33140625 -135.99992187 126.0378125 -135.87109375 126.765625 C-135.5650475 128.50773442 -135.28044594 130.25358664 -135 132 C-132.75205619 130.00910689 -132.75205619 130.00910689 -131.62402344 126.6484375 C-128.29458503 119.85911413 -122.34536007 114.8561566 -117.015625 109.625 C-115.83219421 108.44904035 -114.64965146 107.2721864 -113.46795654 106.09448242 C-110.37294278 103.01465606 -107.26610332 99.94703872 -104.15655518 96.88189697 C-100.9785802 93.74502396 -97.81206244 90.5966311 -94.64453125 87.44921875 C-88.44077762 81.2882142 -82.22447005 75.1400737 -76 69 C-78.67529648 67.55357597 -80.488321 66.91432965 -83.5625 66.375 C-87 65 -87 65 -88.625 61.5625 C-88.82480469 60.85222656 -89.02460938 60.14195312 -89.23046875 59.41015625 C-90.14149041 56.55685492 -91.51906803 54.13527801 -92.9375 51.5 C-95.13904093 46.73438894 -95.13904093 46.73438894 -94.5703125 43.73046875 C-93.54107044 41.64405945 -92.38638552 39.86613182 -91 38 C-90.24861269 36.83422634 -89.49848618 35.66763845 -88.75 34.5 C-87.88375 33.2625 -87.88375 33.2625 -87 32 C-88.65 30.68 -90.3 29.36 -92 28 C-92.65226562 28.5053125 -93.30453125 29.010625 -93.9765625 29.53125 C-94.85054688 30.1809375 -95.72453125 30.830625 -96.625 31.5 C-97.48351562 32.1496875 -98.34203125 32.799375 -99.2265625 33.46875 C-102.48895436 35.2699579 -104.3252849 35.42533715 -108 35 C-110.01953125 34.1953125 -110.01953125 34.1953125 -111.8125 33.125 C-116.10957045 30.78114339 -120.20119597 29.89977576 -125 29 C-125.99 23.72 -126.98 18.44 -128 13 C-130.31 13 -132.62 13 -135 13 Z " fill="#191919" transform="translate(285,282)"/>
<path d="M0 0 C6.85116178 4.20071233 12.47366546 10.23850228 18 16 C22.55293318 14.18310178 25.46694776 10.6408518 28.7578125 7.1640625 C31.92560854 3.88948682 34.93441847 1.08940013 39 -1 C44.73031639 -0.95308513 49.41350586 1.30075744 54.5625 3.5625 C64.54997492 7.77860284 74.79348851 10.53559669 85.29125977 13.12133789 C98.64744681 16.46858652 111.16215264 20.28208107 119.4375 32.04296875 C123.43894622 39.41327962 124.27089427 47.90975608 124.79370117 56.14404297 C124.88433083 57.44088768 124.88433083 57.44088768 124.97679138 58.76393127 C125.17239725 61.58959512 125.35801052 64.41580831 125.54296875 67.2421875 C125.67659443 69.2175688 125.81066002 71.1929204 125.94514465 73.16824341 C126.22430921 77.29156598 126.4985852 81.41517594 126.76928711 85.5390625 C127.11687967 90.82914962 127.47609778 96.11837139 127.83884716 101.40743828 C128.11689973 105.47853788 128.38918052 109.55000736 128.65966225 113.62161636 C128.78993403 115.57301425 128.92193463 117.52429751 129.05568504 119.47546005 C129.24110981 122.19406737 129.41884648 124.91306935 129.59448242 127.63232422 C129.65104004 128.43961472 129.70759766 129.24690521 129.76586914 130.07865906 C129.97259529 133.38832693 130.05946781 135.82159657 129 139 C126.23944723 140.38027638 124.01720881 140.12913401 120.92651367 140.13371277 C119.63087494 140.13797775 118.33523621 140.14224274 117.00033569 140.14663696 C115.55621335 140.14628742 114.11209103 140.14582587 112.66796875 140.14526367 C111.15369585 140.14825437 109.63942371 140.15165669 108.12515259 140.15544128 C104.00542935 140.16429355 99.88572686 140.16661988 95.76599503 140.16725707 C92.3313573 140.16820505 88.89672444 140.17188198 85.46208858 140.17542917 C77.36241854 140.18357803 69.26275961 140.18601297 61.16308594 140.18530273 C52.79586868 140.1847015 44.42871581 140.19526149 36.06151485 140.2110464 C28.88697727 140.22410113 21.71246079 140.22948752 14.53791142 140.22884732 C10.24875185 140.22859177 5.95964949 140.23147455 1.67050171 140.24202538 C-2.36121805 140.25167193 -6.39282549 140.25180938 -10.4245491 140.24450874 C-11.9072651 140.24345866 -13.38998796 140.2458507 -14.87269211 140.2518692 C-16.89061867 140.25953209 -18.90858313 140.25377099 -20.92651367 140.24723816 C-22.05772141 140.24778293 -23.18892914 140.24832769 -24.35441589 140.24888897 C-27 140 -27 140 -29 138 C-29.25 135.5 -29.25 135.5 -29 133 C-27 131 -27 131 -24.45815086 130.75390434 C-22.83487342 130.75666972 -22.83487342 130.75666972 -21.17880249 130.75949097 C-19.93917252 130.75674164 -18.69954254 130.75399231 -17.42234802 130.75115967 C-16.04116726 130.75823842 -14.65998746 130.76550804 -13.27880859 130.77294922 C-11.83025622 130.77351312 -10.38170328 130.77319719 -8.93315125 130.77206421 C-4.99326293 130.77148886 -1.05349565 130.78327252 2.88636446 130.79721212 C7.00100884 130.80968922 11.11565579 130.81088759 15.23031616 130.81326294 C23.02533081 130.81948662 30.82028956 130.8359094 38.61527956 130.85596192 C47.48818433 130.87829336 56.36109174 130.8893074 65.23401761 130.89935279 C83.4893768 130.92027488 101.74468391 130.95546805 120 131 C119.38888829 121.72334747 118.77195204 112.447105 118.1478672 103.17131615 C117.85816082 98.86276258 117.57035551 94.55410066 117.28710938 90.24511719 C117.01295786 86.07561254 116.73353262 81.90648994 116.45066452 77.7375679 C116.34440093 76.1583434 116.23994043 74.57899636 116.13743973 72.99952316 C115.79340133 50.94431668 115.79340133 50.94431668 106.19921875 32.23046875 C95.45790763 24.2402279 80.27130586 21.96882349 67.58544922 18.67626953 C60.00242961 16.6662992 52.94999531 14.20626978 45.85546875 10.87109375 C42.29171636 9.78392989 41.27395996 10.35458198 38 12 C36.00866894 13.67705394 36.00866894 13.67705394 34.22265625 15.6953125 C33.54396484 16.41074219 32.86527344 17.12617188 32.16601562 17.86328125 C30.76157656 19.37334665 29.36313513 20.88901204 27.97070312 22.41015625 C26.95073242 23.47943359 26.95073242 23.47943359 25.91015625 24.5703125 C25.30308838 25.22789551 24.69602051 25.88547852 24.07055664 26.56298828 C21.18891415 28.56291137 19.43610969 28.50652924 16 28 C13.82177734 26.45532227 13.82177734 26.45532227 11.8359375 24.31640625 C11.10632813 23.55392578 10.37671875 22.79144531 9.625 22.00585938 C8.8825 21.19955078 8.14 20.39324219 7.375 19.5625 C5.88977937 17.97392639 4.39785228 16.39158933 2.8984375 14.81640625 C2.24536621 14.10943604 1.59229492 13.40246582 0.91943359 12.67407227 C-1.1491473 10.86991821 -2.28700771 10.26390322 -5 10 C-7.65636555 10.8672609 -10.17101959 11.81581061 -12.75 12.875 C-19.06025749 15.3535081 -25.41085642 17.46874289 -31.94921875 19.26171875 C-32.64566498 19.45284241 -33.34211121 19.64396606 -34.05966187 19.84088135 C-37.54399755 20.7902957 -41.03315546 21.71779773 -44.52832031 22.62646484 C-61.10989548 26.95800884 -61.10989548 26.95800884 -72.9140625 38.55859375 C-75.46647265 44.29692593 -76.34997487 50.01870345 -76.74609375 56.234375 C-76.8622827 57.79299469 -76.97882953 59.35158774 -77.09570312 60.91015625 C-77.26956937 63.34132421 -77.43901644 65.77265422 -77.60180664 68.20458984 C-77.76301137 70.56971722 -77.94100201 72.93312167 -78.12109375 75.296875 C-78.16495712 76.02501404 -78.2088205 76.75315308 -78.25401306 77.50335693 C-78.48451446 80.43062253 -78.69041771 82.5554883 -80.39086914 84.99707031 C-82 86 -82 86 -84.625 85.75 C-87 85 -87 85 -88 84 C-88.95888819 66.46631424 -89.76572011 40.87867023 -77.734375 26.703125 C-67.83319807 16.98034765 -54.08277816 14.52387113 -41.09228516 11.15356445 C-40.43979797 10.98426422 -39.78731079 10.81496399 -39.11505127 10.64053345 C-37.78929589 10.29708941 -36.46324552 9.95478203 -35.13690186 9.61361694 C-26.45135073 7.36970895 -18.07663525 4.8638565 -9.95947266 0.99462891 C-6.20917714 -0.75334725 -3.94131205 -1.47221539 0 0 Z " fill="#191919" transform="translate(297,248)"/>
<path d="M0 0 C14.76456789 12.35499041 24.8154301 29.01393747 27.8125 48.1875 C27.9375 51.25 27.9375 51.25 27.8125 53.1875 C24.8425 53.1875 21.8725 53.1875 18.8125 53.1875 C18.60496094 52.19492188 18.39742187 51.20234375 18.18359375 50.1796875 C14.00293554 31.30238972 5.24604795 15.18066682 -11.1875 4.1875 C-20.03473318 -1.29396562 -29.0278547 -5.37213008 -39.1875 -7.8125 C-40.11433594 -8.03679687 -41.04117188 -8.26109375 -41.99609375 -8.4921875 C-63.6971219 -12.88657045 -87.84734929 -9.43426283 -106.5625 2.5625 C-108.80550427 4.06294599 -110.99466138 5.61216913 -113.1875 7.1875 C-113.95964844 7.74179688 -114.73179687 8.29609375 -115.52734375 8.8671875 C-129.28887503 19.82191141 -135.20857583 36.71608766 -139.1875 53.1875 C-138.56101563 53.16429687 -137.93453125 53.14109375 -137.2890625 53.1171875 C-136.47179687 53.09914063 -135.65453125 53.08109375 -134.8125 53.0625 C-134.00039062 53.03929687 -133.18828125 53.01609375 -132.3515625 52.9921875 C-130.1875 53.1875 -130.1875 53.1875 -128.1875 55.1875 C-127.94026184 57.0537262 -127.94026184 57.0537262 -127.94458008 59.34594727 C-127.93996513 60.63221764 -127.93996513 60.63221764 -127.93525696 61.94447327 C-127.94244247 62.87158615 -127.94962799 63.79869904 -127.95703125 64.75390625 C-127.95748947 65.70313461 -127.95794769 66.65236298 -127.9584198 67.63035583 C-127.96144362 69.63859303 -127.96933376 71.64682784 -127.98168945 73.6550293 C-127.99994561 76.74080649 -128.00219918 79.82628383 -128.00195312 82.91210938 C-128.00686817 84.85937761 -128.01269643 86.8066438 -128.01953125 88.75390625 C-128.02064407 89.68304337 -128.0217569 90.61218048 -128.02290344 91.56947327 C-128.02928329 92.42383469 -128.03566315 93.27819611 -128.04223633 94.15844727 C-128.04795403 95.29190331 -128.04795403 95.29190331 -128.05378723 96.44825745 C-128.1875 98.1875 -128.1875 98.1875 -129.1875 99.1875 C-133.09606764 99.49672212 -137.01821069 99.46597839 -140.9375 99.5 C-142.58492187 99.54350586 -142.58492187 99.54350586 -144.265625 99.58789062 C-152.36349854 99.65176948 -152.36349854 99.65176948 -156.328125 97.41796875 C-161.31955942 91.43034469 -160.55458592 85.38150547 -160.5625 77.875 C-160.58699219 76.66392578 -160.61148438 75.45285156 -160.63671875 74.20507812 C-160.65931259 67.32525336 -160.46692662 62.69841629 -156.1875 57.1875 C-151.05929487 53.1875 -151.05929487 53.1875 -148.1875 53.1875 C-148.125625 52.0325 -148.06375 50.8775 -148 49.6875 C-145.71298599 29.793611 -134.89695678 11.96466012 -119.7578125 -0.90625 C-84.48453963 -27.06636726 -34.7646429 -26.54074888 0 0 Z M-149.78149414 63.85302734 C-151.46052073 66.64081207 -151.69005712 68.29557489 -151.68359375 71.5390625 C-151.68423828 72.55484375 -151.68488281 73.570625 -151.68554688 74.6171875 C-151.66556641 75.67164063 -151.64558594 76.72609375 -151.625 77.8125 C-151.63208984 78.8746875 -151.63917969 79.936875 -151.64648438 81.03125 C-151.64905553 85.13028027 -151.64905553 85.13028027 -151.1875 89.1875 C-147.26299967 92.20445036 -147.26299967 92.20445036 -137.1875 91.1875 C-137.1875 81.6175 -137.1875 72.0475 -137.1875 62.1875 C-146.29881082 61.28701803 -146.29881082 61.28701803 -149.78149414 63.85302734 Z " fill="#363334" transform="translate(376.1875,83.8125)"/>
<path d="M0 0 C6.78540096 4.01516288 12.45557224 10.0662886 14.99609375 17.671875 C16.73419223 27.49123546 15.4906284 35.45899865 10.125 43.7421875 C5.5992934 49.7336059 -1.29808888 53.35886433 -8.625 54.8125 C-17.21862369 55.85054167 -25.65918841 53.46380731 -32.5 48.125 C-37.85038458 43.07042995 -41.21802573 36.42265111 -41.86328125 29.11328125 C-42.11435972 19.00406923 -39.65105698 11.99610441 -32.6484375 4.609375 C-23.60442866 -3.4219842 -11.05184219 -5.19601536 0 0 Z M-28.4375 13.75 C-32.4333055 19.34412769 -33.50044633 24.01357916 -32.625 30.8125 C-30.8917227 37.21050344 -27.25794306 40.27238178 -21.74609375 43.68359375 C-16.98791478 46.21603154 -12.60496183 46.62615914 -7.37890625 45.19921875 C-1.28945629 42.86818141 2.14113846 39.43710918 5.375 33.8125 C7.15168767 28.48243699 7.05310186 22.97394969 5.375 17.625 C2.05152889 12.95136875 -2.11550973 8.64899676 -7.625 6.8125 C-16.46545598 5.95379329 -22.34582578 6.91673065 -28.4375 13.75 Z " fill="#191919" transform="translate(166.625,328.1875)"/>
<path d="M0 0 C0.91007812 0.00128906 1.82015625 0.00257813 2.7578125 0.00390625 C9.46851504 0.09351504 9.46851504 0.09351504 11.75 2.375 C11.99723816 4.2412262 11.99723816 4.2412262 11.99291992 6.53344727 C11.99753487 7.81971764 11.99753487 7.81971764 12.00224304 9.13197327 C11.99505753 10.05908615 11.98787201 10.98619904 11.98046875 11.94140625 C11.98001053 12.89063461 11.97955231 13.83986298 11.9790802 14.81785583 C11.97605638 16.82609303 11.96816624 18.83432784 11.95581055 20.8425293 C11.93755439 23.92830649 11.93530082 27.01378383 11.93554688 30.09960938 C11.93063183 32.04687761 11.92480357 33.9941438 11.91796875 35.94140625 C11.91685593 36.87054337 11.9157431 37.79968048 11.91459656 38.75697327 C11.90821671 39.61133469 11.90183685 40.46569611 11.89526367 41.34594727 C11.88954597 42.47940331 11.88954597 42.47940331 11.88371277 43.63575745 C11.75 45.375 11.75 45.375 10.75 46.375 C6.84143236 46.68422212 2.91928931 46.65347839 -1 46.6875 C-2.09828125 46.71650391 -3.1965625 46.74550781 -4.328125 46.77539062 C-12.42599854 46.83926948 -12.42599854 46.83926948 -16.390625 44.60546875 C-21.38205942 38.61784469 -20.61708592 32.56900547 -20.625 25.0625 C-20.64949219 23.85142578 -20.67398438 22.64035156 -20.69921875 21.39257812 C-20.72175033 14.53171297 -20.65078528 9.79191344 -16.25 4.375 C-11.18844503 -0.30769606 -6.53706417 -0.17896862 0 0 Z M-9.84399414 11.04052734 C-11.52302073 13.82831207 -11.75255712 15.48307489 -11.74609375 18.7265625 C-11.74673828 19.74234375 -11.74738281 20.758125 -11.74804688 21.8046875 C-11.72806641 22.85914063 -11.70808594 23.91359375 -11.6875 25 C-11.69458984 26.0621875 -11.70167969 27.124375 -11.70898438 28.21875 C-11.71155553 32.31778027 -11.71155553 32.31778027 -11.25 36.375 C-7.32549967 39.39195036 -7.32549967 39.39195036 2.75 38.375 C2.75 28.805 2.75 19.235 2.75 9.375 C-6.36131082 8.47451803 -6.36131082 8.47451803 -9.84399414 11.04052734 Z " fill="#1A1A1A" transform="translate(236.25,136.625)"/>
<path d="M0 0 C0.87815369 0.25947418 1.75630737 0.51894836 2.66107178 0.7862854 C3.45309448 3.44062805 3.45309448 3.44062805 3.66107178 6.7862854 C1.80288696 9.51316833 1.80288696 9.51316833 -1.0112915 12.31680298 C-1.52005325 12.83301208 -2.028815 13.34922119 -2.55299377 13.881073 C-4.23837464 15.58196239 -5.94769009 17.25629512 -7.65924072 18.93081665 C-8.8382047 20.10687717 -10.01591253 21.28419817 -11.19241333 22.46272278 C-13.66183353 24.92892512 -16.14269428 27.38279727 -18.63287354 29.82803345 C-21.8227633 32.96128592 -24.98789158 36.11818869 -28.14543343 39.28400135 C-30.57573862 41.71710589 -33.01612803 44.13987866 -35.45995712 46.55939293 C-36.63064222 47.71987157 -37.79878867 48.88291702 -38.96432877 50.048563 C-40.59657544 51.67683802 -42.24127526 53.29137744 -43.89019775 54.90274048 C-45.29037643 56.28457268 -45.29037643 56.28457268 -46.71884155 57.69432068 C-49.40194967 59.83660383 -50.96330338 60.48181082 -54.33892822 60.7862854 C-55.96392822 59.0987854 -55.96392822 59.0987854 -57.33892822 56.7862854 C-56.15760044 52.29473546 -53.64299862 49.69015847 -50.43365479 46.42935181 C-49.93581482 45.91982971 -49.43797485 45.41030762 -48.92504883 44.88534546 C-47.28456914 43.21139625 -45.63299778 41.54898612 -43.97955322 39.8878479 C-42.83078303 38.7268936 -41.68216464 37.56578908 -40.53369141 36.40454102 C-38.12822309 33.97662976 -35.71640409 31.55522655 -33.30084229 29.13735962 C-30.20566965 26.03689052 -27.13421631 22.91400708 -24.06796646 19.78496742 C-21.70519181 17.38136435 -19.32681019 14.99368564 -16.94377899 12.6101799 C-15.80416592 11.46517783 -14.67029972 10.31442611 -13.54236603 9.15791702 C-11.96491091 7.54385041 -10.36687123 5.95337248 -8.76177979 4.36685181 C-7.85736145 3.45593781 -6.95294312 2.5450238 -6.02111816 1.60650635 C-3.33892822 -0.2137146 -3.33892822 -0.2137146 0 0 Z " fill="#191919" transform="translate(229.33892822265625,365.2137145996094)"/>
</svg>
