<?xml version="1.0" encoding="UTF-8"?>
<svg version="1.1" xmlns="http://www.w3.org/2000/svg" width="225" height="225">
<path d="M0 0 C74.25 0 148.5 0 225 0 C225 74.25 225 148.5 225 225 C150.75 225 76.5 225 0 225 C0 150.75 0 76.5 0 0 Z " fill="#FDFEFE" transform="translate(0,0)"/>
<path d="M0 0 C4.47679886 1.41332169 8.74527242 3.13454609 13.01953125 5.0625 C13.69926498 5.36613464 14.37899872 5.66976929 15.07933044 5.98260498 C16.55305125 6.64114809 18.02622319 7.30092057 19.49890137 7.96179199 C23.49798844 9.75634882 27.50097822 11.54215594 31.50390625 13.328125 C32.34605682 13.70406799 33.1882074 14.08001099 34.05587769 14.46734619 C40.43155576 17.30997471 46.82000798 20.12263605 53.21484375 22.921875 C54.60078484 23.52872131 54.60078484 23.52872131 56.01472473 24.14782715 C59.65120088 25.73944859 63.28797992 27.3303578 66.92642212 28.91748047 C69.45691926 30.02137534 71.98633259 31.12772321 74.515625 32.234375 C75.62761513 32.71786407 75.62761513 32.71786407 76.7620697 33.21112061 C77.82005516 33.67460907 77.82005516 33.67460907 78.89941406 34.14746094 C79.50142639 34.41008728 80.10343872 34.67271362 80.72369385 34.94329834 C84.18646135 36.55077639 87.58535572 38.29267786 91 40 C91 60.13 91 80.26 91 101 C86.54307715 100.10861543 83.32343048 98.95174518 79.21875 97.10546875 C78.54844757 96.80584229 77.87814514 96.50621582 77.18753052 96.19750977 C74.95620745 95.19888631 72.72815474 94.19317044 70.5 93.1875 C68.9278147 92.48228659 67.35538065 91.77762752 65.78271484 91.07348633 C63.26050018 89.94401369 60.7385174 88.81404288 58.21737671 87.68217468 C51.42661272 84.63398613 44.62544438 81.60971101 37.8203125 78.59375 C36.80422913 78.14324783 35.78814575 77.69274567 34.74127197 77.22859192 C30.70545007 75.43929553 26.66957075 73.65013062 22.63305664 71.86239624 C19.80946025 70.61143097 16.98667634 69.35864911 14.1640625 68.10546875 C12.90530807 67.54859375 12.90530807 67.54859375 11.62112427 66.98046875 C7.35881982 65.08628122 3.15293692 63.12742987 -1 61 C-1.02312792 53.19424805 -1.04091738 45.38850405 -1.05181217 37.58272648 C-1.05704002 33.9585404 -1.06413587 30.3343777 -1.07543945 26.71020508 C-1.08627184 23.21540025 -1.09227758 19.72061796 -1.09487724 16.22579765 C-1.09763551 14.23760611 -1.10544688 12.24942369 -1.11329651 10.26124573 C-1.11337204 9.06007614 -1.11344757 7.85890656 -1.11352539 6.62133789 C-1.115746 5.55766495 -1.11796661 4.493992 -1.12025452 3.39808655 C-1 1 -1 1 0 0 Z " fill="#312E50" transform="translate(34,120)"/>
<path d="M0 0 C0 19.8 0 39.6 0 60 C-13.92011556 66.96005778 -13.92011556 66.96005778 -20.90625 70.0859375 C-21.67884155 70.43258453 -22.45143311 70.77923157 -23.24743652 71.13638306 C-24.85309765 71.85526081 -26.45942209 72.57265887 -28.06640625 73.28857422 C-30.52676204 74.38694734 -32.98206807 75.49613968 -35.4375 76.60546875 C-37.01011925 77.30795786 -38.58302548 78.00980496 -40.15625 78.7109375 C-40.88541626 79.04209564 -41.61458252 79.37325378 -42.36584473 79.71444702 C-45.87259062 81.26262259 -48.10250422 82 -52 82 C-52.33 70.78 -52.66 59.56 -53 48 C-60.84631058 44.54381681 -60.84631058 44.54381681 -68.70678711 41.12011719 C-70.16483765 40.4651123 -70.16483765 40.4651123 -71.65234375 39.796875 C-72.65257568 39.35698242 -73.65280762 38.91708984 -74.68334961 38.46386719 C-77 37 -77 37 -77.83422852 34.82519531 C-77.88893311 34.22288086 -77.9436377 33.62056641 -78 33 C-67.76726069 28.13216421 -57.43691822 23.49928493 -47.07055664 18.92382812 C-40.53707138 16.03504642 -34.02675698 13.1035632 -27.5390625 10.11328125 C-25.42442328 9.14274704 -23.3095191 8.17279207 -21.19458008 7.20291138 C-19.82273745 6.57126418 -18.45243097 5.93626919 -17.08374023 5.29782104 C-15.16635583 4.40366637 -13.24399201 3.52113629 -11.3203125 2.640625 C-10.21961426 2.13047852 -9.11891602 1.62033203 -7.98486328 1.09472656 C-5 0 -5 0 0 0 Z " fill="#43B3D7" transform="translate(185,108)"/>
<path d="M0 0 C4.25043822 0.79611405 8.0927627 2.69686052 12.0234375 4.4375 C12.82568253 4.78976654 13.62792755 5.14203308 14.45448303 5.50497437 C17.09628463 6.66632356 19.73584028 7.83266054 22.375 9 C24.20450786 9.80810683 26.03401633 10.61621229 27.86352539 11.42431641 C30.69796574 12.67680712 33.53208591 13.93000436 36.36543274 15.18496704 C42.02952611 17.69278573 47.7013224 20.18181612 53.3815918 22.652771 C56.89864539 24.18486277 60.4109973 25.72752365 63.92242432 27.27246094 C65.59523487 28.00577445 67.27000178 28.73464174 68.94671631 29.45898438 C71.28114692 30.4684931 73.60793521 31.49391433 75.93359375 32.5234375 C76.96976585 32.96458389 76.96976585 32.96458389 78.02687073 33.41464233 C80.86969748 34.69027876 82.71786005 35.5660635 84.44165039 38.21728516 C84.62590576 38.80558105 84.81016113 39.39387695 85 40 C81.59579533 41.60135485 78.18763803 43.19354526 74.7734375 44.7734375 C71.28296308 46.39141008 67.81546585 48.05251802 64.3515625 49.7265625 C62.40127928 50.65154284 60.45075957 51.5760247 58.5 52.5 C57.56913574 52.95745605 56.63827148 53.41491211 55.67919922 53.88623047 C54.78475098 54.30533691 53.89030273 54.72444336 52.96875 55.15625 C52.17919922 55.53587891 51.38964844 55.91550781 50.57617188 56.30664062 C44.15579936 58.03464081 38.3931556 55.13648404 32.65234375 52.5078125 C31.87742081 52.16120575 31.10249786 51.814599 30.30409241 51.45748901 C27.84475488 50.35490721 25.39121098 49.24003806 22.9375 48.125 C21.28615926 47.38333043 19.63446946 46.64243752 17.98242188 45.90234375 C11.60122128 43.03499818 5.2368971 40.17325486 -1 37 C-1.0246501 31.89136104 -1.04283607 26.78275641 -1.05493164 21.67407227 C-1.05997204 19.93480832 -1.0668043 18.19554864 -1.07543945 16.45629883 C-1.08751792 13.96174063 -1.09323108 11.46723827 -1.09765625 8.97265625 C-1.10281754 8.19036148 -1.10797882 7.40806671 -1.11329651 6.60206604 C-1.11349226 4.73432886 -1.06199694 2.86670796 -1 1 C-0.67 0.67 -0.34 0.34 0 0 Z " fill="#322F51" transform="translate(49,81)"/>
<path d="M0 0 C0 14.52 0 29.04 0 44 C-19.06581719 53.5329086 -19.06581719 53.5329086 -25 52 C-27.42544498 51.07351716 -29.76570554 50.11254424 -32.12890625 49.05078125 C-32.79985825 48.75568161 -33.47081024 48.46058197 -34.16209412 48.15653992 C-36.29845005 47.21490835 -38.43042212 46.26377196 -40.5625 45.3125 C-41.96653042 44.69275536 -43.37082541 44.07360975 -44.77539062 43.45507812 C-53.22490989 39.72509683 -61.62742697 35.89986351 -70 32 C-70 31.01 -70 30.02 -70 29 C-53.36067112 21.23080287 -36.63230817 13.68283506 -19.83691406 6.2578125 C-19.08068756 5.92319 -18.32446106 5.5885675 -17.5453186 5.24380493 C-16.12318783 4.61475169 -14.70066506 3.98658364 -13.27767944 3.35946655 C-9.46935093 1.67668713 -9.46935093 1.67668713 -5.79052734 -0.26708984 C-4 -1 -4 -1 0 0 Z " fill="#45B3D7" transform="translate(167,62)"/>
<path d="M0 0 C3.61928337 0.4945385 6.68510308 1.59844244 10.0078125 3.08203125 C10.98234375 3.51386719 11.956875 3.94570313 12.9609375 4.390625 C14.00507812 4.85984375 15.04921875 5.3290625 16.125 5.8125 C18.35668429 6.80878763 20.5884585 7.80487386 22.8203125 8.80078125 C23.98594727 9.32236816 25.15158203 9.84395508 26.35253906 10.38134766 C29.46457107 11.76238997 32.58349876 13.12356465 35.71017456 14.47087097 C37.59330984 15.28267528 39.47442763 16.0989814 41.35498047 16.91674805 C43.75948495 17.96116945 46.16731638 18.99796898 48.57861328 20.02661133 C49.6664209 20.50251709 50.75422852 20.97842285 51.875 21.46875 C53.32519531 22.09426758 53.32519531 22.09426758 54.8046875 22.73242188 C57 24 57 24 58 27 C53.17346497 29.32200629 48.33564069 31.61785544 43.48583984 33.89086914 C41.83962749 34.66676514 40.19664912 35.44956322 38.55712891 36.23950195 C36.19220712 37.37745005 33.81655187 38.48961134 31.4375 39.59765625 C30.71320801 39.952798 29.98891602 40.30793976 29.24267578 40.67384338 C23.24335023 43.41940642 18.94027235 43.40556346 12.62304688 41.15209961 C11.68041992 40.65722046 11.68041992 40.65722046 10.71875 40.15234375 C10.02265625 39.79462891 9.3265625 39.43691406 8.609375 39.06835938 C7.56523438 38.50858398 7.56523438 38.50858398 6.5 37.9375 C5.77296875 37.56044922 5.0459375 37.18339844 4.296875 36.79492188 C2.52549507 35.87427046 0.76189339 34.93867864 -1 34 C-1.02465288 29.31860746 -1.04283739 24.63725241 -1.05493164 19.95581055 C-1.05997157 18.36205386 -1.0668035 16.76830181 -1.07543945 15.17456055 C-1.08751999 12.88849747 -1.09323155 10.60249533 -1.09765625 8.31640625 C-1.10281754 7.59973282 -1.10797882 6.88305939 -1.11329651 6.14466858 C-1.11349263 4.42936328 -1.06192007 2.71418734 -1 1 C-0.67 0.67 -0.34 0.34 0 0 Z " fill="#312E51" transform="translate(65,45)"/>
<path d="M0 0 C4.16006645 1.50585586 6.02365768 4.44605983 8.36328125 7.99609375 C8.75952194 8.58544205 9.15576263 9.17479034 9.56401062 9.78199768 C10.39629352 11.0255214 11.22390838 12.27218055 12.04711914 13.52172852 C13.311942 15.43665519 14.59713457 17.33668551 15.88476562 19.23632812 C16.69136721 20.44707618 17.49674887 21.65863803 18.30078125 22.87109375 C18.68712234 23.43992783 19.07346344 24.0087619 19.47151184 24.59483337 C20.5246582 26.21264648 20.5246582 26.21264648 22 29 C21 32 21 32 18.13598633 33.64160156 C16.87352838 34.23648312 15.60503908 34.81866767 14.33203125 35.390625 C13.65959885 35.69949646 12.98716644 36.00836792 12.2943573 36.32659912 C10.86852468 36.97735069 9.44015899 37.62257612 8.00952148 38.26269531 C5.82984801 39.2422041 3.66411579 40.24864092 1.49804688 41.2578125 C0.11013784 41.88710185 -1.27851237 42.51475957 -2.66796875 43.140625 C-3.31195114 43.44260803 -3.95593353 43.74459106 -4.61943054 44.0557251 C-8.83206125 45.90395343 -11.56729559 46.21960775 -16 45 C-18.3359375 44.02734375 -18.3359375 44.02734375 -20.375 42.9375 C-21.06335938 42.57527344 -21.75171875 42.21304688 -22.4609375 41.83984375 C-22.96882813 41.56269531 -23.47671875 41.28554688 -24 41 C-23.48222913 35.83244372 -20.88818893 32.1059505 -18.1875 27.8125 C-17.70627686 27.03600098 -17.22505371 26.25950195 -16.72924805 25.45947266 C-11.35032261 16.84315891 -5.69552611 8.40910137 0 0 Z " fill="#312E51" transform="translate(109,4)"/>
<path d="M0 0 C0 7.59 0 15.18 0 23 C-3.279375 24.7325 -3.279375 24.7325 -6.625 26.5 C-7.30127441 26.86544922 -7.97754883 27.23089844 -8.67431641 27.60742188 C-12.72009687 29.68508031 -15.50397679 30.33607209 -20 30 C-22.70068359 29.08203125 -22.70068359 29.08203125 -25.3984375 27.8125 C-26.37167969 27.36132812 -27.34492187 26.91015625 -28.34765625 26.4453125 C-29.34667969 25.96835937 -30.34570312 25.49140625 -31.375 25 C-32.39722656 24.52304687 -33.41945313 24.04609375 -34.47265625 23.5546875 C-36.98672959 22.37988687 -39.49538242 21.19479347 -42 20 C-41.72213745 18.12690735 -41.72213745 18.12690735 -41 16 C-39.45730591 14.86686707 -39.45730591 14.86686707 -37.44580078 13.96948242 C-36.31925583 13.4545649 -36.31925583 13.4545649 -35.16995239 12.929245 C-34.35332123 12.57489883 -33.53669006 12.22055267 -32.6953125 11.85546875 C-31.44293289 11.29440178 -31.44293289 11.29440178 -30.16525269 10.72200012 C-28.39798694 9.93426923 -26.6274578 9.15382551 -24.85400391 8.38012695 C-22.13492999 7.1918396 -19.42850699 5.97781686 -16.72265625 4.75976562 C-15.00589886 3.99844098 -13.28847199 3.23862381 -11.5703125 2.48046875 C-10.7577298 2.11600143 -9.94514709 1.75153412 -9.10794067 1.37602234 C-8.35060638 1.04850479 -7.59327209 0.72098724 -6.81298828 0.38354492 C-6.1476004 0.09138596 -5.48221252 -0.20077301 -4.79666138 -0.50178528 C-3 -1 -3 -1 0 0 Z " fill="#45B3D7" transform="translate(151,36)"/>
<path d="M0 0 C0.66 0 1.32 0 2 0 C2 11.55 2 23.1 2 35 C1.01 34.67 0.02 34.34 -1 34 C-1.02465288 29.31860746 -1.04283739 24.63725241 -1.05493164 19.95581055 C-1.05997157 18.36205386 -1.0668035 16.76830181 -1.07543945 15.17456055 C-1.08751999 12.88849747 -1.09323155 10.60249533 -1.09765625 8.31640625 C-1.10281754 7.59973282 -1.10797882 6.88305939 -1.11329651 6.14466858 C-1.11349263 4.42936328 -1.06192007 2.71418734 -1 1 C-0.67 0.67 -0.34 0.34 0 0 Z " fill="#56546F" transform="translate(65,45)"/>
</svg>
