<?xml version="1.0" encoding="UTF-8"?>
<svg version="1.1" xmlns="http://www.w3.org/2000/svg" width="512" height="512">
<path d="M0 0 C1.70718682 -0.00417818 3.41437085 -0.00965834 5.12154979 -0.01631981 C9.78997575 -0.03072979 14.45822451 -0.02654363 19.12665999 -0.019153 C24.17042471 -0.01441256 29.21415157 -0.02693896 34.25790405 -0.03717041 C44.13047583 -0.05434695 54.00298392 -0.05520074 63.87556676 -0.04995751 C71.90246048 -0.04591222 79.92933542 -0.04736363 87.95622826 -0.05270576 C89.67142882 -0.0538284 89.67142882 -0.0538284 91.4212799 -0.05497371 C93.7444208 -0.05650523 96.06756168 -0.05804357 98.39070257 -0.05958868 C120.1661222 -0.07330974 141.94150588 -0.06787893 163.71692469 -0.05640347 C183.62370471 -0.0464729 203.53039175 -0.05940943 223.43715743 -0.08333766 C243.89306742 -0.10774009 264.34893413 -0.11733362 284.80485839 -0.11068493 C296.28301712 -0.10719508 307.76110438 -0.10940928 319.23925209 -0.12693596 C329.01097162 -0.14167227 338.78256934 -0.14227471 348.55428652 -0.12486505 C353.53630419 -0.11636426 358.5181044 -0.11418301 363.50011063 -0.1295166 C368.06800691 -0.14340115 372.63550019 -0.1385523 377.20337339 -0.11927737 C378.8486383 -0.11552856 380.49393579 -0.11840676 382.13917158 -0.12888902 C400.5895325 -0.23800656 414.99799841 4.16125614 428.73405457 17.03611755 C442.82030673 31.31208356 446.51990788 46.86032625 446.44204712 66.33331299 C446.44622529 68.0404998 446.45170546 69.74768384 446.45836693 71.45486277 C446.47277691 76.12328874 446.46859074 80.79153749 446.46120012 85.45997298 C446.45645968 90.50373769 446.46898608 95.54746455 446.47921753 100.59121704 C446.49639407 110.46378882 446.49724786 120.33629691 446.49200463 130.20887975 C446.48795934 138.23577347 446.48941075 146.26264841 446.49475288 154.28954124 C446.49550131 155.43300829 446.49624973 156.57647533 446.49702083 157.75459289 C446.49855235 160.07773378 446.50009069 162.40087467 446.5016358 164.72401556 C446.51535686 186.49943519 446.50992605 208.27481887 446.49845058 230.05023768 C446.48852002 249.95701769 446.50145655 269.86370474 446.52538478 289.77047042 C446.54978721 310.22638041 446.55938074 330.68224712 446.55273205 351.13817137 C446.5492422 362.61633011 446.5514564 374.09441737 446.56898308 385.57256508 C446.58371939 395.34428461 446.58432182 405.11588233 446.56691217 414.88759951 C446.55841138 419.86961718 446.55623013 424.85141739 446.57156372 429.83342361 C446.58544827 434.4013199 446.58059942 438.96881318 446.56132448 443.53668638 C446.55757568 445.18195129 446.56045388 446.82724878 446.57093614 448.47248457 C446.68005368 466.92284549 442.28079098 481.3313114 429.40592957 495.06736755 C415.12996356 509.15361972 399.58172087 512.85322087 380.10873413 512.77536011 C378.40154731 512.77953828 376.69436328 512.78501845 374.98718435 512.79167992 C370.31875838 512.8060899 365.65050963 512.80190373 360.98207414 512.79451311 C355.93830943 512.78977267 350.89458256 512.80229907 345.85083008 512.81253052 C335.9782583 512.82970705 326.10575021 512.83056085 316.23316737 512.82531761 C308.20627365 512.82127233 300.17939871 512.82272374 292.15250587 512.82806587 C291.00903883 512.82881429 289.86557179 512.82956272 288.68745423 512.83033382 C286.36431333 512.83186533 284.04117245 512.83340368 281.71803156 512.83494879 C259.94261193 512.84866984 238.16722825 512.84323904 216.39180944 512.83176357 C196.48502942 512.82183301 176.57834238 512.83476954 156.6715767 512.85869776 C136.21566671 512.8831002 115.7598 512.89269373 95.30387574 512.88604504 C83.82571701 512.88255519 72.34762975 512.88476938 60.86948204 512.90229607 C51.09776251 512.91703238 41.32616479 512.91763481 31.55444761 512.90022516 C26.57242994 512.89172436 21.59062973 512.88954312 16.6086235 512.90487671 C12.04072722 512.91876126 7.47323394 512.91391241 2.90536074 512.89463747 C1.26009583 512.89088867 -0.38520166 512.89376687 -2.03043745 512.90424912 C-20.48079837 513.01336667 -34.88926428 508.61410397 -48.62532043 495.73924255 C-62.7115726 481.46327655 -66.41117375 465.91503386 -66.33331299 446.44204712 C-66.33749116 444.7348603 -66.34297133 443.02767627 -66.3496328 441.32049733 C-66.36404278 436.65207137 -66.35985661 431.98382261 -66.35246599 427.31538713 C-66.34772555 422.27162241 -66.36025195 417.22789555 -66.3704834 412.18414307 C-66.38765994 402.31157129 -66.38851373 392.4390632 -66.38327049 382.56648036 C-66.37922521 374.53958663 -66.38067662 366.51271169 -66.38601875 358.48581886 C-66.38676718 357.34235182 -66.3875156 356.19888478 -66.3882867 355.02076722 C-66.38981822 352.69762632 -66.39135656 350.37448543 -66.39290167 348.05134455 C-66.40662273 326.27592492 -66.40119192 304.50054124 -66.38971645 282.72512243 C-66.37978589 262.81834241 -66.39272242 242.91165537 -66.41665065 223.00488969 C-66.44105308 202.5489797 -66.45064661 182.09311299 -66.44399792 161.63718873 C-66.44050807 150.15903 -66.44272226 138.68094274 -66.46024895 127.20279503 C-66.47498526 117.4310755 -66.47558769 107.65947778 -66.45817804 97.8877606 C-66.44967725 92.90574292 -66.447496 87.92394272 -66.46282959 82.94193649 C-66.47671414 78.37404021 -66.47186529 73.80654692 -66.45259035 69.23867372 C-66.44884155 67.59340881 -66.45171975 65.94811133 -66.46220201 64.30287554 C-66.57131955 45.85251462 -62.17205685 31.44404871 -49.29719543 17.70799255 C-35.02122943 3.62174039 -19.47298674 -0.07786077 0 0 Z M-24.94563293 22.38768005 C-25.67325734 22.77593669 -26.40088174 23.16419332 -27.15055537 23.5642153 C-38.24916296 29.76915424 -44.4638363 39.37304691 -47.94563293 51.38768005 C-48.24489548 54.81165832 -48.24489548 54.81165832 -48.20290184 58.50115585 C-48.20640791 59.19731616 -48.20991399 59.89347648 -48.21352631 60.61073256 C-48.22282848 62.94293553 -48.2179201 65.27488816 -48.21305847 67.60710144 C-48.21679533 69.29632306 -48.221397 70.98554295 -48.22678912 72.6747601 C-48.23903016 77.31656295 -48.23875734 81.95829379 -48.23640037 86.6001091 C-48.23599248 91.60638797 -48.2470287 96.61264366 -48.2565155 101.61891174 C-48.27313268 111.42731195 -48.27862538 121.23568811 -48.27974026 131.04410121 C-48.28069042 139.01679798 -48.28479912 146.98948683 -48.29114151 154.96218109 C-48.3087561 177.56446624 -48.31798007 200.1667324 -48.31648056 222.76902446 C-48.31640065 223.98767299 -48.31632074 225.20632153 -48.3162384 226.4618988 C-48.31615664 227.68203475 -48.31607488 228.90217069 -48.31599064 230.15928045 C-48.31517774 249.93328051 -48.33431583 269.7072044 -48.36251514 289.48118243 C-48.39123912 309.78322889 -48.40505569 330.0852382 -48.40332758 350.3873055 C-48.4026635 361.78605061 -48.40816378 373.18471587 -48.42968369 384.58344269 C-48.4478891 394.28878387 -48.45224806 403.99400901 -48.43866484 413.69935986 C-48.43213192 418.65047314 -48.43202978 423.60136376 -48.44937134 428.5524559 C-48.46509268 433.08764592 -48.46224796 437.62243655 -48.44480307 442.15761676 C-48.44173111 443.79556052 -48.44537297 445.43353401 -48.45652322 447.07144269 C-48.51238054 455.86085371 -48.21486443 463.45323547 -43.94563293 471.38768005 C-43.5573763 472.11530446 -43.16911967 472.84292886 -42.76909769 473.59260249 C-36.56415875 484.69121008 -26.96026607 490.90588342 -14.94563293 494.38768005 C-11.52165467 494.6869426 -11.52165467 494.6869426 -7.83215714 494.64494896 C-7.13599682 494.64845503 -6.43983651 494.65196111 -5.72258043 494.65557343 C-3.39037746 494.6648756 -1.05842483 494.65996722 1.27378845 494.65510559 C2.96301007 494.65884245 4.65222997 494.66344412 6.34144711 494.66883624 C10.98324996 494.68107728 15.6249808 494.68080446 20.26679611 494.67844748 C25.27307498 494.6780396 30.27933067 494.68907581 35.28559875 494.69856262 C45.09399896 494.7151798 54.90237512 494.7206725 64.71078822 494.72178738 C72.683485 494.72273754 80.65617384 494.72684624 88.6288681 494.73318863 C111.23115325 494.75080322 133.83341941 494.76002719 156.43571147 494.75852768 C158.26368427 494.75840781 158.26368427 494.75840781 160.12858582 494.75828552 C161.95878973 494.75816288 161.95878973 494.75816288 163.82596746 494.75803776 C183.59996752 494.75722486 203.37389141 494.77636295 223.14786944 494.80456226 C243.4499159 494.83328624 263.75192521 494.84710281 284.05399251 494.8453747 C295.45273762 494.84471062 306.85140288 494.8502109 318.2501297 494.8717308 C327.95547088 494.88993622 337.66069602 494.89429518 347.36604688 494.88071196 C352.31716016 494.87417904 357.26805077 494.8740769 362.21914291 494.89141846 C366.75433293 494.9071398 371.28912356 494.90429508 375.82430378 494.88685019 C377.46224753 494.88377823 379.10022102 494.88742009 380.73812971 494.89857034 C389.52754072 494.95442766 397.11992248 494.65691155 405.05436707 490.38768005 C405.78199147 489.99942342 406.50961587 489.61116679 407.2592895 489.2111448 C418.35789709 483.00620586 424.57257043 473.40231319 428.05436707 461.38768005 C428.35362961 457.96370179 428.35362961 457.96370179 428.31163597 454.27420425 C428.31689508 453.22996379 428.31689508 453.22996379 428.32226044 452.16462755 C428.33156261 449.83242457 428.32665423 447.50047195 428.3217926 445.16825867 C428.32552946 443.47903705 428.33013113 441.78981715 428.33552325 440.1006 C428.34776429 435.45879715 428.34749147 430.81706632 428.3451345 426.17525101 C428.34472661 421.16897214 428.35576283 416.16271645 428.36524963 411.15644836 C428.38186681 401.34804816 428.38735951 391.539672 428.38847439 381.7312589 C428.38942455 373.75856212 428.39353325 365.78587328 428.39987564 357.81317902 C428.41749023 335.21089386 428.4267142 312.60862771 428.42521469 290.00633565 C428.42513478 288.78768711 428.42505487 287.56903858 428.42497253 286.3134613 C428.42484989 284.48325739 428.42484989 284.48325739 428.42472477 282.61607966 C428.42391187 262.8420796 428.44304996 243.06815571 428.47124927 223.29417768 C428.49997326 202.99213122 428.51378982 182.69012191 428.51206172 162.38805461 C428.51139763 150.9893095 428.51689791 139.59064423 428.53841782 128.19191742 C428.55662323 118.48657624 428.56098219 108.7813511 428.54739897 99.07600024 C428.54086605 94.12488696 428.54076391 89.17399635 428.55810547 84.22290421 C428.57382681 79.68771419 428.57098209 75.15292356 428.5535372 70.61774334 C428.55046525 68.97979959 428.5541071 67.3418261 428.56525736 65.70391741 C428.62111467 56.9145064 428.32359856 49.32212464 424.05436707 41.38768005 C423.66611043 40.66005565 423.2778538 39.93243124 422.87783182 39.18275762 C416.67289288 28.08415003 407.06900021 21.86947668 395.05436707 18.38768005 C391.6303888 18.08841751 391.6303888 18.08841751 387.94089127 18.13041115 C387.24473095 18.12690507 386.54857064 18.123399 385.83131456 18.11978668 C383.49911159 18.11048451 381.16715896 18.11539289 378.83494568 18.12025452 C377.14572406 18.11651766 375.45650416 18.11191599 373.76728702 18.10652387 C369.12548417 18.09428282 364.48375333 18.09455564 359.84193802 18.09691262 C354.83565915 18.09732051 349.82940346 18.08628429 344.82313538 18.07679749 C335.01473517 18.06018031 325.20635901 18.05468761 315.39794591 18.05357273 C307.42524913 18.05262257 299.45256029 18.04851387 291.47986603 18.04217148 C268.87758088 18.02455689 246.27531472 18.01533292 223.67302266 18.01683243 C221.84504986 18.01695229 221.84504986 18.01695229 219.98014832 18.01707458 C218.76001237 18.01715635 217.53987643 18.01723811 216.28276667 18.01732235 C196.50876661 18.01813525 176.73484272 17.99899716 156.96086469 17.97079785 C136.65881823 17.94207386 116.35680892 17.9282573 96.05474162 17.9299854 C84.65599651 17.93064949 73.25733125 17.92514921 61.85860443 17.9036293 C52.15326325 17.88542389 42.44803811 17.88106493 32.74268726 17.89464815 C27.79157398 17.90118107 22.84068336 17.90128321 17.88959122 17.88394165 C13.3544012 17.86822031 8.81961057 17.87106503 4.28443035 17.88850991 C2.6464866 17.89158187 1.00851311 17.88794002 -0.62939557 17.87678976 C-9.41880659 17.82093245 -17.01118835 18.11844856 -24.94563293 22.38768005 Z " fill="#000000" transform="translate(65.94563293457031,-0.3876800537109375)"/>
<path d="M0 0 C1.02463852 -0.00637985 2.04927704 -0.0127597 3.10496521 -0.01933289 C4.75662437 -0.02100212 4.75662437 -0.02100212 6.44165039 -0.02270508 C7.57832657 -0.02603348 8.71500275 -0.02936188 9.88612366 -0.03279114 C12.2893127 -0.03785226 14.69250876 -0.04019971 17.09570312 -0.04003906 C20.77168344 -0.04222584 24.44736378 -0.06039128 28.12329102 -0.0793457 C30.45857645 -0.08227972 32.7938633 -0.08426446 35.12915039 -0.08520508 C36.77777321 -0.09598335 36.77777321 -0.09598335 38.45970154 -0.10697937 C39.48749222 -0.10390274 40.5152829 -0.10082611 41.57421875 -0.09765625 C42.47482529 -0.09908127 43.37543182 -0.10050629 44.30332947 -0.10197449 C47.8988498 0.2468416 50.75812091 1.28593917 53.60180664 3.52026367 C56.18903669 6.88366274 55.98011905 10.72212307 55.99224854 14.82492065 C55.99795868 15.98290161 56.00366882 17.14088257 56.009552 18.33395386 C56.01122879 20.23384567 56.01122879 20.23384567 56.01293945 22.17211914 C56.01756993 23.52256404 56.0225949 24.87300763 56.02798462 26.22344971 C56.04108705 29.88878758 56.04754916 33.55410715 56.05199528 37.21946478 C56.05492901 39.5103985 56.05903435 41.80132724 56.06349945 44.09225845 C56.07716765 51.26301706 56.08683807 58.43376426 56.09070134 65.60453498 C56.09518294 73.8769609 56.11273831 82.14922166 56.14170194 90.42159736 C56.16332559 96.82002375 56.17340596 103.21840369 56.17474246 109.61686623 C56.17578985 113.4366778 56.18168359 117.25633398 56.19956207 121.07610703 C56.21605507 124.66961787 56.21819246 128.26285668 56.20942307 131.85639191 C56.20828713 133.79945352 56.22199434 135.74250616 56.23617554 137.68551636 C56.18416155 148.55333651 56.18416155 148.55333651 52.85180664 153.14526367 C49.46379623 155.40393728 48.24304599 155.40971062 44.26635742 155.45166016 C43.12151886 155.46764755 41.9766803 155.48363495 40.79714966 155.50010681 C39.55963959 155.50546951 38.32212952 155.51083221 37.04711914 155.51635742 C35.77585175 155.52538589 34.50458435 155.53441437 33.1947937 155.54371643 C30.50300943 155.55823766 27.81165012 155.56790539 25.11987305 155.57080078 C21.67734994 155.57618258 18.23600147 155.61385313 14.79380989 155.65954494 C11.50331618 155.69651413 8.21279264 155.69783169 4.92211914 155.70385742 C3.68865753 155.72338974 2.45519592 155.74292206 1.18435669 155.76304626 C-8.33316786 155.71279627 -8.33316786 155.71279627 -11.40258789 152.79785156 C-13.95652576 148.91693759 -14.2743536 146.12369096 -14.28190613 141.57913208 C-14.28617111 140.42108063 -14.2904361 139.26302917 -14.29483032 138.06988525 C-14.29437714 136.79812439 -14.29392395 135.52636353 -14.29345703 134.21606445 C-14.29644898 132.86414497 -14.29985159 131.51222634 -14.30363464 130.16030884 C-14.31247557 126.48670964 -14.31481281 122.81313374 -14.31545043 119.13952494 C-14.31639974 116.07294814 -14.32007833 113.00637676 -14.32362252 109.93980205 C-14.33176756 102.70441276 -14.33420673 95.46903592 -14.33349609 88.23364258 C-14.33289538 80.77020808 -14.34344581 73.30684588 -14.35923976 65.84342968 C-14.37231644 59.43569731 -14.37767993 53.02798857 -14.37704068 46.62024295 C-14.37678572 42.7932213 -14.37963599 38.96626388 -14.39021873 35.13925552 C-14.3999018 31.539237 -14.39997751 27.93934409 -14.3927021 24.33932114 C-14.39115831 22.39010765 -14.39950171 20.44089417 -14.40814209 18.49169922 C-14.4039476 17.32800812 -14.39975311 16.16431702 -14.39543152 14.96536255 C-14.39597629 13.95620852 -14.39652105 12.94705448 -14.39708233 11.90732002 C-14.06311706 8.20112569 -13.07659106 5.32686075 -10.77319336 2.39526367 C-7.55503279 -0.08024446 -3.93466576 0.01666811 0 0 Z M3.85180664 18.14526367 C3.85180664 57.41526367 3.85180664 96.68526367 3.85180664 137.14526367 C15.07180664 137.14526367 26.29180664 137.14526367 37.85180664 137.14526367 C37.85180664 97.87526367 37.85180664 58.60526367 37.85180664 18.14526367 C26.63180664 18.14526367 15.41180664 18.14526367 3.85180664 18.14526367 Z " fill="#000000" transform="translate(235.148193359375,109.854736328125)"/>
<path d="M0 0 C0.84911453 -0.0049649 1.69822906 -0.00992981 2.57307434 -0.01504517 C5.38490609 -0.02966172 8.19668141 -0.03646813 11.00854492 -0.04199219 C12.96286521 -0.04774427 14.91718548 -0.053502 16.87150574 -0.05926514 C20.97130598 -0.06977383 25.07108662 -0.07561729 29.17089844 -0.07910156 C34.41999136 -0.08458449 39.66882466 -0.10860883 44.91783619 -0.13707352 C48.95591484 -0.15571317 52.99393114 -0.16090622 57.03204918 -0.16243744 C58.96690985 -0.16546174 60.90176949 -0.17348276 62.83658791 -0.18662262 C65.5462064 -0.20370999 68.25519298 -0.20179626 70.96484375 -0.1953125 C71.76142395 -0.20452728 72.55800415 -0.21374207 73.37872314 -0.22323608 C78.19618823 -0.18719268 81.51452879 0.47538428 85.67651367 3.16113281 C87.93518728 6.54914322 87.94096062 7.76989346 87.98291016 11.74658203 C87.99889755 12.89142059 88.01488495 14.03625916 88.03135681 15.21578979 C88.03671951 16.45329987 88.04208221 17.69080994 88.04760742 18.96582031 C88.05663589 20.23708771 88.06566437 21.5083551 88.07496643 22.81814575 C88.08948766 25.50993002 88.09915539 28.20128934 88.10205078 30.89306641 C88.10743258 34.33558951 88.14510313 37.77693799 88.19079494 41.21912956 C88.22776413 44.50962327 88.22908169 47.80014682 88.23510742 51.09082031 C88.25463974 52.32428192 88.27417206 53.55774353 88.29429626 54.82858276 C88.24404627 64.34610731 88.24404627 64.34610731 85.32910156 67.41552734 C80.75487285 70.42571927 76.7208237 70.30941357 71.42895508 70.30639648 C70.58798782 70.3097551 69.74702057 70.31311371 68.88056946 70.3165741 C66.09639006 70.32608448 63.31227081 70.32802728 60.52807617 70.32910156 C58.59378026 70.33231419 56.6594846 70.33567826 54.72518921 70.33918762 C50.6682682 70.34517918 46.61136849 70.3470275 42.55444336 70.34643555 C37.35687533 70.34633395 32.15944398 70.35998387 26.96190834 70.37720776 C22.96590549 70.38832858 18.96993566 70.39035472 14.97391891 70.38982582 C13.05777897 70.3910059 11.14163818 70.39542923 9.22551346 70.40315819 C6.54453219 70.41295924 3.86384741 70.41007951 1.18286133 70.40405273 C-0.00337578 70.41248199 -0.00337578 70.41248199 -1.21357727 70.42108154 C-6.30349208 70.39201745 -9.93880463 69.84691541 -14.11073303 66.89768982 C-15.87110033 64.3769973 -15.71177224 62.43203024 -15.72753906 59.3762207 C-15.74022324 58.18811295 -15.75290741 57.00000519 -15.76597595 55.77589417 C-15.76304031 54.49149948 -15.76010468 53.2071048 -15.75708008 51.88378906 C-15.76232193 50.5657579 -15.76756378 49.24772675 -15.77296448 47.88975525 C-15.78189904 45.09966466 -15.77946918 42.30986024 -15.76953125 39.51977539 C-15.75804533 35.94724646 -15.77824365 32.37570652 -15.80744839 28.80330753 C-15.830227 25.39258228 -15.82334319 21.9820886 -15.81958008 18.57128906 C-15.83081406 17.28891861 -15.84204803 16.00654816 -15.85362244 14.68531799 C-15.84424149 13.49405807 -15.83486053 12.30279816 -15.82519531 11.07543945 C-15.82502914 10.02747696 -15.82486298 8.97951447 -15.82469177 7.89979553 C-15.19418988 4.45463735 -14.0462831 3.2988862 -11.32348633 1.16113281 C-7.52524126 -0.10494888 -3.95785861 0.00551213 0 0 Z M2.67651367 18.16113281 C2.67651367 29.38113281 2.67651367 40.60113281 2.67651367 52.16113281 C24.78651367 52.16113281 46.89651367 52.16113281 69.67651367 52.16113281 C69.67651367 40.94113281 69.67651367 29.72113281 69.67651367 18.16113281 C47.56651367 18.16113281 25.45651367 18.16113281 2.67651367 18.16113281 Z " fill="#000000" transform="translate(305.323486328125,331.8388671875)"/>
<path d="M0 0 C0.85072083 -0.0049649 1.70144165 -0.00992981 2.57794189 -0.01504517 C5.39458014 -0.02966017 8.21116208 -0.03646743 11.02783203 -0.04199219 C12.98454795 -0.04774385 14.94126385 -0.05350158 16.89797974 -0.05926514 C21.00197614 -0.06977301 25.10595297 -0.07561719 29.20996094 -0.07910156 C34.46812006 -0.08458813 39.72602048 -0.10862056 44.98409843 -0.13707352 C49.02642574 -0.15569815 53.06869069 -0.16090539 57.11105728 -0.16243744 C59.04953553 -0.16546451 60.98801266 -0.17349486 62.92644882 -0.18662262 C65.63866618 -0.20368061 68.35025074 -0.20180358 71.0625 -0.1953125 C71.86267548 -0.20452728 72.66285095 -0.21374207 73.48727417 -0.22323608 C79.33548302 -0.17939988 82.56384978 1.06433806 86.66064453 5.16113281 C86.92807007 7.65255737 86.92807007 7.65255737 86.95117188 10.83251953 C86.96393158 12.02070282 86.97669128 13.20888611 86.98983765 14.43307495 C86.99206329 15.72263092 86.99428894 17.01218689 86.99658203 18.34082031 C87.00656723 20.31998947 87.00656723 20.31998947 87.01675415 22.33914185 C87.02873902 25.13514475 87.03243383 27.931024 87.03125 30.72705078 C87.03104691 34.30741013 87.05833223 37.88697482 87.09279442 41.46714592 C87.11505107 44.22099435 87.11908792 46.97465131 87.11803055 49.72858047 C87.12153508 51.6895459 87.14320979 53.65045157 87.16513062 55.61129761 C87.15897736 56.80578522 87.1528241 58.00027283 87.14648438 59.23095703 C87.14933441 60.28193573 87.15218445 61.33291443 87.15512085 62.41574097 C86.52900496 65.8920115 85.4429662 67.04037427 82.66064453 69.16113281 C78.5959014 70.43505016 74.53614227 70.31629105 70.31542969 70.32226562 C69.4759227 70.32723053 68.63641571 70.33219543 67.77146912 70.33731079 C64.99754005 70.35190167 62.22366815 70.35872888 59.44970703 70.36425781 C57.51923623 70.37001127 55.58876545 70.37576898 53.65829468 70.38153076 C49.61154922 70.39203164 45.56482357 70.39788045 41.51806641 70.40136719 C36.33738209 70.40685359 31.15696036 70.43088863 25.97635841 70.45933914 C21.98889402 70.47797791 18.00149277 70.48317176 14.01398849 70.48470306 C12.10424741 70.48772672 10.19450737 70.49574555 8.28480911 70.50888824 C5.61121968 70.52597652 2.93827059 70.52406188 0.26464844 70.51757812 C-0.52100998 70.52679291 -1.3066684 70.53600769 -2.11613464 70.54550171 C-6.90574172 70.50918571 -10.19967553 69.82553999 -14.33935547 67.16113281 C-16.59802908 63.7731224 -16.60380242 62.55237216 -16.64575195 58.57568359 C-16.66173935 57.43084503 -16.67772675 56.28600647 -16.69419861 55.10647583 C-16.69956131 53.86896576 -16.70492401 52.63145569 -16.71044922 51.35644531 C-16.71947769 50.08517792 -16.72850616 48.81391052 -16.73780823 47.50411987 C-16.75232946 44.8123356 -16.76199719 42.12097629 -16.76489258 39.42919922 C-16.77027438 35.98667611 -16.80794492 32.54532764 -16.85363674 29.10313606 C-16.89060593 25.81264235 -16.89192349 22.52211881 -16.89794922 19.23144531 C-16.91748154 17.9979837 -16.93701385 16.76452209 -16.95713806 15.49368286 C-16.90688806 5.97615832 -16.90688806 5.97615832 -13.99194336 2.90673828 C-9.39692732 -0.1171333 -5.31695057 0.00739048 0 0 Z M1.66064453 18.16113281 C1.66064453 29.38113281 1.66064453 40.60113281 1.66064453 52.16113281 C23.77064453 52.16113281 45.88064453 52.16113281 68.66064453 52.16113281 C68.66064453 40.94113281 68.66064453 29.72113281 68.66064453 18.16113281 C46.55064453 18.16113281 24.44064453 18.16113281 1.66064453 18.16113281 Z " fill="#000000" transform="translate(135.33935546875,331.8388671875)"/>
<path d="M0 0 C4.83981609 2.53014247 7.66558842 6.22236645 9.61328125 11.25390625 C10.43623148 18.04324565 9.66187284 22.65551813 5.86328125 28.31640625 C1.80969047 32.26605881 -1.88477981 34.10789338 -7.51171875 34.62890625 C-14.32362992 34.04167253 -18.73063022 31.47782424 -23.13671875 26.31640625 C-26.01440388 21.59094435 -25.75250797 16.68365553 -25.13671875 11.31640625 C-23.48334592 6.4367221 -20.39219533 3.15339064 -16.13671875 0.31640625 C-11.02633635 -1.38705455 -5.17576328 -1.65586577 0 0 Z " fill="#000000" transform="translate(460.13671875,435.68359375)"/>
<path d="M0 0 C4.88594523 2.61218284 8.1224232 6.04305085 9.8671875 11.27734375 C10.60060415 18.04641872 10.0428939 23.73108341 5.8671875 29.27734375 C0.33236969 33.77438322 -4.07153008 34.86578395 -11.1328125 34.27734375 C-17.4782925 32.09497306 -21.23723195 28.87894679 -24.3828125 22.90234375 C-26.16545409 16.66309818 -25.16613905 11.92560698 -22.1328125 6.27734375 C-16.14564245 -0.63092938 -8.94696545 -3.03148097 0 0 Z " fill="#000000" transform="translate(67.1328125,435.72265625)"/>
<path d="M0 0 C3.94965256 4.05359078 5.79148713 7.74806106 6.3125 13.375 C5.83789236 18.88044866 4.18372842 22.59821635 0.625 26.8125 C-4.20910649 30.84092208 -8.32492718 31.4542427 -14.5 31.31640625 C-19.6401513 30.66585585 -22.86268026 28.22710814 -26.375 24.4375 C-29.77738224 19.33392664 -29.58951311 13.93664614 -29 8 C-27.28857397 2.65057121 -23.87093983 -0.36157426 -19 -3 C-12.1758677 -5.6415996 -5.84058898 -3.91917518 0 0 Z " fill="#000000" transform="translate(464,46)"/>
<path d="M0 0 C4.33693021 3.66229662 6.62497759 6.61325915 7.25390625 12.29296875 C7.5433699 18.46508082 6.68141745 22.02511155 3 27 C-1.91292291 31.55344074 -5.84919014 32.36293035 -12.36328125 32.27734375 C-18.1045447 31.67344789 -21.8312113 29.43850917 -25.4375 25 C-27.95127937 20.17354361 -28.45713695 16.48564339 -28 11 C-25.81762931 4.65452 -22.60160304 0.89558055 -16.625 -2.25 C-10.38575443 -4.03264159 -5.64826323 -3.03332655 0 0 Z " fill="#000000" transform="translate(70,45)"/>
</svg>
