<?xml version="1.0" encoding="UTF-8"?>
<svg version="1.1" xmlns="http://www.w3.org/2000/svg" width="225" height="225">
<path d="M0 0 C74.25 0 148.5 0 225 0 C225 74.25 225 148.5 225 225 C150.75 225 76.5 225 0 225 C0 150.75 0 76.5 0 0 Z " fill="#00C895" transform="translate(0,0)"/>
<path d="M0 0 C0.845625 -0.00773437 1.69125 -0.01546875 2.5625 -0.0234375 C5.71708916 0.4922165 6.91277013 0.90699171 9 3.375 C9.63850652 6.42872682 9.69704603 9.45025055 9.75 12.5625 C9.77964844 13.40748047 9.80929688 14.25246094 9.83984375 15.12304688 C9.9104699 17.20651822 9.95750795 19.29076506 10 21.375 C13.65316671 20.12523244 14.78065836 19.70401247 17 16.375 C17.66 16.375 18.32 16.375 19 16.375 C19 15.715 19 15.055 19 14.375 C20.93742341 14.34796619 22.87495479 14.32858875 24.8125 14.3125 C25.89144531 14.30089844 26.97039062 14.28929688 28.08203125 14.27734375 C31 14.375 31 14.375 34 15.375 C34 16.035 34 16.695 34 17.375 C34.5775 17.601875 35.155 17.82875 35.75 18.0625 C38.5663661 19.70538023 40.08077114 21.77033227 42 24.375 C42.515625 23.446875 43.03125 22.51875 43.5625 21.5625 C46.06347893 17.85929611 48.67059132 16.60166579 53 15.375 C58.94604254 15.0940846 63.09786225 17.20903603 68 20.375 C68.125 23.25 68.125 23.25 68 26.375 C67.34 27.035 66.68 27.695 66 28.375 C63.375 28 63.375 28 61 27.375 C60.505 23.91 60.505 23.91 60 20.375 C58.35 20.375 56.7 20.375 55 20.375 C52.55593177 26.48517057 51.86956761 32.13267523 54.375 38.25 C55.80238254 41.37813679 55.80238254 41.37813679 58 43.375 C62.05261287 43.71990322 63.54754176 43.67663882 67 41.375 C67.99 41.375 68.98 41.375 70 41.375 C70.02578125 40.44558594 70.0515625 39.51617187 70.078125 38.55859375 C70.66371681 25.79535398 70.66371681 25.79535398 75 20.375 C78.68259057 17.72913182 81.56234203 16.89816286 86.0625 16.5625 C87.59583984 16.42908203 87.59583984 16.42908203 89.16015625 16.29296875 C92.17262279 16.37998635 93.60086037 16.56902514 96 18.375 C97.265625 20.7578125 97.265625 20.7578125 98.25 23.5 C98.58515625 24.41007812 98.9203125 25.32015625 99.265625 26.2578125 C99.50796875 26.95648438 99.7503125 27.65515625 100 28.375 C102.31 27.715 104.62 27.055 107 26.375 C107 25.715 107 25.055 107 24.375 C108.258125 24.354375 109.51625 24.33375 110.8125 24.3125 C111.52019531 24.30089844 112.22789062 24.28929688 112.95703125 24.27734375 C116.77732038 24.45995795 117.96367761 25.33513396 120.5625 28.1875 C124.47852973 32.93309366 125.50400943 36.78127757 125.38671875 42.8984375 C124.74655237 46.99808884 123.0470353 48.60496791 120 51.375 C115.51663434 54.07435974 111.09779284 54.15869054 106 53.375 C103.06605655 52.0212351 100.54133112 50.36263327 98 48.375 C97.55011719 48.7359375 97.10023438 49.096875 96.63671875 49.46875 C91.62287096 53.08595482 87.71659193 54.07596375 81.546875 53.8203125 C78.05960326 53.2105748 75.81379169 51.45184625 73 49.375 C69.84835745 49.45186933 68.3302187 50.15239974 65.72265625 51.91015625 C62.56358264 53.60980131 60.56469775 53.77728085 57 53.75 C55.989375 53.75773437 54.97875 53.76546875 53.9375 53.7734375 C50.61389056 53.32262877 48.81860597 52.12685787 46 50.375 C43.25147807 50.01524582 40.7895412 50.23315892 38 50.375 C38 51.035 38 51.695 38 52.375 C26.615 52.87 26.615 52.87 15 53.375 C15 52.715 15 52.055 15 51.375 C8.07 51.375 1.14 51.375 -6 51.375 C-6.66 50.055 -7.32 48.735 -8 47.375 C-10.64 47.705 -13.28 48.035 -16 48.375 C-16 49.035 -16 49.695 -16 50.375 C-18.35300475 51.55150238 -19.76033709 51.47658964 -22.375 51.4375 C-23.14585938 51.42847656 -23.91671875 51.41945312 -24.7109375 51.41015625 C-25.46632812 51.39855469 -26.22171875 51.38695312 -27 51.375 C-28.32 51.375 -29.64 51.375 -31 51.375 C-33.42784935 50.50791095 -35.69588511 49.52705745 -38 48.375 C-38.9075 49.2 -39.815 50.025 -40.75 50.875 C-46.33212757 54.88006307 -52.78695042 54.0353076 -59.29296875 53.015625 C-61.1875 52.5625 -61.1875 52.5625 -64 51.375 C-65.30765478 47.45203567 -65.1971417 44.51497567 -65 40.375 C-64.34 39.715 -63.68 39.055 -63 38.375 C-62.01 38.375 -61.02 38.375 -60 38.375 C-59.731875 39.344375 -59.46375 40.31375 -59.1875 41.3125 C-58.795625 42.323125 -58.40375 43.33375 -58 44.375 C-54.52674819 45.5327506 -51.63932552 45.44366652 -48 45.375 C-48 43.395 -48 41.415 -48 39.375 C-48.67546875 39.07207031 -49.3509375 38.76914063 -50.046875 38.45703125 C-59.51201583 34.01169777 -59.51201583 34.01169777 -62 29.375 C-62.79149224 25.24165164 -62.17027232 23.67160339 -60.0625 20 C-58.3263461 18.10556427 -57.38334542 17.4477871 -54.83984375 16.96484375 C-50.81377353 16.91779452 -46.90493596 17.36727459 -43 18.375 C-43 17.715 -43 17.055 -43 16.375 C-42.34 16.375 -41.68 16.375 -41 16.375 C-41 17.035 -41 17.695 -41 18.375 C-40.34 18.375 -39.68 18.375 -39 18.375 C-38.67 19.035 -38.34 19.695 -38 20.375 C-37.34 20.375 -36.68 20.375 -36 20.375 C-35.67 19.715 -35.34 19.055 -35 18.375 C-34.01 18.045 -33.02 17.715 -32 17.375 C-31.67 16.715 -31.34 16.055 -31 15.375 C-15.05446496 14.51359655 -15.05446496 14.51359655 -10.5 17.875 C-9.675 18.7 -8.85 19.525 -8 20.375 C-7.87963336 14.59740116 -8.1679418 9.09540011 -9 3.375 C-5.95464354 0.7103131 -4.03928889 -0.03694472 0 0 Z " fill="#35C4A0" transform="translate(83,86.625)"/>
<path d="M0 0 C0.845625 -0.00773437 1.69125 -0.01546875 2.5625 -0.0234375 C5.71708916 0.4922165 6.91277013 0.90699171 9 3.375 C9.63850652 6.42872682 9.69704603 9.45025055 9.75 12.5625 C9.77964844 13.40748047 9.80929688 14.25246094 9.83984375 15.12304688 C9.9104699 17.20651822 9.95750795 19.29076506 10 21.375 C11.32 21.045 12.64 20.715 14 20.375 C13.67 23.015 13.34 25.655 13 28.375 C15.31 28.375 17.62 28.375 20 28.375 C20.08226668 25.33113276 19.97608217 23.30324652 19 20.375 C21.76250036 18.99374982 23.94731099 19.18420694 27 19.375 C29 21.375 29 21.375 29.1953125 23.3203125 C29.13020833 25.33854167 29.06510417 27.35677083 29 29.375 C28.18015625 29.70113281 27.3603125 30.02726562 26.515625 30.36328125 C25.43796875 30.80027344 24.3603125 31.23726562 23.25 31.6875 C22.18265625 32.11675781 21.1153125 32.54601562 20.015625 32.98828125 C17.26766695 34.25191481 15.13573671 35.23926329 13 37.375 C12.51831272 39.65389342 12.51831272 39.65389342 12.75 42.0625 C12.78609375 42.87074219 12.8221875 43.67898437 12.859375 44.51171875 C12.90578125 45.12660156 12.9521875 45.74148437 13 46.375 C17.25102229 48.50051114 22.67317023 47.80825054 27.0625 46.375 C28.0215625 45.88 28.0215625 45.88 29 45.375 C29.66 46.035 30.32 46.695 31 47.375 C33.32275177 47.77547444 35.65739357 48.1147104 38 48.375 C38 49.695 38 51.015 38 52.375 C26.615 52.87 26.615 52.87 15 53.375 C15 52.715 15 52.055 15 51.375 C8.07 51.375 1.14 51.375 -6 51.375 C-6.66 50.055 -7.32 48.735 -8 47.375 C-10.64 47.705 -13.28 48.035 -16 48.375 C-16 49.035 -16 49.695 -16 50.375 C-18.35300475 51.55150238 -19.76033709 51.47658964 -22.375 51.4375 C-23.14585938 51.42847656 -23.91671875 51.41945312 -24.7109375 51.41015625 C-25.46632812 51.39855469 -26.22171875 51.38695312 -27 51.375 C-28.32 51.375 -29.64 51.375 -31 51.375 C-33.42784935 50.50791095 -35.69588511 49.52705745 -38 48.375 C-38.9075 49.2 -39.815 50.025 -40.75 50.875 C-46.33212757 54.88006307 -52.78695042 54.0353076 -59.29296875 53.015625 C-61.1875 52.5625 -61.1875 52.5625 -64 51.375 C-65.30765478 47.45203567 -65.1971417 44.51497567 -65 40.375 C-64.34 39.715 -63.68 39.055 -63 38.375 C-62.01 38.375 -61.02 38.375 -60 38.375 C-59.731875 39.344375 -59.46375 40.31375 -59.1875 41.3125 C-58.795625 42.323125 -58.40375 43.33375 -58 44.375 C-54.52674819 45.5327506 -51.63932552 45.44366652 -48 45.375 C-48 43.395 -48 41.415 -48 39.375 C-48.67546875 39.07207031 -49.3509375 38.76914063 -50.046875 38.45703125 C-59.51201583 34.01169777 -59.51201583 34.01169777 -62 29.375 C-62.79149224 25.24165164 -62.17027232 23.67160339 -60.0625 20 C-58.3263461 18.10556427 -57.38334542 17.4477871 -54.83984375 16.96484375 C-50.81377353 16.91779452 -46.90493596 17.36727459 -43 18.375 C-43 17.715 -43 17.055 -43 16.375 C-42.34 16.375 -41.68 16.375 -41 16.375 C-41 17.035 -41 17.695 -41 18.375 C-40.34 18.375 -39.68 18.375 -39 18.375 C-38.67 19.035 -38.34 19.695 -38 20.375 C-37.34 20.375 -36.68 20.375 -36 20.375 C-35.67 19.715 -35.34 19.055 -35 18.375 C-34.01 18.045 -33.02 17.715 -32 17.375 C-31.67 16.715 -31.34 16.055 -31 15.375 C-15.05446496 14.51359655 -15.05446496 14.51359655 -10.5 17.875 C-9.675 18.7 -8.85 19.525 -8 20.375 C-7.87963336 14.59740116 -8.1679418 9.09540011 -9 3.375 C-5.95464354 0.7103131 -4.03928889 -0.03694472 0 0 Z " fill="#24C79E" transform="translate(83,86.625)"/>
<path d="M0 0 C0.845625 -0.00773437 1.69125 -0.01546875 2.5625 -0.0234375 C5.71708916 0.4922165 6.91277013 0.90699171 9 3.375 C9.63850652 6.42872682 9.69704603 9.45025055 9.75 12.5625 C9.77964844 13.40748047 9.80929688 14.25246094 9.83984375 15.12304688 C9.9104699 17.20651822 9.95750795 19.29076506 10 21.375 C11.32 21.045 12.64 20.715 14 20.375 C13.67 23.015 13.34 25.655 13 28.375 C15.31 28.375 17.62 28.375 20 28.375 C20.08226668 25.33113276 19.97608217 23.30324652 19 20.375 C21.76250036 18.99374982 23.94731099 19.18420694 27 19.375 C29 21.375 29 21.375 29.1953125 23.3203125 C29.13020833 25.33854167 29.06510417 27.35677083 29 29.375 C28.18015625 29.70113281 27.3603125 30.02726562 26.515625 30.36328125 C25.43796875 30.80027344 24.3603125 31.23726562 23.25 31.6875 C22.18265625 32.11675781 21.1153125 32.54601562 20.015625 32.98828125 C17.26766695 34.25191481 15.13573671 35.23926329 13 37.375 C12.51831272 39.65389342 12.51831272 39.65389342 12.75 42.0625 C12.80414063 43.27486328 12.80414063 43.27486328 12.859375 44.51171875 C12.90578125 45.12660156 12.9521875 45.74148437 13 46.375 C17.25102229 48.50051114 22.67317023 47.80825054 27.0625 46.375 C28.0215625 45.88 28.0215625 45.88 29 45.375 C29.66 46.035 30.32 46.695 31 47.375 C33.32275177 47.77547444 35.65739357 48.1147104 38 48.375 C38 49.695 38 51.015 38 52.375 C30.41 52.705 22.82 53.035 15 53.375 C15 52.715 15 52.055 15 51.375 C8.07 51.375 1.14 51.375 -6 51.375 C-6.66 50.055 -7.32 48.735 -8 47.375 C-10.64 47.705 -13.28 48.035 -16 48.375 C-16 49.035 -16 49.695 -16 50.375 C-18.3396669 51.54483345 -19.83391527 51.5411241 -22.4375 51.5625 C-23.21996094 51.57667969 -24.00242187 51.59085938 -24.80859375 51.60546875 C-27 51.375 -27 51.375 -30 49.375 C-29.27554688 49.34921875 -28.55109375 49.3234375 -27.8046875 49.296875 C-21.8315657 48.94645185 -17.56234397 48.60351393 -13 44.375 C-9.72002817 40.32387492 -8.3895308 36.56875267 -8.671875 31.35546875 C-9.52915813 26.18115272 -12.22208268 21.74029864 -15 17.375 C-11.48283697 17.375 -10.62878252 18.19945585 -8 20.375 C-7.87963336 14.59740116 -8.1679418 9.09540011 -9 3.375 C-5.95464354 0.7103131 -4.03928889 -0.03694472 0 0 Z " fill="#24C69D" transform="translate(83,86.625)"/>
<path d="M0 0 C4.52427549 2.18134711 6.81003914 4.50481717 9 9 C10.52751643 13.58254928 11.00373093 17.74361287 9.0234375 22.1953125 C6.80912679 25.87677387 4.75223887 28.77669832 1 31 C-3.62312057 31.77266639 -8.66991934 32.05871626 -13.01171875 30.0859375 C-16.48423319 27.37440229 -18.55307364 24.09962467 -20 20 C-20.72032268 13.61999913 -19.56609088 9.33732807 -16 4 C-11.73247792 -1.17275404 -6.2397904 -0.90710609 0 0 Z " fill="#F5FAF9" transform="translate(65,104)"/>
<path d="M0 0 C2.6993225 1.81192487 4.54054976 3.08109953 6 6 C6.08400529 7.59447464 6.10727467 9.19240545 6.09765625 10.7890625 C6.09443359 11.73007813 6.09121094 12.67109375 6.08789062 13.640625 C6.07951172 14.62546875 6.07113281 15.6103125 6.0625 16.625 C6.05798828 17.61757812 6.05347656 18.61015625 6.04882812 19.6328125 C6.03702145 22.0886016 6.020554 24.54427104 6 27 C6.99 27 7.98 27 9 27 C8.34 28.32 7.68 29.64 7 31 C5.741875 31.04125 4.48375 31.0825 3.1875 31.125 C2.47980469 31.14820313 1.77210937 31.17140625 1.04296875 31.1953125 C-1 31 -1 31 -4 29 C-4.56589844 29.32484375 -5.13179687 29.6496875 -5.71484375 29.984375 C-8.20065719 31.08918097 -9.85951047 31.26829435 -12.5625 31.25 C-13.70912109 31.25773437 -13.70912109 31.25773437 -14.87890625 31.265625 C-17 31 -17 31 -20 29 C-20.7080512 25.94357898 -20.5559528 23.0770061 -20 20 C-16.26448722 15.23400094 -9.58850763 13.83999901 -4 12 C-3.979375 10.700625 -3.95875 9.40125 -3.9375 8.0625 C-3.92589844 7.33160156 -3.91429688 6.60070312 -3.90234375 5.84765625 C-3.79438816 3.98267859 -3.79438816 3.98267859 -5 3 C-7.67058851 2.85884839 -10.32432238 2.95752893 -13 3 C-12.01 4.485 -12.01 4.485 -11 6 C-10.8125 8.625 -10.8125 8.625 -11 11 C-11.33 11.33 -11.66 11.66 -12 12 C-14.33944736 11.71269945 -16.6739143 11.38063221 -19 11 C-19.375 7.75 -19.375 7.75 -19 4 C-14.16598668 -1.38647199 -6.80037207 -1.15751014 0 0 Z " fill="#F8FCFB" transform="translate(115,104)"/>
<path d="M0 0 C3.53894978 2.55133589 4.40637483 4.80943 5.6875 8.9375 C5.6875 10.5875 5.6875 12.2375 5.6875 13.9375 C0.4075 13.9375 -4.8725 13.9375 -10.3125 13.9375 C-10.003125 15.195625 -9.69375 16.45375 -9.375 17.75 C-9.20097656 18.45769531 -9.02695313 19.16539063 -8.84765625 19.89453125 C-8.40239295 21.59433202 -7.86816015 23.27051954 -7.3125 24.9375 C-2.4732918 25.21668509 0.02830669 25.19011627 3.6875 21.9375 C4.3475 21.9375 5.0075 21.9375 5.6875 21.9375 C4.16861744 25.80374652 2.27807418 27.84299839 -1.3125 29.9375 C-5.85079961 30.61675208 -9.87490951 30.46878344 -14.1875 28.875 C-17.96232872 25.4332444 -19.9689559 22.29719686 -20.69921875 17.28125 C-20.95066618 10.96905248 -20.18346497 6.9592924 -16.3125 1.9375 C-11.3758329 -2.31351889 -5.86127874 -1.8800328 0 0 Z " fill="#F3F9F7" transform="translate(174.3125,105.0625)"/>
<path d="M0 0 C3.96 0 7.92 0 12 0 C12.33 13.86 12.66 27.72 13 42 C13.66 42.33 14.32 42.66 15 43 C15 43.66 15 44.32 15 45 C10.05 45 5.1 45 0 45 C0.33 44.01 0.66 43.02 1 42 C1.66 42 2.32 42 3 42 C3 29.13 3 16.26 3 3 C2.01 2.67 1.02 2.34 0 2 C0 1.34 0 0.68 0 0 Z " fill="#FAFDFC" transform="translate(77,90)"/>
<path d="M0 0 C3 1 3 1 5.5 3.5625 C7.7760635 6.34905007 7.7760635 6.34905007 11 6 C11 5.34 11 4.68 11 4 C15.77830905 1.08639692 18.55106131 0.80123349 24 2 C24 2.33 24 2.66 24 3 C23.40832031 3.08636719 22.81664062 3.17273438 22.20703125 3.26171875 C16.67794944 4.24486707 13.59167862 5.39816177 10 10 C9.01073574 12.96779278 8.73378031 15.39406158 8.5 18.5 C8.26621969 21.60593842 7.98926426 24.03220722 7 27 C2.97633475 29.52648748 -0.2620215 30.90727248 -5 30 C-9.74309692 25.36230523 -10.83241062 22.55573801 -11.25 16.1875 C-11.21753974 11.86217008 -9.92071716 8.84143431 -8 5 C-6.33388095 4.957279 -4.66617115 4.95936168 -3 5 C-1.03177114 6.96822886 -1.33751619 10.34808709 -1 13 C0.65 12.67 2.3 12.34 4 12 C4 10.02 4 8.04 4 6 C0.535 4.02 0.535 4.02 -3 2 C-2.01 1.34 -1.02 0.68 0 0 Z " fill="#2FC49E" transform="translate(146,101)"/>
<path d="M0 0 C0.845625 -0.00773437 1.69125 -0.01546875 2.5625 -0.0234375 C5.71708916 0.4922165 6.91277013 0.90699171 9 3.375 C9.63850652 6.42872682 9.69704603 9.45025055 9.75 12.5625 C9.77964844 13.40748047 9.80929688 14.25246094 9.83984375 15.12304688 C9.9104699 17.20651822 9.95750795 19.29076506 10 21.375 C11.32 21.045 12.64 20.715 14 20.375 C13.67 23.015 13.34 25.655 13 28.375 C15.31 28.375 17.62 28.375 20 28.375 C20.08226668 25.33113276 19.97608217 23.30324652 19 20.375 C21.76250036 18.99374982 23.94731099 19.18420694 27 19.375 C29 21.375 29 21.375 29.1953125 23.3203125 C29.13020833 25.33854167 29.06510417 27.35677083 29 29.375 C27.80503906 29.82939453 27.80503906 29.82939453 26.5859375 30.29296875 C20.5582357 32.67618418 15.66374697 34.84080156 11 39.375 C9.68 38.715 8.36 38.055 7 37.375 C6.67 26.485 6.34 15.595 6 4.375 C2.04 4.045 -1.92 3.715 -6 3.375 C-5.01 4.86 -5.01 4.86 -4 6.375 C-3.86474609 8.55151367 -3.86474609 8.55151367 -4.0234375 11.04296875 C-4.075 11.93564453 -4.1265625 12.82832031 -4.1796875 13.74804688 C-4.24414062 14.67681641 -4.30859375 15.60558594 -4.375 16.5625 C-4.43171875 17.50287109 -4.4884375 18.44324219 -4.546875 19.41210938 C-4.68830077 21.73384909 -4.8397033 24.0544993 -5 26.375 C-6.32 26.705 -7.64 27.035 -9 27.375 C-11.48889248 23.80758745 -13.54955729 20.48458767 -15 16.375 C-12.50638429 17.57881448 -10.31856917 18.82928722 -8 20.375 C-7.87963336 14.59740116 -8.1679418 9.09540011 -9 3.375 C-5.95464354 0.7103131 -4.03928889 -0.03694472 0 0 Z " fill="#20C99E" transform="translate(83,86.625)"/>
<path d="M0 0 C1.4375 1.8125 1.4375 1.8125 1.8125 4.875 C1.4375 7.8125 1.4375 7.8125 -0.5625 9.8125 C-3.1875 9.4375 -3.1875 9.4375 -5.5625 8.8125 C-5.8925 6.5025 -6.2225 4.1925 -6.5625 1.8125 C-8.2125 1.8125 -9.8625 1.8125 -11.5625 1.8125 C-14.00656823 7.92267057 -14.69293239 13.57017523 -12.1875 19.6875 C-10.76011746 22.81563679 -10.76011746 22.81563679 -8.5625 24.8125 C-4.34895663 25.18703719 -1.37639558 24.60727439 2.4375 22.8125 C1.03133401 26.21073447 -0.43100064 27.88375645 -3.5625 29.8125 C-8.78515547 30.68820205 -13.2884785 30.42676036 -18.0625 28.125 C-21.36019393 25.07463311 -23.27041225 22.45407842 -24.06640625 17.98046875 C-24.19386497 11.49706828 -23.66455292 7.30124802 -19.26171875 2.375 C-13.39311568 -3.02141662 -7.07716311 -3.27966095 0 0 Z " fill="#F8FCFB" transform="translate(149.5625,105.1875)"/>
<path d="M0 0 C0.66 0 1.32 0 2 0 C2 3.3 2 6.6 2 10 C-1 9 -1 9 -2.8125 6.4375 C-4.82010187 3.64725477 -4.82010187 3.64725477 -8.25 3.6875 C-9.1575 3.790625 -10.065 3.89375 -11 4 C-11.49152438 6.34571804 -11.49152438 6.34571804 -11 9 C-8.42003678 11.04363899 -8.42003678 11.04363899 -5.125 12.625 C0.8210399 15.73155985 0.8210399 15.73155985 3 19 C3.5781854 23.37768943 3.35965999 25.41644101 1.0234375 29.20703125 C-0.62423577 31.08041319 -1.56204821 31.89497904 -4.00463867 32.48071289 C-6.30159778 32.59045564 -8.51809949 32.5250111 -10.8125 32.375 C-11.60076172 32.34792969 -12.38902344 32.32085937 -13.20117188 32.29296875 C-15.13530157 32.22263676 -17.06801304 32.11502458 -19 32 C-19 28.7 -19 25.4 -19 22 C-18.34 22 -17.68 22 -17 22 C-16.731875 22.969375 -16.46375 23.93875 -16.1875 24.9375 C-15.795625 25.948125 -15.40375 26.95875 -15 28 C-11.52674819 29.1577506 -8.63932552 29.06866652 -5 29 C-5 27.02 -5 25.04 -5 23 C-6.01320313 22.54560547 -6.01320313 22.54560547 -7.046875 22.08203125 C-16.51201583 17.63669777 -16.51201583 17.63669777 -19 13 C-19.79149224 8.86665164 -19.17027232 7.29660339 -17.0625 3.625 C-15.3263461 1.73056427 -14.38334542 1.0727871 -11.83984375 0.58984375 C-7.81377353 0.54279452 -3.90493596 0.99227459 0 2 C0 1.34 0 0.68 0 0 Z " fill="#F6FBFA" transform="translate(40,103)"/>
<path d="M0 0 C4.35425171 0.06997905 6.66934113 0.83200101 9.9375 3.75 C11.86085014 7.50053277 11.87149238 11.06148147 11.1875 15.1875 C9.39356332 18.05779869 8.20486724 19.67881638 5.1875 21.1875 C1.77935338 21.66403732 -1.41018384 21.73229788 -4.8125 21.1875 C-8.22269725 18.52754615 -9.40620586 17.11739716 -10.28125 12.9609375 C-10.578515 8.51682582 -10.25415178 6.73107143 -7.375 3.1875 C-6.529375 2.5275 -5.68375 1.8675 -4.8125 1.1875 C-3.8125 0.1875 -3.8125 0.1875 0 0 Z " fill="#FBFDFD" transform="translate(193.8125,113.8125)"/>
<path d="M0 0 C2.54296875 0.5546875 2.54296875 0.5546875 5 2 C6.36328125 4.3828125 6.36328125 4.3828125 7.3125 7.125 C7.80169922 8.49011719 7.80169922 8.49011719 8.30078125 9.8828125 C8.53152344 10.58148438 8.76226562 11.28015625 9 12 C11.31 11.34 13.62 10.68 16 10 C16 9.34 16 8.68 16 8 C17.258125 7.979375 18.51625 7.95875 19.8125 7.9375 C20.52019531 7.92589844 21.22789062 7.91429688 21.95703125 7.90234375 C25.77732038 8.08495795 26.96367761 8.96013396 29.5625 11.8125 C33.48017631 16.56008905 34.48374714 20.40132557 34.40234375 26.515625 C33.75688215 30.50119372 31.88119762 32.26286227 29 35 C28.01 34.505 28.01 34.505 27 34 C27.680625 33.236875 28.36125 32.47375 29.0625 31.6875 C31.72527658 27.74508521 31.0776093 24.13918345 30.5546875 19.5859375 C30.0146046 17.06808623 29.34061291 15.1910017 28 13 C24.41102875 11.34355173 19.86657292 11.33122894 16 12 C11.33460473 15.346914 10.15988712 18.62234151 9 24 C8.34 23.34 7.68 22.68 7 22 C4.48400985 22.33652369 4.48400985 22.33652369 2 23 C1.34 23 0.68 23 0 23 C0 23.66 0 24.32 0 25 C-2.1875 25.75 -2.1875 25.75 -5 26 C-7.8125 24.4375 -7.8125 24.4375 -10 22 C-10 20.02 -10 18.04 -10 16 C-4.72 16 0.56 16 6 16 C4.85295884 9.88497057 4.85295884 9.88497057 3 4 C0.00365304 2.07717996 0.00365304 2.07717996 -3 2 C-2.01 1.34 -1.02 0.68 0 0 Z " fill="#2AC59E" transform="translate(174,103)"/>
<path d="M0 0 C5.70589472 -0.45647158 8.60098008 0.30082416 13 4 C16.51963435 8.97603476 17.97442585 13.91525189 17 20 C15.05808563 24.36542351 12.37696651 28.81151674 8 31 C5.25 31.1875 5.25 31.1875 3 31 C3 30.34 3 29.68 3 29 C3.66 28.67 4.32 28.34 5 28 C6.38246589 23.93250732 6.14662591 19.74588657 6.125 15.5 C6.12886719 14.74074219 6.13273437 13.98148438 6.13671875 13.19921875 C6.16153679 8.00702074 6.16153679 8.00702074 5 3 C2.50965614 1.70339566 2.50965614 1.70339566 0 1 C0 0.67 0 0.34 0 0 Z " fill="#F6FBF9" transform="translate(58,104)"/>
<path d="M0 0 C0.02696365 1.79158489 0.04637917 3.58328473 0.0625 5.375 C0.07410156 6.37273437 0.08570312 7.37046875 0.09765625 8.3984375 C0 11 0 11 -1 13 C-0.34 13 0.32 13 1 13 C0 15 0 15 -2 16.125 C-5.99083218 17.28899272 -9.86924105 17.52601425 -14 17 C-17 15 -17 15 -17.46875 12.9765625 C-17.5529995 6.63678731 -17.5529995 6.63678731 -14.9375 3.625 C-5.76254922 -1.45050468 -5.76254922 -1.45050468 0 0 Z " fill="#F5FAF9" transform="translate(112,118)"/>
<path d="M0 0 C0.763125 0.103125 1.52625 0.20625 2.3125 0.3125 C4.58367134 4.85484269 4.6138819 8.85414709 4.5625 13.8125 C4.57023437 14.55886719 4.57796875 15.30523437 4.5859375 16.07421875 C4.57123886 20.22658344 4.34841116 23.57879721 2.3125 27.3125 C0.375 28.25 0.375 28.25 -1.6875 28.3125 C-4.6875 26.3125 -4.6875 26.3125 -5.36230469 24.43334961 C-5.90017542 20.92547943 -5.91331449 17.41515374 -5.9375 13.875 C-5.958125 13.12412109 -5.97875 12.37324219 -6 11.59960938 C-6.03487618 6.64283212 -5.98326302 0.69572826 0 0 Z " fill="#39C5A1" transform="translate(60.6875,105.6875)"/>
<path d="M0 0 C0.99 0.33 1.98 0.66 3 1 C1.7625 2.299375 1.7625 2.299375 0.5 3.625 C-1.44997137 5.98607645 -1.98965833 6.94369534 -2.5625 10.0625 C-1.82067805 13.93645905 -0.91195268 15.29604394 2 18 C5.25241294 19.85560864 8.58449325 21.46823648 12 23 C12.04254356 24.99954746 12.04080783 27.00041636 12 29 C11 30 11 30 7.75 30.375 C4 30 4 30 1.0625 27.6875 C-1 25 -1 25 -1 22 C-1.66 21.67 -2.32 21.34 -3 21 C-4.96090141 15.22050112 -5.6748408 9.96149627 -4 4 C-1.9375 1.4375 -1.9375 1.4375 0 0 Z " fill="#2ACAA1" transform="translate(24,103)"/>
<path d="M0 0 C0.33 0 0.66 0 1 0 C1.10957031 0.68707031 1.21914062 1.37414062 1.33203125 2.08203125 C1.49058594 2.98308594 1.64914063 3.88414063 1.8125 4.8125 C1.96332031 5.70582031 2.11414063 6.59914063 2.26953125 7.51953125 C3.08066096 10.27390218 3.65442399 11.36392102 6 13 C9.38845727 13.68917775 12.60064495 13.60819132 16 13 C19.00333267 10.66663334 19.00333267 10.66663334 21 8 C21.66 8 22.32 8 23 8 C20.55294118 14.77647059 20.55294118 14.77647059 18 17 C12.88008673 17.81636412 7.65570893 17.32785447 3 15 C2.125 12.875 2.125 12.875 2 11 C-0.239835 10.04979584 -0.239835 10.04979584 -3 10 C-5.83411155 12.333492 -5.83411155 12.333492 -8 15 C-8 10.61031544 -5.87194899 9.23094261 -3 6 C-4.2684375 7.0209375 -4.2684375 7.0209375 -5.5625 8.0625 C-9 10 -9 10 -12.75 10 C-16 9 -16 9 -17.4375 6.9375 C-17.7159375 5.9784375 -17.7159375 5.9784375 -18 5 C-17.071875 5.33 -16.14375 5.66 -15.1875 6 C-12.07970709 7.14967004 -12.07970709 7.14967004 -9 7 C-9 6.34 -9 5.68 -9 5 C-8.071875 4.9175 -7.14375 4.835 -6.1875 4.75 C-2.91480504 4.30514053 -2.91480504 4.30514053 -1.1875 1.9375 C-0.795625 1.298125 -0.40375 0.65875 0 0 Z " fill="#37C7A2" transform="translate(183,121)"/>
<path d="M0 0 C2.4375 0.75 2.4375 0.75 5 2 C5.495 3.98 5.495 3.98 6 6 C13.425 6.99 13.425 6.99 21 8 C18.56092256 10.43907744 17.74131058 10.34891288 14.375 10.4375 C8.79519564 10.36450837 5.31847206 8.37757591 1 5 C0.55011719 5.3609375 0.10023438 5.721875 -0.36328125 6.09375 C-5.37276852 9.70780895 -9.28162669 10.7151021 -15.44921875 10.43359375 C-19.02146089 9.82636729 -21.23864139 8.28990714 -24 6 C-25.3191582 5.30570621 -26.64649406 4.62469505 -28 4 C-25.75 3.3125 -25.75 3.3125 -23 3 C-22.38769531 3.49371094 -21.77539062 3.98742187 -21.14453125 4.49609375 C-18.42541968 6.40293884 -17.17702211 6.19952645 -13.9375 5.75 C-13.08027344 5.64171875 -12.22304687 5.5334375 -11.33984375 5.421875 C-8.85724414 5.03179023 -8.85724414 5.03179023 -6 4 C-5.01 4 -4.02 4 -3 4 C-1.29467677 2.05990478 -1.29467677 2.05990478 0 0 Z " fill="#15C99B" transform="translate(180,130)"/>
<path d="M0 0 C0.845625 -0.00773437 1.69125 -0.01546875 2.5625 -0.0234375 C5.43365432 0.4458858 6.83441027 1.48010899 9 3.375 C8.67 4.035 8.34 4.695 8 5.375 C7.34 5.045 6.68 4.715 6 4.375 C3.9625237 4.14641886 1.91959697 3.96475722 -0.125 3.8125 C-1.76855469 3.68681641 -1.76855469 3.68681641 -3.4453125 3.55859375 C-4.28835937 3.49800781 -5.13140625 3.43742187 -6 3.375 C-5.01 4.86 -5.01 4.86 -4 6.375 C-3.86474609 8.55151367 -3.86474609 8.55151367 -4.0234375 11.04296875 C-4.075 11.93564453 -4.1265625 12.82832031 -4.1796875 13.74804688 C-4.24414062 14.67681641 -4.30859375 15.60558594 -4.375 16.5625 C-4.43171875 17.50287109 -4.4884375 18.44324219 -4.546875 19.41210938 C-4.68830077 21.73384909 -4.8397033 24.0544993 -5 26.375 C-6.32 26.705 -7.64 27.035 -9 27.375 C-11.48889248 23.80758745 -13.54955729 20.48458767 -15 16.375 C-12.50638429 17.57881448 -10.31856917 18.82928722 -8 20.375 C-7.87963336 14.59740116 -8.1679418 9.09540011 -9 3.375 C-5.95464354 0.7103131 -4.03928889 -0.03694472 0 0 Z " fill="#18C99C" transform="translate(83,86.625)"/>
<path d="M0 0 C0.33 0 0.66 0 1 0 C1 12.87 1 25.74 1 39 C-0.485 39.495 -0.485 39.495 -2 40 C-2 38.02 -2 36.04 -2 34 C-2.66 34 -3.32 34 -4 34 C-4.061875 34.61875 -4.12375 35.2375 -4.1875 35.875 C-5 38 -5 38 -7.5625 39.25 C-8.366875 39.4975 -9.17125 39.745 -10 40 C-9.6390625 39.46632812 -9.278125 38.93265625 -8.90625 38.3828125 C-5.19020626 32.41649783 -4.34522271 27.96974047 -5 21 C-4.01 20.67 -3.02 20.34 -2 20 C-1.93941406 18.97519531 -1.87882812 17.95039062 -1.81640625 16.89453125 C-1.73194974 15.53384305 -1.64730433 14.17316657 -1.5625 12.8125 C-1.52318359 12.13896484 -1.48386719 11.46542969 -1.44335938 10.77148438 C-1.21072435 7.10300898 -0.82792989 3.58305794 0 0 Z " fill="#41C5A3" transform="translate(79,93)"/>
<path d="M0 0 C0.66 0 1.32 0 2 0 C2.68342515 1.27217669 3.32158771 2.56880111 3.9375 3.875 C5.65957232 6.82861495 6.50308518 7.82502999 9.7734375 8.9765625 C12.52094378 9.44978338 15.21956725 9.80522363 18 10 C18 10.33 18 10.66 18 11 C16.41986783 11.25028811 14.83557694 11.47440946 13.25 11.6875 C12.36828125 11.81511719 11.4865625 11.94273437 10.578125 12.07421875 C7.41894507 11.98327266 6.37455395 10.98477836 4 9 C1.45768329 9.14527524 -0.61186457 9.845978 -2.96875 10.78125 C-8.76028474 12.98366462 -13.93317136 13.73025077 -20 12 C-21.7890625 10.4453125 -21.7890625 10.4453125 -23 9 C-22.67 8.34 -22.34 7.68 -22 7 C-21.17822266 7.48339844 -21.17822266 7.48339844 -20.33984375 7.9765625 C-16.06977354 9.84427268 -11.56463986 9.54856948 -7 9 C-2.88869175 6.73458525 -1.3603853 4.45217009 0 0 Z " fill="#2FC6A0" transform="translate(153,125)"/>
<path d="M0 0 C0.99 0 1.98 0 3 0 C4.11823815 2.23647631 4.19396061 3.64891529 4.31640625 6.1328125 C4.35830078 6.93847656 4.40019531 7.74414062 4.44335938 8.57421875 C4.48267578 9.41597656 4.52199219 10.25773437 4.5625 11.125 C4.60568359 11.97449219 4.64886719 12.82398437 4.69335938 13.69921875 C4.79954236 15.79928223 4.90028497 17.89961948 5 20 C2 20 2 20 -2 18 C-2 12.72 -2 7.44 -2 2 C-1.34 2 -0.68 2 0 2 C0 1.34 0 0.68 0 0 Z " fill="#0FC99A" transform="translate(59,111)"/>
<path d="M0 0 C1.67669157 0.22705198 3.34325741 0.53141418 5 0.875 C6.36125 1.14957031 6.36125 1.14957031 7.75 1.4296875 C10 2 10 2 11 3 C11.07179964 4.51928038 11.08392007 6.04167482 11.0625 7.5625 C11.05347656 8.38878906 11.04445312 9.21507813 11.03515625 10.06640625 C11.02355469 10.70449219 11.01195312 11.34257813 11 12 C8.69 12.33 6.38 12.66 4 13 C4 12.34 4 11.68 4 11 C3.360625 10.835 2.72125 10.67 2.0625 10.5 C0 9 0 9 -0.5234375 7.12109375 C-0.79201373 5.0922544 -0.90265606 3.0442227 -1 1 C-0.67 0.67 -0.34 0.34 0 0 Z " fill="#03C896" transform="translate(140,116)"/>
<path d="M0 0 C0.33 0.99 0.66 1.98 1 3 C1.56509277 2.98952637 2.13018555 2.97905273 2.71240234 2.96826172 C5.26655653 2.92675212 7.82063982 2.9006904 10.375 2.875 C11.26445313 2.85824219 12.15390625 2.84148437 13.0703125 2.82421875 C13.92109375 2.81777344 14.771875 2.81132812 15.6484375 2.8046875 C16.82672119 2.78897705 16.82672119 2.78897705 18.02880859 2.77294922 C20 3 20 3 22 5 C19.29216168 5.22314035 16.58481976 5.42889462 13.875 5.625 C12.73417969 5.72167969 12.73417969 5.72167969 11.5703125 5.8203125 C6.88675858 6.14331622 3.42353381 5.85138316 -1 4 C-1 3.34 -1 2.68 -1 2 C-5.54170996 3.90884692 -5.54170996 3.90884692 -10 6 C-11.9981051 6.09649939 -13.9995718 6.12980872 -16 6.125 C-17.60875 6.12886719 -17.60875 6.12886719 -19.25 6.1328125 C-22 6 -22 6 -24 5 C-23.67 4.01 -23.34 3.02 -23 2 C-22.01 2.33 -21.02 2.66 -20 3 C-18.10529184 3.0685495 -16.2083166 3.08480372 -14.3125 3.0625 C-13.31863281 3.05347656 -12.32476562 3.04445312 -11.30078125 3.03515625 C-10.54152344 3.02355469 -9.78226563 3.01195312 -9 3 C-9 2.34 -9 1.68 -9 1 C-3.47033898 -1.61122881 -3.47033898 -1.61122881 0 0 Z " fill="#11C99B" transform="translate(76,134)"/>
<path d="M0 0 C3 1 3 1 5.5 3.5625 C7.7760635 6.34905007 7.7760635 6.34905007 11 6 C11 5.34 11 4.68 11 4 C15.77830905 1.08639692 18.55106131 0.80123349 24 2 C24 2.33 24 2.66 24 3 C23.40832031 3.08636719 22.81664062 3.17273438 22.20703125 3.26171875 C16.68171149 4.24419812 13.47124916 5.30360408 10 10 C8.7896542 12.64119994 7.89394429 15.22406772 7 18 C6.67 17.01 6.34 16.02 6 15 C5.01 14.67 4.02 14.34 3 14 C3.33 13.34 3.66 12.68 4 12 C4.039992 10.00039988 4.04346799 7.99952758 4 6 C0.535 4.02 0.535 4.02 -3 2 C-2.01 1.34 -1.02 0.68 0 0 Z " fill="#2ACBA2" transform="translate(146,101)"/>
<path d="M0 0 C0.625 1.8125 0.625 1.8125 1 4 C0.01 5.485 0.01 5.485 -1 7 C-4.125 7.1875 -4.125 7.1875 -7 7 C-7 7.66 -7 8.32 -7 9 C-9.25 9.75 -9.25 9.75 -12 10 C-14.3125 8.0625 -14.3125 8.0625 -16 6 C-15.375 4.04296875 -15.375 4.04296875 -14 2 C-11.25 1.42578125 -11.25 1.42578125 -8 1.3125 C-3.84534038 1.26565124 -3.84534038 1.26565124 0 0 Z " fill="#17C99C" transform="translate(181,119)"/>
<path d="M0 0 C1.258125 -0.020625 2.51625 -0.04125 3.8125 -0.0625 C4.52019531 -0.07410156 5.22789062 -0.08570312 5.95703125 -0.09765625 C9.77732038 0.08495795 10.96367761 0.96013396 13.5625 3.8125 C17.48017631 8.56008905 18.48374714 12.40132557 18.40234375 18.515625 C17.75688215 22.50119372 15.88119762 24.26286227 13 27 C12.34 26.67 11.68 26.34 11 26 C11.680625 25.236875 12.36125 24.47375 13.0625 23.6875 C15.72527658 19.74508521 15.0776093 16.13918345 14.5546875 11.5859375 C13.99540733 8.9785891 13.54851857 7.17369687 12 5 C9.66973056 3.94231278 9.66973056 3.94231278 7 3.375 C2.18532819 2.18532819 2.18532819 2.18532819 0 0 Z " fill="#22C99F" transform="translate(190,111)"/>
<path d="M0 0 C2.03833424 1.2739589 4.03852126 2.61061923 6 4 C6 4.66 6 5.32 6 6 C13.53537771 6.94351599 19.66847392 7.07726572 27 5 C22.25454265 9.90363926 22.25454265 9.90363926 18.35546875 10.203125 C17.31003906 10.21859375 16.26460937 10.2340625 15.1875 10.25 C14.14980469 10.27578125 13.11210937 10.3015625 12.04296875 10.328125 C8.60511261 9.95741907 6.89151106 8.81548973 4 7 C1.25147807 6.64024582 -1.2104588 6.85815892 -4 7 C-3.34 5.68 -2.68 4.36 -2 3 C-1.34 3 -0.68 3 0 3 C0 2.01 0 1.02 0 0 Z " fill="#15C99C" transform="translate(125,130)"/>
<path d="M0 0 C2.80891711 0.6084297 4.35792141 1.19144167 6.1640625 3.46875 C6.5390625 6.53125 6.5390625 6.53125 6.1640625 9.46875 C5.5040625 10.12875 4.8440625 10.78875 4.1640625 11.46875 C1.5390625 11.09375 1.5390625 11.09375 -0.8359375 10.46875 C-1.1659375 8.15875 -1.4959375 5.84875 -1.8359375 3.46875 C-4.4759375 2.80875 -7.1159375 2.14875 -9.8359375 1.46875 C-6.05196769 -1.05389654 -4.33345107 -0.62108093 0 0 Z " fill="#EDF8F5" transform="translate(144.8359375,103.53125)"/>
<path d="M0 0 C0.33 0 0.66 0 1 0 C1 3.3 1 6.6 1 10 C1.7425 9.835 2.485 9.67 3.25 9.5 C8.50409401 8.79945413 13.70751749 8.92292501 19 9 C19 9.66 19 10.32 19 11 C15.38536441 13.40975706 12.6778074 13.33239432 8.5 13.3125 C7.82324219 13.32861328 7.14648438 13.34472656 6.44921875 13.36132812 C3.57294377 13.36416469 1.49925761 13.32416726 -0.94921875 11.734375 C-2.90331846 8.50902084 -2.29346709 5.69768529 -2 2 C-1.34 1.34 -0.68 0.68 0 0 Z " fill="#2CCAA1" transform="translate(20,125)"/>
<path d="M0 0 C3.8510568 0.9627642 4.63168228 1.18057415 7 4 C8.4783226 6.95664519 8.06032783 9.74229737 8 13 C5.03 13 2.06 13 -1 13 C-0.34 12.67 0.32 12.34 1 12 C0.67 8.04 0.34 4.08 0 0 Z " fill="#FCFDFD" transform="translate(171,105)"/>
<path d="M0 0 C1.93742341 -0.02703381 3.87495479 -0.04641125 5.8125 -0.0625 C6.89144531 -0.07410156 7.97039062 -0.08570312 9.08203125 -0.09765625 C12 0 12 0 15 1 C15 1.66 15 2.32 15 3 C15.5775 3.226875 16.155 3.45375 16.75 3.6875 C19.6168271 5.35981581 21.13711036 7.27219731 23 10 C23 10.99 23 11.98 23 13 C21.1875 12.875 21.1875 12.875 19 12 C17.94991347 10.02583732 16.95012124 8.02417134 16 6 C12.41527958 3.61018639 10.74646235 3.75989743 6.5 3.8125 C4.78296875 3.82216797 4.78296875 3.82216797 3.03125 3.83203125 C-0.04622101 3.86915416 -0.04622101 3.86915416 -3 5 C-2.67 4.01 -2.34 3.02 -2 2 C-1.34 2 -0.68 2 0 2 C0 1.34 0 0.68 0 0 Z " fill="#29CBA2" transform="translate(102,101)"/>
<path d="M0 0 C0.33 0 0.66 0 1 0 C1.33 10.89 1.66 21.78 2 33 C3.32 33.66 4.64 34.32 6 35 C5.25 41.75 5.25 41.75 3 44 C3 43.34 3 42.68 3 42 C2.01 41.67 1.02 41.34 0 41 C0 27.47 0 13.94 0 0 Z " fill="#48C2A3" transform="translate(89,91)"/>
<path d="M0 0 C0.08090971 1.62418745 0.13914995 3.24951745 0.1875 4.875 C0.22230469 5.77992187 0.25710937 6.68484375 0.29296875 7.6171875 C0.19628906 8.40351562 0.09960938 9.18984375 0 10 C-3 12 -3 12 -5.125 11.6875 C-7 11 -7 11 -8 10 C-7.64833006 3.66994106 -7.64833006 3.66994106 -5.125 1.0625 C-3 0 -3 0 0 0 Z " fill="#3FBD9D" transform="translate(112,119)"/>
<path d="M0 0 C1.65 0 3.3 0 5 0 C7.4294516 3.6441774 7.16179575 5.71241272 7 10 C4.03 10 1.06 10 -2 10 C-1.34 6.7 -0.68 3.4 0 0 Z " fill="#2FC09C" transform="translate(165,106)"/>
<path d="M0 0 C5.28 0 10.56 0 16 0 C16.66 1.32 17.32 2.64 18 4 C17.2884375 3.84144531 16.576875 3.68289062 15.84375 3.51953125 C10.05959565 2.46281074 4.15119603 1.70031907 -1 4.8125 C-2.204786 6.13023469 -3.39669024 7.46016068 -4.5625 8.8125 C-5.036875 9.204375 -5.51125 9.59625 -6 10 C-8.1875 9.6875 -8.1875 9.6875 -10 9 C-10 7.02 -10 5.04 -10 3 C-9.34 3 -8.68 3 -8 3 C-7.67 3.66 -7.34 4.32 -7 5 C-6.34 5 -5.68 5 -5 5 C-4.67 4.34 -4.34 3.68 -4 3 C-3.01 2.67 -2.02 2.34 -1 2 C-0.67 1.34 -0.34 0.68 0 0 Z " fill="#21C99E" transform="translate(52,102)"/>
<path d="M0 0 C0.99 0.33 1.98 0.66 3 1 C3.6875 3.0625 3.6875 3.0625 4 5 C5.299375 5.144375 6.59875 5.28875 7.9375 5.4375 C11.875 5.875 11.875 5.875 13 7 C13.66 6.01 14.32 5.02 15 4 C15.02708567 5.60407328 15.04643483 7.2082785 15.0625 8.8125 C15.07410156 9.70582031 15.08570313 10.59914063 15.09765625 11.51953125 C15 14 15 14 14 17 C13.34 17 12.68 17 12 17 C11.67 14.03 11.34 11.06 11 8 C9.72125 7.855625 8.4425 7.71125 7.125 7.5625 C4.74307106 7.29357254 3.15547309 7.07773654 1 6 C0.67 6.66 0.34 7.32 0 8 C-0.66 8 -1.32 8 -2 8 C-1.125 1.125 -1.125 1.125 0 0 Z " fill="#1AC89C" transform="translate(139,111)"/>
<path d="M0 0 C2 2 2 2 2.1953125 3.9453125 C2.13020833 5.96354167 2.06510417 7.98177083 2 10 C1.01 10.33 0.02 10.66 -1 11 C-1 8.69 -1 6.38 -1 4 C-4.27773504 4.75150023 -4.27773504 4.75150023 -6 8 C-6.66 5.69 -7.32 3.38 -8 1 C-5.23749964 -0.38125018 -3.05268901 -0.19079306 0 0 Z " fill="#36C29E" transform="translate(110,106)"/>
<path d="M0 0 C4.29 2.31 8.58 4.62 13 7 C13 8.98 13 10.96 13 13 C12 14 12 14 8.4375 14.0625 C7.303125 14.041875 6.16875 14.02125 5 14 C5 13.67 5 13.34 5 13 C6.65 13 8.3 13 10 13 C10 11.35 10 9.7 10 8 C9.278125 7.938125 8.55625 7.87625 7.8125 7.8125 C4.11600926 6.7446249 2.46861132 4.89180184 0 2 C0 1.34 0 0.68 0 0 Z " fill="#39C09E" transform="translate(23,119)"/>
<path d="M0 0 C2.125 2.4375 2.125 2.4375 4 5 C6.43387753 6.21693876 8.41838846 6.31959896 11.125 6.5625 C12.03507812 6.64628906 12.94515625 6.73007813 13.8828125 6.81640625 C14.58148438 6.87699219 15.28015625 6.93757812 16 7 C16 7.33 16 7.66 16 8 C13.93867858 8.10864945 11.87568679 8.18588321 9.8125 8.25 C8.08966797 8.31960937 8.08966797 8.31960937 6.33203125 8.390625 C2.37585242 7.92682912 0.91901026 6.60386048 -2 4 C-4.12816413 4.15688424 -4.12816413 4.15688424 -6 5 C-6.99 5 -7.98 5 -9 5 C-4.5 0 -4.5 0 0 0 Z " fill="#48C6A5" transform="translate(48,128)"/>
<path d="M0 0 C1.07575931 3.86376886 1.38320104 7.67551236 1.71875 11.66015625 C1.93869011 14.15065481 1.93869011 14.15065481 3 17 C2.26330078 17.58201172 2.26330078 17.58201172 1.51171875 18.17578125 C-0.50725753 20.61211696 -0.30898805 22.06930672 -0.1875 25.1875 C-0.16042969 26.08855469 -0.13335938 26.98960937 -0.10546875 27.91796875 C-0.07066406 28.60503906 -0.03585938 29.29210937 0 30 C-0.66 29.67 -1.32 29.34 -2 29 C-2.05437607 27.41705218 -2.09296271 25.83355744 -2.125 24.25 C-2.14820312 23.36828125 -2.17140625 22.4865625 -2.1953125 21.578125 C-1.98962169 18.86300627 -1.20819198 17.39110798 0 15 C-0.309375 14.071875 -0.61875 13.14375 -0.9375 12.1875 C-2.21303731 8.36088806 -1.82665221 5.90781043 -1 2 C-0.67 1.34 -0.34 0.68 0 0 Z " fill="#10CA9A" transform="translate(19,107)"/>
<path d="M0 0 C0.66 0 1.32 0 2 0 C2 3.3 2 6.6 2 10 C-1 9 -1 9 -2.9375 6.5625 C-4.91391935 4.10694869 -6.12464744 3.12960279 -9 2 C-5.67465243 0.89155081 -3.37817425 1.15545644 0 2 C0 1.34 0 0.68 0 0 Z " fill="#E3F5F0" transform="translate(40,103)"/>
<path d="M0 0 C0.99 0.66 1.98 1.32 3 2 C5.32387947 2.39387788 7.65793749 2.73486085 10 3 C10 3.66 10 4.32 10 5 C7.27076612 5.0270817 4.54180363 5.04687847 1.8125 5.0625 C1.04357422 5.07087891 0.27464844 5.07925781 -0.51757812 5.08789062 C-4.48526789 5.10491934 -8.12571234 4.98604115 -12 4 C-12 3.67 -12 3.34 -12 3 C-11.30132812 2.86722656 -10.60265625 2.73445312 -9.8828125 2.59765625 C-8.51769531 2.33275391 -8.51769531 2.33275391 -7.125 2.0625 C-6.22007813 1.88847656 -5.31515625 1.71445313 -4.3828125 1.53515625 C-2.00043683 1.10036299 -2.00043683 1.10036299 0 0 Z " fill="#4AC3A4" transform="translate(111,132)"/>
<path d="M0 0 C0.7734375 -0.00257813 1.546875 -0.00515625 2.34375 -0.0078125 C4.5 0.125 4.5 0.125 7.5 1.125 C7.5 1.785 7.5 2.445 7.5 3.125 C-0.09 3.455 -7.68 3.785 -15.5 4.125 C-15.5 3.795 -15.5 3.465 -15.5 3.125 C-12.86 3.125 -10.22 3.125 -7.5 3.125 C-7.5 2.465 -7.5 1.805 -7.5 1.125 C-4.68772378 0.18757459 -2.91253156 -0.00970844 0 0 Z " fill="#11CA9B" transform="translate(113.5,135.875)"/>
<path d="M0 0 C2.03120707 3.04681061 2.24659875 3.60118324 2.1953125 7.01171875 C2.18886719 7.76904297 2.18242188 8.52636719 2.17578125 9.30664062 C2.15902344 10.09232422 2.14226562 10.87800781 2.125 11.6875 C2.11597656 12.48478516 2.10695313 13.28207031 2.09765625 14.10351562 C2.07411585 16.069139 2.03824547 18.03460775 2 20 C1.34 20 0.68 20 0 20 C-0.03738281 18.96359375 -0.07476562 17.9271875 -0.11328125 16.859375 C-0.17895788 15.48954816 -0.24540464 14.11975809 -0.3125 12.75 C-0.33505859 12.06808594 -0.35761719 11.38617188 -0.38085938 10.68359375 C-0.60166604 6.54848704 -1.09593 4.02085566 -4 1 C-2.68 0.67 -1.36 0.34 0 0 Z " fill="#2CC29C" transform="translate(63,108)"/>
<path d="M0 0 C0.268125 0.61875 0.53625 1.2375 0.8125 1.875 C1.95556848 4.2995233 1.95556848 4.2995233 5 6 C5 6.66 5 7.32 5 8 C6.98 7.67 8.96 7.34 11 7 C9.875 8.5 9.875 8.5 8 10 C4.85514075 10.39310741 2.86718329 10.47555213 0.0625 8.9375 C-1.61676907 5.87530347 -0.68621125 3.30629059 0 0 Z " fill="#20C89D" transform="translate(139,121)"/>
<path d="M0 0 C2.475 0.99 2.475 0.99 5 2 C4.25 8.75 4.25 8.75 2 11 C2 10.34 2 9.68 2 9 C1.34 9 0.68 9 0 9 C0 6.03 0 3.06 0 0 Z " fill="#3BC8A4" transform="translate(90,124)"/>
<path d="M0 0 C4.95 0 9.9 0 15 0 C15 0.66 15 1.32 15 2 C11.35581659 4.42945561 10.07076636 4.0828781 5.8125 3.625 C4.72582031 3.51414063 3.63914062 3.40328125 2.51953125 3.2890625 C1.68808594 3.19367188 0.85664063 3.09828125 0 3 C0 2.01 0 1.02 0 0 Z " fill="#3DC8A4" transform="translate(24,134)"/>
<path d="M0 0 C0.9590625 0.4640625 0.9590625 0.4640625 1.9375 0.9375 C5.92049104 2.31935403 9.81650849 2.6536543 14 3 C13.67 3.99 13.34 4.98 13 6 C11.39482903 5.91266424 9.79078338 5.80447776 8.1875 5.6875 C6.84751953 5.60048828 6.84751953 5.60048828 5.48046875 5.51171875 C2.67328075 4.93259808 1.69302154 4.2779858 0 2 C0 1.34 0 0.68 0 0 Z " fill="#48C4A4" transform="translate(130,132)"/>
<path d="M0 0 C0.33 0 0.66 0 1 0 C1 4.62 1 9.24 1 14 C1.928125 13.319375 2.85625 12.63875 3.8125 11.9375 C4.864375 11.298125 5.91625 10.65875 7 10 C7.99 10.33 8.98 10.66 10 11 C7.22719294 14.08089673 4.93673644 15.68775452 1 17 C0 16 0 16 -0.09765625 12.40234375 C-0.0909822 10.91403133 -0.07902183 9.42573568 -0.0625 7.9375 C-0.05798828 7.17888672 -0.05347656 6.42027344 -0.04882812 5.63867188 C-0.0370068 3.75908129 -0.01907078 1.87953101 0 0 Z " fill="#10CA9A" transform="translate(92,92)"/>
<path d="M0 0 C0.99 0.33 1.98 0.66 3 1 C1.7625 2.299375 1.7625 2.299375 0.5 3.625 C-1.56091015 6.08761297 -1.98324193 6.85755643 -2.375 10.1875 C-2.07988718 13.07379225 -2.07988718 13.07379225 -1 16 C-1.99 15.67 -2.98 15.34 -4 15 C-4.9196476 10.30979721 -5.36070796 7.24927433 -3 3 C-1.375 1.1875 -1.375 1.1875 0 0 Z " fill="#31C9A2" transform="translate(24,103)"/>
<path d="M0 0 C0.66 0.33 1.32 0.66 2 1 C1.67 3.64 1.34 6.28 1 9 C-0.32 9.33 -1.64 9.66 -3 10 C-4.36682561 7.26634878 -3.84683011 5.89333621 -3 3 C-1.4375 1.1875 -1.4375 1.1875 0 0 Z " fill="#2BC69E" transform="translate(109,121)"/>
<path d="M0 0 C2.375 -0.1875 2.375 -0.1875 5 0 C7 3 7 3 6.625 6.1875 C6.41875 7.115625 6.2125 8.04375 6 9 C5.67 9 5.34 9 5 9 C4.67 7.35 4.34 5.7 4 4 C2.68 4 1.36 4 0 4 C-0.33 4.99 -0.66 5.98 -1 7 C-0.67 4.69 -0.34 2.38 0 0 Z " fill="#3BC19F" transform="translate(165,106)"/>
<path d="M0 0 C-0.54269531 0.24234375 -1.08539063 0.4846875 -1.64453125 0.734375 C-5.81393722 2.68761023 -8.36894693 4.12265864 -11 8 C-11.99 8 -12.98 8 -14 8 C-13.36832533 5.15746398 -12.63251627 3.44861286 -10.2265625 1.7421875 C-4.21288639 -1.45467378 -4.21288639 -1.45467378 0 0 Z " fill="#22CA9F" transform="translate(140,103)"/>
<path d="M0 0 C5.28 0 10.56 0 16 0 C16.66 1.32 17.32 2.64 18 4 C15.18596699 3.71949194 12.37432747 3.42618696 9.5625 3.125 C8.76005859 3.04636719 7.95761719 2.96773438 7.13085938 2.88671875 C5.07829006 2.66154237 3.03706991 2.33777413 1 2 C0.67 1.34 0.34 0.68 0 0 Z " fill="#36CEA7" transform="translate(52,102)"/>
<path d="M0 0 C0.66 0 1.32 0 2 0 C1.08986632 3.06135874 0.29125962 4.74300621 -2.125 6.875 C-6.15088574 8.45034659 -8.77714693 7.78731159 -13 7 C-13 6.67 -13 6.34 -13 6 C-11.96939453 5.85304687 -11.96939453 5.85304687 -10.91796875 5.703125 C-10.01691406 5.55359375 -9.11585938 5.4040625 -8.1875 5.25 C-7.29417969 5.11078125 -6.40085938 4.9715625 -5.48046875 4.828125 C-2.47551322 3.82489575 -1.73755208 2.56719406 0 0 Z " fill="#50C5A7" transform="translate(204,129)"/>
<path d="M0 0 C2.4375 1.5 2.4375 1.5 3.875 4.4375 C4.4375 7.5 4.4375 7.5 2.4375 10.5 C2.23125 9.38625 2.025 8.2725 1.8125 7.125 C0.82121699 3.23400805 0.82121699 3.23400805 -2.6875 2.0625 C-3.63625 1.876875 -4.585 1.69125 -5.5625 1.5 C-2.5625 -0.5 -2.5625 -0.5 0 0 Z " fill="#36CCA6" transform="translate(176.5625,103.5)"/>
<path d="M0 0 C0 0.66 0 1.32 0 2 C-2.49409061 3.57035335 -3.70443416 4.0274945 -6.6875 3.75 C-7.8321875 3.37875 -7.8321875 3.37875 -9 3 C-9.33 2.34 -9.66 1.68 -10 1 C-6.78548731 -0.60725635 -3.56387464 -0.05748185 0 0 Z " fill="#02C895" transform="translate(178,123)"/>
<path d="M0 0 C1.2375 0.7115625 1.2375 0.7115625 2.5 1.4375 C6.52795901 3.23569599 9.63173579 3.6234255 14 4 C14 4.33 14 4.66 14 5 C12.41986783 5.25028811 10.83557694 5.47440946 9.25 5.6875 C8.36828125 5.81511719 7.4865625 5.94273437 6.578125 6.07421875 C3.39802343 5.98267037 2.2072013 5.25361442 0 3 C0 2.01 0 1.02 0 0 Z " fill="#4FC4A6" transform="translate(157,131)"/>
<path d="M0 0 C1.98 1.32 3.96 2.64 6 4 C5.67 4.66 5.34 5.32 5 6 C3.68 5.67 2.36 5.34 1 5 C0.67 5.66 0.34 6.32 0 7 C-1.32 7 -2.64 7 -4 7 C-3.34 5.68 -2.68 4.36 -2 3 C-1.34 3 -0.68 3 0 3 C0 2.01 0 1.02 0 0 Z " fill="#20C89E" transform="translate(125,130)"/>
<path d="M0 0 C1.98 0 3.96 0 6 0 C6 1.65 6 3.3 6 5 C4.35 5 2.7 5 1 5 C0.67 3.35 0.34 1.7 0 0 Z " fill="#15C99C" transform="translate(27,127)"/>
<path d="M0 0 C0 1.32 0 2.64 0 4 C-1.98 4.66 -3.96 5.32 -6 6 C-6.33 4.35 -6.66 2.7 -7 1 C-2.25 0 -2.25 0 0 0 Z " fill="#35C19E" transform="translate(105,115)"/>
<path d="M0 0 C1.66611905 -0.042721 3.33382885 -0.04063832 5 0 C6 1 6 1 6.0625 4.0625 C6.041875 5.031875 6.02125 6.00125 6 7 C5.4121875 6.2575 5.4121875 6.2575 4.8125 5.5 C2.44908285 3.54406857 0.98564997 3.75792027 -2 4 C-1.34 2.68 -0.68 1.36 0 0 Z " fill="#4DC3A5" transform="translate(138,106)"/>
<path d="M0 0 C1.32 0.66 2.64 1.32 4 2 C3.37240135 4.92879371 2.41377341 7.36095629 1 10 C1 9.01 1 8.02 1 7 C0.01 6.67 -0.98 6.34 -2 6 C-1.34 4.02 -0.68 2.04 0 0 Z " fill="#44C7A5" transform="translate(151,109)"/>
<path d="M0 0 C1.85625 0.061875 1.85625 0.061875 3.75 0.125 C3.75 1.115 3.75 2.105 3.75 3.125 C-0.21 2.795 -4.17 2.465 -8.25 2.125 C-4.63863788 0.31931894 -3.705469 -0.12351563 0 0 Z " fill="#41CFAA" transform="translate(36.25,101.875)"/>
<path d="M0 0 C0 0.99 0 1.98 0 3 C-1 4 -1 4 -3.06640625 4.09765625 C-3.89011719 4.08605469 -4.71382812 4.07445312 -5.5625 4.0625 C-6.38878906 4.05347656 -7.21507812 4.04445312 -8.06640625 4.03515625 C-8.70449219 4.02355469 -9.34257812 4.01195312 -10 4 C-9.67 3.34 -9.34 2.68 -9 2 C-6.93359375 1.3671875 -6.93359375 1.3671875 -4.4375 0.875 C-3.61121094 0.70742187 -2.78492188 0.53984375 -1.93359375 0.3671875 C-0.97646484 0.18542969 -0.97646484 0.18542969 0 0 Z " fill="#2FC29C" transform="translate(173,134)"/>
<path d="M0 0 C1.64826111 2.96687001 2.44271087 5.65626525 3 9 C1.68 9 0.36 9 -1 9 C-1.09765625 2.84765625 -1.09765625 2.84765625 -1 1 C-0.67 0.67 -0.34 0.34 0 0 Z " fill="#34B696" transform="translate(44,120)"/>
<path d="M0 0 C1.485 0.99 1.485 0.99 3 2 C2.6875 3.9375 2.6875 3.9375 2 6 C1.01 6.33 0.02 6.66 -1 7 C-1.04254356 5.00045254 -1.04080783 2.99958364 -1 1 C-0.67 0.67 -0.34 0.34 0 0 Z " fill="#0CC999" transform="translate(93,116)"/>
<path d="M0 0 C1.258125 -0.04125 2.51625 -0.0825 3.8125 -0.125 C4.52019531 -0.14820312 5.22789062 -0.17140625 5.95703125 -0.1953125 C8 0 8 0 11 2 C6.70700357 3.26264601 4.12168689 2.62950412 0 1 C0 0.67 0 0.34 0 0 Z " fill="#13C99B" transform="translate(190,111)"/>
<path d="M0 0 C1.4370809 -0.05422947 2.87475462 -0.09289723 4.3125 -0.125 C5.11300781 -0.14820312 5.91351563 -0.17140625 6.73828125 -0.1953125 C9 0 9 0 12 2 C7.48281619 3.36884358 4.41225737 2.47075246 0 1 C0 0.67 0 0.34 0 0 Z " fill="#13CA9B" transform="translate(163,101)"/>
<path d="M0 0 C1.09570312 0.00902344 2.19140625 0.01804687 3.3203125 0.02734375 C4.16335937 0.03894531 5.00640625 0.05054687 5.875 0.0625 C5.875 0.3925 5.875 0.7225 5.875 1.0625 C4.10743706 1.45262425 2.33575217 1.8241098 0.5625 2.1875 C-0.42363281 2.39632812 -1.40976562 2.60515625 -2.42578125 2.8203125 C-5.125 3.0625 -5.125 3.0625 -8.125 1.0625 C-5.36047967 -0.31976016 -3.0788637 -0.03275387 0 0 Z " fill="#10C99A" transform="translate(32.125,100.9375)"/>
<path d="M0 0 C0.99 0.33 1.98 0.66 3 1 C-0.79692186 3.82561627 -3.18569279 5.56638908 -8 5 C-4.25 3 -4.25 3 -2 3 C-2 2.34 -2 1.68 -2 1 C-1.34 0.67 -0.68 0.34 0 0 Z " fill="#0FCA9A" transform="translate(149,135)"/>
<path d="M0 0 C0 0.66 0 1.32 0 2 C-3.375 2.125 -3.375 2.125 -7 2 C-7.66 1.34 -8.32 0.68 -9 0 C-5.67465243 -1.10844919 -3.37817425 -0.84454356 0 0 Z " fill="#1FC79D" transform="translate(121,137)"/>
<path d="M0 0 C1.0828125 0.9590625 1.0828125 0.9590625 2.1875 1.9375 C4.98191184 3.98673535 6.61663274 4.61332946 10 5 C10 5.33 10 5.66 10 6 C5.78121808 6.19622241 2.82989106 5.80230168 -1 4 C-0.67 2.68 -0.34 1.36 0 0 Z " fill="#2FBF9B" transform="translate(94,131)"/>
<path d="M0 0 C0.99 0.33 1.98 0.66 3 1 C3 2.32 3 3.64 3 5 C1.68 5 0.36 5 -1 5 C-0.67 3.35 -0.34 1.7 0 0 Z " fill="#1FC99E" transform="translate(167,109)"/>
</svg>
