<?xml version="1.0" encoding="UTF-8"?>
<svg version="1.1" xmlns="http://www.w3.org/2000/svg" width="1878" height="1572">
<path d="M0 0 C11.89039497 7.30421014 22.89679725 15.90370677 33.5625 24.875 C34.52285156 25.64972656 35.48320312 26.42445313 36.47265625 27.22265625 C44.97752217 34.18130315 52.73783292 41.86198863 60.5 49.625 C61.04424622 50.16833984 61.58849243 50.71167969 62.14923096 51.27148438 C68.16847399 57.29186213 74.06769087 63.36535482 79.5625 69.875 C80.46326349 70.91951079 81.36429113 71.96379386 82.265625 73.0078125 C88.37438772 80.18467177 94.27731161 87.49102677 100.05419922 94.93701172 C101.6652558 97.00702906 103.28701395 99.0683542 104.91015625 101.12890625 C113.07470327 111.51838637 120.91548035 122.0999708 128.5625 132.875 C129.07119629 133.5865625 129.57989258 134.298125 130.10400391 135.03125 C158.97587054 175.44271215 186.43942021 217.46244077 210.5625 260.875 C210.97580566 261.60976563 211.38911133 262.34453125 211.81494141 263.1015625 C228.83454247 293.45674884 228.83454247 293.45674884 228.5625 307.875 C223.32576719 306.96931229 220.31669438 303.40252604 216.5625 299.875 C215.69238281 299.06675781 215.69238281 299.06675781 214.8046875 298.2421875 C209.56629251 293.19870953 205.07165993 287.5652068 200.5625 281.875 C200.05299805 281.2365918 199.54349609 280.59818359 199.01855469 279.94042969 C190.3483275 269.05521839 182.21564273 257.87063344 174.31689453 246.41601562 C164.90221773 232.78006291 155.32914287 219.26096045 145.5625 205.875 C145.01126465 205.11896484 144.4600293 204.36292969 143.89208984 203.58398438 C127.35453154 180.93606778 110.44481563 158.48279805 92.5625 136.875 C91.12481259 135.10431882 89.68731798 133.33348108 88.25 131.5625 C83.81096227 126.13700944 79.26032993 120.81309427 74.68359375 115.50390625 C72.58012011 113.06361266 70.49005865 110.61275543 68.41015625 108.15234375 C63.57217252 102.44058257 58.72825726 96.87112408 53.34765625 91.65625 C51.52858032 89.84115454 49.85733496 87.95266083 48.1875 86 C41.5926415 78.35356953 34.31249299 71.34070844 26.5625 64.875 C25.79292969 64.22789062 25.02335937 63.58078125 24.23046875 62.9140625 C11.84074256 52.6375304 11.84074256 52.6375304 -3.125 47.5 C-5.56205432 47.65208082 -5.56205432 47.65208082 -7.05078125 49.61328125 C-10.61244619 55.4223066 -8.60277362 62.86769516 -7.15161133 69.1652832 C-0.11400115 97.0561519 13.52114765 123.29455141 27.90234375 148.01953125 C29.51821424 150.7988285 31.1189972 153.58640348 32.71875 156.375 C47.78387348 182.44205878 65.09532296 207.11989032 83.5625 230.875 C84.04605957 231.50035645 84.52961914 232.12571289 85.02783203 232.77001953 C91.20823999 240.76078534 97.57428303 248.56197078 104.15332031 256.22753906 C105.58652539 257.9030879 107.00899738 259.58726974 108.4296875 261.2734375 C115.27450798 269.37087498 122.39259612 277.16845438 129.67675781 284.87158203 C131.65752498 286.97595482 133.62281263 289.0940098 135.5859375 291.21484375 C142.78576435 298.97167235 150.06935783 306.40877368 157.98046875 313.44580078 C160.41609184 315.64613065 162.79289173 317.90779598 165.17822266 320.16235352 C170.92584954 325.58778461 176.74058734 330.82362674 182.921875 335.7578125 C185.6611357 337.95408365 188.32748388 340.22313571 191 342.5 C210.35346943 358.59890654 231.31221931 372.43469578 252.5625 385.875 C252.38074219 386.47650879 252.19898438 387.07801758 252.01171875 387.69775391 C235.91864814 441.12468511 238.1733339 486.64029421 264.34985352 536.43676758 C270.07731201 546.9800715 277.34904709 555.78962474 285.4765625 564.6015625 C287.4147255 566.7139424 289.27273271 568.87498072 291.125 571.0625 C294.62895812 575.07045209 298.48562828 578.46359703 302.5625 581.875 C303.43648437 582.63683594 304.31046875 583.39867187 305.2109375 584.18359375 C328.67861939 604.34818368 358.34260347 620.99252007 390.1171875 620.16015625 C401.93396612 619.18212355 415.35630882 616.17983426 423.5625 606.875 C440.89579695 583.59552719 442.34192888 552.91605785 438.4375 525.0625 C433.05096438 490.55552411 418.85506302 457.22908678 394.5625 431.875 C393.74394531 430.98167969 392.92539062 430.08835937 392.08203125 429.16796875 C377.85281366 414.14006538 356.45104299 400.47497638 335.3125 399.625 C326.28827394 399.77641319 318.40368195 403.04024891 311.5625 408.875 C296.49040703 424.70524654 294.37122369 445.99069331 294.4375 466.8125 C294.43363281 468.02357422 294.42976563 469.23464844 294.42578125 470.48242188 C294.43244926 476.64033136 294.63813007 482.66831078 295.33984375 488.78637695 C295.61480122 491.36561069 295.66203387 493.90762897 295.625 496.5 C295.61597656 497.33789062 295.60695313 498.17578125 295.59765625 499.0390625 C295.58025391 499.94785156 295.58025391 499.94785156 295.5625 500.875 C294.5725 500.875 293.5825 500.875 292.5625 500.875 C278.66488173 483.33097694 272.97957052 456.5083413 274.8359375 434.65625 C277.33726496 413.70173316 285.97594215 395.74770074 302.5625 382.4375 C317.46722084 372.10477941 335.59904144 370.74010795 353.140625 373.4921875 C376.19929517 377.96288177 396.5962986 391.13048727 413.5625 406.875 C414.0776416 407.34631348 414.5927832 407.81762695 415.12353516 408.30322266 C428.30617058 420.47018151 439.106618 435.08195667 447.5625 450.875 C448.1512793 451.97062256 448.1512793 451.97062256 448.75195312 453.08837891 C470.99870613 495.28140848 481.15051864 545.95803982 467.36035156 592.40673828 C463.37929228 604.72268363 457.54481635 615.70819432 449.5625 625.875 C448.86511719 626.76703125 448.16773438 627.6590625 447.44921875 628.578125 C433.22308405 645.53505339 412.30605407 653.68270315 390.875 656.625 C389.43920085 656.73377266 388.00116513 656.81505562 386.5625 656.875 C385.61375 656.9265625 384.665 656.978125 383.6875 657.03125 C335.25371384 658.40201753 291.47518833 632.35705239 257.02197266 600.44824219 C232.0348244 576.77969883 212.08655166 545.33900613 203.5625 511.875 C203.38460938 511.18164551 203.20671875 510.48829102 203.0234375 509.77392578 C194.48687015 474.19642633 201.70500367 435.32793877 214.5625 401.875 C214.08119629 401.55450684 213.59989258 401.23401367 213.10400391 400.90380859 C202.38235818 393.73660772 192.01716032 386.27169995 181.8984375 378.27734375 C177.82459894 375.06091665 173.67322236 371.96063036 169.5 368.875 C160.93712933 362.51035881 152.73331343 355.73206684 144.5625 348.875 C143.97339844 348.38112793 143.38429688 347.88725586 142.77734375 347.37841797 C139.55903064 344.67626703 136.35413945 341.95886757 133.15722656 339.23144531 C131.51340617 337.83324169 129.8626038 336.44361035 128.2109375 335.0546875 C119.75080667 327.9110842 111.65057726 320.43355287 103.61669922 312.81591797 C101.54570177 310.85912813 99.46428039 308.91411088 97.37890625 306.97265625 C77.50762772 288.4678639 77.50762772 288.4678639 69.171875 278.703125 C67.53663566 276.84562012 65.82768207 275.10893991 64.0625 273.375 C60.35045884 269.71212494 56.95458825 265.83350906 53.5625 261.875 C52.6787087 260.85518849 51.79456755 259.83568012 50.91015625 258.81640625 C25.55421546 229.51866484 2.00835658 198.04023988 -16.4375 163.875 C-16.91590332 162.99360352 -17.39430664 162.11220703 -17.88720703 161.20410156 C-40.21282146 119.84552504 -70.82057032 59.51454823 -59.40625 11.109375 C-57.05544882 3.26073237 -52.24952002 -2.56722892 -45.4375 -7.125 C-30.2456247 -13.64203115 -13.38092744 -7.88670306 0 0 Z " fill="#00758F" transform="translate(473.4375,309.125)"/>
<path d="M0 0 C9.41041094 4.22717564 14.76531524 19.71174656 18.29980469 28.98144531 C24.67573424 47.36226315 22.85981414 66.1222783 14.53051758 83.46069336 C11.39145134 89.64344946 7.57214954 95.28365376 3.64819336 100.98754883 C-15.61900098 129.29524689 -27.36837084 164.85800484 -20.92358398 199.29882812 C-15.18928938 225.26587991 0.4767121 248.99544313 22.6875 263.6875 C41.19200927 275.45711678 61.5711032 279.63737473 83.0859375 274.96484375 C105.62856977 269.6292769 123.93995093 254.51479626 136.1796875 235.13183594 C138.9750003 230.5191008 141.51801168 225.78701795 144 221 C144.33741211 220.36175293 144.67482422 219.72350586 145.02246094 219.06591797 C170.38511245 170.5799515 175.09495213 111.32606192 176.5625 57.5 C176.60587347 55.98306585 176.64949231 54.4661387 176.69335938 52.94921875 C176.79838366 49.29955491 176.90015036 45.64980953 177 42 C182.88400655 41.14304033 188.55909292 40.87460766 194.5 40.9375 C195.73363281 40.94426758 195.73363281 40.94426758 196.9921875 40.95117188 C198.99482396 40.96281511 200.99742227 40.98074444 203 41 C203.69222656 42.63582031 203.69222656 42.63582031 204.3984375 44.3046875 C214.682651 68.24129498 228.47508981 90.12030184 244 111 C244.49467773 111.66596191 244.98935547 112.33192383 245.49902344 113.01806641 C261.70488709 134.7339237 279.52683092 156.31721365 301 173 C301.53157715 173.42394043 302.0631543 173.84788086 302.61083984 174.28466797 C324.56843846 191.72964545 351.48133886 204.53917026 380.140625 201.6875 C387.48855744 200.72290148 387.48855744 200.72290148 393 196 C389.08375892 179.3559754 371.46734741 165.26322001 358.56640625 155.06640625 C356.01006574 153.00810468 353.60005243 150.84925565 351.1875 148.625 C347.22297171 145.00823735 343.10801646 141.6664733 338.875 138.375 C337.68089859 137.4402204 336.48688576 136.50532762 335.29296875 135.5703125 C333.3258548 134.03063614 331.35084438 132.50568002 329.36328125 130.9921875 C323.67203711 126.43510512 323.67203711 126.43510512 323 122.0625 C323 121.051875 323 120.04125 323 119 C329.88908988 116.82449793 335.56001784 120.23587402 341.64501953 123.35644531 C344.40946048 124.86985874 347.14563822 126.42422058 349.875 128 C350.8760376 128.57322998 351.8770752 129.14645996 352.90844727 129.73706055 C355.94447188 131.48204852 358.9732941 133.23890687 362 135 C362.86512207 135.50096191 363.73024414 136.00192383 364.62158203 136.51806641 C391.22008478 151.97572517 417.27816128 169.17107003 440 190 C440.93457031 190.85078125 441.86914062 191.7015625 442.83203125 192.578125 C452.62447475 201.90426166 461.72165476 213.02851833 462.5625 226.9375 C462.33463151 233.40733751 460.63370916 237.46794443 456 242 C433.33890339 259.60368449 403.30980959 261.33613321 375.78369141 258.69091797 C369.74117507 257.89130832 363.87456642 256.61233335 358 255 C357.24686523 254.79632812 356.49373047 254.59265625 355.71777344 254.3828125 C335.79906697 248.79764513 317.66298774 239.13006059 301 227 C300.05640625 226.32066406 299.1128125 225.64132812 298.140625 224.94140625 C284.31651726 214.27280136 271.55491176 200.8830371 261 187 C259.97756014 185.71431362 258.95259223 184.43063559 257.92578125 183.1484375 C232.92234519 151.75126565 212.92845573 117.28944085 194 82 C194.01047363 82.85190918 194.02094727 83.70381836 194.03173828 84.58154297 C194.7276156 150.61941959 191.52412142 227.68830518 143.62548828 278.46459961 C120.94993309 301.54442506 90.50779738 312.66658106 58.43212891 313.02734375 C21.77225855 312.61518701 -11.62522734 296.89010003 -38 272 C-38.73734375 271.32710937 -39.4746875 270.65421875 -40.234375 269.9609375 C-66.04031351 245.52765529 -76.99565796 210.88351763 -78.125 176.15625 C-79.21509831 123.20953396 -61.16054932 71.18455522 -28 30 C-27.5654248 29.45118164 -27.13084961 28.90236328 -26.68310547 28.33691406 C-18.57518491 18.14250994 -9.30501762 9.09193813 0 0 Z " fill="#00758F" transform="translate(1144,598)"/>
<path d="M0 0 C2 2 2 2 2.0625 5.125 C0.48286067 13.78867803 -9.72342839 20.83585457 -15.72481918 26.76941872 C-17.3437463 28.37066344 -18.95885578 29.97567421 -20.57302856 31.58171082 C-25.15778954 36.14227824 -29.74820093 40.69712541 -34.34326172 45.24731445 C-37.16975781 48.04673245 -39.99111883 50.85124601 -42.80957413 53.65875816 C-43.87196956 54.71502867 -44.93624628 55.76941109 -46.00259018 56.82169533 C-52.81192897 63.54204158 -59.08276777 70.47039228 -65 78 C-65.48350418 78.60316544 -65.96700836 79.20633087 -66.46516418 79.82777405 C-91.59163286 111.2509697 -109.27884416 148.16370751 -127.0123291 184.04541016 C-135.01018452 200.22351473 -143.20646449 216.23832481 -152 232 C-152.63760254 233.14919922 -153.27520508 234.29839844 -153.93212891 235.48242188 C-170.15692575 264.55997946 -192.63945543 303.63042079 -225.625 316 C-246.05039495 321.04003252 -264.38594901 313.70759352 -282 304 C-282.62229492 303.65984863 -283.24458984 303.31969727 -283.88574219 302.96923828 C-293.95069182 297.39671883 -302.97302586 290.68339137 -311.99707031 283.57373047 C-314.97814879 281.23145452 -317.98958067 278.92934892 -321 276.625 C-323.91244755 274.38774392 -326.817379 272.14477346 -329.6953125 269.86328125 C-330.89800781 268.91001953 -330.89800781 268.91001953 -332.125 267.9375 C-332.80820312 267.38964844 -333.49140625 266.84179688 -334.1953125 266.27734375 C-338.06451498 263.53875238 -342.43063754 263.28629348 -347 264 C-349.97669449 265.2839514 -352.43704195 267.02887962 -355 269 C-355.64839844 269.49628906 -356.29679688 269.99257812 -356.96484375 270.50390625 C-362.27408078 274.86694262 -366.4461756 279.97948014 -370.68701172 285.35888672 C-372.10138341 287.12671984 -373.54880928 288.86321006 -375.00390625 290.59765625 C-380.98320882 297.76261232 -386.54120703 305.06587415 -391.75 312.8125 C-404.87413544 332.31382877 -417.9864281 345.86202282 -441.76417542 350.64329529 C-450.40039792 352.02112308 -459.15352526 352.1501983 -467.87890625 352.1328125 C-469.517136 352.13424759 -469.517136 352.13424759 -471.1884613 352.13571167 C-473.48509784 352.13638739 -475.78173635 352.1345759 -478.07836914 352.13037109 C-481.52950513 352.12505086 -484.9805088 352.13031819 -488.43164062 352.13671875 C-501.32092797 352.14019024 -514.13820352 351.85440397 -527 351 C-526.35509018 333.23698535 -519.01299337 316.25642399 -506 304 C-495.0062237 294.83851975 -479.70998159 294.09557117 -466.06396484 292.79101562 C-457.81924152 291.98484846 -450.33396048 291.17829588 -443 287 C-441.61748047 286.27490234 -441.61748047 286.27490234 -440.20703125 285.53515625 C-429.72880938 279.09096433 -420.50212436 270.37738833 -412.62890625 260.9453125 C-410.69141439 258.6314733 -408.66074722 256.41529885 -406.625 254.1875 C-403.46130925 250.69135361 -400.44907667 247.11613919 -397.5 243.4375 C-393.94100174 239.03525477 -390.15340385 235.0450687 -386.1015625 231.09765625 C-384.21336594 229.21296935 -382.4738718 227.28382904 -380.75 225.25 C-369.95829798 212.78458494 -358.3267025 199.84423509 -341 198 C-322.38927332 198.18068667 -306.01195053 217.19971653 -292.80859375 228.796875 C-277.05222027 242.54890415 -260.8045103 254.40169214 -239.07324219 253.21777344 C-228.96526137 252.15603075 -220.62667913 246.28547475 -213 240 C-212.14535156 239.29746094 -211.29070312 238.59492187 -210.41015625 237.87109375 C-204.15884458 232.486682 -199.04755228 226.50457768 -194 220 C-193.20851563 219.01257812 -192.41703125 218.02515625 -191.6015625 217.0078125 C-178.56343422 200.51478587 -168.04108546 182.22296105 -157.75 163.9375 C-141.13977902 134.45836111 -123.35155142 106.50199264 -101 81 C-100.23429687 80.12214844 -99.46859375 79.24429688 -98.6796875 78.33984375 C-92.67863278 71.63448518 -86.36165974 65.23448773 -80.02429199 58.84906006 C-79.02511139 57.84183768 -78.02741559 56.83313969 -77.03137207 55.82281494 C-70.37153413 49.07770992 -63.41342012 42.91862218 -56 37 C-54.89828422 36.06508802 -53.80193811 35.1237489 -52.71484375 34.171875 C-12.45609475 -0.93420711 -12.45609475 -0.93420711 0 0 Z " fill="#00758F" transform="translate(1064,891)"/>
<path d="M0 0 C3 1 3 1 4 3 C4.83654672 16.26132262 3.67786065 29.23231984 2.0625 42.375 C-0.32663314 61.88138848 -2.11960335 81.37908458 0 101 C0.10755615 101.99604248 0.10755615 101.99604248 0.21728516 103.01220703 C2.42177473 121.61342964 11.49924295 137.47710292 26.21484375 149.11328125 C28.35165178 151.37165822 28.66954623 152.95248192 29 156 C23.51328434 158.61765141 18.34301128 159.83810003 12.375 160.875 C-6.04387248 164.37608024 -19.33847948 171.84230075 -32.265625 185.19458008 C-37.17148537 190.25671106 -42.43479008 194.67236823 -48 199 C-48.99386719 199.79921875 -49.98773437 200.5984375 -51.01171875 201.421875 C-61.45754132 209.75252011 -72.62469944 216.69001216 -84.38769531 223.00561523 C-111.72941329 237.68961525 -136.05409873 258.35730711 -155 283 C-156.02701354 284.28906257 -157.05580802 285.57670735 -158.0859375 286.86328125 C-166.95194716 298.00832389 -175.09578311 309.59357527 -183.15722656 321.32861328 C-185.74099439 325.07418662 -188.3666746 328.78917971 -191 332.5 C-195.02622172 338.18045412 -199.00939304 343.88933864 -202.97460938 349.61254883 C-222.1502772 377.27959341 -222.1502772 377.27959341 -232 389 C-232.76828125 389.91523437 -233.5365625 390.83046875 -234.328125 391.7734375 C-245.10577824 404.14401433 -258.46645363 413.95580028 -275.29829407 415.1651268 C-281.92080099 415.42213378 -288.54606828 415.34433583 -295.171875 415.29296875 C-297.30706482 415.28736408 -299.44225853 415.28309811 -301.57745361 415.28010559 C-307.16038925 415.26872538 -312.74308571 415.23931778 -318.32592773 415.20599365 C-324.03756476 415.1751447 -329.74924094 415.16156874 -335.4609375 415.14648438 C-346.6407293 415.11444085 -357.82034466 415.06332821 -369 415 C-369.16405649 400.10560034 -364.67024669 387.82996669 -354.44506836 376.98266602 C-337.70503458 359.87132801 -318.02222342 357.24319499 -294.9375 356.5625 C-278.91552864 356.05256513 -264.10566625 354.32198579 -251.7890625 342.91015625 C-238.22636397 328.42945848 -229.16002318 310.28629734 -219.86279297 292.9465332 C-211.83370654 278.03039762 -203.30815128 263.46556879 -193 250 C-192.53577637 249.38769531 -192.07155273 248.77539062 -191.59326172 248.14453125 C-178.29567009 230.74960542 -162.94602313 215.5561043 -145 203 C-144.1759668 202.42266113 -143.35193359 201.84532227 -142.50292969 201.25048828 C-132.67756219 194.42578139 -122.70058596 188.10624874 -112.18481445 182.40332031 C-64.75274687 156.63301599 -48.274957 116.92557857 -30.9375 68.3125 C-8.61025799 5.74017199 -8.61025799 5.74017199 0 0 Z " fill="#00758F" transform="translate(642,876)"/>
<path d="M0 0 C10.86001214 8.55541654 16.7402394 20.88013294 18.4375 34.4375 C19.43918694 43.81473797 19.29734188 52.76799721 18.3125 62.125 C18.24256836 62.83454834 18.17263672 63.54409668 18.10058594 64.27514648 C17.53065544 69.1212587 16.36080292 73.02077382 14.125 77.375 C11.9375 78.3125 11.9375 78.3125 10.125 78.375 C7.95492217 74.33124521 6.53767916 70.63199883 5.546875 66.15625 C5.14166626 64.39571289 5.14166626 64.39571289 4.72827148 62.59960938 C4.44669189 61.37048828 4.1651123 60.14136719 3.875 58.875 C0.31270408 41.68140556 0.31270408 41.68140556 -9.88671875 28.09375 C-14.12334913 25.65699527 -17.34113207 24.80242276 -22.19140625 25.8984375 C-37.87465966 31.2489058 -45.92272533 46.0400082 -53.17578125 59.859375 C-54.69357986 62.99964798 -55.86776132 66.04139786 -56.875 69.375 C-56.07578125 69.46910156 -55.2765625 69.56320312 -54.453125 69.66015625 C-30.55709899 74.43414398 -8.23637761 89.99091848 9.125 106.375 C9.86234375 107.04789062 10.5996875 107.72078125 11.359375 108.4140625 C37.17793696 132.8592967 50.15137609 170.09049482 51.30859375 205.05859375 C51.584862 218.71096525 50.32585903 232.00534669 47.25 245.3125 C47.10079102 245.9933667 46.95158203 246.6742334 46.79785156 247.37573242 C45.62774149 252.03523514 45.62774149 252.03523514 42.9921875 253.81640625 C42.06792969 254.09291016 42.06792969 254.09291016 41.125 254.375 C37.8242345 249.76728399 36.9044917 245.00236521 35.75 239.5625 C35.53722412 238.59836182 35.32444824 237.63422363 35.10522461 236.64086914 C33.98960231 231.54609822 32.93011893 226.44128581 31.90234375 221.328125 C26.21463522 193.06617653 19.11000984 166.81182981 0.125 144.375 C-0.35453125 143.76140625 -0.8340625 143.1478125 -1.328125 142.515625 C-22.74531911 115.6825887 -61.98836209 101.99897163 -94.7890625 97.78295898 C-101.67697571 97.0294644 -108.57858234 97.02598516 -115.5 97.0625 C-116.61151428 97.06573273 -116.61151428 97.06573273 -117.7454834 97.06903076 C-162.35336888 97.27624746 -205.97511981 113.09510348 -239.875 142.375 C-241.04482422 143.38046875 -241.04482422 143.38046875 -242.23828125 144.40625 C-244.82742302 146.68568582 -247.35635928 149.01790475 -249.875 151.375 C-250.35807617 151.81875977 -250.84115234 152.26251953 -251.33886719 152.71972656 C-268.8514559 168.91187728 -281.34859311 189.30456274 -294.33666992 209.11474609 C-325.64951386 256.74933352 -325.64951386 256.74933352 -353.4375 263.5625 C-361.22492436 265.13108993 -368.94968083 265.50282773 -376.875 265.375 C-363.26784519 222.72911259 -338.21746154 179.90209863 -307.578125 147.2890625 C-305.50419622 145.05329534 -303.50530953 142.7923245 -301.51953125 140.48046875 C-297.9934436 136.43536088 -294.23779374 132.7178386 -290.3125 129.0625 C-289.61850098 128.41514893 -288.92450195 127.76779785 -288.20947266 127.10083008 C-281.7230823 121.12061167 -274.94880657 115.63951309 -267.875 110.375 C-267.06095703 109.75963379 -267.06095703 109.75963379 -266.23046875 109.13183594 C-227.20252545 79.72116029 -170.67149713 53.70691468 -120.65625 59.015625 C-107.93888823 60.64024729 -107.93888823 60.64024729 -96.35009766 56.52783203 C-91.96020756 51.6060801 -89.05806438 45.8960749 -86.20263672 39.99023438 C-84.41789101 36.47456759 -82.22952849 33.48663006 -79.75 30.4375 C-78.57050781 28.94669922 -78.57050781 28.94669922 -77.3671875 27.42578125 C-76.54476563 26.41902344 -75.72234375 25.41226563 -74.875 24.375 C-74.40352539 23.79669434 -73.93205078 23.21838867 -73.44628906 22.62255859 C-54.8159803 -0.0865393 -28.98504568 -19.56094613 0 0 Z " fill="#00758F" transform="translate(1217.875,389.625)"/>
<path d="M0 0 C18.72721171 9.6025314 34.15461491 23.8088146 48.96484375 38.5234375 C49.88394531 39.43319336 50.80304688 40.34294922 51.75 41.28027344 C57.809759 47.36849228 63.3033234 53.74536461 68.65234375 60.4609375 C69.6290171 61.63467899 70.60892397 62.80574683 71.59375 63.97265625 C112.6392856 113.34114341 175.60801844 220.48041969 172.65234375 288.4609375 C171.00234375 288.7909375 169.35234375 289.1209375 167.65234375 289.4609375 C144.21135631 263.33330394 129.36412968 225.25497995 114.45874023 193.60864258 C94.47128304 151.18712298 70.03152478 109.50362491 38.65234375 74.4609375 C37.90621826 73.61426514 37.90621826 73.61426514 37.14501953 72.75048828 C24.61443883 58.54540659 8.74015339 42.51587584 -11.16015625 41.2109375 C-19.04682072 41.37370168 -24.05388732 44.6218011 -29.68359375 49.9375 C-31.34765625 51.4609375 -31.34765625 51.4609375 -33.34765625 52.4609375 C-42.88398973 38.37073691 -46.82408646 26.40061818 -45.34765625 9.4609375 C-43.93502959 3.54940201 -41.10925204 -0.70655857 -36.34765625 -4.5390625 C-24.4056049 -10.27612976 -11.2121461 -5.15470894 0 0 Z " fill="#00758F" transform="translate(584.34765625,292.5390625)"/>
</svg>
