<?xml version="1.0" encoding="UTF-8"?>
<svg version="1.1" xmlns="http://www.w3.org/2000/svg" width="250" height="190">
<path d="M0 0 C0.99 0.495 0.99 0.495 2 1 C2.66736712 3.95417097 3.19099492 6.82139142 3.625 9.8125 C3.75543701 10.70743164 3.88587402 11.60236328 4.02026367 12.52441406 C7.81188946 40.80949723 3.86168323 71.27186286 -13.078125 94.8984375 C-14.98940849 97.32766422 -16.98333204 99.6584713 -19 102 C-19.51304687 102.72574219 -20.02609375 103.45148438 -20.5546875 104.19921875 C-21.03164062 104.85535156 -21.50859375 105.51148437 -22 106.1875 C-22.391875 106.75855469 -22.78375 107.32960938 -23.1875 107.91796875 C-28.52676989 111.10542082 -38.63572228 106.71236225 -44.27404785 105.29478455 C-45.73480777 104.92448963 -47.19554122 104.55409031 -48.65625 104.18359375 C-50.16928928 103.8034661 -51.68243397 103.42375775 -53.19567871 103.04444885 C-57.15535651 102.05073293 -61.11358734 101.05136981 -65.0715332 100.05078125 C-69.11973879 99.02845367 -73.16930166 98.01153226 -77.21875 96.99414062 C-85.14716358 95.00135059 -93.07405513 93.00258622 -101 91 C-99.40072931 87.64421091 -97.59124536 85.24366585 -95.0625 82.5 C-94.25683594 81.62085937 -93.45117188 80.74171875 -92.62109375 79.8359375 C-91.75613281 78.90007812 -90.89117187 77.96421875 -90 77 C-88.66491485 75.54104097 -87.32983775 74.08207443 -85.99536133 72.62255859 C-83.19630319 69.56369121 -80.38938466 66.51203379 -77.58398438 63.45898438 C-72.8876188 58.34689626 -68.1967486 53.23114844 -63.5625 48.0625 C-60.07551628 44.17629095 -56.54654783 40.33169741 -53 36.5 C-43.79223511 26.64598033 -43.79223511 26.64598033 -35.0625 16.375 C-34.381875 15.59125 -33.70125 14.8075 -33 14 C-32.34 14 -31.68 14 -31 14 C-30.01 22.415 -30.01 22.415 -29 31 C-24.84419129 26.92900371 -20.89569554 22.79036795 -17.09765625 18.38671875 C-14.36313664 15.27537521 -11.56044665 12.23021846 -8.75 9.1875 C-8.23026611 8.62401855 -7.71053223 8.06053711 -7.17504883 7.47998047 C-4.826394 4.94173957 -2.47515796 2.41582199 0 0 Z " fill="#FDB83F" transform="translate(184,10)"/>
<path d="M0 0 C0.66 0 1.32 0 2 0 C3.35695803 23.7216366 -6.07358419 47.16991666 -20 66 C-27.02518661 65.32646876 -33.6744404 63.69695944 -40.5 61.9375 C-41.60859375 61.65583984 -42.7171875 61.37417969 -43.859375 61.08398438 C-46.5740437 60.39361604 -49.28750638 59.69885625 -52 59 C-50.57567584 56.02183282 -49.22096735 54.02068318 -46.8125 51.75 C-44.40558542 49.41185441 -42.12027956 47.04842283 -39.9375 44.5 C-36.40165985 40.3948976 -32.70669323 36.4500009 -29 32.5 C-24.87127801 28.09738771 -20.78506131 23.68055855 -16.8515625 19.1015625 C-13.6987861 15.52309477 -10.43267457 12.04731948 -7.17333984 8.56591797 C-5.07940735 6.31672804 -3.07173605 4.09887942 -1.265625 1.609375 C-0.84796875 1.07828125 -0.4303125 0.5471875 0 0 Z " fill="#F98200" transform="translate(151,46)"/>
<path d="M0 0 C0.66 0 1.32 0 2 0 C3.25406138 5.78645644 3.11186913 11.48868116 3.0625 17.375 C3.05798828 18.39722656 3.05347656 19.41945313 3.04882812 20.47265625 C3.037103 22.98183194 3.02069176 25.4908849 3 28 C2.67 28 2.34 28 2 28 C2 26.02 2 24.04 2 22 C1.34 22 0.68 22 0 22 C-0.25394531 22.58265625 -0.50789063 23.1653125 -0.76953125 23.765625 C-2.13320333 26.24188033 -3.64225203 27.80520626 -5.6875 29.75 C-8.32084141 32.3173901 -10.85121203 34.89971939 -13.25 37.6875 C-16.38034266 41.32527264 -19.61235837 44.85641502 -22.875 48.375 C-26.44434143 52.2259865 -29.99646017 56.08877553 -33.5 60 C-37.11305362 64.03070936 -40.76639687 68.02224148 -44.4375 72 C-44.95828125 72.56460938 -45.4790625 73.12921875 -46.015625 73.7109375 C-47.98214259 75.83830482 -49.95126354 77.95126354 -52 80 C-57.52315952 79.61909245 -62.66201374 78.42981775 -68 77 C-66.51151188 73.60655558 -64.5673138 71.21770033 -62.0625 68.5 C-61.25683594 67.62085937 -60.45117188 66.74171875 -59.62109375 65.8359375 C-58.75613281 64.90007812 -57.89117187 63.96421875 -57 63 C-55.66491485 61.54104097 -54.32983775 60.08207443 -52.99536133 58.62255859 C-50.19630319 55.56369121 -47.38938466 52.51203379 -44.58398438 49.45898438 C-39.8876188 44.34689626 -35.1967486 39.23114844 -30.5625 34.0625 C-27.07551628 30.17629095 -23.54654783 26.33169741 -20 22.5 C-10.79223511 12.64598033 -10.79223511 12.64598033 -2.0625 2.375 C-1.381875 1.59125 -0.70125 0.8075 0 0 Z " fill="#FEB221" transform="translate(151,24)"/>
<path d="M0 0 C5.44768502 0.60083696 10.69515666 1.51782391 16.02075195 2.82592773 C17.15644371 3.09930466 17.15644371 3.09930466 18.31507874 3.37820435 C20.79060475 3.97545772 23.26448556 4.57921672 25.73828125 5.18359375 C27.468387 5.60357525 29.19854637 6.02333596 30.92875671 6.44288635 C34.54121423 7.32000873 38.15283166 8.20049407 41.76391602 9.08325195 C46.39363899 10.21462858 51.02561659 11.33645442 55.65829182 12.45567226 C59.22546152 13.31877181 62.79126039 14.1874276 66.35667992 15.05772591 C68.06468131 15.47381815 69.77313752 15.88804797 71.48204994 16.30038261 C73.86488112 16.87608984 76.24573045 17.45937771 78.6262207 18.04467773 C79.33222412 18.21358017 80.03822754 18.3824826 80.765625 18.5565033 C83.99726546 19.35921589 86.19353476 20.12902317 89 22 C88.04915527 22.06731323 88.04915527 22.06731323 87.07910156 22.13598633 C69.48181954 23.41918806 55.60689349 25.6535299 40 34 C38.66926908 34.67184629 37.3372432 35.34121107 36 36 C35.31035156 35.10539062 34.62070313 34.21078125 33.91015625 33.2890625 C24.88532242 21.64229056 16.09537905 11.55953742 4 3 C2.66321629 2.00461711 1.32839486 1.00655098 0 0 Z " fill="#1A1F8B" transform="translate(62,98)"/>
<path d="M0 0 C1.65 0 3.3 0 5 0 C5.33 2.97 5.66 5.94 6 9 C6.43570313 8.3503125 6.87140625 7.700625 7.3203125 7.03125 C9.10628846 4.52624476 10.84929345 2.20222048 13 0 C16.4375 -0.5625 16.4375 -0.5625 19 0 C17.85109585 2.58503435 16.69819007 4.34492563 14.8125 6.5 C12.75450669 8.74187828 12.75450669 8.74187828 13.2265625 10.859375 C14.11666755 13.32289808 15.25953522 15.47816398 16.5625 17.75 C17.01753906 18.54921875 17.47257812 19.3484375 17.94140625 20.171875 C18.29074219 20.77515625 18.64007813 21.3784375 19 22 C19.3242395 21.05362671 19.3242395 21.05362671 19.6550293 20.08813477 C20.64472224 17.23839741 21.66555693 14.40082303 22.6875 11.5625 C23.02716797 10.56927734 23.36683594 9.57605469 23.71679688 8.55273438 C24.06162109 7.60849609 24.40644531 6.66425781 24.76171875 5.69140625 C25.225177 4.37958374 25.225177 4.37958374 25.69799805 3.04125977 C27 1 27 1 29.63989258 0.20678711 C30.80814575 0.10442749 30.80814575 0.10442749 32 0 C33.12898402 2.85264678 34.25327567 5.70699937 35.375 8.5625 C35.69210938 9.36236328 36.00921875 10.16222656 36.3359375 10.98632812 C38.14867992 15.61259783 39.72360018 20.19738453 41 25 C39.35 25 37.7 25 36 25 C35.76539063 24.35546875 35.53078125 23.7109375 35.2890625 23.046875 C34.18838927 20.7922092 34.18838927 20.7922092 31.8359375 20.390625 C30.61777344 20.32101563 30.61777344 20.32101563 29.375 20.25 C28.55773437 20.19328125 27.74046875 20.1365625 26.8984375 20.078125 C25.95871094 20.03945312 25.95871094 20.03945312 25 20 C24.67 21.65 24.34 23.3 24 25 C20.49238985 25.62388323 17.47556534 25.87923528 14 25 C11.29300222 21.98635013 9.62251077 18.69352046 8 15 C5.70424397 17.29575603 5.67660401 18.00842525 5.375 21.125 C5.25125 22.40375 5.1275 23.6825 5 25 C3.35 25 1.7 25 0 25 C0 16.75 0 8.5 0 0 Z M29 8 C28.34 10.64 27.68 13.28 27 16 C28.98 16 30.96 16 33 16 C32.01 13.36 31.02 10.72 30 8 C29.67 8 29.34 8 29 8 Z " fill="#57585A" transform="translate(74,158)"/>
<path d="M0 0 C13.33333333 -0.49382716 13.33333333 -0.49382716 16.42578125 1.796875 C18.7024252 4.98304668 18.47778994 7.17768049 18 11 C16.5 13.4375 16.5 13.4375 15 15 C15.28875 15.55429688 15.5775 16.10859375 15.875 16.6796875 C16.431875 17.76636719 16.431875 17.76636719 17 18.875 C17.37125 19.59429687 17.7425 20.31359375 18.125 21.0546875 C19 23 19 23 19 25 C17.02 25 15.04 25 13 25 C12.75765625 24.36191406 12.5153125 23.72382813 12.265625 23.06640625 C11.93046875 22.24011719 11.5953125 21.41382813 11.25 20.5625 C10.92515625 19.73878906 10.6003125 18.91507813 10.265625 18.06640625 C9.03289175 15.51194599 9.03289175 15.51194599 5 15 C5 18.3 5 21.6 5 25 C3.35 25 1.7 25 0 25 C0 16.75 0 8.5 0 0 Z M5 4 C5 6.31 5 8.62 5 11 C9.25731568 11.40749675 9.25731568 11.40749675 12.875 9.5 C13.24625 9.005 13.6175 8.51 14 8 C13.34 6.68 12.68 5.36 12 4 C9.69 4 7.38 4 5 4 Z " fill="#57585A" transform="translate(116,158)"/>
<path d="M0 0 C5.61 0 11.22 0 17 0 C17 1.32 17 2.64 17 4 C13.04 4 9.08 4 5 4 C5 5.98 5 7.96 5 10 C8.3 10 11.6 10 15 10 C15 11.65 15 13.3 15 15 C11.7 15 8.4 15 5 15 C5 16.98 5 18.96 5 21 C8.96 21 12.92 21 17 21 C17 22.32 17 23.64 17 25 C11.39 25 5.78 25 0 25 C0 16.75 0 8.5 0 0 Z " fill="#57585A" transform="translate(199,158)"/>
<path d="M0 0 C5.61 0 11.22 0 17 0 C17 1.32 17 2.64 17 4 C13.04 4 9.08 4 5 4 C5 5.98 5 7.96 5 10 C8.3 10 11.6 10 15 10 C15 11.65 15 13.3 15 15 C11.7 15 8.4 15 5 15 C5 16.98 5 18.96 5 21 C8.96 21 12.92 21 17 21 C17 22.32 17 23.64 17 25 C11.39 25 5.78 25 0 25 C0 16.75 0 8.5 0 0 Z " fill="#57585A" transform="translate(180,158)"/>
<path d="M0 0 C1.65 0 3.3 0 5 0 C6.34117853 3.60129621 7.6715839 7.20647859 9 10.8125 C9.3815625 11.83666016 9.763125 12.86082031 10.15625 13.91601562 C10.5171875 14.89892578 10.878125 15.88183594 11.25 16.89453125 C11.75273437 18.25348511 11.75273437 18.25348511 12.265625 19.63989258 C13 22 13 22 13 25 C11.35 25 9.7 25 8 25 C7.67 23.35 7.34 21.7 7 20 C4.03 20 1.06 20 -2 20 C-2.33 21.65 -2.66 23.3 -3 25 C-4.65 25 -6.3 25 -8 25 C-7.3440206 19.36412069 -5.43967159 14.39011658 -3.4375 9.125 C-3.10814453 8.24585938 -2.77878906 7.36671875 -2.43945312 6.4609375 C-1.63113386 4.30541947 -0.81787706 2.15190559 0 0 Z M2 8 C1.34 10.64 0.68 13.28 0 16 C1.65 16 3.3 16 5 16 C4.55296014 11.52116304 4.55296014 11.52116304 2 8 Z " fill="#57585A" transform="translate(157,158)"/>
<path d="M0 0 C1.65 0 3.3 0 5 0 C6.34117853 3.60129621 7.6715839 7.20647859 9 10.8125 C9.3815625 11.83666016 9.763125 12.86082031 10.15625 13.91601562 C10.5171875 14.89892578 10.878125 15.88183594 11.25 16.89453125 C11.75273438 18.25348511 11.75273438 18.25348511 12.265625 19.63989258 C13 22 13 22 13 25 C11.35 25 9.7 25 8 25 C7.505 22.525 7.505 22.525 7 20 C4.03 20 1.06 20 -2 20 C-2.33 21.65 -2.66 23.3 -3 25 C-4.98 25 -6.96 25 -9 25 C-6.03 16.75 -3.06 8.5 0 0 Z M2 8 C0.74335022 10.90600261 0 12.79604584 0 16 C1.65 16 3.3 16 5 16 C4.34 13.36 3.68 10.72 3 8 C2.67 8 2.34 8 2 8 Z " fill="#565759" transform="translate(59,158)"/>
<path d="M0 0 C1.65 0 3.3 0 5 0 C5.11632513 3.41637953 5.18728897 6.83224897 5.25 10.25 C5.30027344 11.70212891 5.30027344 11.70212891 5.3515625 13.18359375 C5.45004312 20.32343851 5.45004312 20.32343851 3.23828125 23.6484375 C-0.44223358 25.87087752 -2.74379117 25.40535322 -7 25 C-7.99 24.34 -8.98 23.68 -10 23 C-9.505 21.515 -9.505 21.515 -9 20 C-5.80756358 18.93585453 -5.07152658 19.18092625 -2 20 C-0.45049732 18.45049732 -0.78344807 16.90009406 -0.68359375 14.74609375 C-0.64169922 13.89208984 -0.59980469 13.03808594 -0.55664062 12.15820312 C-0.51732422 11.26037109 -0.47800781 10.36253906 -0.4375 9.4375 C-0.39431641 8.53580078 -0.35113281 7.63410156 -0.30664062 6.70507812 C-0.20021858 4.47021515 -0.09820012 2.23523692 0 0 Z " fill="#57585A" transform="translate(44,158)"/>
<path d="M0 0 C5.94 0 11.88 0 18 0 C18 1.32 18 2.64 18 4 C15.69 4 13.38 4 11 4 C11 10.93 11 17.86 11 25 C9.68 25 8.36 25 7 25 C7 18.07 7 11.14 7 4 C4.69 4 2.38 4 0 4 C0 2.68 0 1.36 0 0 Z " fill="#57585A" transform="translate(134,158)"/>
<path d="M0 0 C1.65 0.33 3.3 0.66 5 1 C4.67 2.32 4.34 3.64 4 5 C2.35 4.67 0.7 4.34 -1 4 C-0.67 2.68 -0.34 1.36 0 0 Z " fill="#57585A" transform="translate(167,158)"/>
</svg>
