<?xml version="1.0" encoding="UTF-8"?>
<svg version="1.1" xmlns="http://www.w3.org/2000/svg" width="280" height="280">
<path d="M0 0 C1.33897583 0.95043374 2.67105427 1.91059147 4 2.875 C4.7425 3.40867187 5.485 3.94234375 6.25 4.4921875 C7.11625 5.23855469 7.11625 5.23855469 8 6 C8 6.66 8 7.32 8 8 C8.598125 8.268125 9.19625 8.53625 9.8125 8.8125 C11.97224808 9.98493467 13.35790256 11.19369282 15 13 C13.625 15 13.625 15 12 17 C11.34 17 10.68 17 10 17 C9.60554688 17.85271484 9.60554688 17.85271484 9.203125 18.72265625 C7.91422321 21.16236322 6.40324482 23.22945005 4.75 25.4375 C-2.33116933 35.41618329 -7.35833847 46.38689307 -7.1953125 58.6796875 C-7.19106766 59.89883347 -7.19106766 59.89883347 -7.18673706 61.14260864 C-7.17560619 63.72022675 -7.15051515 66.29748819 -7.125 68.875 C-7.11496101 70.63020329 -7.10583677 72.38541206 -7.09765625 74.140625 C-7.07569015 78.42721926 -7.04120978 82.7135493 -7 87 C-6.1946582 86.98694824 -5.38931641 86.97389648 -4.55957031 86.96044922 C-3.49319336 86.95029785 -2.42681641 86.94014648 -1.328125 86.9296875 C-0.2752832 86.91663574 0.77755859 86.90358398 1.86230469 86.89013672 C13.12153654 87.28436753 20.87063663 93.32017404 28.40625 101.1640625 C36.27485242 110.22838391 38.95385645 121.33198357 41.49145508 132.77954102 C42.62986302 137.79045305 44.13963988 142.4236665 46.265625 147.1171875 C47 149 47 149 47 152 C45.35 152.33 43.7 152.66 42 153 C42.495 154.1446875 42.495 154.1446875 43 155.3125 C44 158 44 158 44 161 C40.535 161.99 40.535 161.99 37 163 C43.6228116 168.97825389 43.6228116 168.97825389 52 171 C54.34214207 170.7355646 56.68025766 170.41755362 59 170 C59.33 170.99 59.66 171.98 60 173 C60.66 173 61.32 173 62 173 C63.41015625 174.50390625 63.41015625 174.50390625 65.0625 176.5625 C77.20563051 190.72119111 95.13611035 199.15700425 113.4375 201.8125 C114.95657289 201.90871767 116.47829186 201.96472083 118 202 C119.27746094 202.05027344 120.55492187 202.10054687 121.87109375 202.15234375 C138.25170109 202.60569167 153.48935289 199.72772317 169.17675781 195.15771484 C191.64535256 188.64123264 191.64535256 188.64123264 199 192.625 C201 195 201 195 201.625 197.875 C200.57151962 203.14240189 197.45245978 205.9190997 193.3125 209 C192.219375 209.66 191.12625 210.32 190 211 C189.37222656 211.41636719 188.74445313 211.83273438 188.09765625 212.26171875 C172.58399434 222.21336479 153.99527598 229.24545294 136.5 234.8125 C135.85321289 235.0197168 135.20642578 235.22693359 134.54003906 235.44042969 C100.10366847 246.02662345 57.99399379 232.72708931 27.3125 216.6875 C21.19976398 213.39820702 15.28990557 209.79266528 9.4375 206.0625 C8.69218018 205.58965576 7.94686035 205.11681152 7.17895508 204.62963867 C5.41415038 203.47662177 3.70090987 202.24534703 2 201 C2 200.34 2 199.68 2 199 C1.2575 198.731875 0.515 198.46375 -0.25 198.1875 C-2.89061949 197.04723249 -4.85552844 195.90619694 -7 194 C-7 193.34 -7 192.68 -7 192 C-7.53496094 191.78085938 -8.06992187 191.56171875 -8.62109375 191.3359375 C-11.83556717 189.53076524 -14.38809328 187.12915587 -17.0625 184.625 C-17.62670654 184.09986816 -18.19091309 183.57473633 -18.7722168 183.03369141 C-22.75917879 179.27619887 -26.59125225 175.39540326 -30.3125 171.375 C-30.78631104 170.86662598 -31.26012207 170.35825195 -31.74829102 169.83447266 C-35 166.24936446 -35 166.24936446 -35 164 C-35.66 164 -36.32 164 -37 164 C-46.71508384 151.84418082 -49.24540082 139.09485811 -48 124 C-47.3711288 120.75158616 -46.41143396 117.98242133 -45 115 C-44.74476562 114.35289062 -44.48953125 113.70578125 -44.2265625 113.0390625 C-42.32353301 108.62193902 -39.89458867 105.90226512 -36.41015625 102.59765625 C-30.85639828 96.50047446 -30.82637169 91.34824803 -31.0625 83.375 C-31.05422719 80.87758393 -31.0412385 78.38017884 -31.0234375 75.8828125 C-31.02569336 74.69204102 -31.02794922 73.50126953 -31.03027344 72.27441406 C-30.7663232 43.72521548 -19.94945468 19.94945468 0 0 Z " fill="#BC1E2D" transform="translate(59,16)"/>
<path d="M0 0 C1.33897583 0.95043374 2.67105427 1.91059147 4 2.875 C4.7425 3.40867187 5.485 3.94234375 6.25 4.4921875 C7.11625 5.23855469 7.11625 5.23855469 8 6 C8 6.66 8 7.32 8 8 C8.598125 8.268125 9.19625 8.53625 9.8125 8.8125 C11.97224808 9.98493467 13.35790256 11.19369282 15 13 C13.625 15 13.625 15 12 17 C11.34 17 10.68 17 10 17 C9.60554688 17.85271484 9.60554688 17.85271484 9.203125 18.72265625 C7.91422321 21.16236322 6.40324482 23.22945005 4.75 25.4375 C-2.33116933 35.41618329 -7.35833847 46.38689307 -7.1953125 58.6796875 C-7.19106766 59.89883347 -7.19106766 59.89883347 -7.18673706 61.14260864 C-7.17560619 63.72022675 -7.15051515 66.29748819 -7.125 68.875 C-7.11496101 70.63020329 -7.10583677 72.38541206 -7.09765625 74.140625 C-7.07569015 78.42721926 -7.04120978 82.7135493 -7 87 C-6.1946582 86.98694824 -5.38931641 86.97389648 -4.55957031 86.96044922 C-3.49319336 86.95029785 -2.42681641 86.94014648 -1.328125 86.9296875 C-0.2752832 86.91663574 0.77755859 86.90358398 1.86230469 86.89013672 C13.12153654 87.28436753 20.87063663 93.32017404 28.40625 101.1640625 C36.27485242 110.22838391 38.95385645 121.33198357 41.49145508 132.77954102 C42.62986302 137.79045305 44.13963988 142.4236665 46.265625 147.1171875 C47 149 47 149 47 152 C45.35 152.33 43.7 152.66 42 153 C42.495 154.1446875 42.495 154.1446875 43 155.3125 C44 158 44 158 44 161 C40.535 161.99 40.535 161.99 37 163 C43.6228116 168.97825389 43.6228116 168.97825389 52 171 C54.34214207 170.7355646 56.68025766 170.41755362 59 170 C59.33 170.99 59.66 171.98 60 173 C60.66 173 61.32 173 62 173 C63.41015625 174.50390625 63.41015625 174.50390625 65.0625 176.5625 C77.20563051 190.72119111 95.13611035 199.15700425 113.4375 201.8125 C114.95657289 201.90871767 116.47829186 201.96472083 118 202 C119.27746094 202.05027344 120.55492187 202.10054687 121.87109375 202.15234375 C138.25170109 202.60569167 153.48935289 199.72772317 169.17675781 195.15771484 C191.64535256 188.64123264 191.64535256 188.64123264 199 192.625 C201 195 201 195 201.625 197.875 C200.57151962 203.14240189 197.45245978 205.9190997 193.3125 209 C192.219375 209.66 191.12625 210.32 190 211 C189.37222656 211.41636719 188.74445313 211.83273438 188.09765625 212.26171875 C172.58399434 222.21336479 153.99527598 229.24545294 136.5 234.8125 C135.85321289 235.0197168 135.20642578 235.22693359 134.54003906 235.44042969 C100.10366847 246.02662345 57.99399379 232.72708931 27.3125 216.6875 C21.19976398 213.39820702 15.28990557 209.79266528 9.4375 206.0625 C8.69218018 205.58965576 7.94686035 205.11681152 7.17895508 204.62963867 C5.41415038 203.47662177 3.70090987 202.24534703 2 201 C2 200.34 2 199.68 2 199 C1.2575 198.731875 0.515 198.46375 -0.25 198.1875 C-2.89061949 197.04723249 -4.85552844 195.90619694 -7 194 C-7 193.34 -7 192.68 -7 192 C-7.53496094 191.78085938 -8.06992187 191.56171875 -8.62109375 191.3359375 C-11.83556717 189.53076524 -14.38809328 187.12915587 -17.0625 184.625 C-17.62670654 184.09986816 -18.19091309 183.57473633 -18.7722168 183.03369141 C-22.75917879 179.27619887 -26.59125225 175.39540326 -30.3125 171.375 C-30.78631104 170.86662598 -31.26012207 170.35825195 -31.74829102 169.83447266 C-35 166.24936446 -35 166.24936446 -35 164 C-35.66 164 -36.32 164 -37 164 C-46.71508384 151.84418082 -49.24540082 139.09485811 -48 124 C-47.3711288 120.75158616 -46.41143396 117.98242133 -45 115 C-44.74476562 114.35289062 -44.48953125 113.70578125 -44.2265625 113.0390625 C-42.32353301 108.62193902 -39.89458867 105.90226512 -36.41015625 102.59765625 C-30.85639828 96.50047446 -30.82637169 91.34824803 -31.0625 83.375 C-31.05422719 80.87758393 -31.0412385 78.38017884 -31.0234375 75.8828125 C-31.02569336 74.69204102 -31.02794922 73.50126953 -31.03027344 72.27441406 C-30.7663232 43.72521548 -19.94945468 19.94945468 0 0 Z M-3 9.625 C-19.17988968 26.20357279 -26.25955909 50.71739734 -26.09765625 73.4375 C-26.09553383 74.58581299 -26.09553383 74.58581299 -26.09336853 75.75732422 C-26.08782853 78.17159142 -26.07528779 80.58576144 -26.0625 83 C-26.05747723 84.64973823 -26.05291569 86.29947794 -26.04882812 87.94921875 C-26.03787886 91.96618255 -26.02065666 95.98307487 -26 100 C-26.62398682 100.29712891 -27.24797363 100.59425781 -27.89086914 100.90039062 C-35.82420176 105.03648625 -40.29723521 114.89170564 -43 123 C-43.89762064 137.47965099 -42.70956458 148.64638564 -33 160 C-32.07518219 161.1077903 -31.15073628 162.21589112 -30.2265625 163.32421875 C-21.57199933 173.6282594 -12.57965681 182.63888197 -2 191 C-1.23163818 191.61560791 -1.23163818 191.61560791 -0.44775391 192.24365234 C34.55514642 220.25675932 77.02130363 235.86250501 122 233 C129.48646434 232.06822895 136.49375532 229.68392615 143.5625 227.125 C145.16931641 226.54431763 145.16931641 226.54431763 146.80859375 225.9519043 C154.89131226 222.94973488 162.7230018 219.53190861 170.5 215.8125 C171.51908447 215.32604004 172.53816895 214.83958008 173.58813477 214.33837891 C181.89383719 210.26372738 189.72071616 205.88695646 196 199 C195.67 198.01 195.34 197.02 195 196 C188.62024983 195.73417708 183.16768136 196.67475162 177 198.25 C176.08009277 198.47598877 175.16018555 198.70197754 174.21240234 198.93481445 C169.99988851 199.97387196 165.79752946 201.0484996 161.6015625 202.15234375 C133.16964926 209.60133322 106.0684903 209.60922518 79.8984375 195.3046875 C71.07078279 189.95836141 63.29660478 183.18558621 57 175 C56.43796875 175.144375 55.8759375 175.28875 55.296875 175.4375 C41.72662194 178.4346111 26.21858156 179.43250122 14 172 C5.51750477 166.56487086 0.36218363 159.99222065 -4 151 C-2.64455078 151.52400391 -2.64455078 151.52400391 -1.26171875 152.05859375 C-0.08222656 152.51363281 1.09726562 152.96867188 2.3125 153.4375 C3.48425781 153.88996094 4.65601563 154.34242188 5.86328125 154.80859375 C10.21392259 156.46107894 13.33718444 157.12030642 17.98046875 157.09765625 C19.14384766 157.09443359 20.30722656 157.09121094 21.50585938 157.08789062 C23.32827148 157.07532227 23.32827148 157.07532227 25.1875 157.0625 C27.02731445 157.05573242 27.02731445 157.05573242 28.90429688 157.04882812 C31.93624668 157.03703065 34.96809906 157.02056921 38 157 C37.34 154.36 36.68 151.72 36 149 C37.32 148.67 38.64 148.34 40 148 C34.20727942 118.33173832 34.20727942 118.33173832 15 96 C9.12276179 92.27465733 4.38804065 91.45832401 -2.5 91.75 C-3.73363281 91.77707031 -3.73363281 91.77707031 -4.9921875 91.8046875 C-6.99530804 91.8512717 -8.99781821 91.92299301 -11 92 C-13.11375776 66.33294146 -14.90216792 41.46741326 2.375 20.375 C3.04273438 19.61960937 3.71046875 18.86421875 4.3984375 18.0859375 C6.00855461 15.98885814 6.59089101 14.58323102 7 12 C2.1391523 6.70661689 2.1391523 6.70661689 -3 9.625 Z " fill="#040201" transform="translate(59,16)"/>
<path d="M0 0 C0.79664062 0.01546875 1.59328125 0.0309375 2.4140625 0.046875 C4.375 0.25 4.375 0.25 5.375 1.25 C5.99837997 6.86041975 5.30993593 11.94661032 3.875 17.375 C0.47397756 31.38984128 1.72124835 43.53401727 8.375 56.25 C11.34886122 61.07540317 14.54078193 65.47330096 18.6171875 69.421875 C20.375 71.25 20.375 71.25 20.375 73.25 C20.92671875 73.48847656 21.4784375 73.72695312 22.046875 73.97265625 C24.92714123 75.55293655 27.14904041 77.52622242 29.625 79.6875 C40.58301581 88.99951313 52.57292039 96.58177454 65.08032227 103.63452148 C65.84272217 104.06450439 66.60512207 104.4944873 67.390625 104.9375 C68.06383789 105.31261719 68.73705078 105.68773437 69.43066406 106.07421875 C71.52374721 107.3399506 73.44184418 108.75350236 75.375 110.25 C52.41902313 107.07200026 31.20146559 89.18717823 14.375 74.25 C13.59600342 73.57155029 13.59600342 73.57155029 12.80126953 72.87939453 C0.36864156 62.04651083 -14.28155094 48.2318217 -15.94140625 30.95703125 C-16.32782465 19.52652577 -13.47707577 10.45783526 -6.29296875 1.609375 C-4.09769178 -0.17975002 -2.79608557 -0.09107771 0 0 Z " fill="#EB999F" transform="translate(36.625,122.75)"/>
<path d="M0 0 C5.73563083 3.41697156 5.73563083 3.41697156 6.875 5.9296875 C7 8 7 8 5.84765625 9.6484375 C5.25855469 10.21820313 4.66945313 10.78796875 4.0625 11.375 C-7.87101291 24.16944771 -12.20017279 39.20532011 -12.125 56.3125 C-12.12209961 57.89708008 -12.12209961 57.89708008 -12.11914062 59.51367188 C-12.0708677 68.36907247 -11.67171586 77.17173442 -11 86 C-12.12148438 86.39832031 -12.12148438 86.39832031 -13.265625 86.8046875 C-14.25046875 87.15789062 -15.2353125 87.51109375 -16.25 87.875 C-17.22453125 88.22304687 -18.1990625 88.57109375 -19.203125 88.9296875 C-21.5666136 89.83415101 -23.75138652 90.85042794 -26 92 C-26.54516075 59.53078501 -26.16861373 30.01522251 -4 4 C-2.68072526 2.65275477 -1.35091343 1.31551832 0 0 Z " fill="#89C03D" transform="translate(59,23)"/>
<path d="M0 0 C3.73389029 -0.28722233 6.45368512 0.09300054 9.875 1.46875 C16.00536346 3.58221577 22.13290611 3.56296442 28.5625 3.6875 C29.76197266 3.72166016 30.96144531 3.75582031 32.19726562 3.79101562 C35.13141684 3.87284454 38.06529364 3.9422063 41 4 C41.66 6.31 42.32 8.62 43 11 C27.48281574 11.69792433 14.22835227 11.65839326 0 5 C0 3.35 0 1.7 0 0 Z " fill="#F8F1F1" transform="translate(54,162)"/>
<path d="M0 0 C1.875 0.25 1.875 0.25 4 1 C5.94440368 4.0223538 6.29640479 6.50545802 6.3125 10.0625 C6.33763672 11.34833984 6.33763672 11.34833984 6.36328125 12.66015625 C5.93462864 15.42104781 5.14005895 16.27778897 3 18 C0.30399627 17.0114653 -0.80558649 16.34022364 -2.25 13.8125 C-3.17006636 10.36225116 -3.32346286 7.55809151 -3 4 C-1.5 1.5625 -1.5 1.5625 0 0 Z " fill="#0C0102" transform="translate(81,133)"/>
<path d="M0 0 C2.69600373 0.9885347 3.80558649 1.65977636 5.25 4.1875 C6.17006636 7.63774884 6.32346286 10.44190849 6 14 C4.5 16.4375 4.5 16.4375 3 18 C0.71216703 17.08486681 -0.73449728 16.34515354 -2.25 14.375 C-3.34848872 10.89645238 -3.51079139 7.6125536 -3 4 C-1.5 1.5 -1.5 1.5 0 0 Z " fill="#090102" transform="translate(65,134)"/>
<path d="M0 0 C3.91211733 1.15585285 6.8745041 2.35534962 10 5 C5.80530429 4.40075776 1.99000166 3.42500059 -2 2 C-1.34 1.34 -0.68 0.68 0 0 Z " fill="#E3838B" transform="translate(102,228)"/>
</svg>
