<?xml version="1.0" encoding="UTF-8"?>
<svg version="1.1" xmlns="http://www.w3.org/2000/svg" width="250" height="103">
<path d="M0 0 C11 0 11 0 13.54296875 1.984375 C14.08566406 2.89703125 14.62835938 3.8096875 15.1875 4.75 C16.01314453 6.07257812 16.01314453 6.07257812 16.85546875 7.421875 C17.1704834 7.95651367 17.48549805 8.49115234 17.81005859 9.04199219 C24.08680223 19.37015878 31.21686453 29.24829237 38 39.25 C41.3 44.1175 44.6 48.985 48 54 C48.33 36.18 48.66 18.36 49 0 C52.3 0 55.6 0 59 0 C59 24.42 59 48.84 59 74 C48 74 48 74 45.64379883 72.29467773 C45.14904053 71.45364502 44.65428223 70.6126123 44.14453125 69.74609375 C43.51240723 68.74046387 42.8802832 67.73483398 42.22900391 66.69873047 C41.88371643 66.1183905 41.53842896 65.53805054 41.18267822 64.94012451 C39.33680729 61.9120655 37.32914206 58.9962687 35.3420105 56.0597229 C32.42846848 51.74642517 29.56217942 47.40175126 26.6875 43.0625 C24.91846653 40.39509345 23.14873198 37.7281586 21.37763977 35.06211853 C20.28339811 33.41467288 19.19039117 31.76640624 18.09880066 30.11720276 C17.60430923 29.37220016 17.10981781 28.62719757 16.6003418 27.85961914 C16.16924606 27.20884903 15.73815033 26.55807892 15.29399109 25.8875885 C13.92055739 23.88411439 12.45742318 21.9432309 11 20 C10.67 37.82 10.34 55.64 10 74 C6.7 74 3.4 74 0 74 C0 49.58 0 25.16 0 0 Z " fill="#1C6333" transform="translate(75,0)"/>
<path d="M0 0 C3.63 0 7.26 0 11 0 C11.01458252 1.46751709 11.02916504 2.93503418 11.04418945 4.44702148 C11.10240737 9.92089519 11.17963888 15.39436762 11.26245117 20.86791992 C11.2955902 23.23146016 11.32365602 25.59507745 11.34643555 27.95874023 C11.38018423 31.36735694 11.43251129 34.77527463 11.48828125 38.18359375 C11.49467117 39.23083115 11.5010611 40.27806854 11.50764465 41.35704041 C11.6513815 48.62121755 12.41735064 55.40273839 16.75 61.4375 C21.85068812 64.97964453 27.91605284 65.76338501 34 65 C38.35637296 63.86016048 42.14468988 62.6231246 45 59 C47.64744928 53.13931344 47.34949898 47.12699191 47.4140625 40.8203125 C47.43342865 39.6524118 47.4527948 38.48451111 47.4727478 37.28121948 C47.53237661 33.56255322 47.57886274 29.84385572 47.625 26.125 C47.66319509 23.59894507 47.70224771 21.07290295 47.7421875 18.546875 C47.83806468 12.36468776 47.92215784 6.18243956 48 0 C51.63 0 55.26 0 59 0 C59.07449699 7.36488669 59.12876647 14.72955102 59.16479492 22.09472656 C59.17982434 24.59704411 59.2002535 27.09933557 59.22631836 29.6015625 C59.26295878 33.21100325 59.27978546 36.82009383 59.29296875 40.4296875 C59.30845261 41.53738495 59.32393646 42.6450824 59.33988953 43.78634644 C59.34165189 52.03332752 58.6651766 60.96944232 52.875 67.375 C52.35679688 67.98085937 51.83859375 68.58671875 51.3046875 69.2109375 C44.77332655 74.28104481 38.18840592 75.68031549 30.0625 75.5 C29.18513184 75.48718994 28.30776367 75.47437988 27.40380859 75.46118164 C19.1104079 75.20138651 12.45630121 73.95624368 6.5625 67.75 C-0.64400161 58.16168853 -0.15976598 46.44814654 -0.09765625 34.9609375 C-0.0962413 33.95406891 -0.09482635 32.94720032 -0.09336853 31.90982056 C-0.08782431 28.73151527 -0.07528259 25.55328356 -0.0625 22.375 C-0.05747778 20.20442811 -0.05291614 18.0338551 -0.04882812 15.86328125 C-0.03787323 10.575493 -0.02064786 5.28775892 0 0 Z " fill="#1C6333" transform="translate(1,0)"/>
<path d="M0 0 C4.65338358 -1.06532152 8.3794294 -1.31801526 13 0 C17.27712573 3.81335675 20.03781606 9.07812518 22.85449219 14.00341797 C24.32638716 16.56888197 25.92582526 19.03708124 27.5625 21.5 C27.99691406 22.1909375 28.43132812 22.881875 28.87890625 23.59375 C29.24886719 24.0578125 29.61882812 24.521875 30 25 C30.66 25 31.32 25 32 25 C33.60085931 22.92705363 35.08920237 20.84848531 36.5625 18.6875 C37.4695367 17.40626349 38.37842103 16.12633317 39.2890625 14.84765625 C40.60159038 12.99557474 41.90489865 11.14154158 43.17089844 9.25732422 C49.12486799 0.42129589 49.12486799 0.42129589 54.0078125 -0.67578125 C56.76570494 -0.6863614 59.29155937 -0.50118808 62 0 C60.6557757 3.78052597 58.96838983 6.63373925 56.515625 9.80078125 C55.82726562 10.69603516 55.13890625 11.59128906 54.4296875 12.51367188 C53.71039063 13.43728516 52.99109375 14.36089844 52.25 15.3125 C50.83831097 17.14174907 49.42684926 18.97117359 48.015625 20.80078125 C47.33822266 21.67557129 46.66082031 22.55036133 45.96289062 23.45166016 C43.27422676 26.94224143 40.6299922 30.4650845 38 34 C39.35516991 36.84082004 40.87784562 39.42139 42.65234375 42.01953125 C43.17675049 42.78789307 43.70115723 43.55625488 44.24145508 44.34790039 C44.8011499 45.16121826 45.36084473 45.97453613 45.9375 46.8125 C46.51072998 47.64966553 47.08395996 48.48683105 47.67456055 49.34936523 C51.89831135 55.48553816 56.24523335 61.51959317 60.74780273 67.4543457 C64 71.78999936 64 71.78999936 64 74 C59.2849292 75.25014971 55.68964591 75.45015256 51 74 C46.16404352 69.63960157 42.85604503 63.77428566 39.4453125 58.28759766 C37.4963294 55.20280515 35.36622619 52.30170437 33.1875 49.375 C32.56230469 48.51648437 31.93710938 47.65796875 31.29296875 46.7734375 C30.65294922 45.89558594 30.65294922 45.89558594 30 45 C29.47792969 45.76441406 28.95585937 46.52882812 28.41796875 47.31640625 C24.03485315 53.69533631 19.57815736 60.00925262 15 66.25 C14.51942139 66.90556885 14.03884277 67.5611377 13.54370117 68.23657227 C10.1354612 72.8645388 10.1354612 72.8645388 9 74 C6.81360547 74.07258946 4.62499611 74.08373783 2.4375 74.0625 C1.23996094 74.05347656 0.04242188 74.04445313 -1.19140625 74.03515625 C-2.58166016 74.01775391 -2.58166016 74.01775391 -4 74 C0.1258959 67.6881428 4.44676745 61.55680759 8.9375 55.5 C9.51951172 54.70980469 10.10152344 53.91960938 10.70117188 53.10546875 C11.28318359 52.31785156 11.86519531 51.53023437 12.46484375 50.71875 C13.32505127 49.55279297 13.32505127 49.55279297 14.20263672 48.36328125 C15.44533205 46.72931075 16.72596525 45.12375699 18.03564453 43.54296875 C18.6851709 42.75535156 19.33469727 41.96773437 20.00390625 41.15625 C20.60146729 40.45306641 21.19902832 39.74988281 21.81469727 39.02539062 C23.19906459 37.09902441 23.19906459 37.09902441 22.85131836 34.98217773 C21.90748493 32.78459139 20.79980524 31.05110757 19.375 29.12890625 C18.83705811 28.39542969 18.29911621 27.66195313 17.74487305 26.90625 C17.16906494 26.1328125 16.59325684 25.359375 16 24.5625 C14.81812977 22.94986379 13.63714622 21.33657739 12.45703125 19.72265625 C11.87260254 18.92617676 11.28817383 18.12969727 10.68603516 17.30908203 C8.31685106 14.06440448 5.98854934 10.79325801 3.6875 7.5 C2.96949219 6.4790625 2.25148437 5.458125 1.51171875 4.40625 C0 2 0 2 0 0 Z " fill="#1C6333" transform="translate(174,0)"/>
<path d="M0 0 C3.63 0 7.26 0 11 0 C11 24.42 11 48.84 11 74 C7.37 74 3.74 74 0 74 C0 49.58 0 25.16 0 0 Z " fill="#1D6434" transform="translate(151,0)"/>
<path d="M0 0 C3.59652947 0.68869713 4.75824049 1.65682065 6.9375 4.5625 C8.11758862 7.17555338 7.99613256 8.3221065 7.3125 11.125 C5.54812966 14.25274742 4.30298401 15.29109493 0.9375 16.5625 C-2.75 15.9375 -2.75 15.9375 -6.0625 14.5625 C-8.40799674 11.04425489 -8.64241403 9.70474306 -8.0625 5.5625 C-5.57647551 2.19905511 -4.14824477 0.76192251 0 0 Z M-2.0625 2.5625 C-1.4025 3.2225 -0.7425 3.8825 -0.0625 4.5625 C0.9275 4.2325 1.9175 3.9025 2.9375 3.5625 C1.2875 3.2325 -0.3625 2.9025 -2.0625 2.5625 Z M-5.0625 4.5625 C-5.74208603 6.95969432 -5.74208603 6.95969432 -6.0625 9.5625 C-5.4025 10.2225 -4.7425 10.8825 -4.0625 11.5625 C-4.0625 9.2525 -4.0625 6.9425 -4.0625 4.5625 C-4.3925 4.5625 -4.7225 4.5625 -5.0625 4.5625 Z M2.9375 4.5625 C2.6075 6.5425 2.2775 8.5225 1.9375 10.5625 C2.9275 10.5625 3.9175 10.5625 4.9375 10.5625 C4.9375 8.9125 4.9375 7.2625 4.9375 5.5625 C4.2775 5.2325 3.6175 4.9025 2.9375 4.5625 Z M-2.0625 5.5625 C-2.0625 6.2225 -2.0625 6.8825 -2.0625 7.5625 C-1.4025 7.2325 -0.7425 6.9025 -0.0625 6.5625 C-0.7225 6.2325 -1.3825 5.9025 -2.0625 5.5625 Z M-2.0625 9.5625 C-2.3925 10.8825 -2.7225 12.2025 -3.0625 13.5625 C-1.4125 13.5625 0.2375 13.5625 1.9375 13.5625 C0.6175 12.2425 -0.7025 10.9225 -2.0625 9.5625 Z " fill="#1B6332" transform="translate(242.0625,6.4375)"/>
<path d="M0 0 C0.66 0 1.32 0 2 0 C2 0.66 2 1.32 2 2 C2.99 2 3.98 2 5 2 C5 2.66 5 3.32 5 4 C4.01 4 3.02 4 2 4 C2 5.98 2 7.96 2 10 C2.99 10 3.98 10 5 10 C5.309375 9.360625 5.61875 8.72125 5.9375 8.0625 C7 6 7 6 8 5 C7.34 5 6.68 5 6 5 C6 4.01 6 3.02 6 2 C8.875 1.8125 8.875 1.8125 12 2 C14.67927341 6.01891012 14.15601248 8.24161923 14 13 C4.75 13 4.75 13 0 12 C0 9.36 0 6.72 0 4 C-0.66 4 -1.32 4 -2 4 C-2 3.34 -2 2.68 -2 2 C-1.34 2 -0.68 2 0 2 C0 1.34 0 0.68 0 0 Z M8 8 C8 8.66 8 9.32 8 10 C8.99 10 9.98 10 11 10 C11 9.34 11 8.68 11 8 C10.01 8 9.02 8 8 8 Z " fill="#110F0D" transform="translate(185,85)"/>
<path d="M0 0 C2.375 1.5625 2.375 1.5625 4 4 C4.56645882 7.96521177 4.57590314 10.07855498 2.4375 13.5 C0 15 0 15 -3.625 14.875 C-7 14 -7 14 -9 12 C-9.30078125 9.94140625 -9.30078125 9.94140625 -9.3125 7.5625 C-9.32925781 6.78003906 -9.34601563 5.99757813 -9.36328125 5.19140625 C-8.48209723 -0.12412314 -4.80602406 -0.68657487 0 0 Z M-3 2 C-3.99 2.66 -4.98 3.32 -6 4 C-6.25015873 7.58357241 -6.25015873 7.58357241 -6 11 C-3.60280568 11.67958603 -3.60280568 11.67958603 -1 12 C-0.34 11.34 0.32 10.68 1 10 C0.67673447 6.40320934 0.67673447 6.40320934 0 3 C-0.99 2.67 -1.98 2.34 -3 2 Z " fill="#0F0D0C" transform="translate(76,83)"/>
<path d="M0 0 C0 0.99 0 1.98 0 3 C-2.31 3.66 -4.62 4.32 -7 5 C-7 6.65 -7 8.3 -7 10 C-4.525 10.99 -4.525 10.99 -2 12 C-2 11.01 -2 10.02 -2 9 C-2.66 9 -3.32 9 -4 9 C-4 8.34 -4 7.68 -4 7 C-2.35 7 -0.7 7 1 7 C1 9.31 1 11.62 1 14 C-3.03172323 14.94864076 -5.18404153 15.41665964 -8.9375 13.5 C-11 11 -11 11 -11.625 7.5 C-11 4 -11 4 -8.875 1.5625 C-5.61672415 -0.20830209 -3.65236803 -0.33975517 0 0 Z " fill="#100E0C" transform="translate(128,83)"/>
<path d="M0 0 C0.99 0 1.98 0 3 0 C3 4.95 3 9.9 3 15 C-3.0546875 15.1953125 -3.0546875 15.1953125 -5 15 C-7 13 -7 13 -7.25 9.5 C-7 6 -7 6 -5 4 C-2.375 3.875 -2.375 3.875 0 4 C0 2.68 0 1.36 0 0 Z M-3 6 C-4.29633621 7.06645115 -4.29633621 7.06645115 -4.0625 9.5625 C-4.041875 10.366875 -4.02125 11.17125 -4 12 C-2.68 11.67 -1.36 11.34 0 11 C-0.33 9.35 -0.66 7.7 -1 6 C-1.66 6 -2.32 6 -3 6 Z " fill="#100E0C" transform="translate(218,83)"/>
<path d="M0 0 C6.0546875 -0.1953125 6.0546875 -0.1953125 8 0 C10 2 10 2 10.3125 5.5 C10.1578125 7.2325 10.1578125 7.2325 10 9 C7 11 7 11 3 11 C3 12.32 3 13.64 3 15 C2.01 15 1.02 15 0 15 C0 10.05 0 5.1 0 0 Z M4 2 C2.70366379 3.06645115 2.70366379 3.06645115 2.9375 5.5625 C2.958125 6.366875 2.97875 7.17125 3 8 C4.32 8 5.64 8 7 8 C7 6.35 7 4.7 7 3 C6.01 2.67 5.02 2.34 4 2 Z " fill="#100E0C" transform="translate(81,87)"/>
<path d="M0 0 C6.0546875 -0.1953125 6.0546875 -0.1953125 8 0 C10 2 10 2 10.3125 4.9375 C10 8 10 8 8.75 9.875 C7 11 7 11 3 11 C3 12.32 3 13.64 3 15 C2.01 15 1.02 15 0 15 C0 10.05 0 5.1 0 0 Z M4 2 C2.70366379 3.06645115 2.70366379 3.06645115 2.9375 5.5625 C2.958125 6.366875 2.97875 7.17125 3 8 C4.32 8 5.64 8 7 8 C7 6.35 7 4.7 7 3 C6.01 2.67 5.02 2.34 4 2 Z " fill="#110F0C" transform="translate(159,87)"/>
<path d="M0 0 C0.99 0 1.98 0 3 0 C3 4.95 3 9.9 3 15 C-4 15 -4 15 -6 13.9375 C-7.59967215 10.83813522 -6.73342508 8.30041286 -6 5 C-5 4 -5 4 -2.4375 3.9375 C-1.2309375 3.9684375 -1.2309375 3.9684375 0 4 C0 2.68 0 1.36 0 0 Z M-3 6 C-3.33 7.65 -3.66 9.3 -4 11 C-2.68 11.33 -1.36 11.66 0 12 C0 10.35 0 8.7 0 7 C-0.99 6.67 -1.98 6.34 -3 6 Z " fill="#100E0C" transform="translate(245,83)"/>
<path d="M0 0 C0.99 0 1.98 0 3 0 C3.67467562 1.74692795 4.33944156 3.49768525 5 5.25 C5.556875 6.71179688 5.556875 6.71179688 6.125 8.203125 C7 11 7 11 7 15 C6.01 15 5.02 15 4 15 C3.67 13.35 3.34 11.7 3 10 C1.68 10 0.36 10 -1 10 C-1.33 11.65 -1.66 13.3 -2 15 C-2.99 15 -3.98 15 -5 15 C-4.37321829 11.33827525 -3.35548154 8.1181005 -1.9375 4.6875 C-1.39416016 3.36298828 -1.39416016 3.36298828 -0.83984375 2.01171875 C-0.56269531 1.34785156 -0.28554688 0.68398437 0 0 Z M0 6 C0 6.66 0 7.32 0 8 C0.66 8 1.32 8 2 8 C2 7.34 2 6.68 2 6 C1.34 6 0.68 6 0 6 Z " fill="#0F0D0C" transform="translate(44,83)"/>
<path d="M0 0 C0.94875 0.04125 1.8975 0.0825 2.875 0.125 C2.875 1.115 2.875 2.105 2.875 3.125 C1.225 3.125 -0.425 3.125 -2.125 3.125 C-0.19245228 5.1495738 1.50658688 6.54605792 3.875 8.125 C4.25 10.625 4.25 10.625 3.875 13.125 C0.64708445 15.2769437 -0.40900809 15.32586443 -4.125 15.125 C-4.455 14.135 -4.785 13.145 -5.125 12.125 C-3.145 12.125 -1.165 12.125 0.875 12.125 C0.875 11.135 0.875 10.145 0.875 9.125 C0.070625 8.898125 -0.73375 8.67125 -1.5625 8.4375 C-4.125 7.125 -4.125 7.125 -5.0625 4.625 C-5.083125 3.8 -5.10375 2.975 -5.125 2.125 C-3.125 0.125 -3.125 0.125 0 0 Z " fill="#100E0B" transform="translate(179.125,82.875)"/>
<path d="M0 0 C1.98 0 3.96 0 6 0 C8.32590854 3.63423209 8.16265833 6.77088331 8 11 C1.25 11.125 1.25 11.125 -1 10 C-1 8.35 -1 6.7 -1 5 C0.65 4.34 2.3 3.68 4 3 C2.68 3 1.36 3 0 3 C0 2.01 0 1.02 0 0 Z M2 6 C2 6.66 2 7.32 2 8 C2.99 7.67 3.98 7.34 5 7 C4.01 6.67 3.02 6.34 2 6 Z " fill="#100D0B" transform="translate(223,87)"/>
<path d="M0 0 C1.27875 -0.061875 2.5575 -0.12375 3.875 -0.1875 C4.95394531 -0.23970703 4.95394531 -0.23970703 6.0546875 -0.29296875 C6.69664062 -0.19628906 7.33859375 -0.09960938 8 0 C10.67927341 4.01891012 10.15601248 6.24161923 10 11 C9.01 11 8.02 11 7 11 C6.67 8.36 6.34 5.72 6 3 C5.01 3.495 5.01 3.495 4 4 C3.59270772 6.32156597 3.25561323 8.6568787 3 11 C2.01 11 1.02 11 0 11 C0 7.37 0 3.74 0 0 Z " fill="#100E0D" transform="translate(200,87)"/>
<path d="M0 0 C1.27875 -0.061875 2.5575 -0.12375 3.875 -0.1875 C4.95394531 -0.23970703 4.95394531 -0.23970703 6.0546875 -0.29296875 C6.69664063 -0.19628906 7.33859375 -0.09960938 8 0 C10.67927341 4.01891012 10.15601248 6.24161923 10 11 C9.01 11 8.02 11 7 11 C6.67 8.36 6.34 5.72 6 3 C5.01 3.495 5.01 3.495 4 4 C3.59270772 6.32156597 3.25561323 8.6568787 3 11 C2.01 11 1.02 11 0 11 C0 7.37 0 3.74 0 0 Z " fill="#0E0D0B" transform="translate(102,87)"/>
<path d="M0 0 C0.99 0.103125 1.98 0.20625 3 0.3125 C5 3.3125 5 3.3125 4.75 6.375 C4 9.3125 4 9.3125 2 11.3125 C-0.4375 11.6875 -0.4375 11.6875 -3 11.3125 C-4.875 9.625 -4.875 9.625 -6 7.3125 C-5.6766322 2.78535079 -4.8005013 0.50005222 0 0 Z M-1 2.3125 C-1.66 2.9725 -2.32 3.6325 -3 4.3125 C-2.6814823 6.42070797 -2.6814823 6.42070797 -2 8.3125 C-0.68 7.9825 0.64 7.6525 2 7.3125 C1.67 5.6625 1.34 4.0125 1 2.3125 C0.34 2.3125 -0.32 2.3125 -1 2.3125 Z " fill="#0F0E0C" transform="translate(142,86.6875)"/>
<path d="M0 0 C2.9375 0.1875 2.9375 0.1875 3.9375 1.1875 C3.97813832 2.85367115 3.980221 4.52138095 3.9375 6.1875 C1.9575 6.1875 -0.0225 6.1875 -2.0625 6.1875 C-2.0625 6.8475 -2.0625 7.5075 -2.0625 8.1875 C-0.0825 8.1875 1.8975 8.1875 3.9375 8.1875 C3.6075 9.1775 3.2775 10.1675 2.9375 11.1875 C-3.9375 10.3125 -3.9375 10.3125 -5.0625 9.1875 C-5.25 5.75 -5.25 5.75 -5.0625 2.1875 C-3.0625 0.1875 -3.0625 0.1875 0 0 Z M-1.0625 2.1875 C-1.3925 2.8475 -1.7225 3.5075 -2.0625 4.1875 C-1.0725 4.1875 -0.0825 4.1875 0.9375 4.1875 C0.9375 3.5275 0.9375 2.8675 0.9375 2.1875 C0.2775 2.1875 -0.3825 2.1875 -1.0625 2.1875 Z " fill="#0F0D0B" transform="translate(97.0625,86.8125)"/>
<path d="M0 0 C0.99 0 1.98 0 3 0 C3 2.64 3 5.28 3 8 C3.99 8 4.98 8 6 8 C6 5.36 6 2.72 6 0 C6.99 0 7.98 0 9 0 C9 3.63 9 7.26 9 11 C5.625 11.125 5.625 11.125 2 11 C0 9 0 9 -0.1953125 6.8359375 C-0.17210937 6.02382812 -0.14890625 5.21171875 -0.125 4.375 C-0.10695312 3.55773437 -0.08890625 2.74046875 -0.0703125 1.8984375 C-0.04710937 1.27195312 -0.02390625 0.64546875 0 0 Z " fill="#100E0C" transform="translate(148,87)"/>
<path d="M0 0 C6.15234375 -0.09765625 6.15234375 -0.09765625 8 0 C9 1 9 1 9.09765625 3.28515625 C9.08605469 4.20167969 9.07445312 5.11820312 9.0625 6.0625 C9.05347656 6.98160156 9.04445313 7.90070313 9.03515625 8.84765625 C9.02355469 9.55792969 9.01195312 10.26820312 9 11 C8.34 11 7.68 11 7 11 C6.67 8.03 6.34 5.06 6 2 C5.01 2.495 5.01 2.495 4 3 C3.53476937 4.89533342 3.53476937 4.89533342 3.375 7.0625 C3.25125 8.361875 3.1275 9.66125 3 11 C2.01 11 1.02 11 0 11 C0 7.37 0 3.74 0 0 Z " fill="#110F0D" transform="translate(52,87)"/>
<path d="M0 0 C1.98 0 3.96 0 6 0 C5.5359375 0.7734375 5.5359375 0.7734375 5.0625 1.5625 C3.70940713 4.66665423 3.38640576 7.65115007 3 11 C2.01 11 1.02 11 0 11 C0 7.37 0 3.74 0 0 Z " fill="#100E0C" transform="translate(232,87)"/>
<path d="M0 0 C1.65 0 3.3 0 5 0 C4.5359375 0.7734375 4.5359375 0.7734375 4.0625 1.5625 C2.70940713 4.66665423 2.38640576 7.65115007 2 11 C1.34 11 0.68 11 0 11 C0 7.37 0 3.74 0 0 Z " fill="#110F0D" transform="translate(131,87)"/>
</svg>
